<svg xmlns="http://www.w3.org/2000/svg" data-y-scale="log" width="1100" height="620" viewBox="0 0 1100 620">
<rect width="100%" height="100%" fill="#ffffff"/>
<text x="80" y="26" font-family="Arial, sans-serif" font-size="20" font-weight="700" fill="#111827">BTCUSDT Chronos-2 Forecast</text>
<text x="80" y="50" font-family="Arial, sans-serif" font-size="13" fill="#4b5563">Last history close: 81,745.65 | Last forecast: 70,975.70 | Y scale: log scale</text>
<line x1="80" y1="505.0" x2="1060" y2="505.0" stroke="#e5e7eb" stroke-width="1"/>
<text x="70" y="509.0" text-anchor="end" font-family="Arial, sans-serif" font-size="12" fill="#6b7280">50,754</text>
<line x1="80" y1="396.8" x2="1060" y2="396.8" stroke="#e5e7eb" stroke-width="1"/>
<text x="70" y="400.8" text-anchor="end" font-family="Arial, sans-serif" font-size="12" fill="#6b7280">63,538</text>
<line x1="80" y1="288.5" x2="1060" y2="288.5" stroke="#e5e7eb" stroke-width="1"/>
<text x="70" y="292.5" text-anchor="end" font-family="Arial, sans-serif" font-size="12" fill="#6b7280">79,542</text>
<line x1="80" y1="180.2" x2="1060" y2="180.2" stroke="#e5e7eb" stroke-width="1"/>
<text x="70" y="184.2" text-anchor="end" font-family="Arial, sans-serif" font-size="12" fill="#6b7280">99,577</text>
<line x1="80" y1="72.0" x2="1060" y2="72.0" stroke="#e5e7eb" stroke-width="1"/>
<text x="70" y="76.0" text-anchor="end" font-family="Arial, sans-serif" font-size="12" fill="#6b7280">124,659</text>
<line class="x-axis-grid" x1="80.0" y1="72" x2="80.0" y2="505" stroke="#f1f5f9" stroke-width="1"/>
<line class="x-axis-grid" x1="276.0" y1="72" x2="276.0" y2="505" stroke="#f1f5f9" stroke-width="1"/>
<line class="x-axis-grid" x1="472.0" y1="72" x2="472.0" y2="505" stroke="#f1f5f9" stroke-width="1"/>
<line class="x-axis-grid" x1="668.0" y1="72" x2="668.0" y2="505" stroke="#f1f5f9" stroke-width="1"/>
<line class="x-axis-grid" x1="864.0" y1="72" x2="864.0" y2="505" stroke="#f1f5f9" stroke-width="1"/>
<line class="x-axis-grid" x1="1060.0" y1="72" x2="1060.0" y2="505" stroke="#f1f5f9" stroke-width="1"/>
<line x1="80" y1="72" x2="80" y2="505" stroke="#9ca3af" stroke-width="1"/>
<line x1="80" y1="505" x2="1060" y2="505" stroke="#9ca3af" stroke-width="1"/>
<text class="x-axis-label" x="80.0" y="530" text-anchor="middle" font-family="Arial, sans-serif" font-size="11" fill="#6b7280">2025-05-12</text>
<text class="x-axis-label" x="276.0" y="530" text-anchor="middle" font-family="Arial, sans-serif" font-size="11" fill="#6b7280">2025-08-10</text>
<text class="x-axis-label" x="472.0" y="530" text-anchor="middle" font-family="Arial, sans-serif" font-size="11" fill="#6b7280">2025-11-09</text>
<text class="x-axis-label" x="668.0" y="530" text-anchor="middle" font-family="Arial, sans-serif" font-size="11" fill="#6b7280">2026-02-08</text>
<text class="x-axis-label" x="864.0" y="530" text-anchor="middle" font-family="Arial, sans-serif" font-size="11" fill="#6b7280">2026-05-10</text>
<text class="x-axis-label" x="1060.0" y="530" text-anchor="middle" font-family="Arial, sans-serif" font-size="11" fill="#6b7280">2026-08-09</text>
<line id="forecast-start-line" x1="867.9" y1="72" x2="867.9" y2="505" stroke="#111827" stroke-width="1.3" stroke-dasharray="5 6" opacity="0.42"/>
<text x="875.9" y="87" font-family="Arial, sans-serif" font-size="11" fill="#374151">forecast start</text>
<path id="probability-corridor" d="M 867.9 263.3 L 870.0 262.3 L 872.2 261.0 L 874.4 258.7 L 876.5 256.6 L 878.7 254.5 L 880.8 252.9 L 883.0 250.6 L 885.2 248.4 L 887.3 247.5 L 889.5 245.5 L 891.6 245.0 L 893.8 243.3 L 895.9 242.7 L 898.1 241.3 L 900.3 239.2 L 902.4 243.6 L 904.6 243.6 L 906.7 242.5 L 908.9 239.6 L 911.1 239.7 L 913.2 238.7 L 915.4 237.5 L 917.5 236.4 L 919.7 233.8 L 921.9 234.1 L 924.0 231.5 L 926.2 230.9 L 928.3 229.4 L 930.5 229.4 L 932.6 229.3 L 934.8 227.4 L 937.0 232.9 L 939.1 233.1 L 941.3 232.7 L 943.4 230.2 L 945.6 231.8 L 947.8 228.7 L 949.9 228.7 L 952.1 228.2 L 954.2 226.7 L 956.4 226.8 L 958.5 224.0 L 960.7 222.3 L 962.9 221.4 L 965.0 221.9 L 967.2 223.0 L 969.3 221.4 L 971.5 222.9 L 973.7 223.2 L 975.8 223.5 L 978.0 219.8 L 980.1 221.9 L 982.3 219.0 L 984.4 220.1 L 986.6 218.0 L 988.8 217.0 L 990.9 216.1 L 993.1 212.8 L 995.2 210.0 L 997.4 209.7 L 999.6 210.8 L 1001.7 211.3 L 1003.9 207.0 L 1006.0 198.8 L 1008.2 199.2 L 1010.4 201.2 L 1012.5 199.1 L 1014.7 199.9 L 1016.8 196.8 L 1019.0 196.9 L 1021.1 197.5 L 1023.3 197.6 L 1025.5 195.0 L 1027.6 193.5 L 1029.8 191.8 L 1031.9 191.3 L 1034.1 194.2 L 1036.3 197.6 L 1038.4 193.2 L 1040.6 190.6 L 1042.7 191.0 L 1044.9 194.0 L 1047.0 192.4 L 1049.2 192.9 L 1051.4 188.5 L 1053.5 187.4 L 1055.7 189.6 L 1057.8 189.7 L 1060.0 186.7 L 1060.0 505.0 L 1057.8 503.6 L 1055.7 502.3 L 1053.5 502.0 L 1051.4 499.4 L 1049.2 496.0 L 1047.0 493.7 L 1044.9 492.5 L 1042.7 489.0 L 1040.6 486.3 L 1038.4 482.2 L 1036.3 478.5 L 1034.1 470.6 L 1031.9 472.9 L 1029.8 469.5 L 1027.6 468.3 L 1025.5 463.1 L 1023.3 462.6 L 1021.1 460.1 L 1019.0 457.1 L 1016.8 452.0 L 1014.7 453.0 L 1012.5 447.4 L 1010.4 444.8 L 1008.2 440.3 L 1006.0 436.1 L 1003.9 443.1 L 1001.7 440.8 L 999.6 432.2 L 997.4 436.2 L 995.2 432.6 L 993.1 430.2 L 990.9 423.3 L 988.8 423.3 L 986.6 419.2 L 984.4 415.7 L 982.3 412.8 L 980.1 414.9 L 978.0 408.6 L 975.8 407.3 L 973.7 403.0 L 971.5 400.6 L 969.3 409.6 L 967.2 408.2 L 965.0 404.8 L 962.9 405.9 L 960.7 400.7 L 958.5 397.6 L 956.4 389.3 L 954.2 390.5 L 952.1 387.1 L 949.9 383.8 L 947.8 382.0 L 945.6 381.7 L 943.4 374.4 L 941.3 372.5 L 939.1 371.0 L 937.0 367.5 L 934.8 371.7 L 932.6 366.5 L 930.5 366.8 L 928.3 358.8 L 926.2 353.8 L 924.0 356.8 L 921.9 350.4 L 919.7 348.6 L 917.5 343.7 L 915.4 340.5 L 913.2 338.8 L 911.1 335.0 L 908.9 333.9 L 906.7 332.0 L 904.6 327.2 L 902.4 322.7 L 900.3 325.7 L 898.1 322.3 L 895.9 322.4 L 893.8 319.0 L 891.6 316.1 L 889.5 315.3 L 887.3 311.3 L 885.2 308.4 L 883.0 306.7 L 880.8 303.3 L 878.7 301.4 L 876.5 299.0 L 874.4 295.4 L 872.2 293.6 L 870.0 287.5 L 867.9 285.2 Z" fill="#dc2626" fill-opacity="0.13" stroke="none"/>
<path d="M 80.0 164.9 L 82.2 158.8 L 84.3 161.6 L 86.5 160.4 L 88.6 161.8 L 90.8 163.4 L 93.0 148.1 L 95.1 152.1 L 97.3 146.3 L 99.4 133.8 L 101.6 124.9 L 103.7 144.2 L 105.9 142.2 L 108.1 136.7 L 110.2 134.8 L 112.4 137.0 L 114.5 142.1 L 116.7 152.0 L 118.9 159.4 L 121.0 156.6 L 123.2 151.8 L 125.3 150.8 L 127.5 153.0 L 129.6 156.1 L 131.8 171.0 L 134.0 158.0 L 136.1 152.2 L 138.3 151.3 L 140.4 131.1 L 142.6 131.1 L 144.8 138.3 L 146.9 151.6 L 149.1 149.8 L 151.2 152.8 L 153.4 152.0 L 155.6 146.5 L 157.7 156.8 L 159.9 155.2 L 162.0 156.3 L 164.2 162.6 L 166.3 168.1 L 168.5 173.6 L 170.7 153.2 L 172.8 149.8 L 175.0 144.1 L 177.1 145.8 L 179.3 145.4 L 181.5 144.3 L 183.6 139.5 L 185.8 144.9 L 187.9 151.6 L 190.1 137.3 L 192.2 134.1 L 194.4 141.2 L 196.6 140.2 L 198.7 135.8 L 200.9 140.0 L 203.0 137.0 L 205.2 126.9 L 207.4 106.6 L 209.5 100.4 L 211.7 100.8 L 213.8 94.0 L 216.0 91.0 L 218.1 99.4 L 220.3 95.9 L 222.5 93.7 L 224.6 98.8 L 226.8 99.1 L 228.9 101.5 L 231.1 101.0 L 233.3 90.5 L 235.4 95.4 L 237.6 97.1 L 239.7 100.0 L 241.9 98.8 L 244.1 92.7 L 246.2 98.2 L 248.4 98.7 L 250.5 99.1 L 252.7 107.7 L 254.8 118.0 L 257.0 121.3 L 259.2 114.2 L 261.3 110.6 L 263.5 114.5 L 265.6 110.9 L 267.8 100.6 L 270.0 103.9 L 272.1 104.8 L 274.3 93.2 L 276.4 95.7 L 278.6 89.8 L 280.7 77.3 L 282.9 97.2 L 285.1 101.1 L 287.2 101.0 L 289.4 100.9 L 291.5 105.7 L 293.7 119.9 L 295.9 113.9 L 298.0 121.5 L 300.2 102.8 L 302.3 109.0 L 304.5 117.2 L 306.7 131.8 L 308.8 124.6 L 311.0 126.8 L 313.1 121.2 L 315.3 139.4 L 317.4 137.5 L 319.6 140.0 L 321.8 135.6 L 323.9 126.9 L 326.1 124.9 L 328.2 129.1 L 330.4 129.4 L 332.6 131.5 L 334.7 127.3 L 336.9 123.3 L 339.0 125.6 L 341.2 115.2 L 343.3 108.8 L 345.5 106.6 L 347.7 107.0 L 349.8 109.7 L 352.0 109.4 L 354.1 103.4 L 356.3 104.8 L 358.5 102.2 L 360.6 108.2 L 362.8 108.0 L 364.9 109.9 L 367.1 120.8 L 369.3 123.6 L 371.4 118.0 L 373.6 136.7 L 375.7 133.8 L 377.9 133.9 L 380.0 122.9 L 382.2 113.8 L 384.4 114.9 L 386.5 96.0 L 388.7 88.2 L 390.8 81.5 L 393.0 80.8 L 395.2 76.6 L 397.3 72.0 L 399.5 85.0 L 401.6 77.3 L 403.8 83.7 L 405.9 120.3 L 408.1 129.5 L 410.3 111.0 L 412.4 110.2 L 414.6 119.2 L 416.7 128.9 L 418.9 140.3 L 421.1 148.2 L 423.2 144.8 L 425.4 138.3 L 427.5 130.0 L 429.7 139.8 L 431.9 143.1 L 434.0 131.9 L 436.2 127.9 L 438.3 125.1 L 440.5 112.7 L 442.6 114.6 L 444.8 119.7 L 447.0 132.2 L 449.1 139.7 L 451.3 134.0 L 453.4 131.9 L 455.6 129.9 L 457.8 147.5 L 459.9 171.0 L 462.1 159.8 L 464.2 171.8 L 466.4 162.4 L 468.5 167.2 L 470.7 156.0 L 472.9 150.1 L 475.0 163.7 L 477.2 170.3 L 479.3 179.7 L 481.5 205.0 L 483.7 199.9 L 485.8 206.7 L 488.0 217.3 L 490.1 213.4 L 492.3 220.7 L 494.4 247.3 L 496.6 255.8 L 498.8 258.0 L 500.9 246.3 L 503.1 238.2 L 505.2 243.3 L 507.4 226.4 L 509.6 221.9 L 511.7 224.2 L 513.9 224.7 L 516.0 227.1 L 518.2 249.3 L 520.4 222.2 L 522.5 211.0 L 524.7 218.0 L 526.8 232.6 L 529.0 233.1 L 531.1 226.9 L 533.3 225.6 L 535.5 214.8 L 537.6 218.3 L 539.8 215.7 L 541.9 227.5 L 544.1 227.7 L 546.3 238.9 L 548.4 248.5 L 550.6 240.6 L 552.7 249.5 L 554.9 253.6 L 557.0 239.1 L 559.2 237.8 L 561.4 236.2 L 563.5 236.4 L 565.7 242.6 L 567.8 241.6 L 570.0 244.1 L 572.2 243.3 L 574.3 240.5 L 576.5 240.1 L 578.6 244.0 L 580.8 237.2 L 583.0 241.7 L 585.1 235.2 L 587.3 229.0 L 589.4 225.6 L 591.6 220.9 L 593.7 208.7 L 595.9 209.3 L 598.1 221.7 L 600.2 223.1 L 602.4 225.6 L 604.5 226.3 L 606.7 223.6 L 608.9 222.1 L 611.0 200.8 L 613.2 193.1 L 615.3 199.9 L 617.5 200.1 L 619.6 202.2 L 621.8 209.7 L 624.0 215.1 L 626.1 237.5 L 628.3 231.9 L 630.4 231.3 L 632.6 231.1 L 634.8 233.1 L 636.9 247.1 L 639.1 237.9 L 641.2 233.0 L 643.4 232.7 L 645.6 258.5 L 647.7 260.7 L 649.9 293.4 L 652.0 304.3 L 654.2 293.4 L 656.3 311.9 L 658.5 328.8 L 660.7 401.5 L 662.8 346.1 L 665.0 355.0 L 667.1 347.8 L 669.3 349.1 L 671.5 358.1 L 673.6 370.6 L 675.8 376.4 L 677.9 358.0 L 680.1 351.3 L 682.2 358.2 L 684.4 357.8 L 686.6 367.6 L 688.7 375.1 L 690.9 371.2 L 693.0 363.9 L 695.2 364.2 L 697.4 366.6 L 699.5 388.3 L 701.7 392.8 L 703.8 364.1 L 706.0 367.7 L 708.1 379.4 L 710.3 371.4 L 712.5 380.1 L 714.6 358.2 L 716.8 361.7 L 718.9 332.1 L 721.1 344.0 L 723.3 363.2 L 725.4 369.3 L 727.6 378.6 L 729.7 361.0 L 731.9 350.4 L 734.1 348.8 L 736.2 346.4 L 738.4 343.7 L 740.5 341.8 L 742.7 331.1 L 744.8 317.6 L 747.0 323.9 L 749.2 341.6 L 751.3 350.6 L 753.5 346.6 L 755.6 357.6 L 757.8 365.0 L 760.0 343.9 L 762.1 346.3 L 764.3 341.0 L 766.4 358.3 L 768.6 375.5 L 770.7 375.7 L 772.9 378.3 L 775.1 372.6 L 777.2 362.0 L 779.4 363.2 L 781.5 371.9 L 783.7 371.4 L 785.9 369.0 L 788.0 356.8 L 790.2 358.0 L 792.3 337.0 L 794.5 342.8 L 796.7 337.9 L 798.8 330.1 L 801.0 329.6 L 803.1 345.0 L 805.3 320.6 L 807.4 322.4 L 809.6 318.1 L 811.8 315.8 L 813.9 303.7 L 816.1 312.4 L 818.2 324.6 L 820.4 311.5 L 822.6 308.3 L 824.7 296.8 L 826.9 296.3 L 829.0 301.4 L 831.2 300.3 L 833.3 293.9 L 835.5 301.8 L 837.7 308.3 L 839.8 311.8 L 842.0 308.3 L 844.1 296.5 L 846.3 293.7 L 848.5 294.4 L 850.6 286.6 L 852.8 280.3 L 854.9 277.1 L 857.1 285.7 L 859.3 284.6 L 861.4 281.7 L 863.6 272.6 L 865.7 275.3" fill="none" stroke="#2563eb" stroke-width="2.2"/>
<path d="M 867.9 273.5 L 870.0 274.6 L 872.2 276.0 L 874.4 277.4 L 876.5 277.5 L 878.7 277.5 L 880.8 277.6 L 883.0 277.9 L 885.2 277.4 L 887.3 278.2 L 889.5 279.1 L 891.6 279.1 L 893.8 280.8 L 895.9 279.9 L 898.1 279.6 L 900.3 281.6 L 902.4 282.0 L 904.6 284.2 L 906.7 285.4 L 908.9 286.0 L 911.1 286.1 L 913.2 287.7 L 915.4 287.7 L 917.5 288.2 L 919.7 287.8 L 921.9 288.5 L 924.0 289.0 L 926.2 289.3 L 928.3 291.2 L 930.5 290.9 L 932.6 291.4 L 934.8 293.7 L 937.0 294.2 L 939.1 296.4 L 941.3 297.4 L 943.4 298.1 L 945.6 297.8 L 947.8 299.2 L 949.9 299.1 L 952.1 300.6 L 954.2 300.4 L 956.4 300.9 L 958.5 301.8 L 960.7 302.9 L 962.9 304.7 L 965.0 305.5 L 967.2 305.9 L 969.3 305.5 L 971.5 306.9 L 973.7 308.0 L 975.8 308.7 L 978.0 309.7 L 980.1 311.3 L 982.3 311.1 L 984.4 311.8 L 986.6 312.1 L 988.8 312.8 L 990.9 313.1 L 993.1 314.1 L 995.2 314.2 L 997.4 315.9 L 999.6 318.0 L 1001.7 317.1 L 1003.9 314.3 L 1006.0 317.8 L 1008.2 318.6 L 1010.4 319.7 L 1012.5 322.6 L 1014.7 324.4 L 1016.8 324.9 L 1019.0 327.1 L 1021.1 326.4 L 1023.3 327.2 L 1025.5 327.8 L 1027.6 329.0 L 1029.8 329.9 L 1031.9 333.2 L 1034.1 335.1 L 1036.3 335.7 L 1038.4 334.3 L 1040.6 334.1 L 1042.7 335.9 L 1044.9 336.3 L 1047.0 340.3 L 1049.2 340.6 L 1051.4 342.2 L 1053.5 343.3 L 1055.7 341.4 L 1057.8 342.5 L 1060.0 343.4" fill="none" stroke="#dc2626" stroke-width="2.4" stroke-dasharray="8 5"/>
<circle cx="88" cy="586" r="5" fill="#2563eb"/><text x="100" y="590" font-family="Arial, sans-serif" font-size="13" fill="#374151">history</text>
<circle cx="178" cy="586" r="5" fill="#dc2626"/><text x="190" y="590" font-family="Arial, sans-serif" font-size="13" fill="#374151">forecast</text>
<rect x="265" y="581" width="22" height="10" rx="2" fill="#dc2626" fill-opacity="0.18"/><text x="296" y="590" font-family="Arial, sans-serif" font-size="13" fill="#374151">10-90% probability corridor</text>
</svg>
