<svg xmlns="http://www.w3.org/2000/svg" data-y-scale="linear" width="1100" height="620" viewBox="0 0 1100 620">
<rect width="100%" height="100%" fill="#ffffff"/>
<text x="80" y="26" font-family="Arial, sans-serif" font-size="20" font-weight="700" fill="#111827">BTCUSDT Chronos-2 Forecast</text>
<text x="80" y="50" font-family="Arial, sans-serif" font-size="13" fill="#4b5563">Last history close: 81,745.65 | Last forecast: 72,265.72</text>
<line x1="80" y1="505.0" x2="1060" y2="505.0" stroke="#e5e7eb" stroke-width="1"/>
<text x="70" y="509.0" text-anchor="end" font-family="Arial, sans-serif" font-size="12" fill="#6b7280">50,955</text>
<line x1="80" y1="396.8" x2="1060" y2="396.8" stroke="#e5e7eb" stroke-width="1"/>
<text x="70" y="400.8" text-anchor="end" font-family="Arial, sans-serif" font-size="12" fill="#6b7280">69,381</text>
<line x1="80" y1="288.5" x2="1060" y2="288.5" stroke="#e5e7eb" stroke-width="1"/>
<text x="70" y="292.5" text-anchor="end" font-family="Arial, sans-serif" font-size="12" fill="#6b7280">87,807</text>
<line x1="80" y1="180.2" x2="1060" y2="180.2" stroke="#e5e7eb" stroke-width="1"/>
<text x="70" y="184.2" text-anchor="end" font-family="Arial, sans-serif" font-size="12" fill="#6b7280">106,233</text>
<line x1="80" y1="72.0" x2="1060" y2="72.0" stroke="#e5e7eb" stroke-width="1"/>
<text x="70" y="76.0" text-anchor="end" font-family="Arial, sans-serif" font-size="12" fill="#6b7280">124,659</text>
<line class="x-axis-grid" x1="80.0" y1="72" x2="80.0" y2="505" stroke="#f1f5f9" stroke-width="1"/>
<line class="x-axis-grid" x1="276.0" y1="72" x2="276.0" y2="505" stroke="#f1f5f9" stroke-width="1"/>
<line class="x-axis-grid" x1="472.0" y1="72" x2="472.0" y2="505" stroke="#f1f5f9" stroke-width="1"/>
<line class="x-axis-grid" x1="668.0" y1="72" x2="668.0" y2="505" stroke="#f1f5f9" stroke-width="1"/>
<line class="x-axis-grid" x1="864.0" y1="72" x2="864.0" y2="505" stroke="#f1f5f9" stroke-width="1"/>
<line class="x-axis-grid" x1="1060.0" y1="72" x2="1060.0" y2="505" stroke="#f1f5f9" stroke-width="1"/>
<line x1="80" y1="72" x2="80" y2="505" stroke="#9ca3af" stroke-width="1"/>
<line x1="80" y1="505" x2="1060" y2="505" stroke="#9ca3af" stroke-width="1"/>
<text class="x-axis-label" x="80.0" y="530" text-anchor="middle" font-family="Arial, sans-serif" font-size="11" fill="#6b7280">2025-05-12</text>
<text class="x-axis-label" x="276.0" y="530" text-anchor="middle" font-family="Arial, sans-serif" font-size="11" fill="#6b7280">2025-08-10</text>
<text class="x-axis-label" x="472.0" y="530" text-anchor="middle" font-family="Arial, sans-serif" font-size="11" fill="#6b7280">2025-11-09</text>
<text class="x-axis-label" x="668.0" y="530" text-anchor="middle" font-family="Arial, sans-serif" font-size="11" fill="#6b7280">2026-02-08</text>
<text class="x-axis-label" x="864.0" y="530" text-anchor="middle" font-family="Arial, sans-serif" font-size="11" fill="#6b7280">2026-05-10</text>
<text class="x-axis-label" x="1060.0" y="530" text-anchor="middle" font-family="Arial, sans-serif" font-size="11" fill="#6b7280">2026-08-09</text>
<line id="forecast-start-line" x1="867.9" y1="72" x2="867.9" y2="505" stroke="#111827" stroke-width="1.3" stroke-dasharray="5 6" opacity="0.42"/>
<text x="875.9" y="87" font-family="Arial, sans-serif" font-size="11" fill="#374151">forecast start</text>
<path id="probability-corridor" d="M 867.9 311.0 L 870.0 310.2 L 872.2 308.8 L 874.4 306.5 L 876.5 304.1 L 878.7 302.0 L 880.8 300.2 L 883.0 297.7 L 885.2 295.3 L 887.3 294.5 L 889.5 292.3 L 891.6 291.7 L 893.8 289.9 L 895.9 289.3 L 898.1 287.8 L 900.3 285.4 L 902.4 289.0 L 904.6 288.8 L 906.7 287.3 L 908.9 284.2 L 911.1 284.5 L 913.2 283.1 L 915.4 281.8 L 917.5 280.5 L 919.7 277.8 L 921.9 277.8 L 924.0 274.9 L 926.2 274.2 L 928.3 272.5 L 930.5 272.8 L 932.6 272.7 L 934.8 270.6 L 937.0 275.2 L 939.1 275.6 L 941.3 274.7 L 943.4 272.2 L 945.6 273.5 L 947.8 270.2 L 949.9 270.0 L 952.1 269.3 L 954.2 267.7 L 956.4 267.4 L 958.5 264.2 L 960.7 262.4 L 962.9 261.1 L 965.0 261.9 L 967.2 263.1 L 969.3 261.4 L 971.5 261.9 L 973.7 262.7 L 975.8 262.7 L 978.0 258.7 L 980.1 261.0 L 982.3 257.6 L 984.4 258.1 L 986.6 256.1 L 988.8 255.2 L 990.9 253.7 L 993.1 249.9 L 995.2 246.8 L 997.4 246.0 L 999.6 247.4 L 1001.7 248.1 L 1003.9 243.1 L 1006.0 232.4 L 1008.2 232.6 L 1010.4 234.8 L 1012.5 232.0 L 1014.7 232.0 L 1016.8 228.1 L 1019.0 227.7 L 1021.1 229.0 L 1023.3 228.6 L 1025.5 225.2 L 1027.6 223.5 L 1029.8 221.1 L 1031.9 220.1 L 1034.1 224.0 L 1036.3 228.0 L 1038.4 222.3 L 1040.6 220.5 L 1042.7 219.1 L 1044.9 222.9 L 1047.0 221.2 L 1049.2 220.3 L 1051.4 215.0 L 1053.5 213.5 L 1055.7 217.0 L 1057.8 216.9 L 1060.0 212.9 L 1060.0 505.0 L 1057.8 504.6 L 1055.7 503.5 L 1053.5 503.6 L 1051.4 500.9 L 1049.2 499.8 L 1047.0 497.6 L 1044.9 497.3 L 1042.7 494.9 L 1040.6 492.8 L 1038.4 490.7 L 1036.3 488.9 L 1034.1 483.0 L 1031.9 485.4 L 1029.8 483.2 L 1027.6 482.3 L 1025.5 478.8 L 1023.3 479.0 L 1021.1 477.4 L 1019.0 475.5 L 1016.8 470.9 L 1014.7 472.3 L 1012.5 467.8 L 1010.4 466.4 L 1008.2 463.4 L 1006.0 460.6 L 1003.9 464.5 L 1001.7 462.8 L 999.6 456.6 L 997.4 459.6 L 995.2 456.9 L 993.1 455.4 L 990.9 450.2 L 988.8 450.8 L 986.6 448.1 L 984.4 445.7 L 982.3 443.1 L 980.1 444.3 L 978.0 439.8 L 975.8 439.3 L 973.7 435.9 L 971.5 434.2 L 969.3 438.9 L 967.2 437.2 L 965.0 435.0 L 962.9 435.3 L 960.7 431.5 L 958.5 429.7 L 956.4 422.7 L 954.2 424.0 L 952.1 421.6 L 949.9 419.3 L 947.8 417.3 L 945.6 417.2 L 943.4 412.1 L 941.3 410.2 L 939.1 409.1 L 937.0 406.5 L 934.8 410.0 L 932.6 405.3 L 930.5 406.1 L 928.3 399.1 L 926.2 395.9 L 924.0 398.5 L 921.9 393.1 L 919.7 391.4 L 917.5 387.6 L 915.4 384.7 L 913.2 383.3 L 911.1 379.8 L 908.9 379.0 L 906.7 377.2 L 904.6 372.8 L 902.4 368.9 L 900.3 371.7 L 898.1 368.6 L 895.9 368.3 L 893.8 365.4 L 891.6 362.8 L 889.5 361.9 L 887.3 358.4 L 885.2 355.3 L 883.0 354.3 L 880.8 351.0 L 878.7 349.3 L 876.5 346.9 L 874.4 343.5 L 872.2 341.9 L 870.0 335.9 L 867.9 333.5 Z" fill="#dc2626" fill-opacity="0.13" stroke="none"/>
<path d="M 80.0 200.5 L 82.2 192.8 L 84.3 196.3 L 86.5 194.8 L 88.6 196.5 L 90.8 198.5 L 93.0 178.9 L 95.1 184.1 L 97.3 176.6 L 99.4 160.2 L 101.6 148.2 L 103.7 173.9 L 105.9 171.3 L 108.1 164.0 L 110.2 161.4 L 112.4 164.4 L 114.5 171.1 L 116.7 184.0 L 118.9 193.5 L 121.0 189.9 L 123.2 183.7 L 125.3 182.5 L 127.5 185.3 L 129.6 189.3 L 131.8 208.0 L 134.0 191.7 L 136.1 184.2 L 138.3 183.2 L 140.4 156.6 L 142.6 156.5 L 144.8 166.1 L 146.9 183.5 L 149.1 181.2 L 151.2 185.1 L 153.4 184.0 L 155.6 176.9 L 157.7 190.1 L 159.9 188.2 L 162.0 189.5 L 164.2 197.5 L 166.3 204.4 L 168.5 211.2 L 170.7 185.5 L 172.8 181.1 L 175.0 173.7 L 177.1 176.1 L 179.3 175.5 L 181.5 174.0 L 183.6 167.8 L 185.8 174.9 L 187.9 183.5 L 190.1 164.9 L 192.2 160.6 L 194.4 170.0 L 196.6 168.7 L 198.7 162.8 L 200.9 168.3 L 203.0 164.4 L 205.2 150.9 L 207.4 122.8 L 209.5 113.9 L 211.7 114.5 L 213.8 104.7 L 216.0 100.3 L 218.1 112.5 L 220.3 107.4 L 222.5 104.2 L 224.6 111.6 L 226.8 112.1 L 228.9 115.4 L 231.1 114.8 L 233.3 99.6 L 235.4 106.7 L 237.6 109.1 L 239.7 113.4 L 241.9 111.6 L 244.1 102.8 L 246.2 110.8 L 248.4 111.4 L 250.5 112.1 L 252.7 124.3 L 254.8 138.7 L 257.0 143.2 L 259.2 133.4 L 261.3 128.4 L 263.5 133.9 L 265.6 128.8 L 267.8 114.2 L 270.0 118.9 L 272.1 120.2 L 274.3 103.5 L 276.4 107.1 L 278.6 98.6 L 280.7 79.9 L 282.9 109.4 L 285.1 115.0 L 287.2 114.8 L 289.4 114.6 L 291.5 121.5 L 293.7 141.2 L 295.9 133.0 L 298.0 143.4 L 300.2 117.4 L 302.3 126.2 L 304.5 137.6 L 306.7 157.5 L 308.8 147.8 L 311.0 150.7 L 313.1 143.0 L 315.3 167.6 L 317.4 165.1 L 319.6 168.4 L 321.8 162.6 L 323.9 150.8 L 326.1 148.1 L 328.2 153.8 L 330.4 154.2 L 332.6 157.0 L 334.7 151.4 L 336.9 146.0 L 339.0 149.0 L 341.2 134.9 L 343.3 125.9 L 345.5 122.7 L 347.7 123.3 L 349.8 127.2 L 352.0 126.7 L 354.1 118.2 L 356.3 120.2 L 358.5 116.6 L 360.6 125.0 L 362.8 124.7 L 364.9 127.4 L 367.1 142.5 L 369.3 146.4 L 371.4 138.7 L 373.6 164.0 L 375.7 160.2 L 377.9 160.3 L 380.0 145.4 L 382.2 132.8 L 384.4 134.3 L 386.5 107.6 L 388.7 96.3 L 390.8 86.3 L 393.0 85.3 L 395.2 78.9 L 397.3 72.0 L 399.5 91.5 L 401.6 79.9 L 403.8 89.6 L 405.9 141.8 L 408.1 154.3 L 410.3 129.0 L 412.4 127.8 L 414.6 140.3 L 416.7 153.6 L 418.9 168.7 L 421.1 179.1 L 423.2 174.7 L 425.4 166.1 L 427.5 155.0 L 429.7 168.1 L 431.9 172.4 L 434.0 157.7 L 436.2 152.2 L 438.3 148.4 L 440.5 131.3 L 442.6 134.0 L 444.8 141.1 L 447.0 158.0 L 449.1 168.0 L 451.3 160.4 L 453.4 157.5 L 455.6 154.9 L 457.8 178.2 L 459.9 208.1 L 462.1 194.0 L 464.2 209.0 L 466.4 197.2 L 468.5 203.3 L 470.7 189.1 L 472.9 181.6 L 475.0 198.9 L 477.2 207.1 L 479.3 218.7 L 481.5 248.6 L 483.7 242.7 L 485.8 250.6 L 488.0 262.6 L 490.1 258.2 L 492.3 266.5 L 494.4 295.4 L 496.6 304.2 L 498.8 306.5 L 500.9 294.2 L 503.1 285.6 L 505.2 291.1 L 507.4 272.8 L 509.6 267.8 L 511.7 270.4 L 513.9 270.9 L 516.0 273.5 L 518.2 297.4 L 520.4 268.1 L 522.5 255.5 L 524.7 263.4 L 526.8 279.6 L 529.0 280.1 L 531.1 273.3 L 533.3 271.9 L 535.5 259.9 L 537.6 263.8 L 539.8 260.8 L 541.9 274.0 L 544.1 274.2 L 546.3 286.4 L 548.4 296.6 L 550.6 288.2 L 552.7 297.7 L 554.9 302.0 L 557.0 286.6 L 559.2 285.2 L 561.4 283.5 L 563.5 283.7 L 565.7 290.4 L 567.8 289.3 L 570.0 291.9 L 572.2 291.1 L 574.3 288.1 L 576.5 287.6 L 578.6 291.8 L 580.8 284.5 L 583.0 289.4 L 585.1 282.4 L 587.3 275.6 L 589.4 271.9 L 591.6 266.6 L 593.7 252.9 L 595.9 253.6 L 598.1 267.6 L 600.2 269.2 L 602.4 271.8 L 604.5 272.7 L 606.7 269.7 L 608.9 268.0 L 611.0 243.8 L 613.2 234.8 L 615.3 242.7 L 617.5 243.0 L 619.6 245.4 L 621.8 254.0 L 624.0 260.2 L 626.1 284.9 L 628.3 278.8 L 630.4 278.2 L 632.6 278.0 L 634.8 280.2 L 636.9 295.2 L 639.1 285.3 L 641.2 280.0 L 643.4 279.7 L 645.6 307.0 L 647.7 309.3 L 649.9 341.8 L 652.0 352.2 L 654.2 341.8 L 656.3 359.2 L 658.5 374.5 L 660.7 434.8 L 662.8 389.7 L 665.0 397.3 L 667.1 391.2 L 669.3 392.3 L 671.5 399.9 L 673.6 410.3 L 675.8 415.0 L 677.9 399.8 L 680.1 394.2 L 682.2 400.0 L 684.4 399.6 L 686.6 407.8 L 688.7 413.9 L 690.9 410.7 L 693.0 404.7 L 695.2 405.0 L 697.4 407.0 L 699.5 424.5 L 701.7 428.0 L 703.8 404.9 L 706.0 407.9 L 708.1 417.4 L 710.3 410.9 L 712.5 417.9 L 714.6 400.0 L 716.8 402.9 L 718.9 377.4 L 721.1 387.9 L 723.3 404.2 L 725.4 409.2 L 727.6 416.8 L 729.7 402.3 L 731.9 393.4 L 734.1 392.0 L 736.2 389.9 L 738.4 387.6 L 740.5 386.0 L 742.7 376.6 L 744.8 364.4 L 747.0 370.1 L 749.2 385.8 L 751.3 393.5 L 753.5 390.1 L 755.6 399.5 L 757.8 405.7 L 760.0 387.8 L 762.1 389.8 L 764.3 385.3 L 766.4 400.0 L 768.6 414.2 L 770.7 414.4 L 772.9 416.5 L 775.1 411.9 L 777.2 403.2 L 779.4 404.2 L 781.5 411.3 L 783.7 410.9 L 785.9 409.0 L 788.0 398.8 L 790.2 399.8 L 792.3 381.8 L 794.5 386.8 L 796.7 382.6 L 798.8 375.7 L 801.0 375.2 L 803.1 388.8 L 805.3 367.2 L 807.4 368.8 L 809.6 364.9 L 811.8 362.8 L 813.9 351.6 L 816.1 359.7 L 818.2 370.8 L 820.4 358.8 L 822.6 355.9 L 824.7 345.1 L 826.9 344.6 L 829.0 349.4 L 831.2 348.3 L 833.3 342.3 L 835.5 349.8 L 837.7 355.8 L 839.8 359.2 L 842.0 355.8 L 844.1 344.8 L 846.3 342.1 L 848.5 342.8 L 850.6 335.2 L 852.8 329.0 L 854.9 325.9 L 857.1 334.3 L 859.3 333.2 L 861.4 330.4 L 863.6 321.4 L 865.7 324.1" fill="none" stroke="#2563eb" stroke-width="2.2"/>
<path d="M 867.9 321.8 L 870.0 322.9 L 872.2 324.3 L 874.4 325.6 L 876.5 325.7 L 878.7 325.6 L 880.8 325.8 L 883.0 326.0 L 885.2 325.3 L 887.3 326.2 L 889.5 327.0 L 891.6 327.1 L 893.8 328.9 L 895.9 327.9 L 898.1 327.4 L 900.3 329.7 L 902.4 329.9 L 904.6 332.0 L 906.7 333.0 L 908.9 333.5 L 911.1 333.5 L 913.2 335.2 L 915.4 335.1 L 917.5 335.7 L 919.7 335.0 L 921.9 335.8 L 924.0 336.2 L 926.2 336.5 L 928.3 338.3 L 930.5 337.9 L 932.6 338.0 L 934.8 340.6 L 937.0 340.4 L 939.1 342.5 L 941.3 343.2 L 943.4 343.8 L 945.6 343.3 L 947.8 345.0 L 949.9 344.7 L 952.1 345.9 L 954.2 345.4 L 956.4 346.1 L 958.5 346.7 L 960.7 347.9 L 962.9 349.6 L 965.0 349.7 L 967.2 350.2 L 969.3 350.3 L 971.5 351.8 L 973.7 353.0 L 975.8 353.4 L 978.0 354.3 L 980.1 355.4 L 982.3 355.6 L 984.4 355.9 L 986.6 356.3 L 988.8 356.6 L 990.9 356.7 L 993.1 357.7 L 995.2 357.9 L 997.4 359.4 L 999.6 361.0 L 1001.7 360.5 L 1003.9 358.1 L 1006.0 361.6 L 1008.2 362.0 L 1010.4 362.8 L 1012.5 365.0 L 1014.7 366.5 L 1016.8 366.6 L 1019.0 368.5 L 1021.1 368.0 L 1023.3 368.4 L 1025.5 368.7 L 1027.6 369.6 L 1029.8 370.5 L 1031.9 373.5 L 1034.1 375.0 L 1036.3 375.4 L 1038.4 373.6 L 1040.6 373.3 L 1042.7 373.9 L 1044.9 374.0 L 1047.0 377.4 L 1049.2 378.0 L 1051.4 379.0 L 1053.5 380.0 L 1055.7 378.6 L 1057.8 379.3 L 1060.0 379.8" fill="none" stroke="#dc2626" stroke-width="2.4" stroke-dasharray="8 5"/>
<circle cx="88" cy="586" r="5" fill="#2563eb"/><text x="100" y="590" font-family="Arial, sans-serif" font-size="13" fill="#374151">history</text>
<circle cx="178" cy="586" r="5" fill="#dc2626"/><text x="190" y="590" font-family="Arial, sans-serif" font-size="13" fill="#374151">forecast</text>
<rect x="265" y="581" width="22" height="10" rx="2" fill="#dc2626" fill-opacity="0.18"/><text x="296" y="590" font-family="Arial, sans-serif" font-size="13" fill="#374151">10-90% probability corridor</text>
</svg>
