<svg xmlns="http://www.w3.org/2000/svg" data-y-scale="linear" width="1100" height="620" viewBox="0 0 1100 620">
<rect width="100%" height="100%" fill="#ffffff"/>
<text x="80" y="26" font-family="Arial, sans-serif" font-size="20" font-weight="700" fill="#111827">BTCUSDT Chronos-2 Forecast</text>
<text x="80" y="50" font-family="Arial, sans-serif" font-size="13" fill="#4b5563">Last history close: 81,745.65 | Last forecast: 70,975.70</text>
<line x1="80" y1="505.0" x2="1060" y2="505.0" stroke="#e5e7eb" stroke-width="1"/>
<text x="70" y="509.0" text-anchor="end" font-family="Arial, sans-serif" font-size="12" fill="#6b7280">50,754</text>
<line x1="80" y1="396.8" x2="1060" y2="396.8" stroke="#e5e7eb" stroke-width="1"/>
<text x="70" y="400.8" text-anchor="end" font-family="Arial, sans-serif" font-size="12" fill="#6b7280">69,230</text>
<line x1="80" y1="288.5" x2="1060" y2="288.5" stroke="#e5e7eb" stroke-width="1"/>
<text x="70" y="292.5" text-anchor="end" font-family="Arial, sans-serif" font-size="12" fill="#6b7280">87,706</text>
<line x1="80" y1="180.2" x2="1060" y2="180.2" stroke="#e5e7eb" stroke-width="1"/>
<text x="70" y="184.2" text-anchor="end" font-family="Arial, sans-serif" font-size="12" fill="#6b7280">106,182</text>
<line x1="80" y1="72.0" x2="1060" y2="72.0" stroke="#e5e7eb" stroke-width="1"/>
<text x="70" y="76.0" text-anchor="end" font-family="Arial, sans-serif" font-size="12" fill="#6b7280">124,659</text>
<line class="x-axis-grid" x1="80.0" y1="72" x2="80.0" y2="505" stroke="#f1f5f9" stroke-width="1"/>
<line class="x-axis-grid" x1="276.0" y1="72" x2="276.0" y2="505" stroke="#f1f5f9" stroke-width="1"/>
<line class="x-axis-grid" x1="472.0" y1="72" x2="472.0" y2="505" stroke="#f1f5f9" stroke-width="1"/>
<line class="x-axis-grid" x1="668.0" y1="72" x2="668.0" y2="505" stroke="#f1f5f9" stroke-width="1"/>
<line class="x-axis-grid" x1="864.0" y1="72" x2="864.0" y2="505" stroke="#f1f5f9" stroke-width="1"/>
<line class="x-axis-grid" x1="1060.0" y1="72" x2="1060.0" y2="505" stroke="#f1f5f9" stroke-width="1"/>
<line x1="80" y1="72" x2="80" y2="505" stroke="#9ca3af" stroke-width="1"/>
<line x1="80" y1="505" x2="1060" y2="505" stroke="#9ca3af" stroke-width="1"/>
<text class="x-axis-label" x="80.0" y="530" text-anchor="middle" font-family="Arial, sans-serif" font-size="11" fill="#6b7280">2025-05-12</text>
<text class="x-axis-label" x="276.0" y="530" text-anchor="middle" font-family="Arial, sans-serif" font-size="11" fill="#6b7280">2025-08-10</text>
<text class="x-axis-label" x="472.0" y="530" text-anchor="middle" font-family="Arial, sans-serif" font-size="11" fill="#6b7280">2025-11-09</text>
<text class="x-axis-label" x="668.0" y="530" text-anchor="middle" font-family="Arial, sans-serif" font-size="11" fill="#6b7280">2026-02-08</text>
<text class="x-axis-label" x="864.0" y="530" text-anchor="middle" font-family="Arial, sans-serif" font-size="11" fill="#6b7280">2026-05-10</text>
<text class="x-axis-label" x="1060.0" y="530" text-anchor="middle" font-family="Arial, sans-serif" font-size="11" fill="#6b7280">2026-08-09</text>
<line id="forecast-start-line" x1="867.9" y1="72" x2="867.9" y2="505" stroke="#111827" stroke-width="1.3" stroke-dasharray="5 6" opacity="0.42"/>
<text x="875.9" y="87" font-family="Arial, sans-serif" font-size="11" fill="#374151">forecast start</text>
<path id="probability-corridor" d="M 867.9 311.3 L 870.0 310.3 L 872.2 308.9 L 874.4 306.6 L 876.5 304.4 L 878.7 302.3 L 880.8 300.6 L 883.0 298.2 L 885.2 295.9 L 887.3 295.0 L 889.5 292.8 L 891.6 292.3 L 893.8 290.5 L 895.9 289.9 L 898.1 288.4 L 900.3 286.1 L 902.4 290.9 L 904.6 290.8 L 906.7 289.6 L 908.9 286.6 L 911.1 286.7 L 913.2 285.6 L 915.4 284.3 L 917.5 283.1 L 919.7 280.3 L 921.9 280.6 L 924.0 277.8 L 926.2 277.2 L 928.3 275.5 L 930.5 275.5 L 932.6 275.5 L 934.8 273.3 L 937.0 279.4 L 939.1 279.5 L 941.3 279.1 L 943.4 276.4 L 945.6 278.1 L 947.8 274.7 L 949.9 274.8 L 952.1 274.2 L 954.2 272.5 L 956.4 272.6 L 958.5 269.6 L 960.7 267.7 L 962.9 266.7 L 965.0 267.3 L 967.2 268.5 L 969.3 266.7 L 971.5 268.4 L 973.7 268.7 L 975.8 269.0 L 978.0 264.9 L 980.1 267.3 L 982.3 264.1 L 984.4 265.3 L 986.6 262.9 L 988.8 261.8 L 990.9 260.7 L 993.1 257.0 L 995.2 253.9 L 997.4 253.6 L 999.6 254.8 L 1001.7 255.3 L 1003.9 250.5 L 1006.0 240.9 L 1008.2 241.4 L 1010.4 243.8 L 1012.5 241.3 L 1014.7 242.3 L 1016.8 238.7 L 1019.0 238.8 L 1021.1 239.5 L 1023.3 239.5 L 1025.5 236.6 L 1027.6 234.8 L 1029.8 232.8 L 1031.9 232.2 L 1034.1 235.6 L 1036.3 239.6 L 1038.4 234.5 L 1040.6 231.4 L 1042.7 231.8 L 1044.9 235.4 L 1047.0 233.4 L 1049.2 234.0 L 1051.4 228.9 L 1053.5 227.5 L 1055.7 230.2 L 1057.8 230.3 L 1060.0 226.7 L 1060.0 505.0 L 1057.8 504.2 L 1055.7 503.3 L 1053.5 503.2 L 1051.4 501.5 L 1049.2 499.4 L 1047.0 498.0 L 1044.9 497.2 L 1042.7 494.9 L 1040.6 493.2 L 1038.4 490.6 L 1036.3 488.2 L 1034.1 483.0 L 1031.9 484.5 L 1029.8 482.3 L 1027.6 481.4 L 1025.5 478.0 L 1023.3 477.6 L 1021.1 475.9 L 1019.0 474.0 L 1016.8 470.4 L 1014.7 471.1 L 1012.5 467.2 L 1010.4 465.4 L 1008.2 462.2 L 1006.0 459.3 L 1003.9 464.2 L 1001.7 462.6 L 999.6 456.5 L 997.4 459.4 L 995.2 456.8 L 993.1 455.1 L 990.9 450.1 L 988.8 450.0 L 986.6 447.0 L 984.4 444.4 L 982.3 442.3 L 980.1 443.8 L 978.0 439.2 L 975.8 438.1 L 973.7 434.9 L 971.5 433.1 L 969.3 439.9 L 967.2 438.8 L 965.0 436.3 L 962.9 437.1 L 960.7 433.1 L 958.5 430.7 L 956.4 424.3 L 954.2 425.2 L 952.1 422.6 L 949.9 419.9 L 947.8 418.5 L 945.6 418.3 L 943.4 412.4 L 941.3 410.9 L 939.1 409.7 L 937.0 406.8 L 934.8 410.3 L 932.6 406.0 L 930.5 406.2 L 928.3 399.6 L 926.2 395.4 L 924.0 397.9 L 921.9 392.5 L 919.7 390.9 L 917.5 386.8 L 915.4 384.0 L 913.2 382.5 L 911.1 379.2 L 908.9 378.2 L 906.7 376.6 L 904.6 372.3 L 902.4 368.3 L 900.3 371.0 L 898.1 367.9 L 895.9 368.0 L 893.8 364.9 L 891.6 362.3 L 889.5 361.5 L 887.3 357.9 L 885.2 355.2 L 883.0 353.6 L 880.8 350.4 L 878.7 348.7 L 876.5 346.4 L 874.4 343.0 L 872.2 341.3 L 870.0 335.4 L 867.9 333.1 Z" fill="#dc2626" fill-opacity="0.13" stroke="none"/>
<path d="M 80.0 200.1 L 82.2 192.4 L 84.3 195.9 L 86.5 194.4 L 88.6 196.2 L 90.8 198.2 L 93.0 178.7 L 95.1 183.8 L 97.3 176.3 L 99.4 160.0 L 101.6 147.9 L 103.7 173.6 L 105.9 171.0 L 108.1 163.7 L 110.2 161.2 L 112.4 164.1 L 114.5 170.9 L 116.7 183.7 L 118.9 193.1 L 121.0 189.6 L 123.2 183.4 L 125.3 182.2 L 127.5 185.0 L 129.6 189.0 L 131.8 207.6 L 134.0 191.3 L 136.1 183.9 L 138.3 182.9 L 140.4 156.3 L 142.6 156.3 L 144.8 165.8 L 146.9 183.2 L 149.1 180.9 L 151.2 184.7 L 153.4 183.7 L 155.6 176.7 L 157.7 189.8 L 159.9 187.8 L 162.0 189.2 L 164.2 197.1 L 166.3 204.1 L 168.5 210.8 L 170.7 185.2 L 172.8 180.8 L 175.0 173.5 L 177.1 175.8 L 179.3 175.2 L 181.5 173.7 L 183.6 167.5 L 185.8 174.6 L 187.9 183.2 L 190.1 164.6 L 192.2 160.3 L 194.4 169.7 L 196.6 168.4 L 198.7 162.5 L 200.9 168.1 L 203.0 164.2 L 205.2 150.7 L 207.4 122.7 L 209.5 113.8 L 211.7 114.4 L 213.8 104.6 L 216.0 100.2 L 218.1 112.4 L 220.3 107.3 L 222.5 104.1 L 224.6 111.5 L 226.8 111.9 L 228.9 115.3 L 231.1 114.6 L 233.3 99.6 L 235.4 106.6 L 237.6 109.0 L 239.7 113.3 L 241.9 111.5 L 244.1 102.7 L 246.2 110.6 L 248.4 111.3 L 250.5 111.9 L 252.7 124.1 L 254.8 138.6 L 257.0 143.0 L 259.2 133.2 L 261.3 128.3 L 263.5 133.7 L 265.6 128.6 L 267.8 114.1 L 270.0 118.8 L 272.1 120.0 L 274.3 103.4 L 276.4 107.0 L 278.6 98.5 L 280.7 79.9 L 282.9 109.3 L 285.1 114.9 L 287.2 114.6 L 289.4 114.5 L 291.5 121.4 L 293.7 141.1 L 295.9 132.9 L 298.0 143.2 L 300.2 117.2 L 302.3 126.0 L 304.5 137.4 L 306.7 157.2 L 308.8 147.6 L 311.0 150.5 L 313.1 142.8 L 315.3 167.4 L 317.4 164.8 L 319.6 168.2 L 321.8 162.4 L 323.9 150.6 L 326.1 147.9 L 328.2 153.6 L 330.4 154.0 L 332.6 156.8 L 334.7 151.2 L 336.9 145.8 L 339.0 148.8 L 341.2 134.7 L 343.3 125.8 L 345.5 122.6 L 347.7 123.2 L 349.8 127.0 L 352.0 126.5 L 354.1 118.1 L 356.3 120.1 L 358.5 116.4 L 360.6 124.9 L 362.8 124.6 L 364.9 127.2 L 367.1 142.4 L 369.3 146.2 L 371.4 138.5 L 373.6 163.8 L 375.7 160.0 L 377.9 160.0 L 380.0 145.2 L 382.2 132.6 L 384.4 134.2 L 386.5 107.5 L 388.7 96.2 L 390.8 86.2 L 393.0 85.3 L 395.2 78.9 L 397.3 72.0 L 399.5 91.5 L 401.6 79.9 L 403.8 89.6 L 405.9 141.6 L 408.1 154.1 L 410.3 128.8 L 412.4 127.6 L 414.6 140.1 L 416.7 153.4 L 418.9 168.5 L 421.1 178.8 L 423.2 174.4 L 425.4 165.8 L 427.5 154.8 L 429.7 167.9 L 431.9 172.1 L 434.0 157.4 L 436.2 152.0 L 438.3 148.2 L 440.5 131.2 L 442.6 133.8 L 444.8 140.9 L 447.0 157.8 L 449.1 167.7 L 451.3 160.2 L 453.4 157.3 L 455.6 154.7 L 457.8 177.9 L 459.9 207.7 L 462.1 193.7 L 464.2 208.6 L 466.4 196.9 L 468.5 202.9 L 470.7 188.8 L 472.9 181.3 L 475.0 198.5 L 477.2 206.8 L 479.3 218.3 L 481.5 248.1 L 483.7 242.3 L 485.8 250.1 L 488.0 262.1 L 490.1 257.7 L 492.3 265.9 L 494.4 294.8 L 496.6 303.6 L 498.8 305.9 L 500.9 293.6 L 503.1 285.0 L 505.2 290.5 L 507.4 272.2 L 509.6 267.2 L 511.7 269.8 L 513.9 270.4 L 516.0 273.0 L 518.2 296.8 L 520.4 267.6 L 522.5 255.0 L 524.7 262.9 L 526.8 279.0 L 529.0 279.5 L 531.1 272.7 L 533.3 271.3 L 535.5 259.4 L 537.6 263.3 L 539.8 260.3 L 541.9 273.5 L 544.1 273.7 L 546.3 285.8 L 548.4 296.0 L 550.6 287.6 L 552.7 297.1 L 554.9 301.3 L 557.0 286.0 L 559.2 284.7 L 561.4 282.9 L 563.5 283.1 L 565.7 289.8 L 567.8 288.7 L 570.0 291.3 L 572.2 290.5 L 574.3 287.5 L 576.5 287.1 L 578.6 291.2 L 580.8 283.9 L 583.0 288.8 L 585.1 281.9 L 587.3 275.1 L 589.4 271.4 L 591.6 266.1 L 593.7 252.4 L 595.9 253.1 L 598.1 267.1 L 600.2 268.6 L 602.4 271.3 L 604.5 272.1 L 606.7 269.1 L 608.9 267.5 L 611.0 243.3 L 613.2 234.3 L 615.3 242.2 L 617.5 242.5 L 619.6 244.9 L 621.8 253.5 L 624.0 259.6 L 626.1 284.3 L 628.3 278.3 L 630.4 277.6 L 632.6 277.4 L 634.8 279.6 L 636.9 294.6 L 639.1 284.7 L 641.2 279.5 L 643.4 279.2 L 645.6 306.4 L 647.7 308.7 L 649.9 341.0 L 652.0 351.4 L 654.2 341.0 L 656.3 358.4 L 658.5 373.7 L 660.7 433.8 L 662.8 388.8 L 665.0 396.4 L 667.1 390.3 L 669.3 391.4 L 671.5 399.0 L 673.6 409.3 L 675.8 414.1 L 677.9 399.0 L 680.1 393.3 L 682.2 399.1 L 684.4 398.7 L 686.6 406.9 L 688.7 413.0 L 690.9 409.8 L 693.0 403.8 L 695.2 404.1 L 697.4 406.0 L 699.5 423.5 L 701.7 427.1 L 703.8 404.0 L 706.0 407.0 L 708.1 416.4 L 710.3 410.0 L 712.5 417.0 L 714.6 399.1 L 716.8 402.0 L 718.9 376.6 L 721.1 387.0 L 723.3 403.3 L 725.4 408.3 L 727.6 415.8 L 729.7 401.4 L 731.9 392.5 L 734.1 391.1 L 736.2 389.1 L 738.4 386.8 L 740.5 385.1 L 742.7 375.7 L 744.8 363.6 L 747.0 369.3 L 749.2 384.9 L 751.3 392.6 L 753.5 389.2 L 755.6 398.6 L 757.8 404.8 L 760.0 386.9 L 762.1 389.0 L 764.3 384.4 L 766.4 399.1 L 768.6 413.3 L 770.7 413.5 L 772.9 415.6 L 775.1 411.0 L 777.2 402.3 L 779.4 403.3 L 781.5 410.4 L 783.7 410.0 L 785.9 408.1 L 788.0 397.9 L 790.2 399.0 L 792.3 381.0 L 794.5 386.0 L 796.7 381.8 L 798.8 374.9 L 801.0 374.4 L 803.1 387.9 L 805.3 366.4 L 807.4 368.0 L 809.6 364.1 L 811.8 362.0 L 813.9 350.8 L 816.1 358.9 L 818.2 370.0 L 820.4 358.0 L 822.6 355.1 L 824.7 344.3 L 826.9 343.9 L 829.0 348.7 L 831.2 347.6 L 833.3 341.5 L 835.5 349.1 L 837.7 355.1 L 839.8 358.4 L 842.0 355.1 L 844.1 344.0 L 846.3 341.3 L 848.5 342.0 L 850.6 334.5 L 852.8 328.3 L 854.9 325.2 L 857.1 333.6 L 859.3 332.5 L 861.4 329.7 L 863.6 320.7 L 865.7 323.4" fill="none" stroke="#2563eb" stroke-width="2.2"/>
<path d="M 867.9 321.6 L 870.0 322.7 L 872.2 324.1 L 874.4 325.4 L 876.5 325.6 L 878.7 325.5 L 880.8 325.7 L 883.0 326.0 L 885.2 325.4 L 887.3 326.3 L 889.5 327.1 L 891.6 327.2 L 893.8 328.8 L 895.9 327.9 L 898.1 327.6 L 900.3 329.6 L 902.4 330.0 L 904.6 332.1 L 906.7 333.3 L 908.9 333.9 L 911.1 334.0 L 913.2 335.6 L 915.4 335.5 L 917.5 336.1 L 919.7 335.7 L 921.9 336.4 L 924.0 336.8 L 926.2 337.1 L 928.3 339.0 L 930.5 338.7 L 932.6 339.2 L 934.8 341.4 L 937.0 341.8 L 939.1 344.0 L 941.3 344.8 L 943.4 345.5 L 945.6 345.2 L 947.8 346.6 L 949.9 346.5 L 952.1 347.9 L 954.2 347.7 L 956.4 348.1 L 958.5 349.0 L 960.7 350.1 L 962.9 351.7 L 965.0 352.5 L 967.2 352.8 L 969.3 352.5 L 971.5 353.8 L 973.7 354.9 L 975.8 355.4 L 978.0 356.4 L 980.1 357.8 L 982.3 357.6 L 984.4 358.3 L 986.6 358.6 L 988.8 359.3 L 990.9 359.5 L 993.1 360.4 L 995.2 360.5 L 997.4 362.1 L 999.6 364.0 L 1001.7 363.2 L 1003.9 360.6 L 1006.0 363.8 L 1008.2 364.6 L 1010.4 365.6 L 1012.5 368.2 L 1014.7 369.8 L 1016.8 370.2 L 1019.0 372.2 L 1021.1 371.6 L 1023.3 372.3 L 1025.5 372.9 L 1027.6 373.9 L 1029.8 374.7 L 1031.9 377.6 L 1034.1 379.3 L 1036.3 379.8 L 1038.4 378.6 L 1040.6 378.4 L 1042.7 380.0 L 1044.9 380.3 L 1047.0 383.9 L 1049.2 384.1 L 1051.4 385.4 L 1053.5 386.4 L 1055.7 384.8 L 1057.8 385.7 L 1060.0 386.5" fill="none" stroke="#dc2626" stroke-width="2.4" stroke-dasharray="8 5"/>
<circle cx="88" cy="586" r="5" fill="#2563eb"/><text x="100" y="590" font-family="Arial, sans-serif" font-size="13" fill="#374151">history</text>
<circle cx="178" cy="586" r="5" fill="#dc2626"/><text x="190" y="590" font-family="Arial, sans-serif" font-size="13" fill="#374151">forecast</text>
<rect x="265" y="581" width="22" height="10" rx="2" fill="#dc2626" fill-opacity="0.18"/><text x="296" y="590" font-family="Arial, sans-serif" font-size="13" fill="#374151">10-90% probability corridor</text>
</svg>
