<svg xmlns="http://www.w3.org/2000/svg" data-y-scale="log" width="1100" height="620" viewBox="0 0 1100 620">
<rect width="100%" height="100%" fill="#ffffff"/>
<text x="80" y="26" font-family="Arial, sans-serif" font-size="20" font-weight="700" fill="#111827">BTCUSDT Chronos-2 Forecast</text>
<text x="80" y="50" font-family="Arial, sans-serif" font-size="13" fill="#4b5563">Last history close: 81,745.65 | Last forecast: 72,265.72 | Y scale: log scale</text>
<line x1="80" y1="505.0" x2="1060" y2="505.0" stroke="#e5e7eb" stroke-width="1"/>
<text x="70" y="509.0" text-anchor="end" font-family="Arial, sans-serif" font-size="12" fill="#6b7280">50,955</text>
<line x1="80" y1="396.8" x2="1060" y2="396.8" stroke="#e5e7eb" stroke-width="1"/>
<text x="70" y="400.8" text-anchor="end" font-family="Arial, sans-serif" font-size="12" fill="#6b7280">63,727</text>
<line x1="80" y1="288.5" x2="1060" y2="288.5" stroke="#e5e7eb" stroke-width="1"/>
<text x="70" y="292.5" text-anchor="end" font-family="Arial, sans-serif" font-size="12" fill="#6b7280">79,699</text>
<line x1="80" y1="180.2" x2="1060" y2="180.2" stroke="#e5e7eb" stroke-width="1"/>
<text x="70" y="184.2" text-anchor="end" font-family="Arial, sans-serif" font-size="12" fill="#6b7280">99,675</text>
<line x1="80" y1="72.0" x2="1060" y2="72.0" stroke="#e5e7eb" stroke-width="1"/>
<text x="70" y="76.0" text-anchor="end" font-family="Arial, sans-serif" font-size="12" fill="#6b7280">124,659</text>
<line class="x-axis-grid" x1="80.0" y1="72" x2="80.0" y2="505" stroke="#f1f5f9" stroke-width="1"/>
<line class="x-axis-grid" x1="276.0" y1="72" x2="276.0" y2="505" stroke="#f1f5f9" stroke-width="1"/>
<line class="x-axis-grid" x1="472.0" y1="72" x2="472.0" y2="505" stroke="#f1f5f9" stroke-width="1"/>
<line class="x-axis-grid" x1="668.0" y1="72" x2="668.0" y2="505" stroke="#f1f5f9" stroke-width="1"/>
<line class="x-axis-grid" x1="864.0" y1="72" x2="864.0" y2="505" stroke="#f1f5f9" stroke-width="1"/>
<line class="x-axis-grid" x1="1060.0" y1="72" x2="1060.0" y2="505" stroke="#f1f5f9" stroke-width="1"/>
<line x1="80" y1="72" x2="80" y2="505" stroke="#9ca3af" stroke-width="1"/>
<line x1="80" y1="505" x2="1060" y2="505" stroke="#9ca3af" stroke-width="1"/>
<text class="x-axis-label" x="80.0" y="530" text-anchor="middle" font-family="Arial, sans-serif" font-size="11" fill="#6b7280">2025-05-12</text>
<text class="x-axis-label" x="276.0" y="530" text-anchor="middle" font-family="Arial, sans-serif" font-size="11" fill="#6b7280">2025-08-10</text>
<text class="x-axis-label" x="472.0" y="530" text-anchor="middle" font-family="Arial, sans-serif" font-size="11" fill="#6b7280">2025-11-09</text>
<text class="x-axis-label" x="668.0" y="530" text-anchor="middle" font-family="Arial, sans-serif" font-size="11" fill="#6b7280">2026-02-08</text>
<text class="x-axis-label" x="864.0" y="530" text-anchor="middle" font-family="Arial, sans-serif" font-size="11" fill="#6b7280">2026-05-10</text>
<text class="x-axis-label" x="1060.0" y="530" text-anchor="middle" font-family="Arial, sans-serif" font-size="11" fill="#6b7280">2026-08-09</text>
<line id="forecast-start-line" x1="867.9" y1="72" x2="867.9" y2="505" stroke="#111827" stroke-width="1.3" stroke-dasharray="5 6" opacity="0.42"/>
<text x="875.9" y="87" font-family="Arial, sans-serif" font-size="11" fill="#374151">forecast start</text>
<path id="probability-corridor" d="M 867.9 263.2 L 870.0 262.4 L 872.2 261.0 L 874.4 258.8 L 876.5 256.4 L 878.7 254.4 L 880.8 252.7 L 883.0 250.3 L 885.2 248.1 L 887.3 247.3 L 889.5 245.2 L 891.6 244.7 L 893.8 242.9 L 895.9 242.4 L 898.1 240.9 L 900.3 238.7 L 902.4 242.0 L 904.6 241.9 L 906.7 240.5 L 908.9 237.6 L 911.1 237.8 L 913.2 236.5 L 915.4 235.4 L 917.5 234.2 L 919.7 231.7 L 921.9 231.7 L 924.0 229.1 L 926.2 228.4 L 928.3 226.8 L 930.5 227.1 L 932.6 227.0 L 934.8 225.1 L 937.0 229.3 L 939.1 229.7 L 941.3 228.9 L 943.4 226.5 L 945.6 227.7 L 947.8 224.7 L 949.9 224.6 L 952.1 224.0 L 954.2 222.5 L 956.4 222.2 L 958.5 219.4 L 960.7 217.8 L 962.9 216.6 L 965.0 217.3 L 967.2 218.4 L 969.3 216.8 L 971.5 217.2 L 973.7 218.0 L 975.8 218.0 L 978.0 214.5 L 980.1 216.4 L 982.3 213.5 L 984.4 213.9 L 986.6 212.2 L 988.8 211.3 L 990.9 210.0 L 993.1 206.7 L 995.2 204.0 L 997.4 203.3 L 999.6 204.5 L 1001.7 205.1 L 1003.9 200.8 L 1006.0 191.7 L 1008.2 191.8 L 1010.4 193.7 L 1012.5 191.3 L 1014.7 191.3 L 1016.8 188.0 L 1019.0 187.7 L 1021.1 188.8 L 1023.3 188.5 L 1025.5 185.6 L 1027.6 184.2 L 1029.8 182.1 L 1031.9 181.4 L 1034.1 184.6 L 1036.3 188.0 L 1038.4 183.2 L 1040.6 181.7 L 1042.7 180.5 L 1044.9 183.6 L 1047.0 182.3 L 1049.2 181.5 L 1051.4 177.2 L 1053.5 175.9 L 1055.7 178.8 L 1057.8 178.7 L 1060.0 175.4 L 1060.0 505.0 L 1057.8 504.3 L 1055.7 502.6 L 1053.5 502.8 L 1051.4 498.5 L 1049.2 496.7 L 1047.0 493.1 L 1044.9 492.7 L 1042.7 489.0 L 1040.6 485.7 L 1038.4 482.5 L 1036.3 479.6 L 1034.1 470.7 L 1031.9 474.3 L 1029.8 471.0 L 1027.6 469.6 L 1025.5 464.4 L 1023.3 464.6 L 1021.1 462.3 L 1019.0 459.6 L 1016.8 452.8 L 1014.7 454.8 L 1012.5 448.3 L 1010.4 446.3 L 1008.2 442.0 L 1006.0 438.1 L 1003.9 443.5 L 1001.7 441.2 L 999.6 432.5 L 997.4 436.7 L 995.2 432.9 L 993.1 430.8 L 990.9 423.7 L 988.8 424.4 L 986.6 420.8 L 984.4 417.5 L 982.3 414.0 L 980.1 415.6 L 978.0 409.6 L 975.8 408.9 L 973.7 404.4 L 971.5 402.3 L 969.3 408.4 L 967.2 406.2 L 965.0 403.2 L 962.9 403.7 L 960.7 398.7 L 958.5 396.5 L 956.4 387.4 L 954.2 389.1 L 952.1 386.0 L 949.9 383.1 L 947.8 380.6 L 945.6 380.6 L 943.4 374.2 L 941.3 371.9 L 939.1 370.5 L 937.0 367.4 L 934.8 371.6 L 932.6 365.9 L 930.5 366.8 L 928.3 358.4 L 926.2 354.6 L 924.0 357.7 L 921.9 351.3 L 919.7 349.3 L 917.5 344.9 L 915.4 341.5 L 913.2 339.9 L 911.1 335.8 L 908.9 335.0 L 906.7 333.0 L 904.6 327.9 L 902.4 323.6 L 900.3 326.8 L 898.1 323.3 L 895.9 322.9 L 893.8 319.8 L 891.6 316.8 L 889.5 315.8 L 887.3 312.1 L 885.2 308.7 L 883.0 307.6 L 880.8 304.1 L 878.7 302.4 L 876.5 299.8 L 874.4 296.1 L 872.2 294.5 L 870.0 288.3 L 867.9 285.8 Z" fill="#dc2626" fill-opacity="0.13" stroke="none"/>
<path d="M 80.0 165.4 L 82.2 159.2 L 84.3 162.0 L 86.5 160.8 L 88.6 162.2 L 90.8 163.8 L 93.0 148.4 L 95.1 152.4 L 97.3 146.6 L 99.4 134.1 L 101.6 125.1 L 103.7 144.5 L 105.9 142.5 L 108.1 136.9 L 110.2 135.0 L 112.4 137.2 L 114.5 142.4 L 116.7 152.4 L 118.9 159.8 L 121.0 156.9 L 123.2 152.1 L 125.3 151.1 L 127.5 153.3 L 129.6 156.5 L 131.8 171.4 L 134.0 158.4 L 136.1 152.5 L 138.3 151.7 L 140.4 131.4 L 142.6 131.3 L 144.8 138.5 L 146.9 152.0 L 149.1 150.2 L 151.2 153.2 L 153.4 152.3 L 155.6 146.9 L 157.7 157.1 L 159.9 155.6 L 162.0 156.6 L 164.2 163.0 L 166.3 168.5 L 168.5 174.0 L 170.7 153.5 L 172.8 150.1 L 175.0 144.4 L 177.1 146.2 L 179.3 145.7 L 181.5 144.6 L 183.6 139.8 L 185.8 145.3 L 187.9 151.9 L 190.1 137.6 L 192.2 134.4 L 194.4 141.5 L 196.6 140.5 L 198.7 136.1 L 200.9 140.3 L 203.0 137.3 L 205.2 127.1 L 207.4 106.8 L 209.5 100.5 L 211.7 101.0 L 213.8 94.1 L 216.0 91.1 L 218.1 99.6 L 220.3 96.0 L 222.5 93.8 L 224.6 98.9 L 226.8 99.2 L 228.9 101.6 L 231.1 101.1 L 233.3 90.6 L 235.4 95.5 L 237.6 97.2 L 239.7 100.2 L 241.9 98.9 L 244.1 92.8 L 246.2 98.3 L 248.4 98.8 L 250.5 99.2 L 252.7 107.8 L 254.8 118.2 L 257.0 121.5 L 259.2 114.4 L 261.3 110.8 L 263.5 114.7 L 265.6 111.1 L 267.8 100.7 L 270.0 104.0 L 272.1 104.9 L 274.3 93.3 L 276.4 95.8 L 278.6 89.9 L 280.7 77.3 L 282.9 97.4 L 285.1 101.3 L 287.2 101.1 L 289.4 101.0 L 291.5 105.9 L 293.7 120.1 L 295.9 114.1 L 298.0 121.7 L 300.2 103.0 L 302.3 109.2 L 304.5 117.4 L 306.7 132.1 L 308.8 124.9 L 311.0 127.0 L 313.1 121.4 L 315.3 139.7 L 317.4 137.8 L 319.6 140.3 L 321.8 135.9 L 323.9 127.1 L 326.1 125.1 L 328.2 129.3 L 330.4 129.7 L 332.6 131.7 L 334.7 127.6 L 336.9 123.5 L 339.0 125.8 L 341.2 115.4 L 343.3 109.0 L 345.5 106.7 L 347.7 107.2 L 349.8 109.9 L 352.0 109.6 L 354.1 103.6 L 356.3 105.0 L 358.5 102.4 L 360.6 108.4 L 362.8 108.2 L 364.9 110.1 L 367.1 121.0 L 369.3 123.8 L 371.4 118.2 L 373.6 137.0 L 375.7 134.1 L 377.9 134.2 L 380.0 123.1 L 382.2 113.9 L 384.4 115.1 L 386.5 96.1 L 388.7 88.3 L 390.8 81.5 L 393.0 80.9 L 395.2 76.6 L 397.3 72.0 L 399.5 85.1 L 401.6 77.3 L 403.8 83.8 L 405.9 120.5 L 408.1 129.7 L 410.3 111.2 L 412.4 110.3 L 414.6 119.4 L 416.7 129.2 L 418.9 140.6 L 421.1 148.5 L 423.2 145.1 L 425.4 138.6 L 427.5 130.2 L 429.7 140.1 L 431.9 143.4 L 434.0 132.2 L 436.2 128.1 L 438.3 125.4 L 440.5 112.9 L 442.6 114.8 L 444.8 120.0 L 447.0 132.5 L 449.1 140.0 L 451.3 134.3 L 453.4 132.1 L 455.6 130.2 L 457.8 147.8 L 459.9 171.5 L 462.1 160.2 L 464.2 172.2 L 466.4 162.8 L 468.5 167.6 L 470.7 156.3 L 472.9 150.4 L 475.0 164.1 L 477.2 170.7 L 479.3 180.2 L 481.5 205.6 L 483.7 200.5 L 485.8 207.3 L 488.0 217.9 L 490.1 214.0 L 492.3 221.4 L 494.4 248.1 L 496.6 256.6 L 498.8 258.8 L 500.9 247.0 L 503.1 238.9 L 505.2 244.0 L 507.4 227.1 L 509.6 222.5 L 511.7 224.9 L 513.9 225.4 L 516.0 227.7 L 518.2 250.1 L 520.4 222.8 L 522.5 211.6 L 524.7 218.6 L 526.8 233.3 L 529.0 233.8 L 531.1 227.5 L 533.3 226.3 L 535.5 215.5 L 537.6 219.0 L 539.8 216.3 L 541.9 228.2 L 544.1 228.4 L 546.3 239.6 L 548.4 249.2 L 550.6 241.3 L 552.7 250.3 L 554.9 254.4 L 557.0 239.8 L 559.2 238.6 L 561.4 236.9 L 563.5 237.1 L 565.7 243.4 L 567.8 242.4 L 570.0 244.8 L 572.2 244.0 L 574.3 241.2 L 576.5 240.8 L 578.6 244.8 L 580.8 237.9 L 583.0 242.5 L 585.1 236.0 L 587.3 229.7 L 589.4 226.3 L 591.6 221.5 L 593.7 209.3 L 595.9 209.9 L 598.1 222.4 L 600.2 223.8 L 602.4 226.2 L 604.5 227.0 L 606.7 224.3 L 608.9 222.7 L 611.0 201.4 L 613.2 193.7 L 615.3 200.4 L 617.5 200.7 L 619.6 202.8 L 621.8 210.3 L 624.0 215.7 L 626.1 238.2 L 628.3 232.6 L 630.4 232.0 L 632.6 231.8 L 634.8 233.9 L 636.9 247.9 L 639.1 238.6 L 641.2 233.7 L 643.4 233.4 L 645.6 259.3 L 647.7 261.6 L 649.9 294.4 L 652.0 305.4 L 654.2 294.4 L 656.3 313.0 L 658.5 329.9 L 660.7 403.0 L 662.8 347.3 L 665.0 356.2 L 667.1 349.0 L 669.3 350.4 L 671.5 359.4 L 673.6 371.9 L 675.8 377.8 L 677.9 359.3 L 680.1 352.5 L 682.2 359.4 L 684.4 359.0 L 686.6 368.9 L 688.7 376.4 L 690.9 372.5 L 693.0 365.2 L 695.2 365.5 L 697.4 367.9 L 699.5 389.7 L 701.7 394.2 L 703.8 365.4 L 706.0 369.0 L 708.1 380.7 L 710.3 372.7 L 712.5 381.4 L 714.6 359.5 L 716.8 362.9 L 718.9 333.2 L 721.1 345.2 L 723.3 364.5 L 725.4 370.6 L 727.6 380.0 L 729.7 362.3 L 731.9 351.7 L 734.1 350.0 L 736.2 347.6 L 738.4 344.9 L 740.5 343.0 L 742.7 332.2 L 744.8 318.7 L 747.0 325.0 L 749.2 342.8 L 751.3 351.8 L 753.5 347.8 L 755.6 358.8 L 757.8 366.3 L 760.0 345.1 L 762.1 347.5 L 764.3 342.2 L 766.4 359.5 L 768.6 376.8 L 770.7 377.0 L 772.9 379.7 L 775.1 374.0 L 777.2 363.3 L 779.4 364.5 L 781.5 373.2 L 783.7 372.8 L 785.9 370.3 L 788.0 358.0 L 790.2 359.3 L 792.3 338.2 L 794.5 344.0 L 796.7 339.1 L 798.8 331.2 L 801.0 330.7 L 803.1 346.2 L 805.3 321.7 L 807.4 323.6 L 809.6 319.1 L 811.8 316.9 L 813.9 304.7 L 816.1 313.5 L 818.2 325.7 L 820.4 312.5 L 822.6 309.4 L 824.7 297.8 L 826.9 297.3 L 829.0 302.4 L 831.2 301.3 L 833.3 294.9 L 835.5 302.8 L 837.7 309.3 L 839.8 312.9 L 842.0 309.3 L 844.1 297.5 L 846.3 294.7 L 848.5 295.4 L 850.6 287.5 L 852.8 281.2 L 854.9 278.0 L 857.1 286.6 L 859.3 285.5 L 861.4 282.6 L 863.6 273.5 L 865.7 276.2" fill="none" stroke="#2563eb" stroke-width="2.2"/>
<path d="M 867.9 273.9 L 870.0 275.0 L 872.2 276.4 L 874.4 277.7 L 876.5 277.8 L 878.7 277.8 L 880.8 277.9 L 883.0 278.2 L 885.2 277.4 L 887.3 278.4 L 889.5 279.2 L 891.6 279.3 L 893.8 281.1 L 895.9 280.1 L 898.1 279.5 L 900.3 281.9 L 902.4 282.1 L 904.6 284.2 L 906.7 285.3 L 908.9 285.8 L 911.1 285.8 L 913.2 287.6 L 915.4 287.5 L 917.5 288.0 L 919.7 287.3 L 921.9 288.1 L 924.0 288.6 L 926.2 288.9 L 928.3 290.8 L 930.5 290.4 L 932.6 290.4 L 934.8 293.1 L 937.0 293.0 L 939.1 295.1 L 941.3 295.8 L 943.4 296.5 L 945.6 296.0 L 947.8 297.7 L 949.9 297.5 L 952.1 298.7 L 954.2 298.2 L 956.4 298.9 L 958.5 299.6 L 960.7 300.8 L 962.9 302.6 L 965.0 302.8 L 967.2 303.2 L 969.3 303.4 L 971.5 305.0 L 973.7 306.3 L 975.8 306.7 L 978.0 307.7 L 980.1 308.9 L 982.3 309.1 L 984.4 309.4 L 986.6 309.8 L 988.8 310.2 L 990.9 310.2 L 993.1 311.3 L 995.2 311.6 L 997.4 313.2 L 999.6 314.9 L 1001.7 314.4 L 1003.9 311.7 L 1006.0 315.6 L 1008.2 316.0 L 1010.4 316.9 L 1012.5 319.3 L 1014.7 320.9 L 1016.8 321.0 L 1019.0 323.1 L 1021.1 322.6 L 1023.3 323.1 L 1025.5 323.4 L 1027.6 324.4 L 1029.8 325.4 L 1031.9 328.7 L 1034.1 330.5 L 1036.3 330.9 L 1038.4 328.9 L 1040.6 328.6 L 1042.7 329.3 L 1044.9 329.3 L 1047.0 333.2 L 1049.2 333.8 L 1051.4 334.9 L 1053.5 336.1 L 1055.7 334.5 L 1057.8 335.4 L 1060.0 335.9" fill="none" stroke="#dc2626" stroke-width="2.4" stroke-dasharray="8 5"/>
<circle cx="88" cy="586" r="5" fill="#2563eb"/><text x="100" y="590" font-family="Arial, sans-serif" font-size="13" fill="#374151">history</text>
<circle cx="178" cy="586" r="5" fill="#dc2626"/><text x="190" y="590" font-family="Arial, sans-serif" font-size="13" fill="#374151">forecast</text>
<rect x="265" y="581" width="22" height="10" rx="2" fill="#dc2626" fill-opacity="0.18"/><text x="296" y="590" font-family="Arial, sans-serif" font-size="13" fill="#374151">10-90% probability corridor</text>
</svg>
