<svg xmlns="http://www.w3.org/2000/svg" width="1100" height="620" viewBox="0 0 1100 620">
<rect width="100%" height="100%" fill="#ffffff"/>
<text x="80" y="26" font-family="Arial, sans-serif" font-size="20" font-weight="700" fill="#111827">BTCUSDT Chronos-2 Forecast</text>
<text x="80" y="50" font-family="Arial, sans-serif" font-size="13" fill="#4b5563">Last history close: 81,745.65 | Last forecast: 68,275.08</text>
<line x1="80" y1="505.0" x2="1060" y2="505.0" stroke="#e5e7eb" stroke-width="1"/>
<text x="70" y="509.0" text-anchor="end" font-family="Arial, sans-serif" font-size="12" fill="#6b7280">45,620</text>
<line x1="80" y1="396.8" x2="1060" y2="396.8" stroke="#e5e7eb" stroke-width="1"/>
<text x="70" y="400.8" text-anchor="end" font-family="Arial, sans-serif" font-size="12" fill="#6b7280">65,380</text>
<line x1="80" y1="288.5" x2="1060" y2="288.5" stroke="#e5e7eb" stroke-width="1"/>
<text x="70" y="292.5" text-anchor="end" font-family="Arial, sans-serif" font-size="12" fill="#6b7280">85,139</text>
<line x1="80" y1="180.2" x2="1060" y2="180.2" stroke="#e5e7eb" stroke-width="1"/>
<text x="70" y="184.2" text-anchor="end" font-family="Arial, sans-serif" font-size="12" fill="#6b7280">104,899</text>
<line x1="80" y1="72.0" x2="1060" y2="72.0" stroke="#e5e7eb" stroke-width="1"/>
<text x="70" y="76.0" text-anchor="end" font-family="Arial, sans-serif" font-size="12" fill="#6b7280">124,659</text>
<line class="x-axis-grid" x1="80.0" y1="72" x2="80.0" y2="505" stroke="#f1f5f9" stroke-width="1"/>
<line class="x-axis-grid" x1="276.0" y1="72" x2="276.0" y2="505" stroke="#f1f5f9" stroke-width="1"/>
<line class="x-axis-grid" x1="472.0" y1="72" x2="472.0" y2="505" stroke="#f1f5f9" stroke-width="1"/>
<line class="x-axis-grid" x1="668.0" y1="72" x2="668.0" y2="505" stroke="#f1f5f9" stroke-width="1"/>
<line class="x-axis-grid" x1="864.0" y1="72" x2="864.0" y2="505" stroke="#f1f5f9" stroke-width="1"/>
<line class="x-axis-grid" x1="1060.0" y1="72" x2="1060.0" y2="505" stroke="#f1f5f9" stroke-width="1"/>
<line x1="80" y1="72" x2="80" y2="505" stroke="#9ca3af" stroke-width="1"/>
<line x1="80" y1="505" x2="1060" y2="505" stroke="#9ca3af" stroke-width="1"/>
<text class="x-axis-label" x="80.0" y="530" text-anchor="middle" font-family="Arial, sans-serif" font-size="11" fill="#6b7280">2025-05-12</text>
<text class="x-axis-label" x="276.0" y="530" text-anchor="middle" font-family="Arial, sans-serif" font-size="11" fill="#6b7280">2025-08-10</text>
<text class="x-axis-label" x="472.0" y="530" text-anchor="middle" font-family="Arial, sans-serif" font-size="11" fill="#6b7280">2025-11-09</text>
<text class="x-axis-label" x="668.0" y="530" text-anchor="middle" font-family="Arial, sans-serif" font-size="11" fill="#6b7280">2026-02-08</text>
<text class="x-axis-label" x="864.0" y="530" text-anchor="middle" font-family="Arial, sans-serif" font-size="11" fill="#6b7280">2026-05-10</text>
<text class="x-axis-label" x="1060.0" y="530" text-anchor="middle" font-family="Arial, sans-serif" font-size="11" fill="#6b7280">2026-08-09</text>
<line id="forecast-start-line" x1="867.9" y1="72" x2="867.9" y2="505" stroke="#111827" stroke-width="1.3" stroke-dasharray="5 6" opacity="0.42"/>
<text x="875.9" y="87" font-family="Arial, sans-serif" font-size="11" fill="#374151">forecast start</text>
<path id="probability-corridor" d="M 867.9 292.0 L 870.0 291.8 L 872.2 289.7 L 874.4 285.3 L 876.5 282.9 L 878.7 279.6 L 880.8 277.4 L 883.0 274.2 L 885.2 272.9 L 887.3 270.6 L 889.5 269.1 L 891.6 268.5 L 893.8 267.7 L 895.9 267.4 L 898.1 263.4 L 900.3 264.7 L 902.4 254.9 L 904.6 256.4 L 906.7 258.2 L 908.9 254.9 L 911.1 255.9 L 913.2 253.0 L 915.4 253.1 L 917.5 252.0 L 919.7 251.7 L 921.9 248.6 L 924.0 245.7 L 926.2 243.5 L 928.3 242.8 L 930.5 245.2 L 932.6 246.4 L 934.8 244.4 L 937.0 244.8 L 939.1 245.5 L 941.3 249.5 L 943.4 247.2 L 945.6 247.2 L 947.8 243.7 L 949.9 244.0 L 952.1 243.3 L 954.2 243.5 L 956.4 239.8 L 958.5 235.8 L 960.7 233.4 L 962.9 232.4 L 965.0 235.5 L 967.2 236.3 L 969.3 233.9 L 971.5 235.9 L 973.7 236.8 L 975.8 240.4 L 978.0 236.8 L 980.1 237.9 L 982.3 234.8 L 984.4 234.8 L 986.6 233.9 L 988.8 233.1 L 990.9 229.7 L 993.1 225.6 L 995.2 222.2 L 997.4 221.9 L 999.6 224.3 L 1001.7 226.6 L 1003.9 220.7 L 1006.0 192.8 L 1008.2 190.1 L 1010.4 193.0 L 1012.5 191.5 L 1014.7 189.3 L 1016.8 187.3 L 1019.0 187.2 L 1021.1 189.0 L 1023.3 184.9 L 1025.5 180.4 L 1027.6 175.4 L 1029.8 172.2 L 1031.9 168.0 L 1034.1 172.1 L 1036.3 175.8 L 1038.4 168.6 L 1040.6 185.4 L 1042.7 183.1 L 1044.9 187.7 L 1047.0 187.0 L 1049.2 183.1 L 1051.4 181.0 L 1053.5 180.5 L 1055.7 184.4 L 1057.8 179.2 L 1060.0 173.8 L 1060.0 502.7 L 1057.8 503.4 L 1055.7 505.0 L 1053.5 504.0 L 1051.4 502.5 L 1049.2 502.4 L 1047.0 502.8 L 1044.9 503.4 L 1042.7 502.4 L 1040.6 499.9 L 1038.4 484.4 L 1036.3 482.8 L 1034.1 479.6 L 1031.9 481.1 L 1029.8 482.1 L 1027.6 481.3 L 1025.5 476.1 L 1023.3 478.6 L 1021.1 479.5 L 1019.0 477.6 L 1016.8 473.6 L 1014.7 475.5 L 1012.5 473.1 L 1010.4 472.2 L 1008.2 471.6 L 1006.0 471.5 L 1003.9 475.4 L 1001.7 473.8 L 999.6 470.0 L 997.4 471.6 L 995.2 471.6 L 993.1 469.6 L 990.9 465.8 L 988.8 468.4 L 986.6 469.2 L 984.4 467.0 L 982.3 464.2 L 980.1 465.1 L 978.0 463.0 L 975.8 462.8 L 973.7 462.1 L 971.5 461.6 L 969.3 468.7 L 967.2 467.4 L 965.0 464.4 L 962.9 467.6 L 960.7 465.7 L 958.5 462.1 L 956.4 458.5 L 954.2 459.2 L 952.1 459.5 L 949.9 457.2 L 947.8 454.2 L 945.6 454.3 L 943.4 452.2 L 941.3 452.4 L 939.1 450.2 L 937.0 449.2 L 934.8 452.6 L 932.6 450.5 L 930.5 447.4 L 928.3 451.6 L 926.2 447.3 L 924.0 442.0 L 921.9 437.4 L 919.7 438.2 L 917.5 437.8 L 915.4 434.6 L 913.2 431.3 L 911.1 431.3 L 908.9 428.1 L 906.7 427.8 L 904.6 425.1 L 902.4 423.3 L 900.3 436.9 L 898.1 430.4 L 895.9 422.2 L 893.8 413.1 L 891.6 395.5 L 889.5 378.0 L 887.3 362.3 L 885.2 354.8 L 883.0 346.8 L 880.8 338.3 L 878.7 338.1 L 876.5 332.8 L 874.4 328.2 L 872.2 325.9 L 870.0 322.7 L 867.9 317.0 Z" fill="#dc2626" fill-opacity="0.13" stroke="none"/>
<path d="M 80.0 191.8 L 82.2 184.6 L 84.3 187.9 L 86.5 186.5 L 88.6 188.1 L 90.8 190.0 L 93.0 171.7 L 95.1 176.6 L 97.3 169.6 L 99.4 154.3 L 101.6 143.0 L 103.7 167.0 L 105.9 164.6 L 108.1 157.8 L 110.2 155.4 L 112.4 158.1 L 114.5 164.5 L 116.7 176.5 L 118.9 185.3 L 121.0 181.9 L 123.2 176.2 L 125.3 175.0 L 127.5 177.6 L 129.6 181.4 L 131.8 198.8 L 134.0 183.6 L 136.1 176.7 L 138.3 175.7 L 140.4 150.9 L 142.6 150.8 L 144.8 159.7 L 146.9 176.0 L 149.1 173.9 L 151.2 177.4 L 153.4 176.4 L 155.6 169.9 L 157.7 182.2 L 159.9 180.3 L 162.0 181.6 L 164.2 189.0 L 166.3 195.5 L 168.5 201.8 L 170.7 177.9 L 172.8 173.8 L 175.0 166.9 L 177.1 169.0 L 179.3 168.5 L 181.5 167.1 L 183.6 161.3 L 185.8 167.9 L 187.9 176.0 L 190.1 158.6 L 192.2 154.6 L 194.4 163.3 L 196.6 162.2 L 198.7 156.7 L 200.9 161.8 L 203.0 158.2 L 205.2 145.5 L 207.4 119.4 L 209.5 111.1 L 211.7 111.7 L 213.8 102.5 L 216.0 98.4 L 218.1 109.8 L 220.3 105.0 L 222.5 102.0 L 224.6 108.9 L 226.8 109.4 L 228.9 112.5 L 231.1 111.9 L 233.3 97.8 L 235.4 104.3 L 237.6 106.6 L 239.7 110.6 L 241.9 108.9 L 244.1 100.7 L 246.2 108.1 L 248.4 108.7 L 250.5 109.4 L 252.7 120.7 L 254.8 134.2 L 257.0 138.4 L 259.2 129.2 L 261.3 124.6 L 263.5 129.7 L 265.6 125.0 L 267.8 111.4 L 270.0 115.7 L 272.1 116.9 L 274.3 101.4 L 276.4 104.7 L 278.6 96.8 L 280.7 79.4 L 282.9 106.9 L 285.1 112.1 L 287.2 111.9 L 289.4 111.7 L 291.5 118.2 L 293.7 136.6 L 295.9 128.9 L 298.0 138.6 L 300.2 114.3 L 302.3 122.5 L 304.5 133.2 L 306.7 151.7 L 308.8 142.6 L 311.0 145.4 L 313.1 138.2 L 315.3 161.2 L 317.4 158.8 L 319.6 161.9 L 321.8 156.5 L 323.9 145.5 L 326.1 143.0 L 328.2 148.3 L 330.4 148.7 L 332.6 151.3 L 334.7 146.1 L 336.9 141.0 L 339.0 143.8 L 341.2 130.6 L 343.3 122.3 L 345.5 119.3 L 347.7 119.9 L 349.8 123.4 L 352.0 123.0 L 354.1 115.1 L 356.3 117.0 L 358.5 113.6 L 360.6 121.4 L 362.8 121.2 L 364.9 123.6 L 367.1 137.8 L 369.3 141.4 L 371.4 134.2 L 373.6 157.8 L 375.7 154.3 L 377.9 154.3 L 380.0 140.4 L 382.2 128.7 L 384.4 130.1 L 386.5 105.2 L 388.7 94.6 L 390.8 85.3 L 393.0 84.4 L 395.2 78.4 L 397.3 72.0 L 399.5 90.2 L 401.6 79.4 L 403.8 88.4 L 405.9 137.1 L 408.1 148.8 L 410.3 125.1 L 412.4 124.0 L 414.6 135.7 L 416.7 148.1 L 418.9 162.2 L 421.1 171.9 L 423.2 167.7 L 425.4 159.7 L 427.5 149.4 L 429.7 161.6 L 431.9 165.6 L 434.0 151.9 L 436.2 146.8 L 438.3 143.3 L 440.5 127.3 L 442.6 129.8 L 444.8 136.4 L 447.0 152.2 L 449.1 161.5 L 451.3 154.5 L 453.4 151.8 L 455.6 149.3 L 457.8 171.0 L 459.9 198.9 L 462.1 185.8 L 464.2 199.7 L 466.4 188.8 L 468.5 194.4 L 470.7 181.2 L 472.9 174.2 L 475.0 190.3 L 477.2 198.0 L 479.3 208.8 L 481.5 236.7 L 483.7 231.2 L 485.8 238.5 L 488.0 249.7 L 490.1 245.7 L 492.3 253.4 L 494.4 280.3 L 496.6 288.6 L 498.8 290.7 L 500.9 279.2 L 503.1 271.2 L 505.2 276.3 L 507.4 259.2 L 509.6 254.6 L 511.7 257.0 L 513.9 257.5 L 516.0 259.9 L 518.2 282.2 L 520.4 254.9 L 522.5 243.1 L 524.7 250.5 L 526.8 265.5 L 529.0 266.1 L 531.1 259.7 L 533.3 258.4 L 535.5 247.2 L 537.6 250.8 L 539.8 248.1 L 541.9 260.4 L 544.1 260.6 L 546.3 271.9 L 548.4 281.4 L 550.6 273.6 L 552.7 282.5 L 554.9 286.4 L 557.0 272.1 L 559.2 270.9 L 561.4 269.2 L 563.5 269.4 L 565.7 275.6 L 567.8 274.6 L 570.0 277.1 L 572.2 276.3 L 574.3 273.5 L 576.5 273.1 L 578.6 277.0 L 580.8 270.2 L 583.0 274.8 L 585.1 268.2 L 587.3 261.9 L 589.4 258.4 L 591.6 253.5 L 593.7 240.7 L 595.9 241.3 L 598.1 254.4 L 600.2 255.8 L 602.4 258.4 L 604.5 259.1 L 606.7 256.3 L 608.9 254.8 L 611.0 232.2 L 613.2 223.8 L 615.3 231.2 L 617.5 231.5 L 619.6 233.7 L 621.8 241.7 L 624.0 247.5 L 626.1 270.5 L 628.3 264.9 L 630.4 264.3 L 632.6 264.1 L 634.8 266.1 L 636.9 280.1 L 639.1 270.9 L 641.2 266.0 L 643.4 265.7 L 645.6 291.2 L 647.7 293.3 L 649.9 323.6 L 652.0 333.3 L 654.2 323.6 L 656.3 339.8 L 658.5 354.1 L 660.7 410.3 L 662.8 368.3 L 665.0 375.3 L 667.1 369.6 L 669.3 370.7 L 671.5 377.8 L 673.6 387.4 L 675.8 391.9 L 677.9 377.7 L 680.1 372.4 L 682.2 377.8 L 684.4 377.5 L 686.6 385.1 L 688.7 390.8 L 690.9 387.9 L 693.0 382.3 L 695.2 382.5 L 697.4 384.3 L 699.5 400.7 L 701.7 404.0 L 703.8 382.5 L 706.0 385.2 L 708.1 394.1 L 710.3 388.0 L 712.5 394.6 L 714.6 377.8 L 716.8 380.5 L 718.9 356.8 L 721.1 366.6 L 723.3 381.8 L 725.4 386.4 L 727.6 393.5 L 729.7 380.0 L 731.9 371.7 L 734.1 370.4 L 736.2 368.5 L 738.4 366.3 L 740.5 364.8 L 742.7 356.0 L 744.8 344.7 L 747.0 350.0 L 749.2 364.6 L 751.3 371.8 L 753.5 368.6 L 755.6 377.4 L 757.8 383.2 L 760.0 366.5 L 762.1 368.4 L 764.3 364.1 L 766.4 377.9 L 768.6 391.1 L 770.7 391.3 L 772.9 393.3 L 775.1 389.0 L 777.2 380.8 L 779.4 381.8 L 781.5 388.4 L 783.7 388.1 L 785.9 386.2 L 788.0 376.7 L 790.2 377.7 L 792.3 360.9 L 794.5 365.6 L 796.7 361.6 L 798.8 355.2 L 801.0 354.8 L 803.1 367.4 L 805.3 347.2 L 807.4 348.8 L 809.6 345.1 L 811.8 343.2 L 813.9 332.7 L 816.1 340.3 L 818.2 350.6 L 820.4 339.4 L 822.6 336.7 L 824.7 326.6 L 826.9 326.2 L 829.0 330.7 L 831.2 329.7 L 833.3 324.0 L 835.5 331.1 L 837.7 336.7 L 839.8 339.8 L 842.0 336.7 L 844.1 326.3 L 846.3 323.8 L 848.5 324.5 L 850.6 317.4 L 852.8 311.7 L 854.9 308.7 L 857.1 316.6 L 859.3 315.6 L 861.4 312.9 L 863.6 304.5 L 865.7 307.1" fill="none" stroke="#2563eb" stroke-width="2.2"/>
<path d="M 867.9 305.3 L 870.0 305.6 L 872.2 306.3 L 874.4 307.9 L 876.5 307.8 L 878.7 308.1 L 880.8 308.2 L 883.0 308.9 L 885.2 309.4 L 887.3 312.9 L 889.5 315.7 L 891.6 322.4 L 893.8 328.4 L 895.9 329.2 L 898.1 331.7 L 900.3 335.6 L 902.4 337.1 L 904.6 337.3 L 906.7 337.9 L 908.9 339.5 L 911.1 338.9 L 913.2 339.9 L 915.4 340.0 L 917.5 340.7 L 919.7 340.0 L 921.9 339.5 L 924.0 340.2 L 926.2 340.7 L 928.3 342.5 L 930.5 343.1 L 932.6 343.3 L 934.8 342.6 L 937.0 347.8 L 939.1 347.2 L 941.3 348.4 L 943.4 350.4 L 945.6 350.2 L 947.8 350.1 L 949.9 351.4 L 952.1 351.4 L 954.2 351.2 L 956.4 350.6 L 958.5 351.0 L 960.7 351.2 L 962.9 352.1 L 965.0 352.9 L 967.2 352.5 L 969.3 350.8 L 971.5 356.6 L 973.7 356.2 L 975.8 356.3 L 978.0 358.8 L 980.1 359.6 L 982.3 359.3 L 984.4 360.4 L 986.6 360.2 L 988.8 359.8 L 990.9 359.0 L 993.1 359.4 L 995.2 359.2 L 997.4 359.8 L 999.6 361.5 L 1001.7 361.0 L 1003.9 358.5 L 1006.0 364.0 L 1008.2 364.0 L 1010.4 365.0 L 1012.5 367.9 L 1014.7 368.4 L 1016.8 368.8 L 1019.0 370.6 L 1021.1 369.5 L 1023.3 368.1 L 1025.5 368.1 L 1027.6 368.7 L 1029.8 369.1 L 1031.9 369.3 L 1034.1 370.5 L 1036.3 371.4 L 1038.4 369.2 L 1040.6 376.0 L 1042.7 377.2 L 1044.9 379.7 L 1047.0 382.0 L 1049.2 381.3 L 1051.4 383.0 L 1053.5 383.7 L 1055.7 383.2 L 1057.8 381.0 L 1060.0 380.9" fill="none" stroke="#dc2626" stroke-width="2.4" stroke-dasharray="8 5"/>
<circle cx="88" cy="586" r="5" fill="#2563eb"/><text x="100" y="590" font-family="Arial, sans-serif" font-size="13" fill="#374151">history</text>
<circle cx="178" cy="586" r="5" fill="#dc2626"/><text x="190" y="590" font-family="Arial, sans-serif" font-size="13" fill="#374151">forecast</text>
<rect x="265" y="581" width="22" height="10" rx="2" fill="#dc2626" fill-opacity="0.18"/><text x="296" y="590" font-family="Arial, sans-serif" font-size="13" fill="#374151">10-90% probability corridor</text>
</svg>
