<svg xmlns="http://www.w3.org/2000/svg" data-y-scale="log" width="1100" height="620" viewBox="0 0 1100 620">
<rect width="100%" height="100%" fill="#ffffff"/>
<text x="80" y="26" font-family="Arial, sans-serif" font-size="20" font-weight="700" fill="#111827">BTCUSDT Chronos-2 Forecast</text>
<text x="80" y="50" font-family="Arial, sans-serif" font-size="13" fill="#4b5563">Last history close: 81,745.65 | Last forecast: 73,400.55 | Y scale: log scale</text>
<line x1="80" y1="505.0" x2="1060" y2="505.0" stroke="#e5e7eb" stroke-width="1"/>
<text x="70" y="509.0" text-anchor="end" font-family="Arial, sans-serif" font-size="12" fill="#6b7280">52,680</text>
<line x1="80" y1="396.8" x2="1060" y2="396.8" stroke="#e5e7eb" stroke-width="1"/>
<text x="70" y="400.8" text-anchor="end" font-family="Arial, sans-serif" font-size="12" fill="#6b7280">65,338</text>
<line x1="80" y1="288.5" x2="1060" y2="288.5" stroke="#e5e7eb" stroke-width="1"/>
<text x="70" y="292.5" text-anchor="end" font-family="Arial, sans-serif" font-size="12" fill="#6b7280">81,037</text>
<line x1="80" y1="180.2" x2="1060" y2="180.2" stroke="#e5e7eb" stroke-width="1"/>
<text x="70" y="184.2" text-anchor="end" font-family="Arial, sans-serif" font-size="12" fill="#6b7280">100,509</text>
<line x1="80" y1="72.0" x2="1060" y2="72.0" stroke="#e5e7eb" stroke-width="1"/>
<text x="70" y="76.0" text-anchor="end" font-family="Arial, sans-serif" font-size="12" fill="#6b7280">124,659</text>
<line class="x-axis-grid" x1="80.0" y1="72" x2="80.0" y2="505" stroke="#f1f5f9" stroke-width="1"/>
<line class="x-axis-grid" x1="276.0" y1="72" x2="276.0" y2="505" stroke="#f1f5f9" stroke-width="1"/>
<line class="x-axis-grid" x1="472.0" y1="72" x2="472.0" y2="505" stroke="#f1f5f9" stroke-width="1"/>
<line class="x-axis-grid" x1="668.0" y1="72" x2="668.0" y2="505" stroke="#f1f5f9" stroke-width="1"/>
<line class="x-axis-grid" x1="864.0" y1="72" x2="864.0" y2="505" stroke="#f1f5f9" stroke-width="1"/>
<line class="x-axis-grid" x1="1060.0" y1="72" x2="1060.0" y2="505" stroke="#f1f5f9" stroke-width="1"/>
<line x1="80" y1="72" x2="80" y2="505" stroke="#9ca3af" stroke-width="1"/>
<line x1="80" y1="505" x2="1060" y2="505" stroke="#9ca3af" stroke-width="1"/>
<text class="x-axis-label" x="80.0" y="530" text-anchor="middle" font-family="Arial, sans-serif" font-size="11" fill="#6b7280">2025-05-12</text>
<text class="x-axis-label" x="276.0" y="530" text-anchor="middle" font-family="Arial, sans-serif" font-size="11" fill="#6b7280">2025-08-10</text>
<text class="x-axis-label" x="472.0" y="530" text-anchor="middle" font-family="Arial, sans-serif" font-size="11" fill="#6b7280">2025-11-09</text>
<text class="x-axis-label" x="668.0" y="530" text-anchor="middle" font-family="Arial, sans-serif" font-size="11" fill="#6b7280">2026-02-08</text>
<text class="x-axis-label" x="864.0" y="530" text-anchor="middle" font-family="Arial, sans-serif" font-size="11" fill="#6b7280">2026-05-10</text>
<text class="x-axis-label" x="1060.0" y="530" text-anchor="middle" font-family="Arial, sans-serif" font-size="11" fill="#6b7280">2026-08-09</text>
<line id="forecast-start-line" x1="867.9" y1="72" x2="867.9" y2="505" stroke="#111827" stroke-width="1.3" stroke-dasharray="5 6" opacity="0.42"/>
<text x="875.9" y="87" font-family="Arial, sans-serif" font-size="11" fill="#374151">forecast start</text>
<path id="probability-corridor" d="M 867.9 270.8 L 870.0 269.9 L 872.2 268.4 L 874.4 266.1 L 876.5 263.4 L 878.7 261.2 L 880.8 259.5 L 883.0 256.9 L 885.2 254.4 L 887.3 253.5 L 889.5 251.3 L 891.6 250.5 L 893.8 248.4 L 895.9 247.7 L 898.1 246.3 L 900.3 244.0 L 902.4 247.5 L 904.6 247.3 L 906.7 245.8 L 908.9 242.6 L 911.1 242.9 L 913.2 241.4 L 915.4 240.3 L 917.5 239.0 L 919.7 236.3 L 921.9 236.2 L 924.0 233.5 L 926.2 232.7 L 928.3 231.1 L 930.5 231.5 L 932.6 231.5 L 934.8 229.3 L 937.0 233.2 L 939.1 233.8 L 941.3 232.7 L 943.4 230.5 L 945.6 231.5 L 947.8 228.5 L 949.9 228.1 L 952.1 227.4 L 954.2 225.7 L 956.4 225.2 L 958.5 222.2 L 960.7 220.6 L 962.9 219.2 L 965.0 220.0 L 967.2 220.9 L 969.3 219.2 L 971.5 219.1 L 973.7 220.2 L 975.8 220.2 L 978.0 217.0 L 980.1 218.9 L 982.3 215.9 L 984.4 216.2 L 986.6 214.6 L 988.8 213.6 L 990.9 212.5 L 993.1 209.1 L 995.2 206.5 L 997.4 205.7 L 999.6 206.6 L 1001.7 207.4 L 1003.9 203.4 L 1006.0 194.4 L 1008.2 194.8 L 1010.4 196.6 L 1012.5 194.0 L 1014.7 194.1 L 1016.8 190.5 L 1019.0 190.2 L 1021.1 191.3 L 1023.3 190.7 L 1025.5 188.2 L 1027.6 186.4 L 1029.8 183.9 L 1031.9 183.5 L 1034.1 186.3 L 1036.3 189.5 L 1038.4 184.7 L 1040.6 184.9 L 1042.7 183.4 L 1044.9 187.1 L 1047.0 186.1 L 1049.2 185.4 L 1051.4 181.1 L 1053.5 180.0 L 1055.7 182.7 L 1057.8 182.3 L 1060.0 178.9 L 1060.0 505.0 L 1057.8 504.6 L 1055.7 502.0 L 1053.5 502.0 L 1051.4 496.3 L 1049.2 496.8 L 1047.0 492.7 L 1044.9 493.1 L 1042.7 489.6 L 1040.6 486.3 L 1038.4 482.9 L 1036.3 481.0 L 1034.1 471.8 L 1031.9 476.2 L 1029.8 473.0 L 1027.6 472.0 L 1025.5 465.4 L 1023.3 466.7 L 1021.1 463.9 L 1019.0 461.6 L 1016.8 454.0 L 1014.7 456.8 L 1012.5 450.0 L 1010.4 448.8 L 1008.2 444.9 L 1006.0 441.7 L 1003.9 447.6 L 1001.7 446.1 L 999.6 439.0 L 997.4 442.4 L 995.2 439.2 L 993.1 437.3 L 990.9 429.7 L 988.8 431.5 L 986.6 428.0 L 984.4 424.7 L 982.3 420.8 L 980.1 422.8 L 978.0 417.0 L 975.8 417.0 L 973.7 413.0 L 971.5 411.1 L 969.3 415.2 L 967.2 412.7 L 965.0 410.9 L 962.9 409.9 L 960.7 405.7 L 958.5 404.4 L 956.4 395.5 L 954.2 396.6 L 952.1 393.1 L 949.9 390.6 L 947.8 387.3 L 945.6 387.6 L 943.4 382.1 L 941.3 379.4 L 939.1 378.5 L 937.0 375.6 L 934.8 380.0 L 932.6 374.6 L 930.5 375.9 L 928.3 367.1 L 926.2 364.7 L 924.0 367.9 L 921.9 361.6 L 919.7 359.8 L 917.5 355.5 L 915.4 352.0 L 913.2 350.4 L 911.1 346.2 L 908.9 345.3 L 906.7 343.4 L 904.6 338.5 L 902.4 333.8 L 900.3 336.6 L 898.1 333.1 L 895.9 332.9 L 893.8 329.6 L 891.6 326.6 L 889.5 325.7 L 887.3 321.7 L 885.2 318.4 L 883.0 317.4 L 880.8 313.9 L 878.7 311.9 L 876.5 309.3 L 874.4 305.5 L 872.2 303.7 L 870.0 297.2 L 867.9 295.0 Z" fill="#dc2626" fill-opacity="0.13" stroke="none"/>
<path d="M 80.0 169.0 L 82.2 162.6 L 84.3 165.5 L 86.5 164.2 L 88.6 165.7 L 90.8 167.3 L 93.0 151.4 L 95.1 155.5 L 97.3 149.5 L 99.4 136.5 L 101.6 127.2 L 103.7 147.3 L 105.9 145.2 L 108.1 139.5 L 110.2 137.5 L 112.4 139.8 L 114.5 145.1 L 116.7 155.5 L 118.9 163.2 L 121.0 160.2 L 123.2 155.2 L 125.3 154.2 L 127.5 156.5 L 129.6 159.7 L 131.8 175.3 L 134.0 161.7 L 136.1 155.6 L 138.3 154.8 L 140.4 133.7 L 142.6 133.6 L 144.8 141.1 L 146.9 155.1 L 149.1 153.2 L 151.2 156.3 L 153.4 155.4 L 155.6 149.8 L 157.7 160.4 L 159.9 158.8 L 162.0 159.9 L 164.2 166.5 L 166.3 172.3 L 168.5 178.0 L 170.7 156.7 L 172.8 153.1 L 175.0 147.2 L 177.1 149.0 L 179.3 148.6 L 181.5 147.4 L 183.6 142.5 L 185.8 148.1 L 187.9 155.0 L 190.1 140.2 L 192.2 136.8 L 194.4 144.2 L 196.6 143.2 L 198.7 138.5 L 200.9 142.9 L 203.0 139.8 L 205.2 129.3 L 207.4 108.1 L 209.5 101.6 L 211.7 102.1 L 213.8 95.0 L 216.0 91.8 L 218.1 100.6 L 220.3 96.9 L 222.5 94.6 L 224.6 99.9 L 226.8 100.3 L 228.9 102.7 L 231.1 102.2 L 233.3 91.3 L 235.4 96.4 L 237.6 98.1 L 239.7 101.2 L 241.9 99.9 L 244.1 93.6 L 246.2 99.3 L 248.4 99.8 L 250.5 100.3 L 252.7 109.2 L 254.8 120.0 L 257.0 123.4 L 259.2 116.0 L 261.3 112.3 L 263.5 116.4 L 265.6 112.6 L 267.8 101.8 L 270.0 105.3 L 272.1 106.2 L 274.3 94.1 L 276.4 96.7 L 278.6 90.6 L 280.7 77.5 L 282.9 98.3 L 285.1 102.4 L 287.2 102.2 L 289.4 102.1 L 291.5 107.2 L 293.7 121.9 L 295.9 115.7 L 298.0 123.6 L 300.2 104.1 L 302.3 110.6 L 304.5 119.2 L 306.7 134.4 L 308.8 126.9 L 311.0 129.2 L 313.1 123.3 L 315.3 142.4 L 317.4 140.3 L 319.6 143.0 L 321.8 138.4 L 323.9 129.3 L 326.1 127.2 L 328.2 131.6 L 330.4 131.9 L 332.6 134.0 L 334.7 129.7 L 336.9 125.5 L 339.0 127.9 L 341.2 117.1 L 343.3 110.4 L 345.5 108.1 L 347.7 108.5 L 349.8 111.4 L 352.0 111.0 L 354.1 104.8 L 356.3 106.3 L 358.5 103.6 L 360.6 109.8 L 362.8 109.6 L 364.9 111.5 L 367.1 122.9 L 369.3 125.8 L 371.4 120.0 L 373.6 139.5 L 375.7 136.5 L 377.9 136.6 L 380.0 125.1 L 382.2 115.6 L 384.4 116.7 L 386.5 97.1 L 388.7 88.9 L 390.8 81.9 L 393.0 81.2 L 395.2 76.8 L 397.3 72.0 L 399.5 85.6 L 401.6 77.5 L 403.8 84.2 L 405.9 122.4 L 408.1 132.0 L 410.3 112.7 L 412.4 111.8 L 414.6 121.2 L 416.7 131.4 L 418.9 143.2 L 421.1 151.5 L 423.2 147.9 L 425.4 141.1 L 427.5 132.5 L 429.7 142.7 L 431.9 146.1 L 434.0 134.5 L 436.2 130.3 L 438.3 127.4 L 440.5 114.5 L 442.6 116.5 L 444.8 121.8 L 447.0 134.8 L 449.1 142.6 L 451.3 136.7 L 453.4 134.4 L 455.6 132.4 L 457.8 150.8 L 459.9 175.3 L 462.1 163.6 L 464.2 176.1 L 466.4 166.3 L 468.5 171.3 L 470.7 159.6 L 472.9 153.5 L 475.0 167.7 L 477.2 174.6 L 479.3 184.4 L 481.5 210.7 L 483.7 205.4 L 485.8 212.5 L 488.0 223.5 L 490.1 219.5 L 492.3 227.2 L 494.4 254.9 L 496.6 263.7 L 498.8 266.0 L 500.9 253.8 L 503.1 245.4 L 505.2 250.7 L 507.4 233.1 L 509.6 228.4 L 511.7 230.8 L 513.9 231.3 L 516.0 233.8 L 518.2 256.9 L 520.4 228.7 L 522.5 217.0 L 524.7 224.3 L 526.8 239.5 L 529.0 240.0 L 531.1 233.6 L 533.3 232.2 L 535.5 221.0 L 537.6 224.6 L 539.8 221.9 L 541.9 234.3 L 544.1 234.4 L 546.3 246.1 L 548.4 256.1 L 550.6 247.8 L 552.7 257.2 L 554.9 261.5 L 557.0 246.3 L 559.2 245.0 L 561.4 243.3 L 563.5 243.5 L 565.7 250.0 L 567.8 249.0 L 570.0 251.5 L 572.2 250.7 L 574.3 247.8 L 576.5 247.3 L 578.6 251.4 L 580.8 244.3 L 583.0 249.1 L 585.1 242.3 L 587.3 235.8 L 589.4 232.3 L 591.6 227.3 L 593.7 214.7 L 595.9 215.3 L 598.1 228.2 L 600.2 229.7 L 602.4 232.2 L 604.5 233.0 L 606.7 230.1 L 608.9 228.6 L 611.0 206.4 L 613.2 198.4 L 615.3 205.4 L 617.5 205.7 L 619.6 207.8 L 621.8 215.7 L 624.0 221.3 L 626.1 244.6 L 628.3 238.8 L 630.4 238.2 L 632.6 238.0 L 634.8 240.1 L 636.9 254.7 L 639.1 245.1 L 641.2 240.0 L 643.4 239.7 L 645.6 266.6 L 647.7 268.9 L 649.9 302.9 L 652.0 314.4 L 654.2 303.0 L 656.3 322.3 L 658.5 339.9 L 660.7 415.8 L 662.8 358.0 L 665.0 367.2 L 667.1 359.7 L 669.3 361.1 L 671.5 370.5 L 673.6 383.5 L 675.8 389.6 L 677.9 370.4 L 680.1 363.4 L 682.2 370.6 L 684.4 370.1 L 686.6 380.4 L 688.7 388.2 L 690.9 384.1 L 693.0 376.5 L 695.2 376.9 L 697.4 379.3 L 699.5 402.0 L 701.7 406.7 L 703.8 376.8 L 706.0 380.5 L 708.1 392.7 L 710.3 384.3 L 712.5 393.4 L 714.6 370.6 L 716.8 374.2 L 718.9 343.3 L 721.1 355.7 L 723.3 375.8 L 725.4 382.2 L 727.6 391.9 L 729.7 373.5 L 731.9 362.5 L 734.1 360.7 L 736.2 358.2 L 738.4 355.5 L 740.5 353.5 L 742.7 342.3 L 744.8 328.2 L 747.0 334.8 L 749.2 353.2 L 751.3 362.6 L 753.5 358.4 L 755.6 369.9 L 757.8 377.7 L 760.0 355.6 L 762.1 358.1 L 764.3 352.6 L 766.4 370.6 L 768.6 388.6 L 770.7 388.8 L 772.9 391.6 L 775.1 385.6 L 777.2 374.6 L 779.4 375.8 L 781.5 384.9 L 783.7 384.4 L 785.9 381.9 L 788.0 369.1 L 790.2 370.4 L 792.3 348.5 L 794.5 354.5 L 796.7 349.4 L 798.8 341.3 L 801.0 340.7 L 803.1 356.8 L 805.3 331.3 L 807.4 333.3 L 809.6 328.7 L 811.8 326.4 L 813.9 313.7 L 816.1 322.8 L 818.2 335.5 L 820.4 321.8 L 822.6 318.5 L 824.7 306.6 L 826.9 306.0 L 829.0 311.3 L 831.2 310.1 L 833.3 303.5 L 835.5 311.8 L 837.7 318.5 L 839.8 322.2 L 842.0 318.5 L 844.1 306.2 L 846.3 303.3 L 848.5 304.1 L 850.6 295.8 L 852.8 289.3 L 854.9 286.0 L 857.1 294.9 L 859.3 293.8 L 861.4 290.7 L 863.6 281.3 L 865.7 284.1" fill="none" stroke="#2563eb" stroke-width="2.2"/>
<path d="M 867.9 282.0 L 870.0 283.1 L 872.2 284.6 L 874.4 285.9 L 876.5 286.0 L 878.7 285.9 L 880.8 286.1 L 883.0 286.3 L 885.2 285.4 L 887.3 286.2 L 889.5 287.0 L 891.6 287.0 L 893.8 288.7 L 895.9 287.6 L 898.1 286.9 L 900.3 289.3 L 902.4 290.4 L 904.6 292.6 L 906.7 293.5 L 908.9 294.0 L 911.1 293.9 L 913.2 295.7 L 915.4 295.6 L 917.5 296.1 L 919.7 295.3 L 921.9 296.0 L 924.0 296.4 L 926.2 296.6 L 928.3 298.4 L 930.5 298.1 L 932.6 298.0 L 934.8 300.6 L 937.0 299.9 L 939.1 302.1 L 941.3 302.7 L 943.4 303.4 L 945.6 302.6 L 947.8 304.5 L 949.9 304.2 L 952.1 305.4 L 954.2 304.5 L 956.4 305.2 L 958.5 305.9 L 960.7 307.1 L 962.9 308.8 L 965.0 308.7 L 967.2 308.9 L 969.3 309.3 L 971.5 311.1 L 973.7 312.4 L 975.8 312.8 L 978.0 313.6 L 980.1 314.5 L 982.3 314.9 L 984.4 315.1 L 986.6 315.7 L 988.8 315.8 L 990.9 315.7 L 993.1 316.7 L 995.2 317.0 L 997.4 318.4 L 999.6 319.9 L 1001.7 319.2 L 1003.9 316.3 L 1006.0 319.5 L 1008.2 319.9 L 1010.4 321.0 L 1012.5 322.8 L 1014.7 324.4 L 1016.8 324.2 L 1019.0 326.3 L 1021.1 325.9 L 1023.3 326.1 L 1025.5 326.3 L 1027.6 327.2 L 1029.8 328.2 L 1031.9 331.2 L 1034.1 333.0 L 1036.3 333.0 L 1038.4 330.3 L 1040.6 331.7 L 1042.7 332.0 L 1044.9 332.5 L 1047.0 335.8 L 1049.2 336.6 L 1051.4 337.1 L 1053.5 338.4 L 1055.7 337.2 L 1057.8 337.8 L 1060.0 338.3" fill="none" stroke="#dc2626" stroke-width="2.4" stroke-dasharray="8 5"/>
<circle cx="88" cy="586" r="5" fill="#2563eb"/><text x="100" y="590" font-family="Arial, sans-serif" font-size="13" fill="#374151">history</text>
<circle cx="178" cy="586" r="5" fill="#dc2626"/><text x="190" y="590" font-family="Arial, sans-serif" font-size="13" fill="#374151">forecast</text>
<rect x="265" y="581" width="22" height="10" rx="2" fill="#dc2626" fill-opacity="0.18"/><text x="296" y="590" font-family="Arial, sans-serif" font-size="13" fill="#374151">10-90% probability corridor</text>
</svg>
