<svg xmlns="http://www.w3.org/2000/svg" width="1100" height="560" viewBox="0 0 1100 560">
<rect width="100%" height="100%" fill="#ffffff"/>
<text x="80" y="26" font-family="Arial, sans-serif" font-size="20" font-weight="700" fill="#111827">BTCUSDT Chronos-2 Forecast</text>
<text x="80" y="50" font-family="Arial, sans-serif" font-size="13" fill="#4b5563">Last history close: 81,745.65 | Last forecast: 101,824.50</text>
<line x1="80" y1="490.0" x2="1060" y2="490.0" stroke="#e5e7eb" stroke-width="1"/>
<text x="70" y="494.0" text-anchor="end" font-family="Arial, sans-serif" font-size="12" fill="#6b7280">54,149</text>
<line x1="80" y1="377.5" x2="1060" y2="377.5" stroke="#e5e7eb" stroke-width="1"/>
<text x="70" y="381.5" text-anchor="end" font-family="Arial, sans-serif" font-size="12" fill="#6b7280">82,705</text>
<line x1="80" y1="265.0" x2="1060" y2="265.0" stroke="#e5e7eb" stroke-width="1"/>
<text x="70" y="269.0" text-anchor="end" font-family="Arial, sans-serif" font-size="12" fill="#6b7280">111,261</text>
<line x1="80" y1="152.5" x2="1060" y2="152.5" stroke="#e5e7eb" stroke-width="1"/>
<text x="70" y="156.5" text-anchor="end" font-family="Arial, sans-serif" font-size="12" fill="#6b7280">139,817</text>
<line x1="80" y1="40.0" x2="1060" y2="40.0" stroke="#e5e7eb" stroke-width="1"/>
<text x="70" y="44.0" text-anchor="end" font-family="Arial, sans-serif" font-size="12" fill="#6b7280">168,373</text>
<line x1="80" y1="40" x2="80" y2="490" stroke="#9ca3af" stroke-width="1"/>
<line x1="80" y1="490" x2="1060" y2="490" stroke="#9ca3af" stroke-width="1"/>
<path id="probability-corridor" d="M 867.9 370.4 L 870.0 370.0 L 872.2 368.7 L 874.4 365.3 L 876.5 362.9 L 878.7 360.5 L 880.8 358.5 L 883.0 355.4 L 885.2 354.5 L 887.3 352.3 L 889.5 352.0 L 891.6 352.5 L 893.8 351.9 L 895.9 350.5 L 898.1 347.3 L 900.3 344.6 L 902.4 333.9 L 904.6 335.4 L 906.7 336.1 L 908.9 333.2 L 911.1 333.3 L 913.2 332.1 L 915.4 331.0 L 917.5 329.4 L 919.7 328.8 L 921.9 326.0 L 924.0 323.9 L 926.2 322.6 L 928.3 320.7 L 930.5 322.6 L 932.6 321.2 L 934.8 321.3 L 937.0 298.4 L 939.1 298.6 L 941.3 300.3 L 943.4 296.8 L 945.6 296.7 L 947.8 292.5 L 949.9 289.8 L 952.1 286.9 L 954.2 284.1 L 956.4 279.8 L 958.5 275.5 L 960.7 271.2 L 962.9 266.4 L 965.0 267.1 L 967.2 260.8 L 969.3 256.0 L 971.5 255.1 L 973.7 254.0 L 975.8 255.4 L 978.0 250.7 L 980.1 250.5 L 982.3 246.3 L 984.4 241.3 L 986.6 239.6 L 988.8 234.4 L 990.9 230.1 L 993.1 224.6 L 995.2 222.1 L 997.4 215.2 L 999.6 217.8 L 1001.7 210.4 L 1003.9 204.0 L 1006.0 137.2 L 1008.2 130.9 L 1010.4 134.6 L 1012.5 131.0 L 1014.7 129.6 L 1016.8 125.1 L 1019.0 119.9 L 1021.1 117.3 L 1023.3 119.6 L 1025.5 112.1 L 1027.6 109.4 L 1029.8 109.2 L 1031.9 104.8 L 1034.1 108.8 L 1036.3 103.4 L 1038.4 96.6 L 1040.6 68.5 L 1042.7 62.0 L 1044.9 67.7 L 1047.0 65.6 L 1049.2 60.0 L 1051.4 53.1 L 1053.5 48.0 L 1055.7 45.0 L 1057.8 49.2 L 1060.0 40.0 L 1060.0 484.0 L 1057.8 483.7 L 1055.7 485.9 L 1053.5 487.6 L 1051.4 488.2 L 1049.2 487.7 L 1047.0 487.9 L 1044.9 489.4 L 1042.7 490.0 L 1040.6 487.2 L 1038.4 477.7 L 1036.3 476.1 L 1034.1 473.1 L 1031.9 475.6 L 1029.8 476.6 L 1027.6 474.4 L 1025.5 473.9 L 1023.3 474.8 L 1021.1 476.5 L 1019.0 477.1 L 1016.8 476.4 L 1014.7 476.4 L 1012.5 476.2 L 1010.4 476.9 L 1008.2 478.0 L 1006.0 476.3 L 1003.9 478.6 L 1001.7 477.4 L 999.6 473.9 L 997.4 477.0 L 995.2 477.0 L 993.1 476.8 L 990.9 475.2 L 988.8 476.9 L 986.6 477.2 L 984.4 477.5 L 982.3 476.2 L 980.1 476.4 L 978.0 474.2 L 975.8 474.9 L 973.7 475.0 L 971.5 475.0 L 969.3 478.1 L 967.2 476.8 L 965.0 474.1 L 962.9 478.3 L 960.7 477.5 L 958.5 476.6 L 956.4 475.7 L 954.2 476.5 L 952.1 477.0 L 949.9 476.4 L 947.8 475.2 L 945.6 474.1 L 943.4 472.6 L 941.3 472.6 L 939.1 471.8 L 937.0 472.3 L 934.8 484.9 L 932.6 482.4 L 930.5 480.5 L 928.3 483.4 L 926.2 480.5 L 924.0 476.4 L 921.9 476.4 L 919.7 476.7 L 917.5 477.3 L 915.4 475.6 L 913.2 474.5 L 911.1 472.6 L 908.9 471.4 L 906.7 471.1 L 904.6 468.7 L 902.4 469.0 L 900.3 482.4 L 898.1 472.2 L 895.9 463.2 L 893.8 454.7 L 891.6 438.8 L 889.5 425.3 L 887.3 413.0 L 885.2 407.4 L 883.0 400.4 L 880.8 395.1 L 878.7 396.0 L 876.5 393.0 L 874.4 390.8 L 872.2 389.4 L 870.0 388.4 L 867.9 384.8 Z" fill="#dc2626" fill-opacity="0.13" stroke="none"/>
<path d="M 80.0 298.4 L 82.2 293.2 L 84.3 295.5 L 86.5 294.5 L 88.6 295.7 L 90.8 297.0 L 93.0 283.9 L 95.1 287.4 L 97.3 282.4 L 99.4 271.4 L 101.6 263.3 L 103.7 280.5 L 105.9 278.8 L 108.1 273.9 L 110.2 272.2 L 112.4 274.2 L 114.5 278.7 L 116.7 287.3 L 118.9 293.7 L 121.0 291.3 L 123.2 287.1 L 125.3 286.3 L 127.5 288.2 L 129.6 290.9 L 131.8 303.4 L 134.0 292.5 L 136.1 287.5 L 138.3 286.8 L 140.4 268.9 L 142.6 268.9 L 144.8 275.3 L 146.9 287.0 L 149.1 285.5 L 151.2 288.0 L 153.4 287.3 L 155.6 282.6 L 157.7 291.4 L 159.9 290.1 L 162.0 291.0 L 164.2 296.4 L 166.3 301.0 L 168.5 305.6 L 170.7 288.3 L 172.8 285.4 L 175.0 280.4 L 177.1 282.0 L 179.3 281.6 L 181.5 280.6 L 183.6 276.4 L 185.8 281.2 L 187.9 287.0 L 190.1 274.5 L 192.2 271.6 L 194.4 277.9 L 196.6 277.1 L 198.7 273.1 L 200.9 276.8 L 203.0 274.2 L 205.2 265.1 L 207.4 246.3 L 209.5 240.3 L 211.7 240.7 L 213.8 234.2 L 216.0 231.2 L 218.1 239.4 L 220.3 236.0 L 222.5 233.8 L 224.6 238.7 L 226.8 239.1 L 228.9 241.3 L 231.1 240.9 L 233.3 230.8 L 235.4 235.5 L 237.6 237.1 L 239.7 240.0 L 241.9 238.8 L 244.1 232.9 L 246.2 238.2 L 248.4 238.6 L 250.5 239.1 L 252.7 247.3 L 254.8 257.0 L 257.0 259.9 L 259.2 253.4 L 261.3 250.1 L 263.5 253.7 L 265.6 250.3 L 267.8 240.5 L 270.0 243.7 L 272.1 244.5 L 274.3 233.4 L 276.4 235.7 L 278.6 230.0 L 280.7 217.5 L 282.9 237.3 L 285.1 241.0 L 287.2 240.9 L 289.4 240.8 L 291.5 245.4 L 293.7 258.6 L 295.9 253.1 L 298.0 260.1 L 300.2 242.6 L 302.3 248.5 L 304.5 256.2 L 306.7 269.5 L 308.8 263.0 L 311.0 265.0 L 313.1 259.9 L 315.3 276.4 L 317.4 274.6 L 319.6 276.9 L 321.8 273.0 L 323.9 265.1 L 326.1 263.2 L 328.2 267.1 L 330.4 267.4 L 332.6 269.2 L 334.7 265.5 L 336.9 261.8 L 339.0 263.9 L 341.2 254.4 L 343.3 248.4 L 345.5 246.2 L 347.7 246.7 L 349.8 249.2 L 352.0 248.9 L 354.1 243.2 L 356.3 244.6 L 358.5 242.1 L 360.6 247.8 L 362.8 247.6 L 364.9 249.4 L 367.1 259.5 L 369.3 262.1 L 371.4 256.9 L 373.6 273.9 L 375.7 271.4 L 377.9 271.4 L 380.0 261.4 L 382.2 253.0 L 384.4 254.0 L 386.5 236.1 L 388.7 228.5 L 390.8 221.8 L 393.0 221.2 L 395.2 216.9 L 397.3 212.2 L 399.5 225.3 L 401.6 217.5 L 403.8 224.0 L 405.9 259.0 L 408.1 267.4 L 410.3 250.4 L 412.4 249.6 L 414.6 258.0 L 416.7 267.0 L 418.9 277.1 L 421.1 284.0 L 423.2 281.1 L 425.4 275.3 L 427.5 267.9 L 429.7 276.7 L 431.9 279.6 L 434.0 269.7 L 436.2 266.0 L 438.3 263.5 L 440.5 252.0 L 442.6 253.8 L 444.8 258.5 L 447.0 269.9 L 449.1 276.6 L 451.3 271.5 L 453.4 269.6 L 455.6 267.8 L 457.8 283.4 L 459.9 303.5 L 462.1 294.1 L 464.2 304.1 L 466.4 296.2 L 468.5 300.3 L 470.7 290.8 L 472.9 285.7 L 475.0 297.3 L 477.2 302.8 L 479.3 310.6 L 481.5 330.7 L 483.7 326.7 L 485.8 332.0 L 488.0 340.0 L 490.1 337.1 L 492.3 342.6 L 494.4 362.0 L 496.6 367.9 L 498.8 369.5 L 500.9 361.2 L 503.1 355.5 L 505.2 359.1 L 507.4 346.9 L 509.6 343.5 L 511.7 345.3 L 513.9 345.6 L 516.0 347.3 L 518.2 363.4 L 520.4 343.7 L 522.5 335.2 L 524.7 340.6 L 526.8 351.4 L 529.0 351.8 L 531.1 347.2 L 533.3 346.3 L 535.5 338.2 L 537.6 340.8 L 539.8 338.9 L 541.9 347.7 L 544.1 347.8 L 546.3 356.0 L 548.4 362.8 L 550.6 357.2 L 552.7 363.6 L 554.9 366.4 L 557.0 356.1 L 559.2 355.2 L 561.4 354.0 L 563.5 354.2 L 565.7 358.7 L 567.8 357.9 L 570.0 359.7 L 572.2 359.1 L 574.3 357.1 L 576.5 356.8 L 578.6 359.6 L 580.8 354.7 L 583.0 358.0 L 585.1 353.3 L 587.3 348.8 L 589.4 346.3 L 591.6 342.7 L 593.7 333.6 L 595.9 334.0 L 598.1 343.4 L 600.2 344.4 L 602.4 346.2 L 604.5 346.8 L 606.7 344.8 L 608.9 343.7 L 611.0 327.4 L 613.2 321.4 L 615.3 326.7 L 617.5 326.9 L 619.6 328.5 L 621.8 334.3 L 624.0 338.4 L 626.1 355.0 L 628.3 350.9 L 630.4 350.5 L 632.6 350.3 L 634.8 351.8 L 636.9 361.9 L 639.1 355.3 L 641.2 351.7 L 643.4 351.5 L 645.6 369.8 L 647.7 371.4 L 649.9 393.1 L 652.0 400.1 L 654.2 393.1 L 656.3 404.8 L 658.5 415.1 L 660.7 455.5 L 662.8 425.3 L 665.0 430.4 L 667.1 426.3 L 669.3 427.0 L 671.5 432.1 L 673.6 439.0 L 675.8 442.2 L 677.9 432.1 L 680.1 428.3 L 682.2 432.2 L 684.4 431.9 L 686.6 437.4 L 688.7 441.5 L 690.9 439.4 L 693.0 435.4 L 695.2 435.5 L 697.4 436.8 L 699.5 448.6 L 701.7 451.0 L 703.8 435.5 L 706.0 437.5 L 708.1 443.8 L 710.3 439.5 L 712.5 444.2 L 714.6 432.2 L 716.8 434.1 L 718.9 417.0 L 721.1 424.0 L 723.3 435.0 L 725.4 438.3 L 727.6 443.4 L 729.7 433.7 L 731.9 427.8 L 734.1 426.8 L 736.2 425.4 L 738.4 423.9 L 740.5 422.8 L 742.7 416.5 L 744.8 408.3 L 747.0 412.2 L 749.2 422.6 L 751.3 427.8 L 753.5 425.5 L 755.6 431.8 L 757.8 436.0 L 760.0 424.0 L 762.1 425.4 L 764.3 422.3 L 766.4 432.2 L 768.6 441.7 L 770.7 441.8 L 772.9 443.3 L 775.1 440.2 L 777.2 434.3 L 779.4 435.0 L 781.5 439.8 L 783.7 439.5 L 785.9 438.2 L 788.0 431.4 L 790.2 432.1 L 792.3 420.0 L 794.5 423.3 L 796.7 420.5 L 798.8 415.9 L 801.0 415.6 L 803.1 424.6 L 805.3 410.1 L 807.4 411.3 L 809.6 408.6 L 811.8 407.2 L 813.9 399.7 L 816.1 405.1 L 818.2 412.6 L 820.4 404.5 L 822.6 402.6 L 824.7 395.3 L 826.9 395.0 L 829.0 398.3 L 831.2 397.5 L 833.3 393.4 L 835.5 398.5 L 837.7 402.6 L 839.8 404.8 L 842.0 402.5 L 844.1 395.1 L 846.3 393.3 L 848.5 393.8 L 850.6 388.7 L 852.8 384.6 L 854.9 382.5 L 857.1 388.1 L 859.3 387.4 L 861.4 385.5 L 863.6 379.4 L 865.7 381.3" fill="none" stroke="#2563eb" stroke-width="2.2"/>
<path d="M 867.9 378.0 L 870.0 378.4 L 872.2 378.5 L 874.4 378.9 L 876.5 377.8 L 878.7 377.9 L 880.8 377.0 L 883.0 376.4 L 885.2 377.2 L 887.3 379.5 L 889.5 382.4 L 891.6 387.6 L 893.8 392.7 L 895.9 393.0 L 898.1 396.2 L 900.3 400.3 L 902.4 392.6 L 904.6 391.6 L 906.7 392.2 L 908.9 393.3 L 911.1 392.8 L 913.2 393.5 L 915.4 392.7 L 917.5 392.3 L 919.7 391.2 L 921.9 389.5 L 924.0 389.6 L 926.2 389.5 L 928.3 390.3 L 930.5 388.9 L 932.6 388.6 L 934.8 390.0 L 937.0 387.3 L 939.1 385.0 L 941.3 385.8 L 943.4 386.9 L 945.6 386.7 L 947.8 386.1 L 949.9 386.3 L 952.1 384.1 L 954.2 383.0 L 956.4 381.2 L 958.5 380.4 L 960.7 378.9 L 962.9 378.0 L 965.0 374.7 L 967.2 372.7 L 969.3 371.8 L 971.5 378.6 L 973.7 375.5 L 975.8 375.9 L 978.0 376.8 L 980.1 377.7 L 982.3 376.7 L 984.4 377.0 L 986.6 374.2 L 988.8 373.0 L 990.9 371.3 L 993.1 370.6 L 995.2 369.9 L 997.4 369.4 L 999.6 367.6 L 1001.7 365.4 L 1003.9 363.8 L 1006.0 340.2 L 1008.2 334.8 L 1010.4 334.7 L 1012.5 334.7 L 1014.7 335.7 L 1016.8 334.8 L 1019.0 335.6 L 1021.1 332.6 L 1023.3 330.6 L 1025.5 329.5 L 1027.6 329.5 L 1029.8 331.7 L 1031.9 332.8 L 1034.1 331.6 L 1036.3 328.5 L 1038.4 328.4 L 1040.6 315.5 L 1042.7 310.6 L 1044.9 310.8 L 1047.0 309.6 L 1049.2 311.1 L 1051.4 309.9 L 1053.5 310.0 L 1055.7 306.2 L 1057.8 302.6 L 1060.0 302.2" fill="none" stroke="#dc2626" stroke-width="2.4" stroke-dasharray="8 5"/>
<circle cx="88" cy="526" r="5" fill="#2563eb"/><text x="100" y="530" font-family="Arial, sans-serif" font-size="13" fill="#374151">history</text>
<circle cx="178" cy="526" r="5" fill="#dc2626"/><text x="190" y="530" font-family="Arial, sans-serif" font-size="13" fill="#374151">forecast</text>
<rect x="265" y="521" width="22" height="10" rx="2" fill="#dc2626" fill-opacity="0.18"/><text x="296" y="530" font-family="Arial, sans-serif" font-size="13" fill="#374151">10-90% probability corridor</text>
</svg>
