<svg xmlns="http://www.w3.org/2000/svg" data-y-scale="linear" width="1100" height="620" viewBox="0 0 1100 620">
<rect width="100%" height="100%" fill="#ffffff"/>
<text x="80" y="26" font-family="Arial, sans-serif" font-size="20" font-weight="700" fill="#111827">BTCUSDT Chronos-2 Forecast</text>
<text x="80" y="50" font-family="Arial, sans-serif" font-size="13" fill="#4b5563">Last history close: 81,745.65 | Last forecast: 73,400.55</text>
<line x1="80" y1="505.0" x2="1060" y2="505.0" stroke="#e5e7eb" stroke-width="1"/>
<text x="70" y="509.0" text-anchor="end" font-family="Arial, sans-serif" font-size="12" fill="#6b7280">52,680</text>
<line x1="80" y1="396.8" x2="1060" y2="396.8" stroke="#e5e7eb" stroke-width="1"/>
<text x="70" y="400.8" text-anchor="end" font-family="Arial, sans-serif" font-size="12" fill="#6b7280">70,675</text>
<line x1="80" y1="288.5" x2="1060" y2="288.5" stroke="#e5e7eb" stroke-width="1"/>
<text x="70" y="292.5" text-anchor="end" font-family="Arial, sans-serif" font-size="12" fill="#6b7280">88,669</text>
<line x1="80" y1="180.2" x2="1060" y2="180.2" stroke="#e5e7eb" stroke-width="1"/>
<text x="70" y="184.2" text-anchor="end" font-family="Arial, sans-serif" font-size="12" fill="#6b7280">106,664</text>
<line x1="80" y1="72.0" x2="1060" y2="72.0" stroke="#e5e7eb" stroke-width="1"/>
<text x="70" y="76.0" text-anchor="end" font-family="Arial, sans-serif" font-size="12" fill="#6b7280">124,659</text>
<line class="x-axis-grid" x1="80.0" y1="72" x2="80.0" y2="505" stroke="#f1f5f9" stroke-width="1"/>
<line class="x-axis-grid" x1="276.0" y1="72" x2="276.0" y2="505" stroke="#f1f5f9" stroke-width="1"/>
<line class="x-axis-grid" x1="472.0" y1="72" x2="472.0" y2="505" stroke="#f1f5f9" stroke-width="1"/>
<line class="x-axis-grid" x1="668.0" y1="72" x2="668.0" y2="505" stroke="#f1f5f9" stroke-width="1"/>
<line class="x-axis-grid" x1="864.0" y1="72" x2="864.0" y2="505" stroke="#f1f5f9" stroke-width="1"/>
<line class="x-axis-grid" x1="1060.0" y1="72" x2="1060.0" y2="505" stroke="#f1f5f9" stroke-width="1"/>
<line x1="80" y1="72" x2="80" y2="505" stroke="#9ca3af" stroke-width="1"/>
<line x1="80" y1="505" x2="1060" y2="505" stroke="#9ca3af" stroke-width="1"/>
<text class="x-axis-label" x="80.0" y="530" text-anchor="middle" font-family="Arial, sans-serif" font-size="11" fill="#6b7280">2025-05-12</text>
<text class="x-axis-label" x="276.0" y="530" text-anchor="middle" font-family="Arial, sans-serif" font-size="11" fill="#6b7280">2025-08-10</text>
<text class="x-axis-label" x="472.0" y="530" text-anchor="middle" font-family="Arial, sans-serif" font-size="11" fill="#6b7280">2025-11-09</text>
<text class="x-axis-label" x="668.0" y="530" text-anchor="middle" font-family="Arial, sans-serif" font-size="11" fill="#6b7280">2026-02-08</text>
<text class="x-axis-label" x="864.0" y="530" text-anchor="middle" font-family="Arial, sans-serif" font-size="11" fill="#6b7280">2026-05-10</text>
<text class="x-axis-label" x="1060.0" y="530" text-anchor="middle" font-family="Arial, sans-serif" font-size="11" fill="#6b7280">2026-08-09</text>
<line id="forecast-start-line" x1="867.9" y1="72" x2="867.9" y2="505" stroke="#111827" stroke-width="1.3" stroke-dasharray="5 6" opacity="0.42"/>
<text x="875.9" y="87" font-family="Arial, sans-serif" font-size="11" fill="#374151">forecast start</text>
<path id="probability-corridor" d="M 867.9 316.9 L 870.0 316.0 L 872.2 314.5 L 874.4 312.2 L 876.5 309.5 L 878.7 307.3 L 880.8 305.5 L 883.0 302.8 L 885.2 300.2 L 887.3 299.2 L 889.5 296.9 L 891.6 296.1 L 893.8 294.0 L 895.9 293.2 L 898.1 291.7 L 900.3 289.2 L 902.4 292.9 L 904.6 292.7 L 906.7 291.2 L 908.9 287.8 L 911.1 288.1 L 913.2 286.5 L 915.4 285.3 L 917.5 284.0 L 919.7 281.1 L 921.9 281.0 L 924.0 278.1 L 926.2 277.2 L 928.3 275.5 L 930.5 275.9 L 932.6 275.9 L 934.8 273.5 L 937.0 277.7 L 939.1 278.3 L 941.3 277.2 L 943.4 274.8 L 945.6 275.9 L 947.8 272.6 L 949.9 272.1 L 952.1 271.4 L 954.2 269.5 L 956.4 269.0 L 958.5 265.7 L 960.7 263.9 L 962.9 262.4 L 965.0 263.2 L 967.2 264.3 L 969.3 262.4 L 971.5 262.2 L 973.7 263.5 L 975.8 263.5 L 978.0 259.9 L 980.1 262.0 L 982.3 258.6 L 984.4 259.0 L 986.6 257.2 L 988.8 256.1 L 990.9 254.8 L 993.1 251.0 L 995.2 248.0 L 997.4 247.1 L 999.6 248.2 L 1001.7 249.1 L 1003.9 244.5 L 1006.0 234.0 L 1008.2 234.5 L 1010.4 236.7 L 1012.5 233.6 L 1014.7 233.7 L 1016.8 229.5 L 1019.0 229.2 L 1021.1 230.5 L 1023.3 229.7 L 1025.5 226.8 L 1027.6 224.6 L 1029.8 221.7 L 1031.9 221.1 L 1034.1 224.5 L 1036.3 228.3 L 1038.4 222.6 L 1040.6 222.9 L 1042.7 221.1 L 1044.9 225.4 L 1047.0 224.2 L 1049.2 223.4 L 1051.4 218.3 L 1053.5 217.0 L 1055.7 220.2 L 1057.8 219.8 L 1060.0 215.7 L 1060.0 505.0 L 1057.8 504.7 L 1055.7 503.1 L 1053.5 503.1 L 1051.4 499.4 L 1049.2 499.8 L 1047.0 497.1 L 1044.9 497.4 L 1042.7 495.2 L 1040.6 493.0 L 1038.4 490.7 L 1036.3 489.5 L 1034.1 483.4 L 1031.9 486.3 L 1029.8 484.2 L 1027.6 483.5 L 1025.5 479.0 L 1023.3 479.9 L 1021.1 478.0 L 1019.0 476.4 L 1016.8 471.2 L 1014.7 473.1 L 1012.5 468.3 L 1010.4 467.5 L 1008.2 464.8 L 1006.0 462.5 L 1003.9 466.7 L 1001.7 465.6 L 999.6 460.5 L 997.4 463.0 L 995.2 460.7 L 993.1 459.3 L 990.9 453.8 L 988.8 455.1 L 986.6 452.5 L 984.4 450.1 L 982.3 447.3 L 980.1 448.7 L 978.0 444.4 L 975.8 444.3 L 973.7 441.4 L 971.5 439.9 L 969.3 443.0 L 967.2 441.1 L 965.0 439.8 L 962.9 439.0 L 960.7 435.8 L 958.5 434.8 L 956.4 427.9 L 954.2 428.8 L 952.1 426.0 L 949.9 424.1 L 947.8 421.4 L 945.6 421.7 L 943.4 417.2 L 941.3 415.1 L 939.1 414.3 L 937.0 412.0 L 934.8 415.5 L 932.6 411.1 L 930.5 412.2 L 928.3 405.0 L 926.2 403.0 L 924.0 405.7 L 921.9 400.4 L 919.7 398.8 L 917.5 395.2 L 915.4 392.3 L 913.2 390.9 L 911.1 387.3 L 908.9 386.5 L 906.7 384.8 L 904.6 380.6 L 902.4 376.4 L 900.3 378.9 L 898.1 375.8 L 895.9 375.7 L 893.8 372.7 L 891.6 370.0 L 889.5 369.2 L 887.3 365.5 L 885.2 362.6 L 883.0 361.6 L 880.8 358.5 L 878.7 356.6 L 876.5 354.2 L 874.4 350.7 L 872.2 348.9 L 870.0 342.8 L 867.9 340.6 Z" fill="#dc2626" fill-opacity="0.13" stroke="none"/>
<path d="M 80.0 203.5 L 82.2 195.7 L 84.3 199.2 L 86.5 197.7 L 88.6 199.5 L 90.8 201.5 L 93.0 181.5 L 95.1 186.8 L 97.3 179.1 L 99.4 162.3 L 101.6 150.0 L 103.7 176.3 L 105.9 173.6 L 108.1 166.2 L 110.2 163.6 L 112.4 166.6 L 114.5 173.5 L 116.7 186.7 L 118.9 196.4 L 121.0 192.7 L 123.2 186.4 L 125.3 185.1 L 127.5 188.0 L 129.6 192.1 L 131.8 211.3 L 134.0 194.5 L 136.1 186.9 L 138.3 185.8 L 140.4 158.6 L 142.6 158.5 L 144.8 168.3 L 146.9 186.2 L 149.1 183.8 L 151.2 187.8 L 153.4 186.7 L 155.6 179.5 L 157.7 193.0 L 159.9 190.9 L 162.0 192.3 L 164.2 200.5 L 166.3 207.6 L 168.5 214.5 L 170.7 188.3 L 172.8 183.7 L 175.0 176.2 L 177.1 178.5 L 179.3 177.9 L 181.5 176.4 L 183.6 170.1 L 185.8 177.3 L 187.9 186.2 L 190.1 167.1 L 192.2 162.7 L 194.4 172.3 L 196.6 171.0 L 198.7 165.0 L 200.9 170.6 L 203.0 166.7 L 205.2 152.8 L 207.4 124.0 L 209.5 114.9 L 211.7 115.5 L 213.8 105.5 L 216.0 101.0 L 218.1 113.5 L 220.3 108.3 L 222.5 105.0 L 224.6 112.5 L 226.8 113.0 L 228.9 116.5 L 231.1 115.8 L 233.3 100.3 L 235.4 107.5 L 237.6 110.0 L 239.7 114.4 L 241.9 112.5 L 244.1 103.5 L 246.2 111.7 L 248.4 112.4 L 250.5 113.0 L 252.7 125.5 L 254.8 140.3 L 257.0 144.9 L 259.2 134.9 L 261.3 129.8 L 263.5 135.3 L 265.6 130.1 L 267.8 115.2 L 270.0 120.0 L 272.1 121.3 L 274.3 104.3 L 276.4 107.9 L 278.6 99.2 L 280.7 80.1 L 282.9 110.3 L 285.1 116.0 L 287.2 115.8 L 289.4 115.6 L 291.5 122.7 L 293.7 142.9 L 295.9 134.5 L 298.0 145.1 L 300.2 118.5 L 302.3 127.5 L 304.5 139.2 L 306.7 159.5 L 308.8 149.6 L 311.0 152.6 L 313.1 144.7 L 315.3 169.9 L 317.4 167.3 L 319.6 170.7 L 321.8 164.8 L 323.9 152.7 L 326.1 149.9 L 328.2 155.8 L 330.4 156.2 L 332.6 159.1 L 334.7 153.3 L 336.9 147.8 L 339.0 150.9 L 341.2 136.4 L 343.3 127.2 L 345.5 123.9 L 347.7 124.6 L 349.8 128.5 L 352.0 128.0 L 354.1 119.3 L 356.3 121.4 L 358.5 117.6 L 360.6 126.3 L 362.8 126.0 L 364.9 128.7 L 367.1 144.2 L 369.3 148.2 L 371.4 140.3 L 373.6 166.2 L 375.7 162.3 L 377.9 162.4 L 380.0 147.2 L 382.2 134.2 L 384.4 135.8 L 386.5 108.5 L 388.7 96.8 L 390.8 86.6 L 393.0 85.6 L 395.2 79.1 L 397.3 72.0 L 399.5 92.0 L 401.6 80.1 L 403.8 90.0 L 405.9 143.5 L 408.1 156.3 L 410.3 130.4 L 412.4 129.1 L 414.6 142.0 L 416.7 155.6 L 418.9 171.0 L 421.1 181.6 L 423.2 177.1 L 425.4 168.3 L 427.5 157.0 L 429.7 170.4 L 431.9 174.8 L 434.0 159.7 L 436.2 154.1 L 438.3 150.3 L 440.5 132.8 L 442.6 135.5 L 444.8 142.7 L 447.0 160.1 L 449.1 170.3 L 451.3 162.5 L 453.4 159.6 L 455.6 156.9 L 457.8 180.7 L 459.9 211.3 L 462.1 197.0 L 464.2 212.2 L 466.4 200.3 L 468.5 206.4 L 470.7 191.9 L 472.9 184.2 L 475.0 201.9 L 477.2 210.4 L 479.3 222.2 L 481.5 252.9 L 483.7 246.8 L 485.8 254.9 L 488.0 267.2 L 490.1 262.7 L 492.3 271.1 L 494.4 300.7 L 496.6 309.8 L 498.8 312.1 L 500.9 299.6 L 503.1 290.7 L 505.2 296.3 L 507.4 277.6 L 509.6 272.5 L 511.7 275.1 L 513.9 275.7 L 516.0 278.3 L 518.2 302.8 L 520.4 272.8 L 522.5 259.9 L 524.7 268.0 L 526.8 284.5 L 529.0 285.1 L 531.1 278.1 L 533.3 276.7 L 535.5 264.4 L 537.6 268.4 L 539.8 265.4 L 541.9 278.9 L 544.1 279.1 L 546.3 291.5 L 548.4 302.0 L 550.6 293.3 L 552.7 303.1 L 554.9 307.5 L 557.0 291.7 L 559.2 290.4 L 561.4 288.6 L 563.5 288.8 L 565.7 295.6 L 567.8 294.5 L 570.0 297.2 L 572.2 296.3 L 574.3 293.3 L 576.5 292.8 L 578.6 297.1 L 580.8 289.6 L 583.0 294.6 L 585.1 287.5 L 587.3 280.5 L 589.4 276.7 L 591.6 271.3 L 593.7 257.3 L 595.9 257.9 L 598.1 272.3 L 600.2 273.9 L 602.4 276.6 L 604.5 277.5 L 606.7 274.4 L 608.9 272.7 L 611.0 247.9 L 613.2 238.7 L 615.3 246.8 L 617.5 247.1 L 619.6 249.5 L 621.8 258.4 L 624.0 264.7 L 626.1 290.0 L 628.3 283.8 L 630.4 283.1 L 632.6 282.9 L 634.8 285.2 L 636.9 300.5 L 639.1 290.4 L 641.2 285.0 L 643.4 284.7 L 645.6 312.7 L 647.7 315.0 L 649.9 348.2 L 652.0 358.9 L 654.2 348.2 L 656.3 366.1 L 658.5 381.8 L 660.7 443.5 L 662.8 397.3 L 665.0 405.1 L 667.1 398.8 L 669.3 400.0 L 671.5 407.8 L 673.6 418.4 L 675.8 423.2 L 677.9 407.7 L 680.1 401.9 L 682.2 407.8 L 684.4 407.5 L 686.6 415.8 L 688.7 422.1 L 690.9 418.8 L 693.0 412.7 L 695.2 413.0 L 697.4 415.0 L 699.5 433.0 L 701.7 436.6 L 703.8 412.9 L 706.0 415.9 L 708.1 425.6 L 710.3 419.0 L 712.5 426.2 L 714.6 407.8 L 716.8 410.8 L 718.9 384.8 L 721.1 395.4 L 723.3 412.2 L 725.4 417.3 L 727.6 425.0 L 729.7 410.2 L 731.9 401.1 L 734.1 399.7 L 736.2 397.6 L 738.4 395.2 L 740.5 393.5 L 742.7 383.9 L 744.8 371.4 L 747.0 377.3 L 749.2 393.3 L 751.3 401.2 L 753.5 397.7 L 755.6 407.3 L 757.8 413.7 L 760.0 395.4 L 762.1 397.5 L 764.3 392.8 L 766.4 407.9 L 768.6 422.4 L 770.7 422.6 L 772.9 424.8 L 775.1 420.1 L 777.2 411.1 L 779.4 412.2 L 781.5 419.4 L 783.7 419.1 L 785.9 417.0 L 788.0 406.6 L 790.2 407.7 L 792.3 389.2 L 794.5 394.4 L 796.7 390.1 L 798.8 383.0 L 801.0 382.5 L 803.1 396.4 L 805.3 374.2 L 807.4 376.0 L 809.6 371.9 L 811.8 369.8 L 813.9 358.3 L 816.1 366.6 L 818.2 377.9 L 820.4 365.7 L 822.6 362.7 L 824.7 351.6 L 826.9 351.1 L 829.0 356.1 L 831.2 354.9 L 833.3 348.7 L 835.5 356.5 L 837.7 362.7 L 839.8 366.0 L 842.0 362.6 L 844.1 351.3 L 846.3 348.6 L 848.5 349.3 L 850.6 341.5 L 852.8 335.2 L 854.9 331.9 L 857.1 340.6 L 859.3 339.5 L 861.4 336.6 L 863.6 327.4 L 865.7 330.2" fill="none" stroke="#2563eb" stroke-width="2.2"/>
<path d="M 867.9 328.0 L 870.0 329.2 L 872.2 330.6 L 874.4 331.9 L 876.5 332.0 L 878.7 331.9 L 880.8 332.0 L 883.0 332.2 L 885.2 331.4 L 887.3 332.1 L 889.5 332.9 L 891.6 332.9 L 893.8 334.6 L 895.9 333.6 L 898.1 332.9 L 900.3 335.2 L 902.4 336.2 L 904.6 338.3 L 906.7 339.3 L 908.9 339.7 L 911.1 339.6 L 913.2 341.3 L 915.4 341.2 L 917.5 341.8 L 919.7 340.9 L 921.9 341.6 L 924.0 342.1 L 926.2 342.2 L 928.3 344.0 L 930.5 343.6 L 932.6 343.6 L 934.8 346.0 L 937.0 345.3 L 939.1 347.4 L 941.3 348.0 L 943.4 348.6 L 945.6 347.9 L 947.8 349.7 L 949.9 349.4 L 952.1 350.5 L 954.2 349.7 L 956.4 350.4 L 958.5 351.0 L 960.7 352.1 L 962.9 353.7 L 965.0 353.6 L 967.2 353.8 L 969.3 354.2 L 971.5 355.8 L 973.7 357.0 L 975.8 357.4 L 978.0 358.1 L 980.1 359.0 L 982.3 359.3 L 984.4 359.5 L 986.6 360.1 L 988.8 360.1 L 990.9 360.1 L 993.1 361.0 L 995.2 361.2 L 997.4 362.5 L 999.6 363.9 L 1001.7 363.3 L 1003.9 360.6 L 1006.0 363.6 L 1008.2 363.9 L 1010.4 364.9 L 1012.5 366.6 L 1014.7 368.0 L 1016.8 367.8 L 1019.0 369.7 L 1021.1 369.3 L 1023.3 369.5 L 1025.5 369.7 L 1027.6 370.5 L 1029.8 371.4 L 1031.9 374.1 L 1034.1 375.7 L 1036.3 375.7 L 1038.4 373.3 L 1040.6 374.6 L 1042.7 374.9 L 1044.9 375.3 L 1047.0 378.2 L 1049.2 378.9 L 1051.4 379.3 L 1053.5 380.5 L 1055.7 379.4 L 1057.8 380.0 L 1060.0 380.4" fill="none" stroke="#dc2626" stroke-width="2.4" stroke-dasharray="8 5"/>
<circle cx="88" cy="586" r="5" fill="#2563eb"/><text x="100" y="590" font-family="Arial, sans-serif" font-size="13" fill="#374151">history</text>
<circle cx="178" cy="586" r="5" fill="#dc2626"/><text x="190" y="590" font-family="Arial, sans-serif" font-size="13" fill="#374151">forecast</text>
<rect x="265" y="581" width="22" height="10" rx="2" fill="#dc2626" fill-opacity="0.18"/><text x="296" y="590" font-family="Arial, sans-serif" font-size="13" fill="#374151">10-90% probability corridor</text>
</svg>
