<svg xmlns="http://www.w3.org/2000/svg" width="1100" height="560" viewBox="0 0 1100 560">
<rect width="100%" height="100%" fill="#ffffff"/>
<text x="80" y="26" font-family="Arial, sans-serif" font-size="20" font-weight="700" fill="#111827">BTCUSDT Chronos-2 Forecast</text>
<text x="80" y="50" font-family="Arial, sans-serif" font-size="13" fill="#4b5563">Last history close: 81,745.65 | Last forecast: 68,275.08</text>
<line x1="80" y1="490.0" x2="1060" y2="490.0" stroke="#e5e7eb" stroke-width="1"/>
<text x="70" y="494.0" text-anchor="end" font-family="Arial, sans-serif" font-size="12" fill="#6b7280">45,620</text>
<line x1="80" y1="377.5" x2="1060" y2="377.5" stroke="#e5e7eb" stroke-width="1"/>
<text x="70" y="381.5" text-anchor="end" font-family="Arial, sans-serif" font-size="12" fill="#6b7280">65,380</text>
<line x1="80" y1="265.0" x2="1060" y2="265.0" stroke="#e5e7eb" stroke-width="1"/>
<text x="70" y="269.0" text-anchor="end" font-family="Arial, sans-serif" font-size="12" fill="#6b7280">85,139</text>
<line x1="80" y1="152.5" x2="1060" y2="152.5" stroke="#e5e7eb" stroke-width="1"/>
<text x="70" y="156.5" text-anchor="end" font-family="Arial, sans-serif" font-size="12" fill="#6b7280">104,899</text>
<line x1="80" y1="40.0" x2="1060" y2="40.0" stroke="#e5e7eb" stroke-width="1"/>
<text x="70" y="44.0" text-anchor="end" font-family="Arial, sans-serif" font-size="12" fill="#6b7280">124,659</text>
<line x1="80" y1="40" x2="80" y2="490" stroke="#9ca3af" stroke-width="1"/>
<line x1="80" y1="490" x2="1060" y2="490" stroke="#9ca3af" stroke-width="1"/>
<path id="probability-corridor" d="M 867.9 268.6 L 870.0 268.4 L 872.2 266.3 L 874.4 261.7 L 876.5 259.1 L 878.7 255.8 L 880.8 253.5 L 883.0 250.2 L 885.2 248.8 L 887.3 246.4 L 889.5 244.9 L 891.6 244.2 L 893.8 243.4 L 895.9 243.1 L 898.1 238.9 L 900.3 240.3 L 902.4 230.0 L 904.6 231.7 L 906.7 233.6 L 908.9 230.1 L 911.1 231.1 L 913.2 228.1 L 915.4 228.2 L 917.5 227.1 L 919.7 226.7 L 921.9 223.6 L 924.0 220.5 L 926.2 218.3 L 928.3 217.5 L 930.5 220.0 L 932.6 221.2 L 934.8 219.2 L 937.0 219.6 L 939.1 220.3 L 941.3 224.5 L 943.4 222.1 L 945.6 222.1 L 947.8 218.4 L 949.9 218.7 L 952.1 218.0 L 954.2 218.2 L 956.4 214.4 L 958.5 210.2 L 960.7 207.8 L 962.9 206.7 L 965.0 210.0 L 967.2 210.7 L 969.3 208.2 L 971.5 210.3 L 973.7 211.3 L 975.8 215.1 L 978.0 211.2 L 980.1 212.5 L 982.3 209.2 L 984.4 209.2 L 986.6 208.3 L 988.8 207.4 L 990.9 203.8 L 993.1 199.7 L 995.2 196.1 L 997.4 195.8 L 999.6 198.3 L 1001.7 200.7 L 1003.9 194.5 L 1006.0 165.5 L 1008.2 162.7 L 1010.4 165.8 L 1012.5 164.2 L 1014.7 161.9 L 1016.8 159.8 L 1019.0 159.7 L 1021.1 161.6 L 1023.3 157.3 L 1025.5 152.6 L 1027.6 147.5 L 1029.8 144.1 L 1031.9 139.8 L 1034.1 144.1 L 1036.3 147.9 L 1038.4 140.4 L 1040.6 157.8 L 1042.7 155.5 L 1044.9 160.3 L 1047.0 159.5 L 1049.2 155.5 L 1051.4 153.3 L 1053.5 152.7 L 1055.7 156.8 L 1057.8 151.4 L 1060.0 145.8 L 1060.0 487.6 L 1057.8 488.4 L 1055.7 490.0 L 1053.5 488.9 L 1051.4 487.4 L 1049.2 487.3 L 1047.0 487.8 L 1044.9 488.4 L 1042.7 487.3 L 1040.6 484.7 L 1038.4 468.6 L 1036.3 466.9 L 1034.1 463.6 L 1031.9 465.2 L 1029.8 466.2 L 1027.6 465.4 L 1025.5 460.0 L 1023.3 462.6 L 1021.1 463.5 L 1019.0 461.6 L 1016.8 457.4 L 1014.7 459.4 L 1012.5 456.8 L 1010.4 455.9 L 1008.2 455.3 L 1006.0 455.2 L 1003.9 459.3 L 1001.7 457.6 L 999.6 453.7 L 997.4 455.3 L 995.2 455.3 L 993.1 453.2 L 990.9 449.3 L 988.8 452.0 L 986.6 452.8 L 984.4 450.5 L 982.3 447.6 L 980.1 448.5 L 978.0 446.3 L 975.8 446.1 L 973.7 445.4 L 971.5 444.9 L 969.3 452.3 L 967.2 451.0 L 965.0 447.8 L 962.9 451.2 L 960.7 449.2 L 958.5 445.4 L 956.4 441.7 L 954.2 442.4 L 952.1 442.7 L 949.9 440.4 L 947.8 437.2 L 945.6 437.3 L 943.4 435.1 L 941.3 435.3 L 939.1 433.0 L 937.0 432.0 L 934.8 435.6 L 932.6 433.4 L 930.5 430.1 L 928.3 434.5 L 926.2 430.1 L 924.0 424.6 L 921.9 419.7 L 919.7 420.6 L 917.5 420.1 L 915.4 416.8 L 913.2 413.4 L 911.1 413.4 L 908.9 410.1 L 906.7 409.7 L 904.6 406.9 L 902.4 405.1 L 900.3 419.2 L 898.1 412.5 L 895.9 404.0 L 893.8 394.5 L 891.6 376.2 L 889.5 358.0 L 887.3 341.7 L 885.2 333.9 L 883.0 325.6 L 880.8 316.8 L 878.7 316.6 L 876.5 311.0 L 874.4 306.2 L 872.2 303.9 L 870.0 300.5 L 867.9 294.6 Z" fill="#dc2626" fill-opacity="0.13" stroke="none"/>
<path d="M 80.0 164.5 L 82.2 157.0 L 84.3 160.4 L 86.5 159.0 L 88.6 160.7 L 90.8 162.6 L 93.0 143.6 L 95.1 148.7 L 97.3 141.4 L 99.4 125.5 L 101.6 113.8 L 103.7 138.7 L 105.9 136.2 L 108.1 129.1 L 110.2 126.7 L 112.4 129.5 L 114.5 136.1 L 116.7 148.6 L 118.9 157.7 L 121.0 154.2 L 123.2 148.3 L 125.3 147.0 L 127.5 149.8 L 129.6 153.7 L 131.8 171.8 L 134.0 156.0 L 136.1 148.8 L 138.3 147.7 L 140.4 122.0 L 142.6 121.9 L 144.8 131.2 L 146.9 148.1 L 149.1 145.9 L 151.2 149.6 L 153.4 148.5 L 155.6 141.7 L 157.7 154.5 L 159.9 152.6 L 162.0 153.9 L 164.2 161.6 L 166.3 168.3 L 168.5 174.9 L 170.7 150.0 L 172.8 145.8 L 175.0 138.6 L 177.1 140.8 L 179.3 140.3 L 181.5 138.8 L 183.6 132.8 L 185.8 139.7 L 187.9 148.0 L 190.1 130.0 L 192.2 125.8 L 194.4 134.9 L 196.6 133.7 L 198.7 128.0 L 200.9 133.3 L 203.0 129.6 L 205.2 116.4 L 207.4 89.2 L 209.5 80.6 L 211.7 81.2 L 213.8 71.7 L 216.0 67.4 L 218.1 79.3 L 220.3 74.3 L 222.5 71.2 L 224.6 78.3 L 226.8 78.8 L 228.9 82.1 L 231.1 81.4 L 233.3 66.8 L 235.4 73.6 L 237.6 76.0 L 239.7 80.1 L 241.9 78.4 L 244.1 69.9 L 246.2 77.6 L 248.4 78.2 L 250.5 78.8 L 252.7 90.6 L 254.8 104.7 L 257.0 109.0 L 259.2 99.5 L 261.3 94.7 L 263.5 99.9 L 265.6 95.0 L 267.8 80.9 L 270.0 85.5 L 272.1 86.7 L 274.3 70.5 L 276.4 74.0 L 278.6 65.8 L 280.7 47.7 L 282.9 76.2 L 285.1 81.7 L 287.2 81.4 L 289.4 81.3 L 291.5 88.0 L 293.7 107.1 L 295.9 99.1 L 298.0 109.2 L 300.2 84.0 L 302.3 92.5 L 304.5 103.6 L 306.7 122.8 L 308.8 113.4 L 311.0 116.3 L 313.1 108.8 L 315.3 132.7 L 317.4 130.2 L 319.6 133.4 L 321.8 127.8 L 323.9 116.4 L 326.1 113.7 L 328.2 119.3 L 330.4 119.7 L 332.6 122.4 L 334.7 117.0 L 336.9 111.7 L 339.0 114.7 L 341.2 100.9 L 343.3 92.2 L 345.5 89.1 L 347.7 89.8 L 349.8 93.5 L 352.0 93.0 L 354.1 84.8 L 356.3 86.7 L 358.5 83.2 L 360.6 91.4 L 362.8 91.1 L 364.9 93.7 L 367.1 108.4 L 369.3 112.1 L 371.4 104.6 L 373.6 129.2 L 375.7 125.5 L 377.9 125.5 L 380.0 111.1 L 382.2 98.9 L 384.4 100.4 L 386.5 74.5 L 388.7 63.5 L 390.8 53.8 L 393.0 52.9 L 395.2 46.7 L 397.3 40.0 L 399.5 58.9 L 401.6 47.7 L 403.8 57.1 L 405.9 107.7 L 408.1 119.8 L 410.3 95.2 L 412.4 94.0 L 414.6 106.2 L 416.7 119.1 L 418.9 133.7 L 421.1 143.8 L 423.2 139.5 L 425.4 131.2 L 427.5 120.4 L 429.7 133.1 L 431.9 137.3 L 434.0 123.0 L 436.2 117.7 L 438.3 114.1 L 440.5 97.5 L 442.6 100.1 L 444.8 107.0 L 447.0 123.3 L 449.1 133.0 L 451.3 125.7 L 453.4 122.9 L 455.6 120.4 L 457.8 142.9 L 459.9 171.9 L 462.1 158.3 L 464.2 172.7 L 466.4 161.4 L 468.5 167.2 L 470.7 153.5 L 472.9 146.2 L 475.0 163.0 L 477.2 171.0 L 479.3 182.1 L 481.5 211.2 L 483.7 205.5 L 485.8 213.1 L 488.0 224.7 L 490.1 220.5 L 492.3 228.5 L 494.4 256.5 L 496.6 265.1 L 498.8 267.3 L 500.9 255.4 L 503.1 247.0 L 505.2 252.3 L 507.4 234.6 L 509.6 229.7 L 511.7 232.3 L 513.9 232.8 L 516.0 235.3 L 518.2 258.5 L 520.4 230.1 L 522.5 217.8 L 524.7 225.5 L 526.8 241.1 L 529.0 241.7 L 531.1 235.1 L 533.3 233.7 L 535.5 222.1 L 537.6 225.9 L 539.8 223.0 L 541.9 235.8 L 544.1 236.0 L 546.3 247.7 L 548.4 257.6 L 550.6 249.5 L 552.7 258.7 L 554.9 262.9 L 557.0 247.9 L 559.2 246.7 L 561.4 245.0 L 563.5 245.2 L 565.7 251.6 L 567.8 250.6 L 570.0 253.1 L 572.2 252.3 L 574.3 249.4 L 576.5 249.0 L 578.6 253.1 L 580.8 245.9 L 583.0 250.7 L 585.1 243.9 L 587.3 237.4 L 589.4 233.8 L 591.6 228.6 L 593.7 215.4 L 595.9 216.0 L 598.1 229.6 L 600.2 231.1 L 602.4 233.7 L 604.5 234.5 L 606.7 231.6 L 608.9 229.9 L 611.0 206.5 L 613.2 197.7 L 615.3 205.4 L 617.5 205.7 L 619.6 208.0 L 621.8 216.4 L 624.0 222.3 L 626.1 246.3 L 628.3 240.4 L 630.4 239.8 L 632.6 239.6 L 634.8 241.7 L 636.9 256.3 L 639.1 246.7 L 641.2 241.6 L 643.4 241.3 L 645.6 267.8 L 647.7 270.0 L 649.9 301.4 L 652.0 311.5 L 654.2 301.4 L 656.3 318.3 L 658.5 333.2 L 660.7 391.6 L 662.8 347.9 L 665.0 355.2 L 667.1 349.3 L 669.3 350.4 L 671.5 357.8 L 673.6 367.8 L 675.8 372.4 L 677.9 357.7 L 680.1 352.2 L 682.2 357.8 L 684.4 357.5 L 686.6 365.4 L 688.7 371.3 L 690.9 368.3 L 693.0 362.5 L 695.2 362.7 L 697.4 364.6 L 699.5 381.6 L 701.7 385.0 L 703.8 362.6 L 706.0 365.5 L 708.1 374.7 L 710.3 368.4 L 712.5 375.2 L 714.6 357.9 L 716.8 360.7 L 718.9 336.0 L 721.1 346.1 L 723.3 361.9 L 725.4 366.8 L 727.6 374.1 L 729.7 360.1 L 731.9 351.5 L 734.1 350.1 L 736.2 348.1 L 738.4 345.9 L 740.5 344.3 L 742.7 335.2 L 744.8 323.4 L 747.0 328.9 L 749.2 344.1 L 751.3 351.6 L 753.5 348.3 L 755.6 357.4 L 757.8 363.4 L 760.0 346.0 L 762.1 348.0 L 764.3 343.6 L 766.4 357.9 L 768.6 371.6 L 770.7 371.8 L 772.9 373.9 L 775.1 369.4 L 777.2 361.0 L 779.4 361.9 L 781.5 368.8 L 783.7 368.5 L 785.9 366.6 L 788.0 356.7 L 790.2 357.7 L 792.3 340.2 L 794.5 345.1 L 796.7 341.0 L 798.8 334.3 L 801.0 333.9 L 803.1 347.0 L 805.3 326.0 L 807.4 327.7 L 809.6 323.8 L 811.8 321.8 L 813.9 310.9 L 816.1 318.8 L 818.2 329.5 L 820.4 317.9 L 822.6 315.1 L 824.7 304.6 L 826.9 304.2 L 829.0 308.9 L 831.2 307.8 L 833.3 301.9 L 835.5 309.2 L 837.7 315.1 L 839.8 318.3 L 842.0 315.1 L 844.1 304.3 L 846.3 301.7 L 848.5 302.4 L 850.6 295.1 L 852.8 289.1 L 854.9 286.0 L 857.1 294.2 L 859.3 293.2 L 861.4 290.4 L 863.6 281.7 L 865.7 284.3" fill="none" stroke="#2563eb" stroke-width="2.2"/>
<path d="M 867.9 282.4 L 870.0 282.8 L 872.2 283.5 L 874.4 285.1 L 876.5 285.0 L 878.7 285.4 L 880.8 285.5 L 883.0 286.2 L 885.2 286.7 L 887.3 290.3 L 889.5 293.2 L 891.6 300.2 L 893.8 306.5 L 895.9 307.3 L 898.1 309.9 L 900.3 313.9 L 902.4 315.5 L 904.6 315.7 L 906.7 316.3 L 908.9 318.0 L 911.1 317.4 L 913.2 318.4 L 915.4 318.5 L 917.5 319.3 L 919.7 318.6 L 921.9 318.0 L 924.0 318.7 L 926.2 319.3 L 928.3 321.1 L 930.5 321.8 L 932.6 322.0 L 934.8 321.2 L 937.0 326.6 L 939.1 326.0 L 941.3 327.2 L 943.4 329.3 L 945.6 329.1 L 947.8 329.1 L 949.9 330.4 L 952.1 330.4 L 954.2 330.2 L 956.4 329.5 L 958.5 329.9 L 960.7 330.1 L 962.9 331.1 L 965.0 331.9 L 967.2 331.5 L 969.3 329.8 L 971.5 335.8 L 973.7 335.3 L 975.8 335.5 L 978.0 338.0 L 980.1 338.8 L 982.3 338.6 L 984.4 339.7 L 986.6 339.5 L 988.8 339.1 L 990.9 338.2 L 993.1 338.7 L 995.2 338.5 L 997.4 339.1 L 999.6 340.9 L 1001.7 340.3 L 1003.9 337.8 L 1006.0 343.5 L 1008.2 343.5 L 1010.4 344.5 L 1012.5 347.5 L 1014.7 348.1 L 1016.8 348.5 L 1019.0 350.3 L 1021.1 349.1 L 1023.3 347.8 L 1025.5 347.7 L 1027.6 348.3 L 1029.8 348.8 L 1031.9 349.0 L 1034.1 350.3 L 1036.3 351.1 L 1038.4 348.8 L 1040.6 355.9 L 1042.7 357.2 L 1044.9 359.8 L 1047.0 362.1 L 1049.2 361.4 L 1051.4 363.2 L 1053.5 363.9 L 1055.7 363.5 L 1057.8 361.1 L 1060.0 361.0" fill="none" stroke="#dc2626" stroke-width="2.4" stroke-dasharray="8 5"/>
<circle cx="88" cy="526" r="5" fill="#2563eb"/><text x="100" y="530" font-family="Arial, sans-serif" font-size="13" fill="#374151">history</text>
<circle cx="178" cy="526" r="5" fill="#dc2626"/><text x="190" y="530" font-family="Arial, sans-serif" font-size="13" fill="#374151">forecast</text>
<rect x="265" y="521" width="22" height="10" rx="2" fill="#dc2626" fill-opacity="0.18"/><text x="296" y="530" font-family="Arial, sans-serif" font-size="13" fill="#374151">10-90% probability corridor</text>
</svg>
