<svg xmlns="http://www.w3.org/2000/svg" width="1100" height="560" viewBox="0 0 1100 560">
<rect width="100%" height="100%" fill="#ffffff"/>
<text x="80" y="26" font-family="Arial, sans-serif" font-size="20" font-weight="700" fill="#111827">BTCUSDT Chronos-2 Forecast</text>
<text x="80" y="50" font-family="Arial, sans-serif" font-size="13" fill="#4b5563">Last history close: 81,745.65 | Last forecast: 101,824.50</text>
<line x1="80" y1="490.0" x2="1060" y2="490.0" stroke="#e5e7eb" stroke-width="1"/>
<text x="70" y="494.0" text-anchor="end" font-family="Arial, sans-serif" font-size="12" fill="#6b7280">62,910</text>
<line x1="80" y1="377.5" x2="1060" y2="377.5" stroke="#e5e7eb" stroke-width="1"/>
<text x="70" y="381.5" text-anchor="end" font-family="Arial, sans-serif" font-size="12" fill="#6b7280">78,347</text>
<line x1="80" y1="265.0" x2="1060" y2="265.0" stroke="#e5e7eb" stroke-width="1"/>
<text x="70" y="269.0" text-anchor="end" font-family="Arial, sans-serif" font-size="12" fill="#6b7280">93,784</text>
<line x1="80" y1="152.5" x2="1060" y2="152.5" stroke="#e5e7eb" stroke-width="1"/>
<text x="70" y="156.5" text-anchor="end" font-family="Arial, sans-serif" font-size="12" fill="#6b7280">109,221</text>
<line x1="80" y1="40.0" x2="1060" y2="40.0" stroke="#e5e7eb" stroke-width="1"/>
<text x="70" y="44.0" text-anchor="end" font-family="Arial, sans-serif" font-size="12" fill="#6b7280">124,659</text>
<line x1="80" y1="40" x2="80" y2="490" stroke="#9ca3af" stroke-width="1"/>
<line x1="80" y1="490" x2="1060" y2="490" stroke="#9ca3af" stroke-width="1"/>
<path d="M 80.0 199.4 L 82.2 189.8 L 84.3 194.1 L 86.5 192.3 L 88.6 194.5 L 90.8 196.9 L 93.0 172.7 L 95.1 179.1 L 97.3 169.8 L 99.4 149.4 L 101.6 134.5 L 103.7 166.4 L 105.9 163.1 L 108.1 154.1 L 110.2 150.9 L 112.4 154.6 L 114.5 163.0 L 116.7 179.0 L 118.9 190.7 L 121.0 186.2 L 123.2 178.6 L 125.3 177.0 L 127.5 180.5 L 129.6 185.5 L 131.8 208.7 L 134.0 188.4 L 136.1 179.2 L 138.3 177.9 L 140.4 144.9 L 142.6 144.8 L 144.8 156.7 L 146.9 178.4 L 149.1 175.5 L 151.2 180.2 L 153.4 178.9 L 155.6 170.2 L 157.7 186.5 L 159.9 184.1 L 162.0 185.8 L 164.2 195.7 L 166.3 204.3 L 168.5 212.7 L 170.7 180.8 L 172.8 175.4 L 175.0 166.2 L 177.1 169.1 L 179.3 168.3 L 181.5 166.5 L 183.6 158.8 L 185.8 167.6 L 187.9 178.3 L 190.1 155.2 L 192.2 149.9 L 194.4 161.5 L 196.6 160.0 L 198.7 152.6 L 200.9 159.5 L 203.0 154.7 L 205.2 137.8 L 207.4 103.0 L 209.5 92.0 L 211.7 92.8 L 213.8 80.6 L 216.0 75.1 L 218.1 90.3 L 220.3 83.9 L 222.5 79.9 L 224.6 89.1 L 226.8 89.7 L 228.9 93.9 L 231.1 93.0 L 233.3 74.3 L 235.4 83.0 L 237.6 86.0 L 239.7 91.3 L 241.9 89.1 L 244.1 78.2 L 246.2 88.1 L 248.4 88.9 L 250.5 89.7 L 252.7 104.8 L 254.8 122.8 L 257.0 128.3 L 259.2 116.2 L 261.3 110.0 L 263.5 116.7 L 265.6 110.4 L 267.8 92.4 L 270.0 98.2 L 272.1 99.7 L 274.3 79.1 L 276.4 83.5 L 278.6 73.0 L 280.7 49.9 L 282.9 86.4 L 285.1 93.3 L 287.2 93.0 L 289.4 92.9 L 291.5 101.4 L 293.7 125.9 L 295.9 115.7 L 298.0 128.6 L 300.2 96.3 L 302.3 107.2 L 304.5 121.4 L 306.7 146.0 L 308.8 134.0 L 311.0 137.6 L 313.1 128.1 L 315.3 158.7 L 317.4 155.5 L 319.6 159.6 L 321.8 152.4 L 323.9 137.8 L 326.1 134.4 L 328.2 141.5 L 330.4 142.0 L 332.6 145.5 L 334.7 138.5 L 336.9 131.8 L 339.0 135.6 L 341.2 118.0 L 343.3 106.9 L 345.5 102.9 L 347.7 103.7 L 349.8 108.4 L 352.0 107.8 L 354.1 97.4 L 356.3 99.8 L 358.5 95.3 L 360.6 105.8 L 362.8 105.4 L 364.9 108.7 L 367.1 127.5 L 369.3 132.3 L 371.4 122.7 L 373.6 154.2 L 375.7 149.4 L 377.9 149.5 L 380.0 131.1 L 382.2 115.4 L 384.4 117.3 L 386.5 84.2 L 388.7 70.1 L 390.8 57.7 L 393.0 56.5 L 395.2 48.6 L 397.3 40.0 L 399.5 64.2 L 401.6 49.9 L 403.8 61.8 L 405.9 126.6 L 408.1 142.1 L 410.3 110.7 L 412.4 109.2 L 414.6 124.8 L 416.7 141.3 L 418.9 160.0 L 421.1 172.8 L 423.2 167.3 L 425.4 156.7 L 427.5 142.9 L 429.7 159.2 L 431.9 164.6 L 434.0 146.3 L 436.2 139.5 L 438.3 134.8 L 440.5 113.6 L 442.6 116.9 L 444.8 125.7 L 447.0 146.7 L 449.1 159.0 L 451.3 149.7 L 453.4 146.1 L 455.6 142.9 L 457.8 171.7 L 459.9 208.8 L 462.1 191.4 L 464.2 209.9 L 466.4 195.4 L 468.5 202.8 L 470.7 185.3 L 472.9 175.9 L 475.0 197.4 L 477.2 207.6 L 479.3 221.9 L 481.5 259.1 L 483.7 251.8 L 485.8 261.5 L 488.0 276.4 L 490.1 271.0 L 492.3 281.2 L 494.4 317.1 L 496.6 328.1 L 498.8 330.9 L 500.9 315.7 L 503.1 305.0 L 505.2 311.7 L 507.4 289.1 L 509.6 282.9 L 511.7 286.1 L 513.9 286.7 L 516.0 290.0 L 518.2 319.6 L 520.4 283.3 L 522.5 267.6 L 524.7 277.4 L 526.8 297.5 L 529.0 298.1 L 531.1 289.7 L 533.3 288.0 L 535.5 273.1 L 537.6 277.9 L 539.8 274.3 L 541.9 290.6 L 544.1 290.8 L 546.3 305.9 L 548.4 318.6 L 550.6 308.1 L 552.7 320.0 L 554.9 325.3 L 557.0 306.2 L 559.2 304.5 L 561.4 302.4 L 563.5 302.6 L 565.7 310.9 L 567.8 309.6 L 570.0 312.8 L 572.2 311.7 L 574.3 308.0 L 576.5 307.5 L 578.6 312.7 L 580.8 303.6 L 583.0 309.7 L 585.1 301.0 L 587.3 292.6 L 589.4 288.0 L 591.6 281.4 L 593.7 264.4 L 595.9 265.3 L 598.1 282.6 L 600.2 284.6 L 602.4 287.9 L 604.5 288.9 L 606.7 285.2 L 608.9 283.1 L 611.0 253.1 L 613.2 241.9 L 615.3 251.7 L 617.5 252.1 L 619.6 255.1 L 621.8 265.8 L 624.0 273.4 L 626.1 304.0 L 628.3 296.6 L 630.4 295.8 L 632.6 295.5 L 634.8 298.2 L 636.9 316.8 L 639.1 304.6 L 641.2 298.0 L 643.4 297.7 L 645.6 331.6 L 647.7 334.4 L 649.9 374.6 L 652.0 387.5 L 654.2 374.6 L 656.3 396.3 L 658.5 415.3 L 660.7 490.0 L 662.8 434.1 L 665.0 443.5 L 667.1 435.9 L 669.3 437.3 L 671.5 446.8 L 673.6 459.6 L 675.8 465.5 L 677.9 446.7 L 680.1 439.6 L 682.2 446.8 L 684.4 446.4 L 686.6 456.5 L 688.7 464.1 L 690.9 460.2 L 693.0 452.8 L 695.2 453.1 L 697.4 455.5 L 699.5 477.3 L 701.7 481.6 L 703.8 453.0 L 706.0 456.7 L 708.1 468.4 L 710.3 460.4 L 712.5 469.1 L 714.6 446.9 L 716.8 450.4 L 718.9 418.9 L 721.1 431.8 L 723.3 452.1 L 725.4 458.3 L 727.6 467.7 L 729.7 449.8 L 731.9 438.7 L 734.1 436.9 L 736.2 434.4 L 738.4 431.6 L 740.5 429.5 L 742.7 417.8 L 744.8 402.7 L 747.0 409.8 L 749.2 429.2 L 751.3 438.8 L 753.5 434.6 L 755.6 446.2 L 757.8 453.9 L 760.0 431.7 L 762.1 434.3 L 764.3 428.6 L 766.4 446.9 L 768.6 464.5 L 770.7 464.7 L 772.9 467.4 L 775.1 461.7 L 777.2 450.8 L 779.4 452.1 L 781.5 460.9 L 783.7 460.5 L 785.9 458.0 L 788.0 445.4 L 790.2 446.7 L 792.3 424.3 L 794.5 430.5 L 796.7 425.3 L 798.8 416.7 L 801.0 416.2 L 803.1 432.9 L 805.3 406.1 L 807.4 408.2 L 809.6 403.3 L 811.8 400.8 L 813.9 386.8 L 816.1 396.9 L 818.2 410.6 L 820.4 395.8 L 822.6 392.2 L 824.7 378.7 L 826.9 378.2 L 829.0 384.1 L 831.2 382.8 L 833.3 375.2 L 835.5 384.6 L 837.7 392.1 L 839.8 396.2 L 842.0 392.1 L 844.1 378.3 L 846.3 375.0 L 848.5 375.9 L 850.6 366.5 L 852.8 358.9 L 854.9 354.9 L 857.1 365.4 L 859.3 364.0 L 861.4 360.5 L 863.6 349.3 L 865.7 352.7" fill="none" stroke="#2563eb" stroke-width="2.2"/>
<path d="M 867.9 346.6 L 870.0 347.4 L 872.2 347.6 L 874.4 348.4 L 876.5 346.3 L 878.7 346.4 L 880.8 344.8 L 883.0 343.8 L 885.2 345.2 L 887.3 349.4 L 889.5 354.8 L 891.6 364.4 L 893.8 373.9 L 895.9 374.5 L 898.1 380.3 L 900.3 387.9 L 902.4 373.7 L 904.6 371.8 L 906.7 373.0 L 908.9 374.9 L 911.1 374.0 L 913.2 375.4 L 915.4 373.8 L 917.5 373.1 L 919.7 371.1 L 921.9 368.0 L 924.0 368.2 L 926.2 368.0 L 928.3 369.5 L 930.5 366.8 L 932.6 366.3 L 934.8 368.9 L 937.0 363.9 L 939.1 359.6 L 941.3 361.1 L 943.4 363.2 L 945.6 362.8 L 947.8 361.6 L 949.9 361.9 L 952.1 357.9 L 954.2 356.0 L 956.4 352.5 L 958.5 351.0 L 960.7 348.3 L 962.9 346.6 L 965.0 340.6 L 967.2 336.9 L 969.3 335.1 L 971.5 347.7 L 973.7 342.0 L 975.8 342.7 L 978.0 344.4 L 980.1 346.2 L 982.3 344.3 L 984.4 344.9 L 986.6 339.7 L 988.8 337.4 L 990.9 334.3 L 993.1 333.0 L 995.2 331.7 L 997.4 330.8 L 999.6 327.5 L 1001.7 323.4 L 1003.9 320.5 L 1006.0 276.8 L 1008.2 266.7 L 1010.4 266.6 L 1012.5 266.6 L 1014.7 268.4 L 1016.8 266.7 L 1019.0 268.2 L 1021.1 262.6 L 1023.3 258.9 L 1025.5 257.0 L 1027.6 257.0 L 1029.8 260.9 L 1031.9 263.0 L 1034.1 260.9 L 1036.3 255.1 L 1038.4 254.9 L 1040.6 231.1 L 1042.7 221.9 L 1044.9 222.4 L 1047.0 220.2 L 1049.2 223.0 L 1051.4 220.6 L 1053.5 220.8 L 1055.7 213.9 L 1057.8 207.2 L 1060.0 206.4" fill="none" stroke="#dc2626" stroke-width="2.4" stroke-dasharray="8 5"/>
<circle cx="88" cy="526" r="5" fill="#2563eb"/><text x="100" y="530" font-family="Arial, sans-serif" font-size="13" fill="#374151">history</text>
<circle cx="178" cy="526" r="5" fill="#dc2626"/><text x="190" y="530" font-family="Arial, sans-serif" font-size="13" fill="#374151">forecast</text>
</svg>
