<svg xmlns="http://www.w3.org/2000/svg" data-y-scale="log" width="1100" height="620" viewBox="0 0 1100 620">
<rect width="100%" height="100%" fill="#ffffff"/>
<text x="80" y="26" font-family="Arial, sans-serif" font-size="20" font-weight="700" fill="#111827">BTCUSDT Chronos-2 Forecast</text>
<text x="80" y="50" font-family="Arial, sans-serif" font-size="13" fill="#4b5563">Last history close: 81,745.65 | Last forecast: 72,023.80 | Y scale: log scale</text>
<line x1="80" y1="505.0" x2="1060" y2="505.0" stroke="#e5e7eb" stroke-width="1"/>
<text x="70" y="509.0" text-anchor="end" font-family="Arial, sans-serif" font-size="12" fill="#6b7280">51,637</text>
<line x1="80" y1="396.7" x2="1060" y2="396.7" stroke="#e5e7eb" stroke-width="1"/>
<text x="70" y="400.7" text-anchor="end" font-family="Arial, sans-serif" font-size="12" fill="#6b7280">64,365</text>
<line x1="80" y1="288.5" x2="1060" y2="288.5" stroke="#e5e7eb" stroke-width="1"/>
<text x="70" y="292.5" text-anchor="end" font-family="Arial, sans-serif" font-size="12" fill="#6b7280">80,231</text>
<line x1="80" y1="180.3" x2="1060" y2="180.3" stroke="#e5e7eb" stroke-width="1"/>
<text x="70" y="184.3" text-anchor="end" font-family="Arial, sans-serif" font-size="12" fill="#6b7280">100,007</text>
<line x1="80" y1="72.0" x2="1060" y2="72.0" stroke="#e5e7eb" stroke-width="1"/>
<text x="70" y="76.0" text-anchor="end" font-family="Arial, sans-serif" font-size="12" fill="#6b7280">124,659</text>
<line class="x-axis-grid" x1="80.0" y1="72" x2="80.0" y2="505" stroke="#f1f5f9" stroke-width="1"/>
<line class="x-axis-grid" x1="276.0" y1="72" x2="276.0" y2="505" stroke="#f1f5f9" stroke-width="1"/>
<line class="x-axis-grid" x1="472.0" y1="72" x2="472.0" y2="505" stroke="#f1f5f9" stroke-width="1"/>
<line class="x-axis-grid" x1="668.0" y1="72" x2="668.0" y2="505" stroke="#f1f5f9" stroke-width="1"/>
<line class="x-axis-grid" x1="864.0" y1="72" x2="864.0" y2="505" stroke="#f1f5f9" stroke-width="1"/>
<line class="x-axis-grid" x1="1060.0" y1="72" x2="1060.0" y2="505" stroke="#f1f5f9" stroke-width="1"/>
<line x1="80" y1="72" x2="80" y2="505" stroke="#9ca3af" stroke-width="1"/>
<line x1="80" y1="505" x2="1060" y2="505" stroke="#9ca3af" stroke-width="1"/>
<text class="x-axis-label" x="80.0" y="530" text-anchor="middle" font-family="Arial, sans-serif" font-size="11" fill="#6b7280">2025-05-12</text>
<text class="x-axis-label" x="276.0" y="530" text-anchor="middle" font-family="Arial, sans-serif" font-size="11" fill="#6b7280">2025-08-10</text>
<text class="x-axis-label" x="472.0" y="530" text-anchor="middle" font-family="Arial, sans-serif" font-size="11" fill="#6b7280">2025-11-09</text>
<text class="x-axis-label" x="668.0" y="530" text-anchor="middle" font-family="Arial, sans-serif" font-size="11" fill="#6b7280">2026-02-08</text>
<text class="x-axis-label" x="864.0" y="530" text-anchor="middle" font-family="Arial, sans-serif" font-size="11" fill="#6b7280">2026-05-10</text>
<text class="x-axis-label" x="1060.0" y="530" text-anchor="middle" font-family="Arial, sans-serif" font-size="11" fill="#6b7280">2026-08-09</text>
<line id="forecast-start-line" x1="867.9" y1="72" x2="867.9" y2="505" stroke="#111827" stroke-width="1.3" stroke-dasharray="5 6" opacity="0.42"/>
<text x="875.9" y="87" font-family="Arial, sans-serif" font-size="11" fill="#374151">forecast start</text>
<path id="probability-corridor" d="M 867.9 266.9 L 870.0 265.9 L 872.2 264.7 L 874.4 262.3 L 876.5 260.2 L 878.7 257.9 L 880.8 256.3 L 883.0 253.9 L 885.2 251.6 L 887.3 250.5 L 889.5 248.4 L 891.6 247.8 L 893.8 245.9 L 895.9 245.3 L 898.1 243.8 L 900.3 241.6 L 902.4 245.9 L 904.6 245.8 L 906.7 244.7 L 908.9 241.7 L 911.1 241.8 L 913.2 240.5 L 915.4 239.5 L 917.5 238.3 L 919.7 235.6 L 921.9 235.8 L 924.0 233.1 L 926.2 232.5 L 928.3 230.9 L 930.5 231.0 L 932.6 230.9 L 934.8 228.8 L 937.0 233.3 L 939.1 233.7 L 941.3 233.3 L 943.4 230.9 L 945.6 232.2 L 947.8 229.0 L 949.9 229.0 L 952.1 228.3 L 954.2 226.8 L 956.4 226.7 L 958.5 223.8 L 960.7 222.0 L 962.9 221.1 L 965.0 221.8 L 967.2 222.7 L 969.3 221.1 L 971.5 221.4 L 973.7 222.0 L 975.8 222.4 L 978.0 218.9 L 980.1 221.0 L 982.3 218.0 L 984.4 219.0 L 986.6 217.0 L 988.8 216.0 L 990.9 215.2 L 993.1 211.7 L 995.2 209.0 L 997.4 208.5 L 999.6 209.6 L 1001.7 210.1 L 1003.9 206.4 L 1006.0 198.0 L 1008.2 198.3 L 1010.4 200.6 L 1012.5 198.5 L 1014.7 199.5 L 1016.8 196.1 L 1019.0 196.2 L 1021.1 196.6 L 1023.3 197.0 L 1025.5 194.0 L 1027.6 192.4 L 1029.8 190.6 L 1031.9 190.4 L 1034.1 192.9 L 1036.3 196.5 L 1038.4 192.4 L 1040.6 190.0 L 1042.7 190.0 L 1044.9 193.3 L 1047.0 191.9 L 1049.2 192.4 L 1051.4 187.8 L 1053.5 186.8 L 1055.7 188.8 L 1057.8 189.2 L 1060.0 185.6 L 1060.0 505.0 L 1057.8 503.3 L 1055.7 501.4 L 1053.5 501.3 L 1051.4 497.8 L 1049.2 495.8 L 1047.0 493.0 L 1044.9 491.8 L 1042.7 488.6 L 1040.6 485.9 L 1038.4 483.0 L 1036.3 480.1 L 1034.1 471.9 L 1031.9 474.7 L 1029.8 471.6 L 1027.6 470.2 L 1025.5 464.8 L 1023.3 464.5 L 1021.1 461.9 L 1019.0 459.1 L 1016.8 453.2 L 1014.7 454.8 L 1012.5 449.0 L 1010.4 446.9 L 1008.2 443.1 L 1006.0 439.1 L 1003.9 445.1 L 1001.7 443.3 L 999.6 435.6 L 997.4 439.1 L 995.2 435.6 L 993.1 433.2 L 990.9 426.0 L 988.8 426.6 L 986.6 422.7 L 984.4 419.1 L 982.3 415.9 L 980.1 417.9 L 978.0 411.8 L 975.8 410.6 L 973.7 406.9 L 971.5 404.7 L 969.3 413.3 L 967.2 411.7 L 965.0 408.8 L 962.9 409.2 L 960.7 404.3 L 958.5 401.4 L 956.4 392.6 L 954.2 394.0 L 952.1 390.5 L 949.9 387.1 L 947.8 385.0 L 945.6 384.9 L 943.4 378.0 L 941.3 375.7 L 939.1 374.7 L 937.0 371.3 L 934.8 375.8 L 932.6 370.6 L 930.5 371.5 L 928.3 363.2 L 926.2 358.6 L 924.0 361.7 L 921.9 355.2 L 919.7 353.4 L 917.5 348.7 L 915.4 345.3 L 913.2 343.6 L 911.1 339.8 L 908.9 338.5 L 906.7 336.7 L 904.6 331.9 L 902.4 327.1 L 900.3 330.5 L 898.1 327.0 L 895.9 327.2 L 893.8 323.7 L 891.6 320.8 L 889.5 319.9 L 887.3 316.0 L 885.2 313.1 L 883.0 311.6 L 880.8 308.1 L 878.7 306.1 L 876.5 303.8 L 874.4 300.2 L 872.2 298.2 L 870.0 292.0 L 867.9 289.8 Z" fill="#dc2626" fill-opacity="0.13" stroke="none"/>
<path d="M 80.0 166.8 L 82.2 160.5 L 84.3 163.3 L 86.5 162.1 L 88.6 163.6 L 90.8 165.2 L 93.0 149.6 L 95.1 153.6 L 97.3 147.7 L 99.4 135.1 L 101.6 125.9 L 103.7 145.6 L 105.9 143.6 L 108.1 137.9 L 110.2 136.0 L 112.4 138.2 L 114.5 143.5 L 116.7 153.6 L 118.9 161.1 L 121.0 158.2 L 123.2 153.3 L 125.3 152.3 L 127.5 154.6 L 129.6 157.7 L 131.8 172.9 L 134.0 159.7 L 136.1 153.7 L 138.3 152.9 L 140.4 132.3 L 142.6 132.2 L 144.8 139.5 L 146.9 153.2 L 149.1 151.3 L 151.2 154.4 L 153.4 153.5 L 155.6 148.0 L 157.7 158.4 L 159.9 156.8 L 162.0 157.9 L 164.2 164.3 L 166.3 170.0 L 168.5 175.6 L 170.7 154.8 L 172.8 151.3 L 175.0 145.5 L 177.1 147.3 L 179.3 146.8 L 181.5 145.7 L 183.6 140.9 L 185.8 146.4 L 187.9 153.1 L 190.1 138.6 L 192.2 135.3 L 194.4 142.5 L 196.6 141.6 L 198.7 137.0 L 200.9 141.3 L 203.0 138.3 L 205.2 128.0 L 207.4 107.3 L 209.5 100.9 L 211.7 101.4 L 213.8 94.5 L 216.0 91.4 L 218.1 100.0 L 220.3 96.4 L 222.5 94.1 L 224.6 99.3 L 226.8 99.6 L 228.9 102.0 L 231.1 101.6 L 233.3 90.9 L 235.4 95.8 L 237.6 97.6 L 239.7 100.6 L 241.9 99.3 L 244.1 93.1 L 246.2 98.7 L 248.4 99.2 L 250.5 99.6 L 252.7 108.4 L 254.8 118.9 L 257.0 122.2 L 259.2 115.0 L 261.3 111.4 L 263.5 115.4 L 265.6 111.7 L 267.8 101.2 L 270.0 104.5 L 272.1 105.4 L 274.3 93.6 L 276.4 96.1 L 278.6 90.2 L 280.7 77.4 L 282.9 97.7 L 285.1 101.7 L 287.2 101.6 L 289.4 101.5 L 291.5 106.4 L 293.7 120.8 L 295.9 114.7 L 298.0 122.4 L 300.2 103.4 L 302.3 109.8 L 304.5 118.1 L 306.7 133.0 L 308.8 125.6 L 311.0 127.9 L 313.1 122.1 L 315.3 140.8 L 317.4 138.8 L 319.6 141.4 L 321.8 136.9 L 323.9 128.0 L 326.1 125.9 L 328.2 130.2 L 330.4 130.5 L 332.6 132.6 L 334.7 128.4 L 336.9 124.3 L 339.0 126.6 L 341.2 116.1 L 343.3 109.6 L 345.5 107.2 L 347.7 107.7 L 349.8 110.5 L 352.0 110.1 L 354.1 104.0 L 356.3 105.5 L 358.5 102.8 L 360.6 108.9 L 362.8 108.7 L 364.9 110.6 L 367.1 121.8 L 369.3 124.6 L 371.4 118.9 L 373.6 138.0 L 375.7 135.1 L 377.9 135.1 L 380.0 123.9 L 382.2 114.6 L 384.4 115.7 L 386.5 96.5 L 388.7 88.5 L 390.8 81.7 L 393.0 81.0 L 395.2 76.7 L 397.3 72.0 L 399.5 85.3 L 401.6 77.4 L 403.8 84.0 L 405.9 121.2 L 408.1 130.6 L 410.3 111.8 L 412.4 110.9 L 414.6 120.1 L 416.7 130.1 L 418.9 141.6 L 421.1 149.7 L 423.2 146.2 L 425.4 139.6 L 427.5 131.1 L 429.7 141.1 L 431.9 144.4 L 434.0 133.1 L 436.2 129.0 L 438.3 126.2 L 440.5 113.5 L 442.6 115.4 L 444.8 120.7 L 447.0 133.4 L 449.1 141.0 L 451.3 135.2 L 453.4 133.0 L 455.6 131.1 L 457.8 149.0 L 459.9 173.0 L 462.1 161.6 L 464.2 173.7 L 466.4 164.1 L 468.5 169.1 L 470.7 157.6 L 472.9 151.6 L 475.0 165.5 L 477.2 172.2 L 479.3 181.8 L 481.5 207.6 L 483.7 202.4 L 485.8 209.3 L 488.0 220.1 L 490.1 216.1 L 492.3 223.6 L 494.4 250.8 L 496.6 259.4 L 498.8 261.6 L 500.9 249.7 L 503.1 241.4 L 505.2 246.6 L 507.4 229.4 L 509.6 224.8 L 511.7 227.2 L 513.9 227.7 L 516.0 230.1 L 518.2 252.8 L 520.4 225.1 L 522.5 213.7 L 524.7 220.8 L 526.8 235.7 L 529.0 236.2 L 531.1 229.9 L 533.3 228.6 L 535.5 217.6 L 537.6 221.2 L 539.8 218.5 L 541.9 230.6 L 544.1 230.7 L 546.3 242.1 L 548.4 251.9 L 550.6 243.9 L 552.7 253.0 L 554.9 257.2 L 557.0 242.3 L 559.2 241.1 L 561.4 239.4 L 563.5 239.6 L 565.7 246.0 L 567.8 244.9 L 570.0 247.4 L 572.2 246.6 L 574.3 243.8 L 576.5 243.4 L 578.6 247.4 L 580.8 240.4 L 583.0 245.1 L 585.1 238.4 L 587.3 232.1 L 589.4 228.6 L 591.6 223.8 L 593.7 211.4 L 595.9 212.0 L 598.1 224.7 L 600.2 226.1 L 602.4 228.6 L 604.5 229.3 L 606.7 226.5 L 608.9 225.0 L 611.0 203.3 L 613.2 195.5 L 615.3 202.4 L 617.5 202.6 L 619.6 204.7 L 621.8 212.4 L 624.0 217.9 L 626.1 240.7 L 628.3 235.0 L 630.4 234.5 L 632.6 234.2 L 634.8 236.3 L 636.9 250.6 L 639.1 241.2 L 641.2 236.2 L 643.4 235.9 L 645.6 262.2 L 647.7 264.4 L 649.9 297.7 L 652.0 308.9 L 654.2 297.7 L 656.3 316.6 L 658.5 333.8 L 660.7 408.0 L 662.8 351.5 L 665.0 360.5 L 667.1 353.2 L 669.3 354.5 L 671.5 363.7 L 673.6 376.4 L 675.8 382.4 L 677.9 363.6 L 680.1 356.8 L 682.2 363.8 L 684.4 363.4 L 686.6 373.4 L 688.7 381.0 L 690.9 377.0 L 693.0 369.6 L 695.2 369.9 L 697.4 372.3 L 699.5 394.5 L 701.7 399.1 L 703.8 369.8 L 706.0 373.5 L 708.1 385.4 L 710.3 377.2 L 712.5 386.1 L 714.6 363.8 L 716.8 367.3 L 718.9 337.1 L 721.1 349.3 L 723.3 368.9 L 725.4 375.1 L 727.6 384.6 L 729.7 366.6 L 731.9 355.9 L 734.1 354.2 L 736.2 351.7 L 738.4 349.0 L 740.5 347.1 L 742.7 336.1 L 744.8 322.4 L 747.0 328.8 L 749.2 346.8 L 751.3 356.0 L 753.5 351.9 L 755.6 363.2 L 757.8 370.8 L 760.0 349.2 L 762.1 351.6 L 764.3 346.2 L 766.4 363.9 L 768.6 381.4 L 770.7 381.6 L 772.9 384.3 L 775.1 378.5 L 777.2 367.7 L 779.4 368.9 L 781.5 377.8 L 783.7 377.3 L 785.9 374.8 L 788.0 362.3 L 790.2 363.6 L 792.3 342.2 L 794.5 348.1 L 796.7 343.1 L 798.8 335.2 L 801.0 334.6 L 803.1 350.3 L 805.3 325.4 L 807.4 327.3 L 809.6 322.9 L 811.8 320.6 L 813.9 308.2 L 816.1 317.1 L 818.2 329.5 L 820.4 316.1 L 822.6 312.9 L 824.7 301.2 L 826.9 300.7 L 829.0 305.9 L 831.2 304.7 L 833.3 298.2 L 835.5 306.3 L 837.7 312.9 L 839.8 316.5 L 842.0 312.9 L 844.1 300.9 L 846.3 298.0 L 848.5 298.8 L 850.6 290.8 L 852.8 284.4 L 854.9 281.1 L 857.1 289.9 L 859.3 288.7 L 861.4 285.8 L 863.6 276.5 L 865.7 279.3" fill="none" stroke="#2563eb" stroke-width="2.2"/>
<path d="M 867.9 277.5 L 870.0 278.6 L 872.2 280.1 L 874.4 281.5 L 876.5 281.6 L 878.7 281.5 L 880.8 281.7 L 883.0 282.0 L 885.2 281.3 L 887.3 282.0 L 889.5 282.8 L 891.6 282.8 L 893.8 284.4 L 895.9 283.5 L 898.1 283.1 L 900.3 285.2 L 902.4 285.4 L 904.6 287.6 L 906.7 288.9 L 908.9 289.5 L 911.1 289.5 L 913.2 291.1 L 915.4 291.1 L 917.5 291.6 L 919.7 291.1 L 921.9 291.8 L 924.0 292.2 L 926.2 292.5 L 928.3 294.4 L 930.5 294.0 L 932.6 294.4 L 934.8 296.8 L 937.0 296.5 L 939.1 298.8 L 941.3 299.8 L 943.4 300.4 L 945.6 300.0 L 947.8 301.5 L 949.9 301.4 L 952.1 302.8 L 954.2 302.5 L 956.4 303.0 L 958.5 303.8 L 960.7 305.0 L 962.9 306.7 L 965.0 307.3 L 967.2 307.7 L 969.3 307.4 L 971.5 308.2 L 973.7 309.5 L 975.8 310.1 L 978.0 311.1 L 980.1 312.4 L 982.3 312.3 L 984.4 313.1 L 986.6 313.5 L 988.8 313.9 L 990.9 314.2 L 993.1 315.1 L 995.2 315.3 L 997.4 316.8 L 999.6 318.9 L 1001.7 317.9 L 1003.9 315.0 L 1006.0 318.2 L 1008.2 318.8 L 1010.4 320.1 L 1012.5 322.6 L 1014.7 324.2 L 1016.8 324.4 L 1019.0 326.7 L 1021.1 326.2 L 1023.3 326.9 L 1025.5 327.4 L 1027.6 328.5 L 1029.8 329.2 L 1031.9 332.5 L 1034.1 334.6 L 1036.3 334.9 L 1038.4 333.2 L 1040.6 332.9 L 1042.7 334.1 L 1044.9 334.2 L 1047.0 338.6 L 1049.2 339.0 L 1051.4 340.0 L 1053.5 341.4 L 1055.7 339.7 L 1057.8 340.7 L 1060.0 341.5" fill="none" stroke="#dc2626" stroke-width="2.4" stroke-dasharray="8 5"/>
<circle cx="88" cy="586" r="5" fill="#2563eb"/><text x="100" y="590" font-family="Arial, sans-serif" font-size="13" fill="#374151">history</text>
<circle cx="178" cy="586" r="5" fill="#dc2626"/><text x="190" y="590" font-family="Arial, sans-serif" font-size="13" fill="#374151">forecast</text>
<rect x="265" y="581" width="22" height="10" rx="2" fill="#dc2626" fill-opacity="0.18"/><text x="296" y="590" font-family="Arial, sans-serif" font-size="13" fill="#374151">10-90% probability corridor</text>
</svg>
