<svg xmlns="http://www.w3.org/2000/svg" data-y-scale="linear" width="1100" height="620" viewBox="0 0 1100 620">
<rect width="100%" height="100%" fill="#ffffff"/>
<text x="80" y="26" font-family="Arial, sans-serif" font-size="20" font-weight="700" fill="#111827">BTCUSDT Chronos-2 Forecast</text>
<text x="80" y="50" font-family="Arial, sans-serif" font-size="13" fill="#4b5563">Last history close: 81,745.65 | Last forecast: 73,345.10</text>
<line x1="80" y1="505.0" x2="1060" y2="505.0" stroke="#e5e7eb" stroke-width="1"/>
<text x="70" y="509.0" text-anchor="end" font-family="Arial, sans-serif" font-size="12" fill="#6b7280">51,839</text>
<line x1="80" y1="396.8" x2="1060" y2="396.8" stroke="#e5e7eb" stroke-width="1"/>
<text x="70" y="400.8" text-anchor="end" font-family="Arial, sans-serif" font-size="12" fill="#6b7280">70,044</text>
<line x1="80" y1="288.5" x2="1060" y2="288.5" stroke="#e5e7eb" stroke-width="1"/>
<text x="70" y="292.5" text-anchor="end" font-family="Arial, sans-serif" font-size="12" fill="#6b7280">88,249</text>
<line x1="80" y1="180.2" x2="1060" y2="180.2" stroke="#e5e7eb" stroke-width="1"/>
<text x="70" y="184.2" text-anchor="end" font-family="Arial, sans-serif" font-size="12" fill="#6b7280">106,454</text>
<line x1="80" y1="72.0" x2="1060" y2="72.0" stroke="#e5e7eb" stroke-width="1"/>
<text x="70" y="76.0" text-anchor="end" font-family="Arial, sans-serif" font-size="12" fill="#6b7280">124,659</text>
<line class="x-axis-grid" x1="80.0" y1="72" x2="80.0" y2="505" stroke="#f1f5f9" stroke-width="1"/>
<line class="x-axis-grid" x1="276.0" y1="72" x2="276.0" y2="505" stroke="#f1f5f9" stroke-width="1"/>
<line class="x-axis-grid" x1="472.0" y1="72" x2="472.0" y2="505" stroke="#f1f5f9" stroke-width="1"/>
<line class="x-axis-grid" x1="668.0" y1="72" x2="668.0" y2="505" stroke="#f1f5f9" stroke-width="1"/>
<line class="x-axis-grid" x1="864.0" y1="72" x2="864.0" y2="505" stroke="#f1f5f9" stroke-width="1"/>
<line class="x-axis-grid" x1="1060.0" y1="72" x2="1060.0" y2="505" stroke="#f1f5f9" stroke-width="1"/>
<line x1="80" y1="72" x2="80" y2="505" stroke="#9ca3af" stroke-width="1"/>
<line x1="80" y1="505" x2="1060" y2="505" stroke="#9ca3af" stroke-width="1"/>
<text class="x-axis-label" x="80.0" y="530" text-anchor="middle" font-family="Arial, sans-serif" font-size="11" fill="#6b7280">2025-05-12</text>
<text class="x-axis-label" x="276.0" y="530" text-anchor="middle" font-family="Arial, sans-serif" font-size="11" fill="#6b7280">2025-08-10</text>
<text class="x-axis-label" x="472.0" y="530" text-anchor="middle" font-family="Arial, sans-serif" font-size="11" fill="#6b7280">2025-11-09</text>
<text class="x-axis-label" x="668.0" y="530" text-anchor="middle" font-family="Arial, sans-serif" font-size="11" fill="#6b7280">2026-02-08</text>
<text class="x-axis-label" x="864.0" y="530" text-anchor="middle" font-family="Arial, sans-serif" font-size="11" fill="#6b7280">2026-05-10</text>
<text class="x-axis-label" x="1060.0" y="530" text-anchor="middle" font-family="Arial, sans-serif" font-size="11" fill="#6b7280">2026-08-09</text>
<line id="forecast-start-line" x1="867.9" y1="72" x2="867.9" y2="505" stroke="#111827" stroke-width="1.3" stroke-dasharray="5 6" opacity="0.42"/>
<text x="875.9" y="87" font-family="Arial, sans-serif" font-size="11" fill="#374151">forecast start</text>
<path id="probability-corridor" d="M 867.9 313.8 L 870.0 312.9 L 872.2 311.5 L 874.4 309.2 L 876.5 306.6 L 878.7 304.3 L 880.8 302.6 L 883.0 299.9 L 885.2 297.4 L 887.3 296.3 L 889.5 294.1 L 891.6 293.4 L 893.8 291.3 L 895.9 290.6 L 898.1 289.1 L 900.3 286.6 L 902.4 290.0 L 904.6 289.7 L 906.7 288.3 L 908.9 284.9 L 911.1 285.2 L 913.2 283.6 L 915.4 282.4 L 917.5 281.0 L 919.7 278.3 L 921.9 278.1 L 924.0 275.2 L 926.2 274.3 L 928.3 272.5 L 930.5 272.8 L 932.6 272.8 L 934.8 270.7 L 937.0 274.2 L 939.1 275.0 L 941.3 274.0 L 943.4 271.6 L 945.6 272.7 L 947.8 269.2 L 949.9 268.9 L 952.1 268.2 L 954.2 266.4 L 956.4 265.9 L 958.5 262.6 L 960.7 260.7 L 962.9 259.1 L 965.0 260.2 L 967.2 261.3 L 969.3 259.6 L 971.5 259.4 L 973.7 260.8 L 975.8 260.8 L 978.0 257.2 L 980.1 259.2 L 982.3 255.7 L 984.4 256.0 L 986.6 254.2 L 988.8 253.3 L 990.9 251.7 L 993.1 247.9 L 995.2 244.7 L 997.4 243.7 L 999.6 245.3 L 1001.7 246.0 L 1003.9 241.6 L 1006.0 230.7 L 1008.2 230.9 L 1010.4 233.1 L 1012.5 230.3 L 1014.7 230.5 L 1016.8 226.1 L 1019.0 225.9 L 1021.1 227.2 L 1023.3 227.2 L 1025.5 223.6 L 1027.6 221.7 L 1029.8 219.3 L 1031.9 218.4 L 1034.1 222.1 L 1036.3 225.9 L 1038.4 220.8 L 1040.6 218.7 L 1042.7 216.7 L 1044.9 221.0 L 1047.0 220.0 L 1049.2 219.1 L 1051.4 213.6 L 1053.5 212.2 L 1055.7 215.5 L 1057.8 215.8 L 1060.0 211.3 L 1060.0 505.0 L 1057.8 504.5 L 1055.7 503.1 L 1053.5 503.1 L 1051.4 499.9 L 1049.2 499.6 L 1047.0 497.1 L 1044.9 497.2 L 1042.7 495.0 L 1040.6 493.0 L 1038.4 491.5 L 1036.3 490.0 L 1034.1 484.0 L 1031.9 486.6 L 1029.8 484.4 L 1027.6 483.4 L 1025.5 479.7 L 1023.3 480.0 L 1021.1 478.2 L 1019.0 476.4 L 1016.8 471.6 L 1014.7 473.1 L 1012.5 468.5 L 1010.4 467.4 L 1008.2 464.6 L 1006.0 462.2 L 1003.9 464.8 L 1001.7 463.5 L 999.6 458.1 L 997.4 460.7 L 995.2 458.2 L 993.1 456.5 L 990.9 451.2 L 988.8 452.1 L 986.6 449.5 L 984.4 447.0 L 982.3 444.4 L 980.1 445.6 L 978.0 441.3 L 975.8 440.9 L 973.7 437.8 L 971.5 436.3 L 969.3 440.4 L 967.2 438.5 L 965.0 437.0 L 962.9 436.6 L 960.7 433.0 L 958.5 431.6 L 956.4 424.7 L 954.2 425.6 L 952.1 423.1 L 949.9 421.0 L 947.8 418.8 L 945.6 418.8 L 943.4 414.2 L 941.3 411.8 L 939.1 411.1 L 937.0 408.6 L 934.8 412.4 L 932.6 407.6 L 930.5 408.6 L 928.3 401.5 L 926.2 398.9 L 924.0 401.5 L 921.9 396.2 L 919.7 394.4 L 917.5 390.9 L 915.4 387.9 L 913.2 386.5 L 911.1 383.0 L 908.9 382.1 L 906.7 380.4 L 904.6 376.0 L 902.4 371.9 L 900.3 374.9 L 898.1 371.7 L 895.9 371.6 L 893.8 368.8 L 891.6 366.1 L 889.5 365.1 L 887.3 361.7 L 885.2 358.7 L 883.0 357.9 L 880.8 354.7 L 878.7 352.9 L 876.5 350.6 L 874.4 347.2 L 872.2 345.5 L 870.0 339.4 L 867.9 337.2 Z" fill="#dc2626" fill-opacity="0.13" stroke="none"/>
<path d="M 80.0 202.0 L 82.2 194.2 L 84.3 197.8 L 86.5 196.2 L 88.6 198.0 L 90.8 200.0 L 93.0 180.2 L 95.1 185.5 L 97.3 177.9 L 99.4 161.3 L 101.6 149.1 L 103.7 175.1 L 105.9 172.5 L 108.1 165.1 L 110.2 162.5 L 112.4 165.5 L 114.5 172.4 L 116.7 185.4 L 118.9 194.9 L 121.0 191.3 L 123.2 185.1 L 125.3 183.8 L 127.5 186.7 L 129.6 190.7 L 131.8 209.7 L 134.0 193.1 L 136.1 185.6 L 138.3 184.5 L 140.4 157.6 L 142.6 157.5 L 144.8 167.2 L 146.9 184.9 L 149.1 182.6 L 151.2 186.4 L 153.4 185.4 L 155.6 178.2 L 157.7 191.6 L 159.9 189.6 L 162.0 190.9 L 164.2 199.0 L 166.3 206.0 L 168.5 212.9 L 170.7 186.9 L 172.8 182.5 L 175.0 175.0 L 177.1 177.3 L 179.3 176.7 L 181.5 175.2 L 183.6 168.9 L 185.8 176.1 L 187.9 184.8 L 190.1 166.0 L 192.2 161.6 L 194.4 171.1 L 196.6 169.9 L 198.7 163.9 L 200.9 169.5 L 203.0 165.6 L 205.2 151.8 L 207.4 123.4 L 209.5 114.4 L 211.7 115.0 L 213.8 105.1 L 216.0 100.6 L 218.1 113.0 L 220.3 107.8 L 222.5 104.6 L 224.6 112.0 L 226.8 112.5 L 228.9 116.0 L 231.1 115.3 L 233.3 100.0 L 235.4 107.1 L 237.6 109.6 L 239.7 113.9 L 241.9 112.1 L 244.1 103.2 L 246.2 111.2 L 248.4 111.9 L 250.5 112.5 L 252.7 124.9 L 254.8 139.6 L 257.0 144.0 L 259.2 134.1 L 261.3 129.1 L 263.5 134.6 L 265.6 129.5 L 267.8 114.7 L 270.0 119.5 L 272.1 120.7 L 274.3 103.9 L 276.4 107.5 L 278.6 98.9 L 280.7 80.0 L 282.9 109.8 L 285.1 115.5 L 287.2 115.3 L 289.4 115.1 L 291.5 122.1 L 293.7 142.1 L 295.9 133.8 L 298.0 144.3 L 300.2 117.9 L 302.3 126.8 L 304.5 138.4 L 306.7 158.5 L 308.8 148.7 L 311.0 151.7 L 313.1 143.9 L 315.3 168.8 L 317.4 166.2 L 319.6 169.6 L 321.8 163.7 L 323.9 151.8 L 326.1 149.0 L 328.2 154.8 L 330.4 155.2 L 332.6 158.0 L 334.7 152.4 L 336.9 146.9 L 339.0 150.0 L 341.2 135.6 L 343.3 126.6 L 345.5 123.3 L 347.7 124.0 L 349.8 127.8 L 352.0 127.4 L 354.1 118.8 L 356.3 120.8 L 358.5 117.1 L 360.6 125.7 L 362.8 125.4 L 364.9 128.1 L 367.1 143.4 L 369.3 147.3 L 371.4 139.5 L 373.6 165.1 L 375.7 161.3 L 377.9 161.3 L 380.0 146.3 L 382.2 133.5 L 384.4 135.1 L 386.5 108.1 L 388.7 96.6 L 390.8 86.4 L 393.0 85.5 L 395.2 79.0 L 397.3 72.0 L 399.5 91.8 L 401.6 80.0 L 403.8 89.8 L 405.9 142.7 L 408.1 155.3 L 410.3 129.7 L 412.4 128.4 L 414.6 141.2 L 416.7 154.6 L 418.9 169.9 L 421.1 180.4 L 423.2 175.9 L 425.4 167.2 L 427.5 156.0 L 429.7 169.3 L 431.9 173.6 L 434.0 158.7 L 436.2 153.2 L 438.3 149.4 L 440.5 132.1 L 442.6 134.7 L 444.8 141.9 L 447.0 159.0 L 449.1 169.1 L 451.3 161.5 L 453.4 158.6 L 455.6 155.9 L 457.8 179.5 L 459.9 209.7 L 462.1 195.5 L 464.2 210.6 L 466.4 198.8 L 468.5 204.9 L 470.7 190.5 L 472.9 182.9 L 475.0 200.4 L 477.2 208.8 L 479.3 220.5 L 481.5 250.8 L 483.7 244.8 L 485.8 252.7 L 488.0 264.9 L 490.1 260.5 L 492.3 268.8 L 494.4 298.1 L 496.6 307.0 L 498.8 309.4 L 500.9 296.9 L 503.1 288.2 L 505.2 293.7 L 507.4 275.2 L 509.6 270.2 L 511.7 272.8 L 513.9 273.3 L 516.0 275.9 L 518.2 300.2 L 520.4 270.5 L 522.5 257.7 L 524.7 265.7 L 526.8 282.1 L 529.0 282.6 L 531.1 275.7 L 533.3 274.3 L 535.5 262.2 L 537.6 266.1 L 539.8 263.1 L 541.9 276.5 L 544.1 276.7 L 546.3 289.0 L 548.4 299.3 L 550.6 290.8 L 552.7 300.4 L 554.9 304.7 L 557.0 289.2 L 559.2 287.8 L 561.4 286.1 L 563.5 286.3 L 565.7 293.0 L 567.8 291.9 L 570.0 294.6 L 572.2 293.7 L 574.3 290.7 L 576.5 290.3 L 578.6 294.5 L 580.8 287.1 L 583.0 292.1 L 585.1 285.0 L 587.3 278.1 L 589.4 274.4 L 591.6 269.0 L 593.7 255.1 L 595.9 255.8 L 598.1 270.0 L 600.2 271.5 L 602.4 274.3 L 604.5 275.1 L 606.7 272.1 L 608.9 270.4 L 611.0 245.9 L 613.2 236.8 L 615.3 244.8 L 617.5 245.1 L 619.6 247.5 L 621.8 256.2 L 624.0 262.4 L 626.1 287.4 L 628.3 281.3 L 630.4 280.7 L 632.6 280.5 L 634.8 282.7 L 636.9 297.9 L 639.1 287.9 L 641.2 282.5 L 643.4 282.3 L 645.6 309.9 L 647.7 312.2 L 649.9 345.0 L 652.0 355.6 L 654.2 345.1 L 656.3 362.7 L 658.5 378.2 L 660.7 439.2 L 662.8 393.6 L 665.0 401.2 L 667.1 395.0 L 669.3 396.2 L 671.5 403.9 L 673.6 414.4 L 675.8 419.2 L 677.9 403.8 L 680.1 398.1 L 682.2 404.0 L 684.4 403.6 L 686.6 411.9 L 688.7 418.1 L 690.9 414.8 L 693.0 408.8 L 695.2 409.0 L 697.4 411.0 L 699.5 428.8 L 701.7 432.3 L 703.8 409.0 L 706.0 412.0 L 708.1 421.6 L 710.3 415.0 L 712.5 422.1 L 714.6 404.0 L 716.8 406.9 L 718.9 381.2 L 721.1 391.7 L 723.3 408.2 L 725.4 413.3 L 727.6 421.0 L 729.7 406.3 L 731.9 397.3 L 734.1 395.9 L 736.2 393.8 L 738.4 391.5 L 740.5 389.8 L 742.7 380.3 L 744.8 368.0 L 747.0 373.8 L 749.2 389.6 L 751.3 397.4 L 753.5 394.0 L 755.6 403.4 L 757.8 409.7 L 760.0 391.6 L 762.1 393.7 L 764.3 389.1 L 766.4 404.0 L 768.6 418.4 L 770.7 418.6 L 772.9 420.7 L 775.1 416.1 L 777.2 407.2 L 779.4 408.2 L 781.5 415.4 L 783.7 415.1 L 785.9 413.1 L 788.0 402.8 L 790.2 403.8 L 792.3 385.6 L 794.5 390.7 L 796.7 386.4 L 798.8 379.4 L 801.0 378.9 L 803.1 392.6 L 805.3 370.7 L 807.4 372.4 L 809.6 368.4 L 811.8 366.4 L 813.9 355.0 L 816.1 363.2 L 818.2 374.4 L 820.4 362.3 L 822.6 359.3 L 824.7 348.4 L 826.9 347.9 L 829.0 352.8 L 831.2 351.7 L 833.3 345.5 L 835.5 353.2 L 837.7 359.3 L 839.8 362.6 L 842.0 359.3 L 844.1 348.1 L 846.3 345.4 L 848.5 346.1 L 850.6 338.4 L 852.8 332.2 L 854.9 328.9 L 857.1 337.5 L 859.3 336.4 L 861.4 333.5 L 863.6 324.4 L 865.7 327.2" fill="none" stroke="#2563eb" stroke-width="2.2"/>
<path d="M 867.9 324.9 L 870.0 326.0 L 872.2 327.4 L 874.4 328.7 L 876.5 328.8 L 878.7 328.6 L 880.8 328.8 L 883.0 329.0 L 885.2 328.1 L 887.3 328.9 L 889.5 329.6 L 891.6 329.7 L 893.8 331.3 L 895.9 330.3 L 898.1 329.6 L 900.3 332.0 L 902.4 332.2 L 904.6 334.3 L 906.7 335.3 L 908.9 335.8 L 911.1 335.7 L 913.2 337.4 L 915.4 337.3 L 917.5 337.8 L 919.7 337.0 L 921.9 337.7 L 924.0 338.2 L 926.2 338.5 L 928.3 340.2 L 930.5 339.8 L 932.6 339.7 L 934.8 342.3 L 937.0 341.5 L 939.1 343.7 L 941.3 344.3 L 943.4 344.9 L 945.6 344.2 L 947.8 346.0 L 949.9 345.7 L 952.1 346.9 L 954.2 346.0 L 956.4 346.8 L 958.5 347.3 L 960.7 348.6 L 962.9 350.2 L 965.0 350.1 L 967.2 350.4 L 969.3 350.8 L 971.5 352.1 L 973.7 353.4 L 975.8 353.8 L 978.0 354.6 L 980.1 355.4 L 982.3 355.8 L 984.4 355.9 L 986.6 356.5 L 988.8 356.5 L 990.9 356.6 L 993.1 357.5 L 995.2 357.9 L 997.4 359.2 L 999.6 360.6 L 1001.7 360.1 L 1003.9 357.7 L 1006.0 360.8 L 1008.2 361.0 L 1010.4 361.9 L 1012.5 363.6 L 1014.7 365.0 L 1016.8 364.9 L 1019.0 366.9 L 1021.1 366.5 L 1023.3 366.8 L 1025.5 367.1 L 1027.6 368.0 L 1029.8 369.0 L 1031.9 371.9 L 1034.1 373.6 L 1036.3 373.8 L 1038.4 371.7 L 1040.6 371.5 L 1042.7 371.6 L 1044.9 372.0 L 1047.0 374.9 L 1049.2 375.5 L 1051.4 376.0 L 1053.5 377.2 L 1055.7 376.0 L 1057.8 376.7 L 1060.0 377.1" fill="none" stroke="#dc2626" stroke-width="2.4" stroke-dasharray="8 5"/>
<circle cx="88" cy="586" r="5" fill="#2563eb"/><text x="100" y="590" font-family="Arial, sans-serif" font-size="13" fill="#374151">history</text>
<circle cx="178" cy="586" r="5" fill="#dc2626"/><text x="190" y="590" font-family="Arial, sans-serif" font-size="13" fill="#374151">forecast</text>
<rect x="265" y="581" width="22" height="10" rx="2" fill="#dc2626" fill-opacity="0.18"/><text x="296" y="590" font-family="Arial, sans-serif" font-size="13" fill="#374151">10-90% probability corridor</text>
</svg>
