<svg xmlns="http://www.w3.org/2000/svg" data-y-scale="log" width="1100" height="620" viewBox="0 0 1100 620">
<rect width="100%" height="100%" fill="#ffffff"/>
<text x="80" y="26" font-family="Arial, sans-serif" font-size="20" font-weight="700" fill="#111827">BTCUSDT Chronos-2 Forecast</text>
<text x="80" y="50" font-family="Arial, sans-serif" font-size="13" fill="#4b5563">Last history close: 81,745.65 | Last forecast: 73,345.10 | Y scale: log scale</text>
<line x1="80" y1="505.0" x2="1060" y2="505.0" stroke="#e5e7eb" stroke-width="1"/>
<text x="70" y="509.0" text-anchor="end" font-family="Arial, sans-serif" font-size="12" fill="#6b7280">51,839</text>
<line x1="80" y1="396.7" x2="1060" y2="396.7" stroke="#e5e7eb" stroke-width="1"/>
<text x="70" y="400.7" text-anchor="end" font-family="Arial, sans-serif" font-size="12" fill="#6b7280">64,554</text>
<line x1="80" y1="288.5" x2="1060" y2="288.5" stroke="#e5e7eb" stroke-width="1"/>
<text x="70" y="292.5" text-anchor="end" font-family="Arial, sans-serif" font-size="12" fill="#6b7280">80,388</text>
<line x1="80" y1="180.3" x2="1060" y2="180.3" stroke="#e5e7eb" stroke-width="1"/>
<text x="70" y="184.3" text-anchor="end" font-family="Arial, sans-serif" font-size="12" fill="#6b7280">100,105</text>
<line x1="80" y1="72.0" x2="1060" y2="72.0" stroke="#e5e7eb" stroke-width="1"/>
<text x="70" y="76.0" text-anchor="end" font-family="Arial, sans-serif" font-size="12" fill="#6b7280">124,659</text>
<line class="x-axis-grid" x1="80.0" y1="72" x2="80.0" y2="505" stroke="#f1f5f9" stroke-width="1"/>
<line class="x-axis-grid" x1="276.0" y1="72" x2="276.0" y2="505" stroke="#f1f5f9" stroke-width="1"/>
<line class="x-axis-grid" x1="472.0" y1="72" x2="472.0" y2="505" stroke="#f1f5f9" stroke-width="1"/>
<line class="x-axis-grid" x1="668.0" y1="72" x2="668.0" y2="505" stroke="#f1f5f9" stroke-width="1"/>
<line class="x-axis-grid" x1="864.0" y1="72" x2="864.0" y2="505" stroke="#f1f5f9" stroke-width="1"/>
<line class="x-axis-grid" x1="1060.0" y1="72" x2="1060.0" y2="505" stroke="#f1f5f9" stroke-width="1"/>
<line x1="80" y1="72" x2="80" y2="505" stroke="#9ca3af" stroke-width="1"/>
<line x1="80" y1="505" x2="1060" y2="505" stroke="#9ca3af" stroke-width="1"/>
<text class="x-axis-label" x="80.0" y="530" text-anchor="middle" font-family="Arial, sans-serif" font-size="11" fill="#6b7280">2025-05-12</text>
<text class="x-axis-label" x="276.0" y="530" text-anchor="middle" font-family="Arial, sans-serif" font-size="11" fill="#6b7280">2025-08-10</text>
<text class="x-axis-label" x="472.0" y="530" text-anchor="middle" font-family="Arial, sans-serif" font-size="11" fill="#6b7280">2025-11-09</text>
<text class="x-axis-label" x="668.0" y="530" text-anchor="middle" font-family="Arial, sans-serif" font-size="11" fill="#6b7280">2026-02-08</text>
<text class="x-axis-label" x="864.0" y="530" text-anchor="middle" font-family="Arial, sans-serif" font-size="11" fill="#6b7280">2026-05-10</text>
<text class="x-axis-label" x="1060.0" y="530" text-anchor="middle" font-family="Arial, sans-serif" font-size="11" fill="#6b7280">2026-08-09</text>
<line id="forecast-start-line" x1="867.9" y1="72" x2="867.9" y2="505" stroke="#111827" stroke-width="1.3" stroke-dasharray="5 6" opacity="0.42"/>
<text x="875.9" y="87" font-family="Arial, sans-serif" font-size="11" fill="#374151">forecast start</text>
<path id="probability-corridor" d="M 867.9 266.9 L 870.0 266.0 L 872.2 264.6 L 874.4 262.3 L 876.5 259.8 L 878.7 257.6 L 880.8 255.9 L 883.0 253.3 L 885.2 250.9 L 887.3 249.9 L 889.5 247.7 L 891.6 247.1 L 893.8 245.1 L 895.9 244.5 L 898.1 243.0 L 900.3 240.7 L 902.4 243.8 L 904.6 243.6 L 906.7 242.2 L 908.9 239.1 L 911.1 239.4 L 913.2 237.8 L 915.4 236.8 L 917.5 235.5 L 919.7 232.9 L 921.9 232.8 L 924.0 230.1 L 926.2 229.3 L 928.3 227.6 L 930.5 227.9 L 932.6 227.9 L 934.8 226.0 L 937.0 229.2 L 939.1 229.9 L 941.3 229.0 L 943.4 226.8 L 945.6 227.8 L 947.8 224.6 L 949.9 224.3 L 952.1 223.7 L 954.2 222.1 L 956.4 221.6 L 958.5 218.7 L 960.7 217.0 L 962.9 215.6 L 965.0 216.5 L 967.2 217.5 L 969.3 216.0 L 971.5 215.8 L 973.7 217.0 L 975.8 217.0 L 978.0 213.9 L 980.1 215.7 L 982.3 212.5 L 984.4 212.8 L 986.6 211.2 L 988.8 210.4 L 990.9 209.0 L 993.1 205.7 L 995.2 202.9 L 997.4 202.0 L 999.6 203.4 L 1001.7 204.0 L 1003.9 200.2 L 1006.0 190.9 L 1008.2 191.1 L 1010.4 192.9 L 1012.5 190.6 L 1014.7 190.7 L 1016.8 187.0 L 1019.0 186.9 L 1021.1 187.9 L 1023.3 187.9 L 1025.5 184.9 L 1027.6 183.3 L 1029.8 181.3 L 1031.9 180.6 L 1034.1 183.7 L 1036.3 186.9 L 1038.4 182.6 L 1040.6 180.9 L 1042.7 179.2 L 1044.9 182.8 L 1047.0 181.9 L 1049.2 181.2 L 1051.4 176.6 L 1053.5 175.5 L 1055.7 178.2 L 1057.8 178.4 L 1060.0 174.7 L 1060.0 505.0 L 1057.8 504.2 L 1055.7 502.0 L 1053.5 502.0 L 1051.4 496.9 L 1049.2 496.4 L 1047.0 492.5 L 1044.9 492.6 L 1042.7 489.2 L 1040.6 486.1 L 1038.4 483.8 L 1036.3 481.6 L 1034.1 472.5 L 1031.9 476.4 L 1029.8 473.1 L 1027.6 471.6 L 1025.5 466.1 L 1023.3 466.5 L 1021.1 463.9 L 1019.0 461.2 L 1016.8 454.2 L 1014.7 456.4 L 1012.5 449.8 L 1010.4 448.1 L 1008.2 444.2 L 1006.0 440.8 L 1003.9 444.6 L 1001.7 442.6 L 999.6 435.1 L 997.4 438.8 L 995.2 435.3 L 993.1 432.9 L 990.9 425.6 L 988.8 426.9 L 986.6 423.3 L 984.4 419.9 L 982.3 416.4 L 980.1 418.1 L 978.0 412.2 L 975.8 411.7 L 973.7 407.7 L 971.5 405.7 L 969.3 411.1 L 967.2 408.6 L 965.0 406.6 L 962.9 406.1 L 960.7 401.5 L 958.5 399.6 L 956.4 390.7 L 954.2 391.9 L 952.1 388.7 L 949.9 386.1 L 947.8 383.3 L 945.6 383.3 L 943.4 377.6 L 941.3 374.6 L 939.1 373.8 L 937.0 370.8 L 934.8 375.3 L 932.6 369.5 L 930.5 370.7 L 928.3 362.1 L 926.2 359.1 L 924.0 362.1 L 921.9 355.9 L 919.7 353.7 L 917.5 349.6 L 915.4 346.1 L 913.2 344.5 L 911.1 340.4 L 908.9 339.4 L 906.7 337.5 L 904.6 332.5 L 902.4 327.9 L 900.3 331.2 L 898.1 327.7 L 895.9 327.6 L 893.8 324.4 L 891.6 321.4 L 889.5 320.3 L 887.3 316.6 L 885.2 313.3 L 883.0 312.4 L 880.8 309.0 L 878.7 307.0 L 876.5 304.6 L 874.4 301.0 L 872.2 299.2 L 870.0 292.8 L 867.9 290.5 Z" fill="#dc2626" fill-opacity="0.13" stroke="none"/>
<path d="M 80.0 167.2 L 82.2 160.9 L 84.3 163.8 L 86.5 162.5 L 88.6 164.0 L 90.8 165.6 L 93.0 149.9 L 95.1 154.0 L 97.3 148.1 L 99.4 135.3 L 101.6 126.2 L 103.7 145.9 L 105.9 143.9 L 108.1 138.2 L 110.2 136.3 L 112.4 138.5 L 114.5 143.8 L 116.7 153.9 L 118.9 161.5 L 121.0 158.6 L 123.2 153.7 L 125.3 152.7 L 127.5 154.9 L 129.6 158.1 L 131.8 173.4 L 134.0 160.0 L 136.1 154.1 L 138.3 153.3 L 140.4 132.6 L 142.6 132.5 L 144.8 139.9 L 146.9 153.5 L 149.1 151.7 L 151.2 154.7 L 153.4 153.9 L 155.6 148.3 L 157.7 158.8 L 159.9 157.2 L 162.0 158.3 L 164.2 164.8 L 166.3 170.4 L 168.5 176.0 L 170.7 155.1 L 172.8 151.6 L 175.0 145.8 L 177.1 147.6 L 179.3 147.2 L 181.5 146.0 L 183.6 141.2 L 185.8 146.7 L 187.9 153.5 L 190.1 138.9 L 192.2 135.6 L 194.4 142.9 L 196.6 141.9 L 198.7 137.3 L 200.9 141.6 L 203.0 138.6 L 205.2 128.2 L 207.4 107.5 L 209.5 101.1 L 211.7 101.5 L 213.8 94.6 L 216.0 91.4 L 218.1 100.1 L 220.3 96.5 L 222.5 94.2 L 224.6 99.4 L 226.8 99.8 L 228.9 102.2 L 231.1 101.7 L 233.3 91.0 L 235.4 95.9 L 237.6 97.7 L 239.7 100.7 L 241.9 99.4 L 244.1 93.2 L 246.2 98.8 L 248.4 99.3 L 250.5 99.8 L 252.7 108.5 L 254.8 119.2 L 257.0 122.4 L 259.2 115.2 L 261.3 111.6 L 263.5 115.5 L 265.6 111.8 L 267.8 101.3 L 270.0 104.7 L 272.1 105.6 L 274.3 93.7 L 276.4 96.2 L 278.6 90.2 L 280.7 77.4 L 282.9 97.9 L 285.1 101.8 L 287.2 101.7 L 289.4 101.6 L 291.5 106.6 L 293.7 121.0 L 295.9 114.9 L 298.0 122.6 L 300.2 103.6 L 302.3 109.9 L 304.5 118.3 L 306.7 133.2 L 308.8 125.9 L 311.0 128.1 L 313.1 122.4 L 315.3 141.1 L 317.4 139.1 L 319.6 141.7 L 321.8 137.2 L 323.9 128.2 L 326.1 126.1 L 328.2 130.5 L 330.4 130.8 L 332.6 132.9 L 334.7 128.7 L 336.9 124.6 L 339.0 126.8 L 341.2 116.3 L 343.3 109.7 L 345.5 107.4 L 347.7 107.9 L 349.8 110.6 L 352.0 110.3 L 354.1 104.2 L 356.3 105.6 L 358.5 103.0 L 360.6 109.1 L 362.8 108.9 L 364.9 110.8 L 367.1 122.0 L 369.3 124.8 L 371.4 119.1 L 373.6 138.3 L 375.7 135.3 L 377.9 135.4 L 380.0 124.1 L 382.2 114.8 L 384.4 115.9 L 386.5 96.6 L 388.7 88.6 L 390.8 81.7 L 393.0 81.1 L 395.2 76.7 L 397.3 72.0 L 399.5 85.3 L 401.6 77.4 L 403.8 84.0 L 405.9 121.4 L 408.1 130.9 L 410.3 112.0 L 412.4 111.1 L 414.6 120.3 L 416.7 130.3 L 418.9 141.9 L 421.1 150.0 L 423.2 146.5 L 425.4 139.9 L 427.5 131.4 L 429.7 141.4 L 431.9 144.8 L 434.0 133.4 L 436.2 129.2 L 438.3 126.4 L 440.5 113.7 L 442.6 115.6 L 444.8 120.9 L 447.0 133.6 L 449.1 141.3 L 451.3 135.5 L 453.4 133.3 L 455.6 131.3 L 457.8 149.3 L 459.9 173.4 L 462.1 162.0 L 464.2 174.2 L 466.4 164.6 L 468.5 169.5 L 470.7 158.0 L 472.9 152.0 L 475.0 165.9 L 477.2 172.7 L 479.3 182.3 L 481.5 208.2 L 483.7 203.0 L 485.8 209.9 L 488.0 220.8 L 490.1 216.8 L 492.3 224.3 L 494.4 251.6 L 496.6 260.2 L 498.8 262.5 L 500.9 250.5 L 503.1 242.2 L 505.2 247.4 L 507.4 230.1 L 509.6 225.5 L 511.7 227.9 L 513.9 228.4 L 516.0 230.8 L 518.2 253.6 L 520.4 225.8 L 522.5 214.3 L 524.7 221.5 L 526.8 236.5 L 529.0 237.0 L 531.1 230.6 L 533.3 229.3 L 535.5 218.3 L 537.6 221.8 L 539.8 219.2 L 541.9 231.3 L 544.1 231.4 L 546.3 242.9 L 548.4 252.7 L 550.6 244.6 L 552.7 253.8 L 554.9 258.0 L 557.0 243.1 L 559.2 241.8 L 561.4 240.2 L 563.5 240.4 L 565.7 246.7 L 567.8 245.7 L 570.0 248.2 L 572.2 247.4 L 574.3 244.5 L 576.5 244.1 L 578.6 248.1 L 580.8 241.1 L 583.0 245.8 L 585.1 239.2 L 587.3 232.8 L 589.4 229.3 L 591.6 224.4 L 593.7 212.0 L 595.9 212.6 L 598.1 225.3 L 600.2 226.8 L 602.4 229.3 L 604.5 230.0 L 606.7 227.2 L 608.9 225.7 L 611.0 203.9 L 613.2 196.0 L 615.3 202.9 L 617.5 203.2 L 619.6 205.3 L 621.8 213.0 L 624.0 218.5 L 626.1 241.5 L 628.3 235.8 L 630.4 235.2 L 632.6 235.0 L 634.8 237.0 L 636.9 251.4 L 639.1 241.9 L 641.2 236.9 L 643.4 236.6 L 645.6 263.0 L 647.7 265.3 L 649.9 298.7 L 652.0 310.0 L 654.2 298.7 L 656.3 317.7 L 658.5 335.0 L 660.7 409.5 L 662.8 352.7 L 665.0 361.8 L 667.1 354.5 L 669.3 355.8 L 671.5 365.0 L 673.6 377.8 L 675.8 383.8 L 677.9 364.9 L 680.1 358.0 L 682.2 365.1 L 684.4 364.7 L 686.6 374.7 L 688.7 382.4 L 690.9 378.4 L 693.0 370.9 L 695.2 371.3 L 697.4 373.7 L 699.5 396.0 L 701.7 400.6 L 703.8 371.2 L 706.0 374.8 L 708.1 386.8 L 710.3 378.6 L 712.5 387.5 L 714.6 365.1 L 716.8 368.6 L 718.9 338.3 L 721.1 350.5 L 723.3 370.3 L 725.4 376.5 L 727.6 386.0 L 729.7 368.0 L 731.9 357.1 L 734.1 355.4 L 736.2 353.0 L 738.4 350.3 L 740.5 348.3 L 742.7 337.3 L 744.8 323.5 L 747.0 330.0 L 749.2 348.1 L 751.3 357.3 L 753.5 353.2 L 755.6 364.5 L 757.8 372.1 L 760.0 350.4 L 762.1 352.9 L 764.3 347.5 L 766.4 365.2 L 768.6 382.8 L 770.7 383.0 L 772.9 385.7 L 775.1 379.9 L 777.2 369.0 L 779.4 370.3 L 781.5 379.1 L 783.7 378.7 L 785.9 376.2 L 788.0 363.6 L 790.2 364.9 L 792.3 343.4 L 794.5 349.3 L 796.7 344.3 L 798.8 336.3 L 801.0 335.8 L 803.1 351.6 L 805.3 326.6 L 807.4 328.5 L 809.6 324.0 L 811.8 321.7 L 813.9 309.3 L 816.1 318.2 L 818.2 330.7 L 820.4 317.2 L 822.6 314.0 L 824.7 302.3 L 826.9 301.8 L 829.0 307.0 L 831.2 305.8 L 833.3 299.2 L 835.5 307.4 L 837.7 314.0 L 839.8 317.6 L 842.0 314.0 L 844.1 301.9 L 846.3 299.1 L 848.5 299.8 L 850.6 291.7 L 852.8 285.3 L 854.9 282.0 L 857.1 290.9 L 859.3 289.7 L 861.4 286.7 L 863.6 277.4 L 865.7 280.2" fill="none" stroke="#2563eb" stroke-width="2.2"/>
<path d="M 867.9 277.9 L 870.0 279.0 L 872.2 280.5 L 874.4 281.8 L 876.5 281.8 L 878.7 281.7 L 880.8 281.9 L 883.0 282.1 L 885.2 281.2 L 887.3 282.0 L 889.5 282.7 L 891.6 282.8 L 893.8 284.5 L 895.9 283.4 L 898.1 282.7 L 900.3 285.1 L 902.4 285.4 L 904.6 287.5 L 906.7 288.6 L 908.9 289.1 L 911.1 289.0 L 913.2 290.7 L 915.4 290.6 L 917.5 291.2 L 919.7 290.3 L 921.9 291.1 L 924.0 291.6 L 926.2 291.8 L 928.3 293.6 L 930.5 293.3 L 932.6 293.1 L 934.8 295.9 L 937.0 295.1 L 939.1 297.3 L 941.3 297.9 L 943.4 298.6 L 945.6 297.9 L 947.8 299.7 L 949.9 299.4 L 952.1 300.6 L 954.2 299.7 L 956.4 300.6 L 958.5 301.1 L 960.7 302.5 L 962.9 304.2 L 965.0 304.1 L 967.2 304.4 L 969.3 304.9 L 971.5 306.2 L 973.7 307.6 L 975.8 308.0 L 978.0 308.9 L 980.1 309.8 L 982.3 310.2 L 984.4 310.3 L 986.6 311.0 L 988.8 311.0 L 990.9 311.0 L 993.1 312.0 L 995.2 312.5 L 997.4 313.9 L 999.6 315.4 L 1001.7 314.9 L 1003.9 312.2 L 1006.0 315.6 L 1008.2 315.8 L 1010.4 316.8 L 1012.5 318.7 L 1014.7 320.3 L 1016.8 320.1 L 1019.0 322.3 L 1021.1 321.8 L 1023.3 322.2 L 1025.5 322.5 L 1027.6 323.5 L 1029.8 324.6 L 1031.9 327.9 L 1034.1 329.8 L 1036.3 330.0 L 1038.4 327.6 L 1040.6 327.4 L 1042.7 327.5 L 1044.9 328.0 L 1047.0 331.2 L 1049.2 332.0 L 1051.4 332.5 L 1053.5 333.9 L 1055.7 332.5 L 1057.8 333.3 L 1060.0 333.7" fill="none" stroke="#dc2626" stroke-width="2.4" stroke-dasharray="8 5"/>
<circle cx="88" cy="586" r="5" fill="#2563eb"/><text x="100" y="590" font-family="Arial, sans-serif" font-size="13" fill="#374151">history</text>
<circle cx="178" cy="586" r="5" fill="#dc2626"/><text x="190" y="590" font-family="Arial, sans-serif" font-size="13" fill="#374151">forecast</text>
<rect x="265" y="581" width="22" height="10" rx="2" fill="#dc2626" fill-opacity="0.18"/><text x="296" y="590" font-family="Arial, sans-serif" font-size="13" fill="#374151">10-90% probability corridor</text>
</svg>
