<svg xmlns="http://www.w3.org/2000/svg" data-y-scale="linear" width="1100" height="620" viewBox="0 0 1100 620">
<rect width="100%" height="100%" fill="#ffffff"/>
<text x="80" y="26" font-family="Arial, sans-serif" font-size="20" font-weight="700" fill="#111827">BTCUSDT Chronos-2 Forecast</text>
<text x="80" y="50" font-family="Arial, sans-serif" font-size="13" fill="#4b5563">Last history close: 81,745.65 | Last forecast: 72,023.80</text>
<line x1="80" y1="505.0" x2="1060" y2="505.0" stroke="#e5e7eb" stroke-width="1"/>
<text x="70" y="509.0" text-anchor="end" font-family="Arial, sans-serif" font-size="12" fill="#6b7280">51,637</text>
<line x1="80" y1="396.8" x2="1060" y2="396.8" stroke="#e5e7eb" stroke-width="1"/>
<text x="70" y="400.8" text-anchor="end" font-family="Arial, sans-serif" font-size="12" fill="#6b7280">69,892</text>
<line x1="80" y1="288.5" x2="1060" y2="288.5" stroke="#e5e7eb" stroke-width="1"/>
<text x="70" y="292.5" text-anchor="end" font-family="Arial, sans-serif" font-size="12" fill="#6b7280">88,148</text>
<line x1="80" y1="180.2" x2="1060" y2="180.2" stroke="#e5e7eb" stroke-width="1"/>
<text x="70" y="184.2" text-anchor="end" font-family="Arial, sans-serif" font-size="12" fill="#6b7280">106,403</text>
<line x1="80" y1="72.0" x2="1060" y2="72.0" stroke="#e5e7eb" stroke-width="1"/>
<text x="70" y="76.0" text-anchor="end" font-family="Arial, sans-serif" font-size="12" fill="#6b7280">124,659</text>
<line class="x-axis-grid" x1="80.0" y1="72" x2="80.0" y2="505" stroke="#f1f5f9" stroke-width="1"/>
<line class="x-axis-grid" x1="276.0" y1="72" x2="276.0" y2="505" stroke="#f1f5f9" stroke-width="1"/>
<line class="x-axis-grid" x1="472.0" y1="72" x2="472.0" y2="505" stroke="#f1f5f9" stroke-width="1"/>
<line class="x-axis-grid" x1="668.0" y1="72" x2="668.0" y2="505" stroke="#f1f5f9" stroke-width="1"/>
<line class="x-axis-grid" x1="864.0" y1="72" x2="864.0" y2="505" stroke="#f1f5f9" stroke-width="1"/>
<line class="x-axis-grid" x1="1060.0" y1="72" x2="1060.0" y2="505" stroke="#f1f5f9" stroke-width="1"/>
<line x1="80" y1="72" x2="80" y2="505" stroke="#9ca3af" stroke-width="1"/>
<line x1="80" y1="505" x2="1060" y2="505" stroke="#9ca3af" stroke-width="1"/>
<text class="x-axis-label" x="80.0" y="530" text-anchor="middle" font-family="Arial, sans-serif" font-size="11" fill="#6b7280">2025-05-12</text>
<text class="x-axis-label" x="276.0" y="530" text-anchor="middle" font-family="Arial, sans-serif" font-size="11" fill="#6b7280">2025-08-10</text>
<text class="x-axis-label" x="472.0" y="530" text-anchor="middle" font-family="Arial, sans-serif" font-size="11" fill="#6b7280">2025-11-09</text>
<text class="x-axis-label" x="668.0" y="530" text-anchor="middle" font-family="Arial, sans-serif" font-size="11" fill="#6b7280">2026-02-08</text>
<text class="x-axis-label" x="864.0" y="530" text-anchor="middle" font-family="Arial, sans-serif" font-size="11" fill="#6b7280">2026-05-10</text>
<text class="x-axis-label" x="1060.0" y="530" text-anchor="middle" font-family="Arial, sans-serif" font-size="11" fill="#6b7280">2026-08-09</text>
<line id="forecast-start-line" x1="867.9" y1="72" x2="867.9" y2="505" stroke="#111827" stroke-width="1.3" stroke-dasharray="5 6" opacity="0.42"/>
<text x="875.9" y="87" font-family="Arial, sans-serif" font-size="11" fill="#374151">forecast start</text>
<path id="probability-corridor" d="M 867.9 314.1 L 870.0 313.1 L 872.2 311.8 L 874.4 309.4 L 876.5 307.2 L 878.7 304.9 L 880.8 303.2 L 883.0 300.7 L 885.2 298.3 L 887.3 297.2 L 889.5 295.0 L 891.6 294.4 L 893.8 292.3 L 895.9 291.7 L 898.1 290.1 L 900.3 287.8 L 902.4 292.4 L 904.6 292.3 L 906.7 291.1 L 908.9 287.9 L 911.1 288.0 L 913.2 286.7 L 915.4 285.5 L 917.5 284.3 L 919.7 281.4 L 921.9 281.5 L 924.0 278.7 L 926.2 278.0 L 928.3 276.2 L 930.5 276.3 L 932.6 276.3 L 934.8 274.0 L 937.0 278.9 L 939.1 279.3 L 941.3 278.9 L 943.4 276.2 L 945.6 277.6 L 947.8 274.2 L 949.9 274.2 L 952.1 273.5 L 954.2 271.8 L 956.4 271.7 L 958.5 268.5 L 960.7 266.5 L 962.9 265.4 L 965.0 266.2 L 967.2 267.2 L 969.3 265.5 L 971.5 265.8 L 973.7 266.5 L 975.8 267.0 L 978.0 263.1 L 980.1 265.3 L 982.3 262.1 L 984.4 263.2 L 986.6 260.9 L 988.8 259.8 L 990.9 258.9 L 993.1 255.0 L 995.2 251.9 L 997.4 251.4 L 999.6 252.6 L 1001.7 253.1 L 1003.9 248.9 L 1006.0 239.2 L 1008.2 239.6 L 1010.4 242.3 L 1012.5 239.8 L 1014.7 241.0 L 1016.8 237.0 L 1019.0 237.1 L 1021.1 237.6 L 1023.3 238.1 L 1025.5 234.6 L 1027.6 232.6 L 1029.8 230.6 L 1031.9 230.3 L 1034.1 233.3 L 1036.3 237.4 L 1038.4 232.6 L 1040.6 229.8 L 1042.7 229.8 L 1044.9 233.7 L 1047.0 232.1 L 1049.2 232.6 L 1051.4 227.2 L 1053.5 226.0 L 1055.7 228.4 L 1057.8 228.9 L 1060.0 224.6 L 1060.0 505.0 L 1057.8 504.0 L 1055.7 502.7 L 1053.5 502.7 L 1051.4 500.5 L 1049.2 499.2 L 1047.0 497.4 L 1044.9 496.7 L 1042.7 494.6 L 1040.6 492.9 L 1038.4 491.0 L 1036.3 489.1 L 1034.1 483.7 L 1031.9 485.5 L 1029.8 483.5 L 1027.6 482.5 L 1025.5 478.9 L 1023.3 478.7 L 1021.1 476.9 L 1019.0 475.0 L 1016.8 471.0 L 1014.7 472.0 L 1012.5 468.0 L 1010.4 466.5 L 1008.2 463.9 L 1006.0 461.0 L 1003.9 465.3 L 1001.7 464.0 L 999.6 458.5 L 997.4 461.1 L 995.2 458.5 L 993.1 456.8 L 990.9 451.6 L 988.8 452.0 L 986.6 449.2 L 984.4 446.5 L 982.3 444.1 L 980.1 445.6 L 978.0 441.1 L 975.8 440.1 L 973.7 437.3 L 971.5 435.7 L 969.3 442.2 L 967.2 440.9 L 965.0 438.8 L 962.9 439.1 L 960.7 435.4 L 958.5 433.1 L 956.4 426.3 L 954.2 427.4 L 952.1 424.6 L 949.9 421.9 L 947.8 420.3 L 945.6 420.2 L 943.4 414.7 L 941.3 412.8 L 939.1 412.0 L 937.0 409.2 L 934.8 412.9 L 932.6 408.6 L 930.5 409.4 L 928.3 402.6 L 926.2 398.7 L 924.0 401.3 L 921.9 395.9 L 919.7 394.3 L 917.5 390.3 L 915.4 387.4 L 913.2 385.9 L 911.1 382.6 L 908.9 381.5 L 906.7 379.9 L 904.6 375.7 L 902.4 371.4 L 900.3 374.4 L 898.1 371.3 L 895.9 371.5 L 893.8 368.3 L 891.6 365.7 L 889.5 364.9 L 887.3 361.3 L 885.2 358.7 L 883.0 357.3 L 880.8 354.1 L 878.7 352.2 L 876.5 350.0 L 874.4 346.6 L 872.2 344.8 L 870.0 338.8 L 867.9 336.7 Z" fill="#dc2626" fill-opacity="0.13" stroke="none"/>
<path d="M 80.0 201.7 L 82.2 193.9 L 84.3 197.4 L 86.5 195.9 L 88.6 197.7 L 90.8 199.7 L 93.0 179.9 L 95.1 185.2 L 97.3 177.6 L 99.4 161.0 L 101.6 148.9 L 103.7 174.8 L 105.9 172.2 L 108.1 164.8 L 110.2 162.3 L 112.4 165.2 L 114.5 172.1 L 116.7 185.1 L 118.9 194.6 L 121.0 191.0 L 123.2 184.8 L 125.3 183.5 L 127.5 186.3 L 129.6 190.4 L 131.8 209.3 L 134.0 192.8 L 136.1 185.3 L 138.3 184.2 L 140.4 157.4 L 142.6 157.3 L 144.8 167.0 L 146.9 184.6 L 149.1 182.2 L 151.2 186.1 L 153.4 185.0 L 155.6 177.9 L 157.7 191.2 L 159.9 189.2 L 162.0 190.6 L 164.2 198.7 L 166.3 205.6 L 168.5 212.5 L 170.7 186.6 L 172.8 182.1 L 175.0 174.7 L 177.1 177.0 L 179.3 176.4 L 181.5 175.0 L 183.6 168.7 L 185.8 175.8 L 187.9 184.5 L 190.1 165.7 L 192.2 161.4 L 194.4 170.9 L 196.6 169.6 L 198.7 163.6 L 200.9 169.2 L 203.0 165.3 L 205.2 151.6 L 207.4 123.3 L 209.5 114.3 L 211.7 114.9 L 213.8 105.0 L 216.0 100.6 L 218.1 112.9 L 220.3 107.7 L 222.5 104.5 L 224.6 111.9 L 226.8 112.4 L 228.9 115.8 L 231.1 115.2 L 233.3 99.9 L 235.4 107.0 L 237.6 109.5 L 239.7 113.8 L 241.9 112.0 L 244.1 103.1 L 246.2 111.1 L 248.4 111.8 L 250.5 112.4 L 252.7 124.7 L 254.8 139.4 L 257.0 143.8 L 259.2 134.0 L 261.3 128.9 L 263.5 134.4 L 265.6 129.3 L 267.8 114.6 L 270.0 119.3 L 272.1 120.6 L 274.3 103.8 L 276.4 107.4 L 278.6 98.8 L 280.7 80.0 L 282.9 109.7 L 285.1 115.4 L 287.2 115.2 L 289.4 115.0 L 291.5 122.0 L 293.7 141.9 L 295.9 133.6 L 298.0 144.1 L 300.2 117.8 L 302.3 126.7 L 304.5 138.2 L 306.7 158.3 L 308.8 148.5 L 311.0 151.4 L 313.1 143.7 L 315.3 168.5 L 317.4 165.9 L 319.6 169.3 L 321.8 163.4 L 323.9 151.6 L 326.1 148.8 L 328.2 154.6 L 330.4 155.0 L 332.6 157.8 L 334.7 152.2 L 336.9 146.7 L 339.0 149.8 L 341.2 135.4 L 343.3 126.4 L 345.5 123.2 L 347.7 123.8 L 349.8 127.7 L 352.0 127.2 L 354.1 118.7 L 356.3 120.7 L 358.5 117.0 L 360.6 125.5 L 362.8 125.2 L 364.9 127.9 L 367.1 143.2 L 369.3 147.1 L 371.4 139.3 L 373.6 164.9 L 375.7 161.0 L 377.9 161.1 L 380.0 146.1 L 382.2 133.4 L 384.4 134.9 L 386.5 108.0 L 388.7 96.5 L 390.8 86.4 L 393.0 85.4 L 395.2 79.0 L 397.3 72.0 L 399.5 91.7 L 401.6 80.0 L 403.8 89.8 L 405.9 142.5 L 408.1 155.1 L 410.3 129.5 L 412.4 128.3 L 414.6 141.0 L 416.7 154.4 L 418.9 169.6 L 421.1 180.1 L 423.2 175.6 L 425.4 167.0 L 427.5 155.8 L 429.7 169.0 L 431.9 173.3 L 434.0 158.5 L 436.2 153.0 L 438.3 149.2 L 440.5 131.9 L 442.6 134.6 L 444.8 141.7 L 447.0 158.8 L 449.1 168.9 L 451.3 161.2 L 453.4 158.3 L 455.6 155.7 L 457.8 179.2 L 459.9 209.3 L 462.1 195.2 L 464.2 210.2 L 466.4 198.4 L 468.5 204.5 L 470.7 190.2 L 472.9 182.6 L 475.0 200.1 L 477.2 208.4 L 479.3 220.0 L 481.5 250.3 L 483.7 244.3 L 485.8 252.2 L 488.0 264.4 L 490.1 260.0 L 492.3 268.3 L 494.4 297.5 L 496.6 306.4 L 498.8 308.7 L 500.9 296.3 L 503.1 287.6 L 505.2 293.1 L 507.4 274.6 L 509.6 269.6 L 511.7 272.2 L 513.9 272.8 L 516.0 275.4 L 518.2 299.5 L 520.4 269.9 L 522.5 257.2 L 524.7 265.2 L 526.8 281.5 L 529.0 282.0 L 531.1 275.2 L 533.3 273.8 L 535.5 261.6 L 537.6 265.6 L 539.8 262.6 L 541.9 275.9 L 544.1 276.1 L 546.3 288.4 L 548.4 298.7 L 550.6 290.2 L 552.7 299.8 L 554.9 304.1 L 557.0 288.6 L 559.2 287.2 L 561.4 285.5 L 563.5 285.7 L 565.7 292.4 L 567.8 291.3 L 570.0 294.0 L 572.2 293.1 L 574.3 290.1 L 576.5 289.7 L 578.6 293.9 L 580.8 286.5 L 583.0 291.5 L 585.1 284.4 L 587.3 277.5 L 589.4 273.8 L 591.6 268.4 L 593.7 254.6 L 595.9 255.3 L 598.1 269.4 L 600.2 271.0 L 602.4 273.7 L 604.5 274.5 L 606.7 271.5 L 608.9 269.8 L 611.0 245.4 L 613.2 236.3 L 615.3 244.3 L 617.5 244.6 L 619.6 247.0 L 621.8 255.7 L 624.0 261.9 L 626.1 286.8 L 628.3 280.7 L 630.4 280.1 L 632.6 279.9 L 634.8 282.1 L 636.9 297.3 L 639.1 287.3 L 641.2 282.0 L 643.4 281.7 L 645.6 309.2 L 647.7 311.5 L 649.9 344.3 L 652.0 354.8 L 654.2 344.3 L 656.3 361.9 L 658.5 377.3 L 660.7 438.2 L 662.8 392.7 L 665.0 400.3 L 667.1 394.2 L 669.3 395.3 L 671.5 403.0 L 673.6 413.4 L 675.8 418.2 L 677.9 402.9 L 680.1 397.2 L 682.2 403.0 L 684.4 402.7 L 686.6 410.9 L 688.7 417.1 L 690.9 413.9 L 693.0 407.9 L 695.2 408.1 L 697.4 410.1 L 699.5 427.8 L 701.7 431.3 L 703.8 408.0 L 706.0 411.0 L 708.1 420.6 L 710.3 414.1 L 712.5 421.2 L 714.6 403.0 L 716.8 406.0 L 718.9 380.3 L 721.1 390.8 L 723.3 407.3 L 725.4 412.3 L 727.6 420.0 L 729.7 405.4 L 731.9 396.4 L 734.1 395.0 L 736.2 392.9 L 738.4 390.6 L 740.5 388.9 L 742.7 379.4 L 744.8 367.1 L 747.0 372.9 L 749.2 388.7 L 751.3 396.5 L 753.5 393.1 L 755.6 402.5 L 757.8 408.8 L 760.0 390.7 L 762.1 392.8 L 764.3 388.2 L 766.4 403.1 L 768.6 417.4 L 770.7 417.6 L 772.9 419.8 L 775.1 415.1 L 777.2 406.3 L 779.4 407.3 L 781.5 414.5 L 783.7 414.1 L 785.9 412.1 L 788.0 401.8 L 790.2 402.9 L 792.3 384.7 L 794.5 389.8 L 796.7 385.5 L 798.8 378.5 L 801.0 378.1 L 803.1 391.7 L 805.3 369.9 L 807.4 371.6 L 809.6 367.6 L 811.8 365.5 L 813.9 354.2 L 816.1 362.4 L 818.2 373.6 L 820.4 361.5 L 822.6 358.5 L 824.7 347.6 L 826.9 347.1 L 829.0 352.0 L 831.2 350.9 L 833.3 344.8 L 835.5 352.4 L 837.7 358.5 L 839.8 361.8 L 842.0 358.5 L 844.1 347.3 L 846.3 344.6 L 848.5 345.3 L 850.6 337.6 L 852.8 331.4 L 854.9 328.2 L 857.1 336.8 L 859.3 335.7 L 861.4 332.8 L 863.6 323.7 L 865.7 326.5" fill="none" stroke="#2563eb" stroke-width="2.2"/>
<path d="M 867.9 324.7 L 870.0 325.7 L 872.2 327.3 L 874.4 328.6 L 876.5 328.8 L 878.7 328.6 L 880.8 328.8 L 883.0 329.1 L 885.2 328.4 L 887.3 329.2 L 889.5 329.9 L 891.6 329.9 L 893.8 331.5 L 895.9 330.5 L 898.1 330.2 L 900.3 332.2 L 902.4 332.5 L 904.6 334.6 L 906.7 335.8 L 908.9 336.4 L 911.1 336.4 L 913.2 337.9 L 915.4 338.0 L 917.5 338.5 L 919.7 338.0 L 921.9 338.6 L 924.0 339.0 L 926.2 339.3 L 928.3 341.1 L 930.5 340.8 L 932.6 341.2 L 934.8 343.4 L 937.0 343.1 L 939.1 345.4 L 941.3 346.2 L 943.4 346.9 L 945.6 346.5 L 947.8 347.9 L 949.9 347.8 L 952.1 349.1 L 954.2 348.8 L 956.4 349.3 L 958.5 350.0 L 960.7 351.2 L 962.9 352.8 L 965.0 353.3 L 967.2 353.7 L 969.3 353.4 L 971.5 354.2 L 973.7 355.3 L 975.8 355.9 L 978.0 356.9 L 980.1 358.1 L 982.3 358.0 L 984.4 358.7 L 986.6 359.0 L 988.8 359.5 L 990.9 359.7 L 993.1 360.5 L 995.2 360.7 L 997.4 362.1 L 999.6 364.0 L 1001.7 363.1 L 1003.9 360.4 L 1006.0 363.4 L 1008.2 363.9 L 1010.4 365.1 L 1012.5 367.3 L 1014.7 368.8 L 1016.8 369.0 L 1019.0 371.1 L 1021.1 370.6 L 1023.3 371.2 L 1025.5 371.6 L 1027.6 372.6 L 1029.8 373.3 L 1031.9 376.2 L 1034.1 378.0 L 1036.3 378.3 L 1038.4 376.8 L 1040.6 376.6 L 1042.7 377.6 L 1044.9 377.7 L 1047.0 381.6 L 1049.2 381.9 L 1051.4 382.8 L 1053.5 384.0 L 1055.7 382.5 L 1057.8 383.4 L 1060.0 384.1" fill="none" stroke="#dc2626" stroke-width="2.4" stroke-dasharray="8 5"/>
<circle cx="88" cy="586" r="5" fill="#2563eb"/><text x="100" y="590" font-family="Arial, sans-serif" font-size="13" fill="#374151">history</text>
<circle cx="178" cy="586" r="5" fill="#dc2626"/><text x="190" y="590" font-family="Arial, sans-serif" font-size="13" fill="#374151">forecast</text>
<rect x="265" y="581" width="22" height="10" rx="2" fill="#dc2626" fill-opacity="0.18"/><text x="296" y="590" font-family="Arial, sans-serif" font-size="13" fill="#374151">10-90% probability corridor</text>
</svg>
