<svg xmlns="http://www.w3.org/2000/svg" data-y-scale="linear" width="1100" height="620" viewBox="0 0 1100 620">
<rect width="100%" height="100%" fill="#ffffff"/>
<text x="80" y="26" font-family="Arial, sans-serif" font-size="20" font-weight="700" fill="#111827">BTCUSDT Chronos-2 Forecast</text>
<text x="80" y="50" font-family="Arial, sans-serif" font-size="13" fill="#4b5563">Last history close: 81,745.65 | Last forecast: 72,463.75</text>
<line x1="80" y1="505.0" x2="1060" y2="505.0" stroke="#e5e7eb" stroke-width="1"/>
<text x="70" y="509.0" text-anchor="end" font-family="Arial, sans-serif" font-size="12" fill="#6b7280">51,971</text>
<line x1="80" y1="396.8" x2="1060" y2="396.8" stroke="#e5e7eb" stroke-width="1"/>
<text x="70" y="400.8" text-anchor="end" font-family="Arial, sans-serif" font-size="12" fill="#6b7280">70,143</text>
<line x1="80" y1="288.5" x2="1060" y2="288.5" stroke="#e5e7eb" stroke-width="1"/>
<text x="70" y="292.5" text-anchor="end" font-family="Arial, sans-serif" font-size="12" fill="#6b7280">88,315</text>
<line x1="80" y1="180.2" x2="1060" y2="180.2" stroke="#e5e7eb" stroke-width="1"/>
<text x="70" y="184.2" text-anchor="end" font-family="Arial, sans-serif" font-size="12" fill="#6b7280">106,487</text>
<line x1="80" y1="72.0" x2="1060" y2="72.0" stroke="#e5e7eb" stroke-width="1"/>
<text x="70" y="76.0" text-anchor="end" font-family="Arial, sans-serif" font-size="12" fill="#6b7280">124,659</text>
<line class="x-axis-grid" x1="80.0" y1="72" x2="80.0" y2="505" stroke="#f1f5f9" stroke-width="1"/>
<line class="x-axis-grid" x1="276.0" y1="72" x2="276.0" y2="505" stroke="#f1f5f9" stroke-width="1"/>
<line class="x-axis-grid" x1="472.0" y1="72" x2="472.0" y2="505" stroke="#f1f5f9" stroke-width="1"/>
<line class="x-axis-grid" x1="668.0" y1="72" x2="668.0" y2="505" stroke="#f1f5f9" stroke-width="1"/>
<line class="x-axis-grid" x1="864.0" y1="72" x2="864.0" y2="505" stroke="#f1f5f9" stroke-width="1"/>
<line class="x-axis-grid" x1="1060.0" y1="72" x2="1060.0" y2="505" stroke="#f1f5f9" stroke-width="1"/>
<line x1="80" y1="72" x2="80" y2="505" stroke="#9ca3af" stroke-width="1"/>
<line x1="80" y1="505" x2="1060" y2="505" stroke="#9ca3af" stroke-width="1"/>
<text class="x-axis-label" x="80.0" y="530" text-anchor="middle" font-family="Arial, sans-serif" font-size="11" fill="#6b7280">2025-05-12</text>
<text class="x-axis-label" x="276.0" y="530" text-anchor="middle" font-family="Arial, sans-serif" font-size="11" fill="#6b7280">2025-08-10</text>
<text class="x-axis-label" x="472.0" y="530" text-anchor="middle" font-family="Arial, sans-serif" font-size="11" fill="#6b7280">2025-11-09</text>
<text class="x-axis-label" x="668.0" y="530" text-anchor="middle" font-family="Arial, sans-serif" font-size="11" fill="#6b7280">2026-02-08</text>
<text class="x-axis-label" x="864.0" y="530" text-anchor="middle" font-family="Arial, sans-serif" font-size="11" fill="#6b7280">2026-05-10</text>
<text class="x-axis-label" x="1060.0" y="530" text-anchor="middle" font-family="Arial, sans-serif" font-size="11" fill="#6b7280">2026-08-09</text>
<line id="forecast-start-line" x1="867.9" y1="72" x2="867.9" y2="505" stroke="#111827" stroke-width="1.3" stroke-dasharray="5 6" opacity="0.42"/>
<text x="875.9" y="87" font-family="Arial, sans-serif" font-size="11" fill="#374151">forecast start</text>
<path id="probability-corridor" d="M 867.9 314.7 L 870.0 313.9 L 872.2 312.4 L 874.4 310.1 L 876.5 307.6 L 878.7 305.6 L 880.8 303.8 L 883.0 301.2 L 885.2 298.9 L 887.3 298.1 L 889.5 295.8 L 891.6 295.1 L 893.8 293.1 L 895.9 292.5 L 898.1 291.0 L 900.3 288.6 L 902.4 292.6 L 904.6 292.5 L 906.7 290.9 L 908.9 287.7 L 911.1 287.9 L 913.2 286.6 L 915.4 285.4 L 917.5 284.1 L 919.7 281.3 L 921.9 281.3 L 924.0 278.4 L 926.2 277.6 L 928.3 276.0 L 930.5 276.4 L 932.6 276.3 L 934.8 274.1 L 937.0 279.1 L 939.1 279.5 L 941.3 278.5 L 943.4 275.9 L 945.6 277.2 L 947.8 274.1 L 949.9 273.8 L 952.1 273.1 L 954.2 271.3 L 956.4 271.1 L 958.5 267.8 L 960.7 266.2 L 962.9 264.9 L 965.0 265.5 L 967.2 266.7 L 969.3 264.8 L 971.5 265.2 L 973.7 265.9 L 975.8 265.8 L 978.0 261.9 L 980.1 264.2 L 982.3 261.0 L 984.4 261.5 L 986.6 259.6 L 988.8 258.5 L 990.9 257.4 L 993.1 253.5 L 995.2 250.6 L 997.4 249.8 L 999.6 250.7 L 1001.7 251.6 L 1003.9 246.5 L 1006.0 235.4 L 1008.2 236.0 L 1010.4 238.0 L 1012.5 234.9 L 1014.7 235.0 L 1016.8 231.0 L 1019.0 230.5 L 1021.1 231.9 L 1023.3 230.8 L 1025.5 227.5 L 1027.6 225.7 L 1029.8 222.8 L 1031.9 222.1 L 1034.1 225.7 L 1036.3 229.6 L 1038.4 223.3 L 1040.6 224.1 L 1042.7 223.1 L 1044.9 226.8 L 1047.0 224.9 L 1049.2 224.0 L 1051.4 219.1 L 1053.5 217.7 L 1055.7 221.1 L 1057.8 220.3 L 1060.0 216.6 L 1060.0 505.0 L 1057.8 504.8 L 1055.7 503.4 L 1053.5 503.6 L 1051.4 500.3 L 1049.2 500.1 L 1047.0 497.6 L 1044.9 497.5 L 1042.7 495.1 L 1040.6 492.9 L 1038.4 490.3 L 1036.3 488.6 L 1034.1 482.6 L 1031.9 485.3 L 1029.8 483.2 L 1027.6 482.8 L 1025.5 478.5 L 1023.3 479.1 L 1021.1 477.4 L 1019.0 475.8 L 1016.8 470.7 L 1014.7 472.6 L 1012.5 467.8 L 1010.4 466.6 L 1008.2 464.0 L 1006.0 461.3 L 1003.9 466.5 L 1001.7 465.1 L 999.6 459.4 L 997.4 462.1 L 995.2 459.6 L 993.1 458.4 L 990.9 453.0 L 988.8 454.0 L 986.6 451.5 L 984.4 449.2 L 982.3 446.3 L 980.1 447.8 L 978.0 443.3 L 975.8 443.2 L 973.7 439.9 L 971.5 438.4 L 969.3 442.0 L 967.2 440.3 L 965.0 438.3 L 962.9 438.1 L 960.7 434.6 L 958.5 433.5 L 956.4 426.4 L 954.2 427.6 L 952.1 425.0 L 949.9 422.9 L 947.8 420.3 L 945.6 420.5 L 943.4 415.7 L 941.3 414.0 L 939.1 412.8 L 937.0 410.4 L 934.8 413.8 L 932.6 409.3 L 930.5 410.3 L 928.3 403.1 L 926.2 400.6 L 924.0 403.3 L 921.9 398.0 L 919.7 396.5 L 917.5 392.6 L 915.4 389.8 L 913.2 388.4 L 911.1 384.7 L 908.9 384.1 L 906.7 382.3 L 904.6 378.1 L 902.4 374.0 L 900.3 376.2 L 898.1 373.2 L 895.9 372.9 L 893.8 369.9 L 891.6 367.2 L 889.5 366.5 L 887.3 362.8 L 885.2 359.8 L 883.0 358.6 L 880.8 355.5 L 878.7 353.7 L 876.5 351.2 L 874.4 347.6 L 872.2 346.0 L 870.0 340.0 L 867.9 337.7 Z" fill="#dc2626" fill-opacity="0.13" stroke="none"/>
<path d="M 80.0 202.3 L 82.2 194.4 L 84.3 198.0 L 86.5 196.5 L 88.6 198.3 L 90.8 200.3 L 93.0 180.4 L 95.1 185.7 L 97.3 178.1 L 99.4 161.4 L 101.6 149.2 L 103.7 175.3 L 105.9 172.7 L 108.1 165.3 L 110.2 162.7 L 112.4 165.6 L 114.5 172.5 L 116.7 185.6 L 118.9 195.1 L 121.0 191.5 L 123.2 185.3 L 125.3 184.0 L 127.5 186.9 L 129.6 190.9 L 131.8 209.9 L 134.0 193.3 L 136.1 185.8 L 138.3 184.7 L 140.4 157.8 L 142.6 157.7 L 144.8 167.4 L 146.9 185.1 L 149.1 182.8 L 151.2 186.6 L 153.4 185.6 L 155.6 178.4 L 157.7 191.8 L 159.9 189.8 L 162.0 191.1 L 164.2 199.2 L 166.3 206.3 L 168.5 213.1 L 170.7 187.1 L 172.8 182.7 L 175.0 175.2 L 177.1 177.5 L 179.3 176.9 L 181.5 175.4 L 183.6 169.1 L 185.8 176.3 L 187.9 185.0 L 190.1 166.2 L 192.2 161.8 L 194.4 171.3 L 196.6 170.1 L 198.7 164.1 L 200.9 169.7 L 203.0 165.7 L 205.2 152.0 L 207.4 123.5 L 209.5 114.5 L 211.7 115.1 L 213.8 105.2 L 216.0 100.7 L 218.1 113.1 L 220.3 107.9 L 222.5 104.7 L 224.6 112.1 L 226.8 112.6 L 228.9 116.0 L 231.1 115.4 L 233.3 100.0 L 235.4 107.2 L 237.6 109.6 L 239.7 114.0 L 241.9 112.1 L 244.1 103.2 L 246.2 111.3 L 248.4 112.0 L 250.5 112.6 L 252.7 125.0 L 254.8 139.7 L 257.0 144.2 L 259.2 134.2 L 261.3 129.2 L 263.5 134.7 L 265.6 129.6 L 267.8 114.8 L 270.0 119.6 L 272.1 120.8 L 274.3 104.0 L 276.4 107.6 L 278.6 99.0 L 280.7 80.1 L 282.9 109.9 L 285.1 115.6 L 287.2 115.4 L 289.4 115.2 L 291.5 122.2 L 293.7 142.2 L 295.9 133.9 L 298.0 144.4 L 300.2 118.0 L 302.3 126.9 L 304.5 138.5 L 306.7 158.7 L 308.8 148.8 L 311.0 151.8 L 313.1 144.0 L 315.3 169.0 L 317.4 166.4 L 319.6 169.8 L 321.8 163.9 L 323.9 151.9 L 326.1 149.2 L 328.2 155.0 L 330.4 155.4 L 332.6 158.2 L 334.7 152.5 L 336.9 147.0 L 339.0 150.1 L 341.2 135.7 L 343.3 126.7 L 345.5 123.4 L 347.7 124.1 L 349.8 127.9 L 352.0 127.5 L 354.1 118.9 L 356.3 120.9 L 358.5 117.2 L 360.6 125.8 L 362.8 125.5 L 364.9 128.2 L 367.1 143.5 L 369.3 147.4 L 371.4 139.6 L 373.6 165.3 L 375.7 161.4 L 377.9 161.5 L 380.0 146.4 L 382.2 133.6 L 384.4 135.2 L 386.5 108.1 L 388.7 96.6 L 390.8 86.5 L 393.0 85.5 L 395.2 79.0 L 397.3 72.0 L 399.5 91.8 L 401.6 80.1 L 403.8 89.8 L 405.9 142.8 L 408.1 155.5 L 410.3 129.8 L 412.4 128.5 L 414.6 141.3 L 416.7 154.8 L 418.9 170.1 L 421.1 180.6 L 423.2 176.1 L 425.4 167.4 L 427.5 156.2 L 429.7 169.5 L 431.9 173.8 L 434.0 158.9 L 436.2 153.3 L 438.3 149.5 L 440.5 132.2 L 442.6 134.9 L 444.8 142.1 L 447.0 159.2 L 449.1 169.3 L 451.3 161.7 L 453.4 158.7 L 455.6 156.1 L 457.8 179.7 L 459.9 210.0 L 462.1 195.7 L 464.2 210.9 L 466.4 199.0 L 468.5 205.1 L 470.7 190.8 L 472.9 183.1 L 475.0 200.7 L 477.2 209.0 L 479.3 220.7 L 481.5 251.1 L 483.7 245.1 L 485.8 253.1 L 488.0 265.3 L 490.1 260.8 L 492.3 269.2 L 494.4 298.5 L 496.6 307.5 L 498.8 309.8 L 500.9 297.3 L 503.1 288.6 L 505.2 294.1 L 507.4 275.6 L 509.6 270.5 L 511.7 273.2 L 513.9 273.7 L 516.0 276.3 L 518.2 300.6 L 520.4 270.8 L 522.5 258.0 L 524.7 266.1 L 526.8 282.5 L 529.0 283.0 L 531.1 276.1 L 533.3 274.7 L 535.5 262.5 L 537.6 266.5 L 539.8 263.5 L 541.9 276.9 L 544.1 277.0 L 546.3 289.3 L 548.4 299.7 L 550.6 291.2 L 552.7 300.8 L 554.9 305.2 L 557.0 289.6 L 559.2 288.2 L 561.4 286.5 L 563.5 286.7 L 565.7 293.4 L 567.8 292.3 L 570.0 295.0 L 572.2 294.1 L 574.3 291.1 L 576.5 290.7 L 578.6 294.9 L 580.8 287.5 L 583.0 292.5 L 585.1 285.4 L 587.3 278.5 L 589.4 274.7 L 591.6 269.3 L 593.7 255.5 L 595.9 256.1 L 598.1 270.3 L 600.2 271.9 L 602.4 274.6 L 604.5 275.5 L 606.7 272.4 L 608.9 270.7 L 611.0 246.2 L 613.2 237.0 L 615.3 245.1 L 617.5 245.4 L 619.6 247.8 L 621.8 256.6 L 624.0 262.8 L 626.1 287.8 L 628.3 281.7 L 630.4 281.1 L 632.6 280.8 L 634.8 283.1 L 636.9 298.3 L 639.1 288.3 L 641.2 282.9 L 643.4 282.6 L 645.6 310.3 L 647.7 312.7 L 649.9 345.5 L 652.0 356.1 L 654.2 345.5 L 656.3 363.2 L 658.5 378.7 L 660.7 439.8 L 662.8 394.1 L 665.0 401.8 L 667.1 395.6 L 669.3 396.8 L 671.5 404.5 L 673.6 415.0 L 675.8 419.8 L 677.9 404.4 L 680.1 398.7 L 682.2 404.6 L 684.4 404.2 L 686.6 412.5 L 688.7 418.7 L 690.9 415.4 L 693.0 409.4 L 695.2 409.7 L 697.4 411.6 L 699.5 429.4 L 701.7 433.0 L 703.8 409.6 L 706.0 412.6 L 708.1 422.2 L 710.3 415.6 L 712.5 422.8 L 714.6 404.6 L 716.8 407.5 L 718.9 381.7 L 721.1 392.3 L 723.3 408.8 L 725.4 413.9 L 727.6 421.6 L 729.7 406.9 L 731.9 397.9 L 734.1 396.5 L 736.2 394.4 L 738.4 392.1 L 740.5 390.4 L 742.7 380.8 L 744.8 368.5 L 747.0 374.3 L 749.2 390.2 L 751.3 398.0 L 753.5 394.6 L 755.6 404.0 L 757.8 410.4 L 760.0 392.2 L 762.1 394.3 L 764.3 389.6 L 766.4 404.6 L 768.6 419.0 L 770.7 419.2 L 772.9 421.4 L 775.1 416.7 L 777.2 407.8 L 779.4 408.8 L 781.5 416.1 L 783.7 415.7 L 785.9 413.7 L 788.0 403.4 L 790.2 404.4 L 792.3 386.1 L 794.5 391.2 L 796.7 386.9 L 798.8 380.0 L 801.0 379.5 L 803.1 393.2 L 805.3 371.3 L 807.4 373.0 L 809.6 368.9 L 811.8 366.9 L 813.9 355.5 L 816.1 363.7 L 818.2 375.0 L 820.4 362.8 L 822.6 359.9 L 824.7 348.9 L 826.9 348.4 L 829.0 353.3 L 831.2 352.2 L 833.3 346.0 L 835.5 353.7 L 837.7 359.8 L 839.8 363.2 L 842.0 359.8 L 844.1 348.6 L 846.3 345.9 L 848.5 346.6 L 850.6 338.9 L 852.8 332.6 L 854.9 329.4 L 857.1 338.0 L 859.3 336.9 L 861.4 334.0 L 863.6 324.9 L 865.7 327.6" fill="none" stroke="#2563eb" stroke-width="2.2"/>
<path d="M 867.9 325.6 L 870.0 326.7 L 872.2 328.1 L 874.4 329.4 L 876.5 329.6 L 878.7 329.6 L 880.8 329.7 L 883.0 329.9 L 885.2 329.2 L 887.3 330.1 L 889.5 330.9 L 891.6 331.0 L 893.8 332.7 L 895.9 331.8 L 898.1 331.2 L 900.3 333.5 L 902.4 334.5 L 904.6 336.7 L 906.7 337.6 L 908.9 338.1 L 911.1 338.0 L 913.2 339.8 L 915.4 339.7 L 917.5 340.2 L 919.7 339.6 L 921.9 340.2 L 924.0 340.7 L 926.2 340.9 L 928.3 342.6 L 930.5 342.3 L 932.6 342.4 L 934.8 344.8 L 937.0 344.6 L 939.1 346.7 L 941.3 347.3 L 943.4 347.9 L 945.6 347.4 L 947.8 349.2 L 949.9 348.9 L 952.1 350.0 L 954.2 349.5 L 956.4 350.1 L 958.5 350.8 L 960.7 351.8 L 962.9 353.5 L 965.0 353.6 L 967.2 354.0 L 969.3 354.1 L 971.5 355.9 L 973.7 357.0 L 975.8 357.4 L 978.0 358.2 L 980.1 359.2 L 982.3 359.5 L 984.4 359.8 L 986.6 360.2 L 988.8 360.5 L 990.9 360.5 L 993.1 361.4 L 995.2 361.5 L 997.4 362.9 L 999.6 364.5 L 1001.7 363.8 L 1003.9 361.1 L 1006.0 364.7 L 1008.2 365.3 L 1010.4 366.0 L 1012.5 368.1 L 1014.7 369.6 L 1016.8 369.7 L 1019.0 371.5 L 1021.1 371.1 L 1023.3 371.3 L 1025.5 371.5 L 1027.6 372.3 L 1029.8 373.1 L 1031.9 375.7 L 1034.1 377.2 L 1036.3 377.3 L 1038.4 375.1 L 1040.6 376.4 L 1042.7 377.3 L 1044.9 377.2 L 1047.0 380.7 L 1049.2 381.3 L 1051.4 382.2 L 1053.5 383.2 L 1055.7 381.9 L 1057.8 382.5 L 1060.0 382.9" fill="none" stroke="#dc2626" stroke-width="2.4" stroke-dasharray="8 5"/>
<circle cx="88" cy="586" r="5" fill="#2563eb"/><text x="100" y="590" font-family="Arial, sans-serif" font-size="13" fill="#374151">history</text>
<circle cx="178" cy="586" r="5" fill="#dc2626"/><text x="190" y="590" font-family="Arial, sans-serif" font-size="13" fill="#374151">forecast</text>
<rect x="265" y="581" width="22" height="10" rx="2" fill="#dc2626" fill-opacity="0.18"/><text x="296" y="590" font-family="Arial, sans-serif" font-size="13" fill="#374151">10-90% probability corridor</text>
</svg>
