<svg xmlns="http://www.w3.org/2000/svg" data-y-scale="log" width="1100" height="620" viewBox="0 0 1100 620">
<rect width="100%" height="100%" fill="#ffffff"/>
<text x="80" y="26" font-family="Arial, sans-serif" font-size="20" font-weight="700" fill="#111827">BTCUSDT Chronos-2 Forecast</text>
<text x="80" y="50" font-family="Arial, sans-serif" font-size="13" fill="#4b5563">Last history close: 81,745.65 | Last forecast: 72,194.53 | Y scale: log scale</text>
<line x1="80" y1="505.0" x2="1060" y2="505.0" stroke="#e5e7eb" stroke-width="1"/>
<text x="70" y="509.0" text-anchor="end" font-family="Arial, sans-serif" font-size="12" fill="#6b7280">52,657</text>
<line x1="80" y1="396.8" x2="1060" y2="396.8" stroke="#e5e7eb" stroke-width="1"/>
<text x="70" y="400.8" text-anchor="end" font-family="Arial, sans-serif" font-size="12" fill="#6b7280">65,317</text>
<line x1="80" y1="288.5" x2="1060" y2="288.5" stroke="#e5e7eb" stroke-width="1"/>
<text x="70" y="292.5" text-anchor="end" font-family="Arial, sans-serif" font-size="12" fill="#6b7280">81,020</text>
<line x1="80" y1="180.2" x2="1060" y2="180.2" stroke="#e5e7eb" stroke-width="1"/>
<text x="70" y="184.2" text-anchor="end" font-family="Arial, sans-serif" font-size="12" fill="#6b7280">100,498</text>
<line x1="80" y1="72.0" x2="1060" y2="72.0" stroke="#e5e7eb" stroke-width="1"/>
<text x="70" y="76.0" text-anchor="end" font-family="Arial, sans-serif" font-size="12" fill="#6b7280">124,659</text>
<line class="x-axis-grid" x1="80.0" y1="72" x2="80.0" y2="505" stroke="#f1f5f9" stroke-width="1"/>
<line class="x-axis-grid" x1="276.0" y1="72" x2="276.0" y2="505" stroke="#f1f5f9" stroke-width="1"/>
<line class="x-axis-grid" x1="472.0" y1="72" x2="472.0" y2="505" stroke="#f1f5f9" stroke-width="1"/>
<line class="x-axis-grid" x1="668.0" y1="72" x2="668.0" y2="505" stroke="#f1f5f9" stroke-width="1"/>
<line class="x-axis-grid" x1="864.0" y1="72" x2="864.0" y2="505" stroke="#f1f5f9" stroke-width="1"/>
<line class="x-axis-grid" x1="1060.0" y1="72" x2="1060.0" y2="505" stroke="#f1f5f9" stroke-width="1"/>
<line x1="80" y1="72" x2="80" y2="505" stroke="#9ca3af" stroke-width="1"/>
<line x1="80" y1="505" x2="1060" y2="505" stroke="#9ca3af" stroke-width="1"/>
<text class="x-axis-label" x="80.0" y="530" text-anchor="middle" font-family="Arial, sans-serif" font-size="11" fill="#6b7280">2025-05-12</text>
<text class="x-axis-label" x="276.0" y="530" text-anchor="middle" font-family="Arial, sans-serif" font-size="11" fill="#6b7280">2025-08-10</text>
<text class="x-axis-label" x="472.0" y="530" text-anchor="middle" font-family="Arial, sans-serif" font-size="11" fill="#6b7280">2025-11-09</text>
<text class="x-axis-label" x="668.0" y="530" text-anchor="middle" font-family="Arial, sans-serif" font-size="11" fill="#6b7280">2026-02-08</text>
<text class="x-axis-label" x="864.0" y="530" text-anchor="middle" font-family="Arial, sans-serif" font-size="11" fill="#6b7280">2026-05-10</text>
<text class="x-axis-label" x="1060.0" y="530" text-anchor="middle" font-family="Arial, sans-serif" font-size="11" fill="#6b7280">2026-08-09</text>
<line id="forecast-start-line" x1="867.9" y1="72" x2="867.9" y2="505" stroke="#111827" stroke-width="1.3" stroke-dasharray="5 6" opacity="0.42"/>
<text x="875.9" y="87" font-family="Arial, sans-serif" font-size="11" fill="#374151">forecast start</text>
<path id="probability-corridor" d="M 867.9 271.7 L 870.0 270.8 L 872.2 269.4 L 874.4 267.0 L 876.5 264.8 L 878.7 262.8 L 880.8 261.0 L 883.0 258.6 L 885.2 256.4 L 887.3 255.5 L 889.5 253.4 L 891.6 252.7 L 893.8 250.8 L 895.9 250.1 L 898.1 248.8 L 900.3 246.6 L 902.4 251.1 L 904.6 251.0 L 906.7 249.7 L 908.9 246.6 L 911.1 246.7 L 913.2 245.7 L 915.4 244.5 L 917.5 243.3 L 919.7 240.5 L 921.9 240.7 L 924.0 238.0 L 926.2 237.3 L 928.3 235.8 L 930.5 236.0 L 932.6 235.9 L 934.8 233.9 L 937.0 239.4 L 939.1 239.6 L 941.3 238.9 L 943.4 236.4 L 945.6 237.7 L 947.8 234.9 L 949.9 234.6 L 952.1 234.1 L 954.2 232.3 L 956.4 232.3 L 958.5 229.3 L 960.7 227.8 L 962.9 226.7 L 965.0 227.2 L 967.2 228.2 L 969.3 226.4 L 971.5 226.8 L 973.7 227.1 L 975.8 227.2 L 978.0 223.6 L 980.1 225.7 L 982.3 222.9 L 984.4 223.7 L 986.6 221.8 L 988.8 220.6 L 990.9 219.9 L 993.1 216.3 L 995.2 213.6 L 997.4 213.0 L 999.6 213.7 L 1001.7 214.3 L 1003.9 209.8 L 1006.0 199.8 L 1008.2 200.5 L 1010.4 202.3 L 1012.5 199.8 L 1014.7 200.3 L 1016.8 196.9 L 1019.0 196.6 L 1021.1 197.6 L 1023.3 196.9 L 1025.5 194.2 L 1027.6 192.6 L 1029.8 190.3 L 1031.9 189.9 L 1034.1 192.8 L 1036.3 196.0 L 1038.4 190.7 L 1040.6 190.1 L 1042.7 190.7 L 1044.9 193.5 L 1047.0 191.7 L 1049.2 191.7 L 1051.4 187.4 L 1053.5 186.0 L 1055.7 188.6 L 1057.8 188.0 L 1060.0 184.9 L 1060.0 505.0 L 1057.8 504.5 L 1055.7 502.4 L 1053.5 502.8 L 1051.4 498.6 L 1049.2 497.7 L 1047.0 494.3 L 1044.9 493.7 L 1042.7 490.4 L 1040.6 487.4 L 1038.4 482.0 L 1036.3 479.2 L 1034.1 470.1 L 1031.9 474.0 L 1029.8 470.9 L 1027.6 470.7 L 1025.5 463.8 L 1023.3 464.7 L 1021.1 461.8 L 1019.0 459.4 L 1016.8 453.0 L 1014.7 456.1 L 1012.5 449.3 L 1010.4 447.8 L 1008.2 444.2 L 1006.0 440.3 L 1003.9 449.3 L 1001.7 447.4 L 999.6 439.8 L 997.4 443.3 L 995.2 439.6 L 993.1 437.9 L 990.9 430.5 L 988.8 431.7 L 986.6 427.9 L 984.4 424.6 L 982.3 421.4 L 980.1 423.7 L 978.0 417.6 L 975.8 417.2 L 973.7 413.1 L 971.5 411.0 L 969.3 417.3 L 967.2 415.4 L 965.0 412.9 L 962.9 412.8 L 960.7 408.1 L 958.5 406.2 L 956.4 397.3 L 954.2 398.6 L 952.1 395.0 L 949.9 392.2 L 947.8 389.5 L 945.6 389.5 L 943.4 383.1 L 941.3 381.0 L 939.1 379.8 L 937.0 376.8 L 934.8 381.0 L 932.6 375.8 L 930.5 376.9 L 928.3 368.2 L 926.2 364.7 L 924.0 367.9 L 921.9 361.5 L 919.7 359.8 L 917.5 355.1 L 915.4 351.9 L 913.2 350.2 L 911.1 346.2 L 908.9 345.0 L 906.7 343.3 L 904.6 338.6 L 902.4 333.6 L 900.3 335.9 L 898.1 332.7 L 895.9 333.0 L 893.8 329.5 L 891.6 326.6 L 889.5 325.8 L 887.3 321.7 L 885.2 318.7 L 883.0 317.0 L 880.8 313.6 L 878.7 311.6 L 876.5 309.0 L 874.4 305.2 L 872.2 303.4 L 870.0 297.0 L 867.9 294.9 Z" fill="#dc2626" fill-opacity="0.13" stroke="none"/>
<path d="M 80.0 168.9 L 82.2 162.5 L 84.3 165.4 L 86.5 164.2 L 88.6 165.6 L 90.8 167.3 L 93.0 151.3 L 95.1 155.5 L 97.3 149.5 L 99.4 136.5 L 101.6 127.2 L 103.7 147.3 L 105.9 145.2 L 108.1 139.4 L 110.2 137.4 L 112.4 139.7 L 114.5 145.1 L 116.7 155.4 L 118.9 163.1 L 121.0 160.2 L 123.2 155.2 L 125.3 154.1 L 127.5 156.4 L 129.6 159.7 L 131.8 175.2 L 134.0 161.6 L 136.1 155.6 L 138.3 154.7 L 140.4 133.7 L 142.6 133.6 L 144.8 141.1 L 146.9 155.0 L 149.1 153.2 L 151.2 156.2 L 153.4 155.4 L 155.6 149.7 L 157.7 160.4 L 159.9 158.8 L 162.0 159.9 L 164.2 166.4 L 166.3 172.2 L 168.5 177.9 L 170.7 156.6 L 172.8 153.1 L 175.0 147.2 L 177.1 149.0 L 179.3 148.5 L 181.5 147.4 L 183.6 142.4 L 185.8 148.1 L 187.9 155.0 L 190.1 140.1 L 192.2 136.8 L 194.4 144.1 L 196.6 143.2 L 198.7 138.5 L 200.9 142.9 L 203.0 139.8 L 205.2 129.3 L 207.4 108.1 L 209.5 101.6 L 211.7 102.1 L 213.8 95.0 L 216.0 91.8 L 218.1 100.6 L 220.3 96.9 L 222.5 94.6 L 224.6 99.9 L 226.8 100.3 L 228.9 102.7 L 231.1 102.2 L 233.3 91.3 L 235.4 96.4 L 237.6 98.1 L 239.7 101.2 L 241.9 99.9 L 244.1 93.6 L 246.2 99.3 L 248.4 99.8 L 250.5 100.3 L 252.7 109.2 L 254.8 120.0 L 257.0 123.4 L 259.2 116.0 L 261.3 112.3 L 263.5 116.3 L 265.6 112.6 L 267.8 101.8 L 270.0 105.3 L 272.1 106.2 L 274.3 94.1 L 276.4 96.7 L 278.6 90.6 L 280.7 77.5 L 282.9 98.3 L 285.1 102.4 L 287.2 102.2 L 289.4 102.1 L 291.5 107.2 L 293.7 121.9 L 295.9 115.7 L 298.0 123.6 L 300.2 104.1 L 302.3 110.6 L 304.5 119.1 L 306.7 134.3 L 308.8 126.9 L 311.0 129.1 L 313.1 123.3 L 315.3 142.3 L 317.4 140.3 L 319.6 142.9 L 321.8 138.4 L 323.9 129.2 L 326.1 127.1 L 328.2 131.5 L 330.4 131.8 L 332.6 134.0 L 334.7 129.7 L 336.9 125.5 L 339.0 127.8 L 341.2 117.1 L 343.3 110.4 L 345.5 108.0 L 347.7 108.5 L 349.8 111.4 L 352.0 111.0 L 354.1 104.8 L 356.3 106.2 L 358.5 103.5 L 360.6 109.8 L 362.8 109.5 L 364.9 111.5 L 367.1 122.9 L 369.3 125.8 L 371.4 120.0 L 373.6 139.5 L 375.7 136.5 L 377.9 136.5 L 380.0 125.1 L 382.2 115.5 L 384.4 116.7 L 386.5 97.1 L 388.7 88.9 L 390.8 81.9 L 393.0 81.2 L 395.2 76.8 L 397.3 72.0 L 399.5 85.6 L 401.6 77.5 L 403.8 84.2 L 405.9 122.3 L 408.1 131.9 L 410.3 112.7 L 412.4 111.8 L 414.6 121.2 L 416.7 131.4 L 418.9 143.2 L 421.1 151.4 L 423.2 147.9 L 425.4 141.1 L 427.5 132.4 L 429.7 142.7 L 431.9 146.1 L 434.0 134.5 L 436.2 130.3 L 438.3 127.4 L 440.5 114.4 L 442.6 116.4 L 444.8 121.8 L 447.0 134.8 L 449.1 142.6 L 451.3 136.6 L 453.4 134.4 L 455.6 132.4 L 457.8 150.7 L 459.9 175.3 L 462.1 163.6 L 464.2 176.0 L 466.4 166.2 L 468.5 171.3 L 470.7 159.6 L 472.9 153.4 L 475.0 167.6 L 477.2 174.5 L 479.3 184.3 L 481.5 210.7 L 483.7 205.4 L 485.8 212.4 L 488.0 223.5 L 490.1 219.4 L 492.3 227.1 L 494.4 254.8 L 496.6 263.6 L 498.8 265.9 L 500.9 253.7 L 503.1 245.3 L 505.2 250.6 L 507.4 233.0 L 509.6 228.3 L 511.7 230.7 L 513.9 231.2 L 516.0 233.7 L 518.2 256.9 L 520.4 228.6 L 522.5 216.9 L 524.7 224.2 L 526.8 239.4 L 529.0 240.0 L 531.1 233.5 L 533.3 232.2 L 535.5 220.9 L 537.6 224.6 L 539.8 221.8 L 541.9 234.2 L 544.1 234.3 L 546.3 246.0 L 548.4 256.0 L 550.6 247.8 L 552.7 257.1 L 554.9 261.4 L 557.0 246.2 L 559.2 244.9 L 561.4 243.2 L 563.5 243.4 L 565.7 249.9 L 567.8 248.9 L 570.0 251.4 L 572.2 250.6 L 574.3 247.7 L 576.5 247.2 L 578.6 251.3 L 580.8 244.2 L 583.0 249.0 L 585.1 242.2 L 587.3 235.7 L 589.4 232.2 L 591.6 227.2 L 593.7 214.6 L 595.9 215.2 L 598.1 228.1 L 600.2 229.6 L 602.4 232.1 L 604.5 232.9 L 606.7 230.1 L 608.9 228.5 L 611.0 206.3 L 613.2 198.3 L 615.3 205.3 L 617.5 205.6 L 619.6 207.7 L 621.8 215.6 L 624.0 221.2 L 626.1 244.5 L 628.3 238.7 L 630.4 238.1 L 632.6 237.9 L 634.8 240.0 L 636.9 254.6 L 639.1 245.0 L 641.2 239.9 L 643.4 239.6 L 645.6 266.5 L 647.7 268.8 L 649.9 302.8 L 652.0 314.3 L 654.2 302.8 L 656.3 322.2 L 658.5 339.7 L 660.7 415.6 L 662.8 357.8 L 665.0 367.1 L 667.1 359.6 L 669.3 361.0 L 671.5 370.3 L 673.6 383.3 L 675.8 389.5 L 677.9 370.2 L 680.1 363.2 L 682.2 370.4 L 684.4 370.0 L 686.6 380.2 L 688.7 388.0 L 690.9 383.9 L 693.0 376.4 L 695.2 376.7 L 697.4 379.2 L 699.5 401.9 L 701.7 406.5 L 703.8 376.6 L 706.0 380.3 L 708.1 392.5 L 710.3 384.2 L 712.5 393.2 L 714.6 370.4 L 716.8 374.0 L 718.9 343.2 L 721.1 355.6 L 723.3 375.7 L 725.4 382.0 L 727.6 391.7 L 729.7 373.3 L 731.9 362.3 L 734.1 360.6 L 736.2 358.1 L 738.4 355.3 L 740.5 353.3 L 742.7 342.1 L 744.8 328.1 L 747.0 334.7 L 749.2 353.1 L 751.3 362.5 L 753.5 358.3 L 755.6 369.8 L 757.8 377.6 L 760.0 355.5 L 762.1 358.0 L 764.3 352.5 L 766.4 370.5 L 768.6 388.4 L 770.7 388.7 L 772.9 391.4 L 775.1 385.5 L 777.2 374.4 L 779.4 375.7 L 781.5 384.7 L 783.7 384.2 L 785.9 381.7 L 788.0 368.9 L 790.2 370.3 L 792.3 348.3 L 794.5 354.3 L 796.7 349.3 L 798.8 341.1 L 801.0 340.6 L 803.1 356.7 L 805.3 331.2 L 807.4 333.1 L 809.6 328.6 L 811.8 326.3 L 813.9 313.6 L 816.1 322.7 L 818.2 335.4 L 820.4 321.7 L 822.6 318.4 L 824.7 306.4 L 826.9 305.9 L 829.0 311.2 L 831.2 310.0 L 833.3 303.4 L 835.5 311.6 L 837.7 318.4 L 839.8 322.1 L 842.0 318.3 L 844.1 306.1 L 846.3 303.2 L 848.5 303.9 L 850.6 295.7 L 852.8 289.2 L 854.9 285.9 L 857.1 294.8 L 859.3 293.7 L 861.4 290.6 L 863.6 281.2 L 865.7 284.0" fill="none" stroke="#2563eb" stroke-width="2.2"/>
<path d="M 867.9 282.4 L 870.0 283.6 L 872.2 285.0 L 874.4 286.4 L 876.5 286.6 L 878.7 286.6 L 880.8 286.8 L 883.0 287.1 L 885.2 286.5 L 887.3 287.3 L 889.5 288.2 L 891.6 288.1 L 893.8 289.9 L 895.9 288.9 L 898.1 288.5 L 900.3 290.6 L 902.4 291.7 L 904.6 294.0 L 906.7 295.0 L 908.9 295.6 L 911.1 295.5 L 913.2 297.4 L 915.4 297.3 L 917.5 297.8 L 919.7 297.2 L 921.9 297.9 L 924.0 298.2 L 926.2 298.4 L 928.3 300.4 L 930.5 300.1 L 932.6 300.4 L 934.8 302.7 L 937.0 302.6 L 939.1 304.9 L 941.3 305.6 L 943.4 306.4 L 945.6 305.8 L 947.8 307.6 L 949.9 307.5 L 952.1 308.7 L 954.2 308.3 L 956.4 308.8 L 958.5 309.6 L 960.7 310.7 L 962.9 312.5 L 965.0 312.8 L 967.2 313.3 L 969.3 313.2 L 971.5 314.6 L 973.7 315.9 L 975.8 316.3 L 978.0 317.2 L 980.1 318.5 L 982.3 318.6 L 984.4 319.1 L 986.6 319.5 L 988.8 319.9 L 990.9 319.9 L 993.1 320.7 L 995.2 320.8 L 997.4 322.3 L 999.6 324.3 L 1001.7 323.2 L 1003.9 320.1 L 1006.0 323.8 L 1008.2 324.8 L 1010.4 325.7 L 1012.5 328.2 L 1014.7 330.0 L 1016.8 330.1 L 1019.0 332.4 L 1021.1 331.7 L 1023.3 332.1 L 1025.5 332.5 L 1027.6 333.4 L 1029.8 334.1 L 1031.9 337.1 L 1034.1 338.8 L 1036.3 339.0 L 1038.4 336.6 L 1040.6 338.0 L 1042.7 339.7 L 1044.9 339.8 L 1047.0 344.0 L 1049.2 344.6 L 1051.4 345.6 L 1053.5 346.8 L 1055.7 345.1 L 1057.8 345.8 L 1060.0 346.4" fill="none" stroke="#dc2626" stroke-width="2.4" stroke-dasharray="8 5"/>
<circle cx="88" cy="586" r="5" fill="#2563eb"/><text x="100" y="590" font-family="Arial, sans-serif" font-size="13" fill="#374151">history</text>
<circle cx="178" cy="586" r="5" fill="#dc2626"/><text x="190" y="590" font-family="Arial, sans-serif" font-size="13" fill="#374151">forecast</text>
<rect x="265" y="581" width="22" height="10" rx="2" fill="#dc2626" fill-opacity="0.18"/><text x="296" y="590" font-family="Arial, sans-serif" font-size="13" fill="#374151">10-90% probability corridor</text>
</svg>
