<svg xmlns="http://www.w3.org/2000/svg" data-y-scale="log" width="1100" height="620" viewBox="0 0 1100 620">
<rect width="100%" height="100%" fill="#ffffff"/>
<text x="80" y="26" font-family="Arial, sans-serif" font-size="20" font-weight="700" fill="#111827">BTCUSDT Chronos-2 Forecast</text>
<text x="80" y="50" font-family="Arial, sans-serif" font-size="13" fill="#4b5563">Last history close: 81,745.65 | Last forecast: 72,463.75 | Y scale: log scale</text>
<line x1="80" y1="505.0" x2="1060" y2="505.0" stroke="#e5e7eb" stroke-width="1"/>
<text x="70" y="509.0" text-anchor="end" font-family="Arial, sans-serif" font-size="12" fill="#6b7280">51,971</text>
<line x1="80" y1="396.7" x2="1060" y2="396.7" stroke="#e5e7eb" stroke-width="1"/>
<text x="70" y="400.7" text-anchor="end" font-family="Arial, sans-serif" font-size="12" fill="#6b7280">64,677</text>
<line x1="80" y1="288.5" x2="1060" y2="288.5" stroke="#e5e7eb" stroke-width="1"/>
<text x="70" y="292.5" text-anchor="end" font-family="Arial, sans-serif" font-size="12" fill="#6b7280">80,490</text>
<line x1="80" y1="180.3" x2="1060" y2="180.3" stroke="#e5e7eb" stroke-width="1"/>
<text x="70" y="184.3" text-anchor="end" font-family="Arial, sans-serif" font-size="12" fill="#6b7280">100,169</text>
<line x1="80" y1="72.0" x2="1060" y2="72.0" stroke="#e5e7eb" stroke-width="1"/>
<text x="70" y="76.0" text-anchor="end" font-family="Arial, sans-serif" font-size="12" fill="#6b7280">124,659</text>
<line class="x-axis-grid" x1="80.0" y1="72" x2="80.0" y2="505" stroke="#f1f5f9" stroke-width="1"/>
<line class="x-axis-grid" x1="276.0" y1="72" x2="276.0" y2="505" stroke="#f1f5f9" stroke-width="1"/>
<line class="x-axis-grid" x1="472.0" y1="72" x2="472.0" y2="505" stroke="#f1f5f9" stroke-width="1"/>
<line class="x-axis-grid" x1="668.0" y1="72" x2="668.0" y2="505" stroke="#f1f5f9" stroke-width="1"/>
<line class="x-axis-grid" x1="864.0" y1="72" x2="864.0" y2="505" stroke="#f1f5f9" stroke-width="1"/>
<line class="x-axis-grid" x1="1060.0" y1="72" x2="1060.0" y2="505" stroke="#f1f5f9" stroke-width="1"/>
<line x1="80" y1="72" x2="80" y2="505" stroke="#9ca3af" stroke-width="1"/>
<line x1="80" y1="505" x2="1060" y2="505" stroke="#9ca3af" stroke-width="1"/>
<text class="x-axis-label" x="80.0" y="530" text-anchor="middle" font-family="Arial, sans-serif" font-size="11" fill="#6b7280">2025-05-12</text>
<text class="x-axis-label" x="276.0" y="530" text-anchor="middle" font-family="Arial, sans-serif" font-size="11" fill="#6b7280">2025-08-10</text>
<text class="x-axis-label" x="472.0" y="530" text-anchor="middle" font-family="Arial, sans-serif" font-size="11" fill="#6b7280">2025-11-09</text>
<text class="x-axis-label" x="668.0" y="530" text-anchor="middle" font-family="Arial, sans-serif" font-size="11" fill="#6b7280">2026-02-08</text>
<text class="x-axis-label" x="864.0" y="530" text-anchor="middle" font-family="Arial, sans-serif" font-size="11" fill="#6b7280">2026-05-10</text>
<text class="x-axis-label" x="1060.0" y="530" text-anchor="middle" font-family="Arial, sans-serif" font-size="11" fill="#6b7280">2026-08-09</text>
<line id="forecast-start-line" x1="867.9" y1="72" x2="867.9" y2="505" stroke="#111827" stroke-width="1.3" stroke-dasharray="5 6" opacity="0.42"/>
<text x="875.9" y="87" font-family="Arial, sans-serif" font-size="11" fill="#374151">forecast start</text>
<path id="probability-corridor" d="M 867.9 267.9 L 870.0 267.1 L 872.2 265.6 L 874.4 263.3 L 876.5 260.9 L 878.7 258.9 L 880.8 257.2 L 883.0 254.7 L 885.2 252.4 L 887.3 251.7 L 889.5 249.5 L 891.6 248.8 L 893.8 247.0 L 895.9 246.4 L 898.1 244.9 L 900.3 242.7 L 902.4 246.4 L 904.6 246.3 L 906.7 244.8 L 908.9 241.8 L 911.1 242.1 L 913.2 240.8 L 915.4 239.7 L 917.5 238.4 L 919.7 235.8 L 921.9 235.8 L 924.0 233.2 L 926.2 232.5 L 928.3 231.0 L 930.5 231.4 L 932.6 231.3 L 934.8 229.2 L 937.0 233.9 L 939.1 234.2 L 941.3 233.2 L 943.4 230.9 L 945.6 232.1 L 947.8 229.2 L 949.9 228.9 L 952.1 228.3 L 954.2 226.7 L 956.4 226.4 L 958.5 223.5 L 960.7 222.0 L 962.9 220.9 L 965.0 221.4 L 967.2 222.4 L 969.3 220.8 L 971.5 221.1 L 973.7 221.8 L 975.8 221.7 L 978.0 218.2 L 980.1 220.3 L 982.3 217.4 L 984.4 217.8 L 986.6 216.2 L 988.8 215.1 L 990.9 214.1 L 993.1 210.7 L 995.2 208.1 L 997.4 207.5 L 999.6 208.2 L 1001.7 209.0 L 1003.9 204.6 L 1006.0 195.0 L 1008.2 195.5 L 1010.4 197.3 L 1012.5 194.6 L 1014.7 194.6 L 1016.8 191.3 L 1019.0 190.8 L 1021.1 192.0 L 1023.3 191.1 L 1025.5 188.3 L 1027.6 186.8 L 1029.8 184.4 L 1031.9 183.8 L 1034.1 186.8 L 1036.3 190.1 L 1038.4 184.8 L 1040.6 185.5 L 1042.7 184.6 L 1044.9 187.7 L 1047.0 186.1 L 1049.2 185.4 L 1051.4 181.2 L 1053.5 180.1 L 1055.7 183.0 L 1057.8 182.3 L 1060.0 179.2 L 1060.0 505.0 L 1057.8 504.7 L 1055.7 502.4 L 1053.5 502.7 L 1051.4 497.6 L 1049.2 497.2 L 1047.0 493.3 L 1044.9 493.2 L 1042.7 489.4 L 1040.6 486.0 L 1038.4 482.0 L 1036.3 479.5 L 1034.1 470.4 L 1031.9 474.5 L 1029.8 471.4 L 1027.6 470.7 L 1025.5 464.4 L 1023.3 465.3 L 1021.1 462.8 L 1019.0 460.4 L 1016.8 453.1 L 1014.7 455.8 L 1012.5 448.8 L 1010.4 447.2 L 1008.2 443.4 L 1006.0 439.6 L 1003.9 447.0 L 1001.7 445.0 L 999.6 437.0 L 997.4 440.7 L 995.2 437.3 L 993.1 435.6 L 990.9 428.2 L 988.8 429.6 L 986.6 426.1 L 984.4 423.0 L 982.3 419.1 L 980.1 421.1 L 978.0 415.1 L 975.8 414.9 L 973.7 410.5 L 971.5 408.5 L 969.3 413.3 L 967.2 411.1 L 965.0 408.4 L 962.9 408.2 L 960.7 403.6 L 958.5 402.1 L 956.4 393.1 L 954.2 394.6 L 952.1 391.2 L 949.9 388.5 L 947.8 385.4 L 945.6 385.6 L 943.4 379.6 L 941.3 377.5 L 939.1 376.0 L 937.0 373.1 L 934.8 377.2 L 932.6 371.7 L 930.5 372.9 L 928.3 364.2 L 926.2 361.2 L 924.0 364.5 L 921.9 358.1 L 919.7 356.3 L 917.5 351.7 L 915.4 348.4 L 913.2 346.8 L 911.1 342.6 L 908.9 341.9 L 906.7 339.8 L 904.6 334.9 L 902.4 330.3 L 900.3 332.8 L 898.1 329.4 L 895.9 329.1 L 893.8 325.8 L 891.6 322.8 L 889.5 322.0 L 887.3 317.9 L 885.2 314.7 L 883.0 313.4 L 880.8 310.0 L 878.7 308.1 L 876.5 305.4 L 874.4 301.6 L 872.2 299.9 L 870.0 293.5 L 867.9 291.1 Z" fill="#dc2626" fill-opacity="0.13" stroke="none"/>
<path d="M 80.0 167.5 L 82.2 161.2 L 84.3 164.0 L 86.5 162.8 L 88.6 164.2 L 90.8 165.8 L 93.0 150.1 L 95.1 154.2 L 97.3 148.3 L 99.4 135.5 L 101.6 126.3 L 103.7 146.1 L 105.9 144.1 L 108.1 138.4 L 110.2 136.5 L 112.4 138.7 L 114.5 144.0 L 116.7 154.2 L 118.9 161.7 L 121.0 158.9 L 123.2 153.9 L 125.3 152.9 L 127.5 155.2 L 129.6 158.4 L 131.8 173.7 L 134.0 160.3 L 136.1 154.3 L 138.3 153.5 L 140.4 132.7 L 142.6 132.7 L 144.8 140.0 L 146.9 153.8 L 149.1 151.9 L 151.2 155.0 L 153.4 154.1 L 155.6 148.5 L 157.7 159.1 L 159.9 157.5 L 162.0 158.5 L 164.2 165.0 L 166.3 170.7 L 168.5 176.3 L 170.7 155.4 L 172.8 151.9 L 175.0 146.0 L 177.1 147.8 L 179.3 147.4 L 181.5 146.2 L 183.6 141.4 L 185.8 146.9 L 187.9 153.7 L 190.1 139.1 L 192.2 135.8 L 194.4 143.1 L 196.6 142.1 L 198.7 137.5 L 200.9 141.8 L 203.0 138.8 L 205.2 128.4 L 207.4 107.6 L 209.5 101.2 L 211.7 101.6 L 213.8 94.6 L 216.0 91.5 L 218.1 100.2 L 220.3 96.5 L 222.5 94.3 L 224.6 99.5 L 226.8 99.8 L 228.9 102.3 L 231.1 101.8 L 233.3 91.0 L 235.4 96.0 L 237.6 97.7 L 239.7 100.8 L 241.9 99.5 L 244.1 93.3 L 246.2 98.9 L 248.4 99.4 L 250.5 99.8 L 252.7 108.6 L 254.8 119.3 L 257.0 122.6 L 259.2 115.3 L 261.3 111.7 L 263.5 115.7 L 265.6 111.9 L 267.8 101.4 L 270.0 104.8 L 272.1 105.7 L 274.3 93.8 L 276.4 96.3 L 278.6 90.3 L 280.7 77.4 L 282.9 97.9 L 285.1 101.9 L 287.2 101.8 L 289.4 101.7 L 291.5 106.7 L 293.7 121.2 L 295.9 115.1 L 298.0 122.8 L 300.2 103.7 L 302.3 110.0 L 304.5 118.4 L 306.7 133.4 L 308.8 126.0 L 311.0 128.3 L 313.1 122.5 L 315.3 141.3 L 317.4 139.3 L 319.6 141.9 L 321.8 137.4 L 323.9 128.4 L 326.1 126.3 L 328.2 130.6 L 330.4 131.0 L 332.6 133.1 L 334.7 128.8 L 336.9 124.7 L 339.0 127.0 L 341.2 116.4 L 343.3 109.8 L 345.5 107.5 L 347.7 108.0 L 349.8 110.8 L 352.0 110.4 L 354.1 104.3 L 356.3 105.7 L 358.5 103.1 L 360.6 109.2 L 362.8 109.0 L 364.9 110.9 L 367.1 122.1 L 369.3 125.0 L 371.4 119.3 L 373.6 138.5 L 375.7 135.5 L 377.9 135.6 L 380.0 124.3 L 382.2 114.9 L 384.4 116.0 L 386.5 96.7 L 388.7 88.7 L 390.8 81.7 L 393.0 81.1 L 395.2 76.7 L 397.3 72.0 L 399.5 85.4 L 401.6 77.4 L 403.8 84.0 L 405.9 121.6 L 408.1 131.0 L 410.3 112.1 L 412.4 111.2 L 414.6 120.5 L 416.7 130.5 L 418.9 142.1 L 421.1 150.2 L 423.2 146.7 L 425.4 140.1 L 427.5 131.5 L 429.7 141.6 L 431.9 145.0 L 434.0 133.6 L 436.2 129.4 L 438.3 126.6 L 440.5 113.8 L 442.6 115.8 L 444.8 121.0 L 447.0 133.8 L 449.1 141.5 L 451.3 135.7 L 453.4 133.5 L 455.6 131.5 L 457.8 149.5 L 459.9 173.7 L 462.1 162.2 L 464.2 174.5 L 466.4 164.8 L 468.5 169.8 L 470.7 158.2 L 472.9 152.2 L 475.0 166.2 L 477.2 173.0 L 479.3 182.6 L 481.5 208.6 L 483.7 203.4 L 485.8 210.3 L 488.0 221.2 L 490.1 217.2 L 492.3 224.8 L 494.4 252.1 L 496.6 260.8 L 498.8 263.0 L 500.9 251.0 L 503.1 242.7 L 505.2 247.9 L 507.4 230.6 L 509.6 225.9 L 511.7 228.4 L 513.9 228.8 L 516.0 231.3 L 518.2 254.1 L 520.4 226.3 L 522.5 214.7 L 524.7 221.9 L 526.8 236.9 L 529.0 237.4 L 531.1 231.1 L 533.3 229.8 L 535.5 218.7 L 537.6 222.3 L 539.8 219.6 L 541.9 231.8 L 544.1 231.9 L 546.3 243.4 L 548.4 253.2 L 550.6 245.1 L 552.7 254.3 L 554.9 258.5 L 557.0 243.6 L 559.2 242.3 L 561.4 240.7 L 563.5 240.9 L 565.7 247.2 L 567.8 246.2 L 570.0 248.7 L 572.2 247.9 L 574.3 245.0 L 576.5 244.6 L 578.6 248.7 L 580.8 241.6 L 583.0 246.3 L 585.1 239.7 L 587.3 233.3 L 589.4 229.8 L 591.6 224.9 L 593.7 212.4 L 595.9 213.0 L 598.1 225.8 L 600.2 227.2 L 602.4 229.7 L 604.5 230.5 L 606.7 227.7 L 608.9 226.2 L 611.0 204.3 L 613.2 196.4 L 615.3 203.3 L 617.5 203.6 L 619.6 205.7 L 621.8 213.4 L 624.0 219.0 L 626.1 242.0 L 628.3 236.2 L 630.4 235.7 L 632.6 235.4 L 634.8 237.5 L 636.9 251.9 L 639.1 242.4 L 641.2 237.4 L 643.4 237.1 L 645.6 263.6 L 647.7 265.8 L 649.9 299.4 L 652.0 310.6 L 654.2 299.4 L 656.3 318.4 L 658.5 335.7 L 660.7 410.5 L 662.8 353.5 L 665.0 362.7 L 667.1 355.3 L 669.3 356.6 L 671.5 365.9 L 673.6 378.7 L 675.8 384.7 L 677.9 365.8 L 680.1 358.9 L 682.2 365.9 L 684.4 365.5 L 686.6 375.6 L 688.7 383.3 L 690.9 379.3 L 693.0 371.8 L 695.2 372.1 L 697.4 374.6 L 699.5 396.9 L 701.7 401.5 L 703.8 372.0 L 706.0 375.7 L 708.1 387.7 L 710.3 379.5 L 712.5 388.4 L 714.6 366.0 L 716.8 369.5 L 718.9 339.1 L 721.1 351.4 L 723.3 371.1 L 725.4 377.3 L 727.6 386.9 L 729.7 368.8 L 731.9 358.0 L 734.1 356.3 L 736.2 353.8 L 738.4 351.1 L 740.5 349.1 L 742.7 338.1 L 744.8 324.2 L 747.0 330.7 L 749.2 348.9 L 751.3 358.1 L 753.5 354.0 L 755.6 365.3 L 757.8 373.0 L 760.0 351.2 L 762.1 353.7 L 764.3 348.2 L 766.4 366.0 L 768.6 383.7 L 770.7 383.9 L 772.9 386.6 L 775.1 380.8 L 777.2 369.9 L 779.4 371.1 L 781.5 380.0 L 783.7 379.6 L 785.9 377.1 L 788.0 364.5 L 790.2 365.8 L 792.3 344.2 L 794.5 350.1 L 796.7 345.1 L 798.8 337.1 L 801.0 336.5 L 803.1 352.4 L 805.3 327.3 L 807.4 329.2 L 809.6 324.7 L 811.8 322.4 L 813.9 310.0 L 816.1 318.9 L 818.2 331.4 L 820.4 317.9 L 822.6 314.7 L 824.7 302.9 L 826.9 302.4 L 829.0 307.6 L 831.2 306.4 L 833.3 299.9 L 835.5 308.1 L 837.7 314.7 L 839.8 318.3 L 842.0 314.7 L 844.1 302.6 L 846.3 299.7 L 848.5 300.5 L 850.6 292.4 L 852.8 286.0 L 854.9 282.6 L 857.1 291.5 L 859.3 290.3 L 861.4 287.3 L 863.6 278.0 L 865.7 280.8" fill="none" stroke="#2563eb" stroke-width="2.2"/>
<path d="M 867.9 278.7 L 870.0 279.9 L 872.2 281.3 L 874.4 282.6 L 876.5 282.8 L 878.7 282.8 L 880.8 283.0 L 883.0 283.2 L 885.2 282.4 L 887.3 283.4 L 889.5 284.2 L 891.6 284.2 L 893.8 286.0 L 895.9 285.1 L 898.1 284.5 L 900.3 286.8 L 902.4 287.9 L 904.6 290.1 L 906.7 291.1 L 908.9 291.6 L 911.1 291.5 L 913.2 293.4 L 915.4 293.3 L 917.5 293.8 L 919.7 293.1 L 921.9 293.8 L 924.0 294.3 L 926.2 294.5 L 928.3 296.3 L 930.5 296.0 L 932.6 296.1 L 934.8 298.6 L 937.0 298.4 L 939.1 300.6 L 941.3 301.2 L 943.4 301.9 L 945.6 301.4 L 947.8 303.2 L 949.9 303.0 L 952.1 304.2 L 954.2 303.6 L 956.4 304.2 L 958.5 305.0 L 960.7 306.1 L 962.9 307.9 L 965.0 308.0 L 967.2 308.4 L 969.3 308.5 L 971.5 310.4 L 973.7 311.6 L 975.8 312.0 L 978.0 312.9 L 980.1 314.1 L 982.3 314.3 L 984.4 314.7 L 986.6 315.1 L 988.8 315.5 L 990.9 315.4 L 993.1 316.4 L 995.2 316.5 L 997.4 318.0 L 999.6 319.8 L 1001.7 319.0 L 1003.9 316.1 L 1006.0 320.0 L 1008.2 320.7 L 1010.4 321.4 L 1012.5 323.8 L 1014.7 325.5 L 1016.8 325.5 L 1019.0 327.6 L 1021.1 327.1 L 1023.3 327.3 L 1025.5 327.6 L 1027.6 328.5 L 1029.8 329.3 L 1031.9 332.3 L 1034.1 334.0 L 1036.3 334.1 L 1038.4 331.6 L 1040.6 333.1 L 1042.7 334.0 L 1044.9 334.0 L 1047.0 338.0 L 1049.2 338.6 L 1051.4 339.6 L 1053.5 340.9 L 1055.7 339.3 L 1057.8 340.0 L 1060.0 340.5" fill="none" stroke="#dc2626" stroke-width="2.4" stroke-dasharray="8 5"/>
<circle cx="88" cy="586" r="5" fill="#2563eb"/><text x="100" y="590" font-family="Arial, sans-serif" font-size="13" fill="#374151">history</text>
<circle cx="178" cy="586" r="5" fill="#dc2626"/><text x="190" y="590" font-family="Arial, sans-serif" font-size="13" fill="#374151">forecast</text>
<rect x="265" y="581" width="22" height="10" rx="2" fill="#dc2626" fill-opacity="0.18"/><text x="296" y="590" font-family="Arial, sans-serif" font-size="13" fill="#374151">10-90% probability corridor</text>
</svg>
