<svg xmlns="http://www.w3.org/2000/svg" data-y-scale="linear" width="1100" height="620" viewBox="0 0 1100 620">
<rect width="100%" height="100%" fill="#ffffff"/>
<text x="80" y="26" font-family="Arial, sans-serif" font-size="20" font-weight="700" fill="#111827">BTCUSDT Chronos-2 Forecast</text>
<text x="80" y="50" font-family="Arial, sans-serif" font-size="13" fill="#4b5563">Last history close: 81,745.65 | Last forecast: 72,194.53</text>
<line x1="80" y1="505.0" x2="1060" y2="505.0" stroke="#e5e7eb" stroke-width="1"/>
<text x="70" y="509.0" text-anchor="end" font-family="Arial, sans-serif" font-size="12" fill="#6b7280">52,657</text>
<line x1="80" y1="396.8" x2="1060" y2="396.8" stroke="#e5e7eb" stroke-width="1"/>
<text x="70" y="400.8" text-anchor="end" font-family="Arial, sans-serif" font-size="12" fill="#6b7280">70,657</text>
<line x1="80" y1="288.5" x2="1060" y2="288.5" stroke="#e5e7eb" stroke-width="1"/>
<text x="70" y="292.5" text-anchor="end" font-family="Arial, sans-serif" font-size="12" fill="#6b7280">88,658</text>
<line x1="80" y1="180.2" x2="1060" y2="180.2" stroke="#e5e7eb" stroke-width="1"/>
<text x="70" y="184.2" text-anchor="end" font-family="Arial, sans-serif" font-size="12" fill="#6b7280">106,658</text>
<line x1="80" y1="72.0" x2="1060" y2="72.0" stroke="#e5e7eb" stroke-width="1"/>
<text x="70" y="76.0" text-anchor="end" font-family="Arial, sans-serif" font-size="12" fill="#6b7280">124,659</text>
<line class="x-axis-grid" x1="80.0" y1="72" x2="80.0" y2="505" stroke="#f1f5f9" stroke-width="1"/>
<line class="x-axis-grid" x1="276.0" y1="72" x2="276.0" y2="505" stroke="#f1f5f9" stroke-width="1"/>
<line class="x-axis-grid" x1="472.0" y1="72" x2="472.0" y2="505" stroke="#f1f5f9" stroke-width="1"/>
<line class="x-axis-grid" x1="668.0" y1="72" x2="668.0" y2="505" stroke="#f1f5f9" stroke-width="1"/>
<line class="x-axis-grid" x1="864.0" y1="72" x2="864.0" y2="505" stroke="#f1f5f9" stroke-width="1"/>
<line class="x-axis-grid" x1="1060.0" y1="72" x2="1060.0" y2="505" stroke="#f1f5f9" stroke-width="1"/>
<line x1="80" y1="72" x2="80" y2="505" stroke="#9ca3af" stroke-width="1"/>
<line x1="80" y1="505" x2="1060" y2="505" stroke="#9ca3af" stroke-width="1"/>
<text class="x-axis-label" x="80.0" y="530" text-anchor="middle" font-family="Arial, sans-serif" font-size="11" fill="#6b7280">2025-05-12</text>
<text class="x-axis-label" x="276.0" y="530" text-anchor="middle" font-family="Arial, sans-serif" font-size="11" fill="#6b7280">2025-08-10</text>
<text class="x-axis-label" x="472.0" y="530" text-anchor="middle" font-family="Arial, sans-serif" font-size="11" fill="#6b7280">2025-11-09</text>
<text class="x-axis-label" x="668.0" y="530" text-anchor="middle" font-family="Arial, sans-serif" font-size="11" fill="#6b7280">2026-02-08</text>
<text class="x-axis-label" x="864.0" y="530" text-anchor="middle" font-family="Arial, sans-serif" font-size="11" fill="#6b7280">2026-05-10</text>
<text class="x-axis-label" x="1060.0" y="530" text-anchor="middle" font-family="Arial, sans-serif" font-size="11" fill="#6b7280">2026-08-09</text>
<line id="forecast-start-line" x1="867.9" y1="72" x2="867.9" y2="505" stroke="#111827" stroke-width="1.3" stroke-dasharray="5 6" opacity="0.42"/>
<text x="875.9" y="87" font-family="Arial, sans-serif" font-size="11" fill="#374151">forecast start</text>
<path id="probability-corridor" d="M 867.9 317.9 L 870.0 317.0 L 872.2 315.5 L 874.4 313.1 L 876.5 310.9 L 878.7 308.8 L 880.8 307.0 L 883.0 304.6 L 885.2 302.3 L 887.3 301.4 L 889.5 299.1 L 891.6 298.4 L 893.8 296.4 L 895.9 295.8 L 898.1 294.3 L 900.3 292.0 L 902.4 296.8 L 904.6 296.7 L 906.7 295.3 L 908.9 292.1 L 911.1 292.2 L 913.2 291.1 L 915.4 289.8 L 917.5 288.5 L 919.7 285.6 L 921.9 285.8 L 924.0 282.9 L 926.2 282.2 L 928.3 280.6 L 930.5 280.8 L 932.6 280.7 L 934.8 278.5 L 937.0 284.4 L 939.1 284.6 L 941.3 283.9 L 943.4 281.2 L 945.6 282.6 L 947.8 279.5 L 949.9 279.3 L 952.1 278.7 L 954.2 276.7 L 956.4 276.8 L 958.5 273.5 L 960.7 271.8 L 962.9 270.7 L 965.0 271.2 L 967.2 272.3 L 969.3 270.4 L 971.5 270.8 L 973.7 271.2 L 975.8 271.2 L 978.0 267.2 L 980.1 269.5 L 982.3 266.5 L 984.4 267.4 L 986.6 265.3 L 988.8 263.9 L 990.9 263.1 L 993.1 259.1 L 995.2 256.1 L 997.4 255.4 L 999.6 256.3 L 1001.7 256.9 L 1003.9 251.8 L 1006.0 240.4 L 1008.2 241.2 L 1010.4 243.3 L 1012.5 240.4 L 1014.7 240.9 L 1016.8 237.0 L 1019.0 236.7 L 1021.1 237.8 L 1023.3 237.0 L 1025.5 233.8 L 1027.6 231.9 L 1029.8 229.3 L 1031.9 228.7 L 1034.1 232.2 L 1036.3 235.9 L 1038.4 229.7 L 1040.6 229.1 L 1042.7 229.7 L 1044.9 233.0 L 1047.0 230.9 L 1049.2 230.9 L 1051.4 225.8 L 1053.5 224.2 L 1055.7 227.2 L 1057.8 226.6 L 1060.0 222.8 L 1060.0 505.0 L 1057.8 504.7 L 1055.7 503.3 L 1053.5 503.6 L 1051.4 500.9 L 1049.2 500.4 L 1047.0 498.2 L 1044.9 497.8 L 1042.7 495.7 L 1040.6 493.7 L 1038.4 490.1 L 1036.3 488.3 L 1034.1 482.2 L 1031.9 484.9 L 1029.8 482.7 L 1027.6 482.6 L 1025.5 478.0 L 1023.3 478.5 L 1021.1 476.6 L 1019.0 474.9 L 1016.8 470.4 L 1014.7 472.6 L 1012.5 467.9 L 1010.4 466.8 L 1008.2 464.3 L 1006.0 461.5 L 1003.9 467.8 L 1001.7 466.5 L 999.6 461.1 L 997.4 463.6 L 995.2 461.0 L 993.1 459.8 L 990.9 454.4 L 988.8 455.2 L 986.6 452.5 L 984.4 450.0 L 982.3 447.6 L 980.1 449.4 L 978.0 444.8 L 975.8 444.5 L 973.7 441.4 L 971.5 439.9 L 969.3 444.6 L 967.2 443.2 L 965.0 441.3 L 962.9 441.2 L 960.7 437.6 L 958.5 436.2 L 956.4 429.3 L 954.2 430.3 L 952.1 427.5 L 949.9 425.3 L 947.8 423.2 L 945.6 423.2 L 943.4 418.1 L 941.3 416.3 L 939.1 415.4 L 937.0 412.9 L 934.8 416.4 L 932.6 412.1 L 930.5 413.1 L 928.3 405.9 L 926.2 403.0 L 924.0 405.7 L 921.9 400.3 L 919.7 398.9 L 917.5 394.9 L 915.4 392.2 L 913.2 390.8 L 911.1 387.3 L 908.9 386.3 L 906.7 384.8 L 904.6 380.6 L 902.4 376.3 L 900.3 378.3 L 898.1 375.5 L 895.9 375.7 L 893.8 372.6 L 891.6 370.0 L 889.5 369.3 L 887.3 365.6 L 885.2 362.9 L 883.0 361.3 L 880.8 358.2 L 878.7 356.4 L 876.5 353.9 L 874.4 350.4 L 872.2 348.6 L 870.0 342.7 L 867.9 340.6 Z" fill="#dc2626" fill-opacity="0.13" stroke="none"/>
<path d="M 80.0 203.5 L 82.2 195.6 L 84.3 199.2 L 86.5 197.7 L 88.6 199.5 L 90.8 201.5 L 93.0 181.5 L 95.1 186.8 L 97.3 179.1 L 99.4 162.3 L 101.6 150.0 L 103.7 176.3 L 105.9 173.6 L 108.1 166.1 L 110.2 163.6 L 112.4 166.5 L 114.5 173.5 L 116.7 186.7 L 118.9 196.3 L 121.0 192.7 L 123.2 186.4 L 125.3 185.1 L 127.5 188.0 L 129.6 192.0 L 131.8 211.2 L 134.0 194.5 L 136.1 186.9 L 138.3 185.8 L 140.4 158.6 L 142.6 158.5 L 144.8 168.3 L 146.9 186.2 L 149.1 183.8 L 151.2 187.7 L 153.4 186.6 L 155.6 179.4 L 157.7 192.9 L 159.9 190.9 L 162.0 192.3 L 164.2 200.5 L 166.3 207.5 L 168.5 214.5 L 170.7 188.2 L 172.8 183.7 L 175.0 176.1 L 177.1 178.5 L 179.3 177.9 L 181.5 176.4 L 183.6 170.0 L 185.8 177.3 L 187.9 186.1 L 190.1 167.1 L 192.2 162.7 L 194.4 172.3 L 196.6 171.0 L 198.7 164.9 L 200.9 170.6 L 203.0 166.6 L 205.2 152.7 L 207.4 124.0 L 209.5 114.9 L 211.7 115.5 L 213.8 105.5 L 216.0 101.0 L 218.1 113.5 L 220.3 108.3 L 222.5 105.0 L 224.6 112.5 L 226.8 113.0 L 228.9 116.5 L 231.1 115.8 L 233.3 100.3 L 235.4 107.5 L 237.6 110.0 L 239.7 114.4 L 241.9 112.5 L 244.1 103.5 L 246.2 111.7 L 248.4 112.3 L 250.5 113.0 L 252.7 125.5 L 254.8 140.3 L 257.0 144.8 L 259.2 134.8 L 261.3 129.8 L 263.5 135.3 L 265.6 130.1 L 267.8 115.2 L 270.0 120.0 L 272.1 121.3 L 274.3 104.3 L 276.4 107.9 L 278.6 99.2 L 280.7 80.1 L 282.9 110.3 L 285.1 116.0 L 287.2 115.8 L 289.4 115.6 L 291.5 122.7 L 293.7 142.9 L 295.9 134.5 L 298.0 145.1 L 300.2 118.4 L 302.3 127.4 L 304.5 139.1 L 306.7 159.5 L 308.8 149.5 L 311.0 152.6 L 313.1 144.7 L 315.3 169.9 L 317.4 167.3 L 319.6 170.7 L 321.8 164.7 L 323.9 152.7 L 326.1 149.9 L 328.2 155.8 L 330.4 156.2 L 332.6 159.0 L 334.7 153.3 L 336.9 147.7 L 339.0 150.9 L 341.2 136.3 L 343.3 127.2 L 345.5 123.9 L 347.7 124.6 L 349.8 128.5 L 352.0 128.0 L 354.1 119.3 L 356.3 121.4 L 358.5 117.6 L 360.6 126.3 L 362.8 126.0 L 364.9 128.7 L 367.1 144.2 L 369.3 148.1 L 371.4 140.3 L 373.6 166.2 L 375.7 162.3 L 377.9 162.3 L 380.0 147.1 L 382.2 134.2 L 384.4 135.8 L 386.5 108.5 L 388.7 96.8 L 390.8 86.6 L 393.0 85.6 L 395.2 79.1 L 397.3 72.0 L 399.5 92.0 L 401.6 80.1 L 403.8 90.0 L 405.9 143.5 L 408.1 156.3 L 410.3 130.3 L 412.4 129.1 L 414.6 141.9 L 416.7 155.6 L 418.9 171.0 L 421.1 181.6 L 423.2 177.1 L 425.4 168.3 L 427.5 157.0 L 429.7 170.4 L 431.9 174.8 L 434.0 159.7 L 436.2 154.1 L 438.3 150.3 L 440.5 132.7 L 442.6 135.5 L 444.8 142.7 L 447.0 160.0 L 449.1 170.2 L 451.3 162.5 L 453.4 159.6 L 455.6 156.9 L 457.8 180.7 L 459.9 211.3 L 462.1 196.9 L 464.2 212.2 L 466.4 200.2 L 468.5 206.4 L 470.7 191.9 L 472.9 184.1 L 475.0 201.9 L 477.2 210.3 L 479.3 222.1 L 481.5 252.8 L 483.7 246.8 L 485.8 254.8 L 488.0 267.1 L 490.1 262.6 L 492.3 271.1 L 494.4 300.7 L 496.6 309.7 L 498.8 312.1 L 500.9 299.5 L 503.1 290.7 L 505.2 296.2 L 507.4 277.5 L 509.6 272.4 L 511.7 275.1 L 513.9 275.6 L 516.0 278.3 L 518.2 302.8 L 520.4 272.7 L 522.5 259.8 L 524.7 267.9 L 526.8 284.5 L 529.0 285.0 L 531.1 278.1 L 533.3 276.6 L 535.5 264.3 L 537.6 268.3 L 539.8 265.3 L 541.9 278.8 L 544.1 279.0 L 546.3 291.4 L 548.4 301.9 L 550.6 293.3 L 552.7 303.0 L 554.9 307.4 L 557.0 291.6 L 559.2 290.3 L 561.4 288.5 L 563.5 288.7 L 565.7 295.5 L 567.8 294.4 L 570.0 297.1 L 572.2 296.2 L 574.3 293.2 L 576.5 292.7 L 578.6 297.0 L 580.8 289.5 L 583.0 294.6 L 585.1 287.4 L 587.3 280.5 L 589.4 276.7 L 591.6 271.2 L 593.7 257.2 L 595.9 257.9 L 598.1 272.2 L 600.2 273.8 L 602.4 276.6 L 604.5 277.4 L 606.7 274.3 L 608.9 272.6 L 611.0 247.9 L 613.2 238.6 L 615.3 246.7 L 617.5 247.0 L 619.6 249.5 L 621.8 258.3 L 624.0 264.6 L 626.1 289.9 L 628.3 283.7 L 630.4 283.1 L 632.6 282.8 L 634.8 285.1 L 636.9 300.5 L 639.1 290.4 L 641.2 284.9 L 643.4 284.6 L 645.6 312.6 L 647.7 314.9 L 649.9 348.1 L 652.0 358.8 L 654.2 348.2 L 656.3 366.0 L 658.5 381.7 L 660.7 443.3 L 662.8 397.2 L 665.0 405.0 L 667.1 398.7 L 669.3 399.9 L 671.5 407.7 L 673.6 418.2 L 675.8 423.1 L 677.9 407.6 L 680.1 401.8 L 682.2 407.7 L 684.4 407.4 L 686.6 415.7 L 688.7 422.0 L 690.9 418.7 L 693.0 412.6 L 695.2 412.9 L 697.4 414.9 L 699.5 432.8 L 701.7 436.4 L 703.8 412.8 L 706.0 415.8 L 708.1 425.5 L 710.3 418.9 L 712.5 426.1 L 714.6 407.7 L 716.8 410.7 L 718.9 384.7 L 721.1 395.3 L 723.3 412.0 L 725.4 417.2 L 727.6 424.9 L 729.7 410.1 L 731.9 401.0 L 734.1 399.6 L 736.2 397.4 L 738.4 395.1 L 740.5 393.4 L 742.7 383.8 L 744.8 371.3 L 747.0 377.2 L 749.2 393.2 L 751.3 401.1 L 753.5 397.6 L 755.6 407.2 L 757.8 413.6 L 760.0 395.3 L 762.1 397.4 L 764.3 392.7 L 766.4 407.8 L 768.6 422.3 L 770.7 422.5 L 772.9 424.7 L 775.1 420.0 L 777.2 411.0 L 779.4 412.0 L 781.5 419.3 L 783.7 419.0 L 785.9 416.9 L 788.0 406.5 L 790.2 407.6 L 792.3 389.1 L 794.5 394.3 L 796.7 390.0 L 798.8 382.9 L 801.0 382.4 L 803.1 396.2 L 805.3 374.1 L 807.4 375.9 L 809.6 371.8 L 811.8 369.7 L 813.9 358.2 L 816.1 366.5 L 818.2 377.8 L 820.4 365.6 L 822.6 362.6 L 824.7 351.5 L 826.9 351.0 L 829.0 356.0 L 831.2 354.8 L 833.3 348.6 L 835.5 356.4 L 837.7 362.6 L 839.8 365.9 L 842.0 362.5 L 844.1 351.2 L 846.3 348.5 L 848.5 349.2 L 850.6 341.4 L 852.8 335.1 L 854.9 331.9 L 857.1 340.5 L 859.3 339.4 L 861.4 336.5 L 863.6 327.3 L 865.7 330.1" fill="none" stroke="#2563eb" stroke-width="2.2"/>
<path d="M 867.9 328.5 L 870.0 329.6 L 872.2 331.0 L 874.4 332.4 L 876.5 332.6 L 878.7 332.6 L 880.8 332.8 L 883.0 333.0 L 885.2 332.5 L 887.3 333.3 L 889.5 334.1 L 891.6 334.1 L 893.8 335.8 L 895.9 334.9 L 898.1 334.4 L 900.3 336.5 L 902.4 337.6 L 904.6 339.7 L 906.7 340.7 L 908.9 341.2 L 911.1 341.2 L 913.2 343.0 L 915.4 342.9 L 917.5 343.3 L 919.7 342.8 L 921.9 343.4 L 924.0 343.8 L 926.2 344.0 L 928.3 345.8 L 930.5 345.5 L 932.6 345.8 L 934.8 348.0 L 937.0 348.0 L 939.1 350.1 L 941.3 350.8 L 943.4 351.4 L 945.6 351.0 L 947.8 352.6 L 949.9 352.5 L 952.1 353.7 L 954.2 353.2 L 956.4 353.7 L 958.5 354.4 L 960.7 355.5 L 962.9 357.2 L 965.0 357.4 L 967.2 357.9 L 969.3 357.8 L 971.5 359.1 L 973.7 360.3 L 975.8 360.7 L 978.0 361.5 L 980.1 362.6 L 982.3 362.7 L 984.4 363.2 L 986.6 363.6 L 988.8 364.0 L 990.9 364.0 L 993.1 364.7 L 995.2 364.8 L 997.4 366.2 L 999.6 368.0 L 1001.7 366.9 L 1003.9 364.1 L 1006.0 367.5 L 1008.2 368.4 L 1010.4 369.2 L 1012.5 371.5 L 1014.7 373.1 L 1016.8 373.2 L 1019.0 375.2 L 1021.1 374.6 L 1023.3 375.0 L 1025.5 375.3 L 1027.6 376.0 L 1029.8 376.7 L 1031.9 379.4 L 1034.1 380.9 L 1036.3 381.0 L 1038.4 378.9 L 1040.6 380.2 L 1042.7 381.7 L 1044.9 381.7 L 1047.0 385.4 L 1049.2 385.9 L 1051.4 386.8 L 1053.5 387.8 L 1055.7 386.4 L 1057.8 387.0 L 1060.0 387.5" fill="none" stroke="#dc2626" stroke-width="2.4" stroke-dasharray="8 5"/>
<circle cx="88" cy="586" r="5" fill="#2563eb"/><text x="100" y="590" font-family="Arial, sans-serif" font-size="13" fill="#374151">history</text>
<circle cx="178" cy="586" r="5" fill="#dc2626"/><text x="190" y="590" font-family="Arial, sans-serif" font-size="13" fill="#374151">forecast</text>
<rect x="265" y="581" width="22" height="10" rx="2" fill="#dc2626" fill-opacity="0.18"/><text x="296" y="590" font-family="Arial, sans-serif" font-size="13" fill="#374151">10-90% probability corridor</text>
</svg>
