<svg xmlns="http://www.w3.org/2000/svg" data-y-scale="log" width="1100" height="620" viewBox="0 0 1100 620">
<rect width="100%" height="100%" fill="#ffffff"/>
<text x="80" y="26" font-family="Arial, sans-serif" font-size="20" font-weight="700" fill="#111827">BTCUSDT Chronos-2 Forecast</text>
<text x="80" y="50" font-family="Arial, sans-serif" font-size="13" fill="#4b5563">Last history close: 81,745.65 | Last forecast: 68,275.08 | Y scale: log scale</text>
<line x1="80" y1="505.0" x2="1060" y2="505.0" stroke="#e5e7eb" stroke-width="1"/>
<text x="70" y="509.0" text-anchor="end" font-family="Arial, sans-serif" font-size="12" fill="#6b7280">45,620</text>
<line x1="80" y1="396.8" x2="1060" y2="396.8" stroke="#e5e7eb" stroke-width="1"/>
<text x="70" y="400.8" text-anchor="end" font-family="Arial, sans-serif" font-size="12" fill="#6b7280">58,654</text>
<line x1="80" y1="288.5" x2="1060" y2="288.5" stroke="#e5e7eb" stroke-width="1"/>
<text x="70" y="292.5" text-anchor="end" font-family="Arial, sans-serif" font-size="12" fill="#6b7280">75,412</text>
<line x1="80" y1="180.2" x2="1060" y2="180.2" stroke="#e5e7eb" stroke-width="1"/>
<text x="70" y="184.2" text-anchor="end" font-family="Arial, sans-serif" font-size="12" fill="#6b7280">96,957</text>
<line x1="80" y1="72.0" x2="1060" y2="72.0" stroke="#e5e7eb" stroke-width="1"/>
<text x="70" y="76.0" text-anchor="end" font-family="Arial, sans-serif" font-size="12" fill="#6b7280">124,659</text>
<line class="x-axis-grid" x1="80.0" y1="72" x2="80.0" y2="505" stroke="#f1f5f9" stroke-width="1"/>
<line class="x-axis-grid" x1="276.0" y1="72" x2="276.0" y2="505" stroke="#f1f5f9" stroke-width="1"/>
<line class="x-axis-grid" x1="472.0" y1="72" x2="472.0" y2="505" stroke="#f1f5f9" stroke-width="1"/>
<line class="x-axis-grid" x1="668.0" y1="72" x2="668.0" y2="505" stroke="#f1f5f9" stroke-width="1"/>
<line class="x-axis-grid" x1="864.0" y1="72" x2="864.0" y2="505" stroke="#f1f5f9" stroke-width="1"/>
<line class="x-axis-grid" x1="1060.0" y1="72" x2="1060.0" y2="505" stroke="#f1f5f9" stroke-width="1"/>
<line x1="80" y1="72" x2="80" y2="505" stroke="#9ca3af" stroke-width="1"/>
<line x1="80" y1="505" x2="1060" y2="505" stroke="#9ca3af" stroke-width="1"/>
<text class="x-axis-label" x="80.0" y="530" text-anchor="middle" font-family="Arial, sans-serif" font-size="11" fill="#6b7280">2025-05-12</text>
<text class="x-axis-label" x="276.0" y="530" text-anchor="middle" font-family="Arial, sans-serif" font-size="11" fill="#6b7280">2025-08-10</text>
<text class="x-axis-label" x="472.0" y="530" text-anchor="middle" font-family="Arial, sans-serif" font-size="11" fill="#6b7280">2025-11-09</text>
<text class="x-axis-label" x="668.0" y="530" text-anchor="middle" font-family="Arial, sans-serif" font-size="11" fill="#6b7280">2026-02-08</text>
<text class="x-axis-label" x="864.0" y="530" text-anchor="middle" font-family="Arial, sans-serif" font-size="11" fill="#6b7280">2026-05-10</text>
<text class="x-axis-label" x="1060.0" y="530" text-anchor="middle" font-family="Arial, sans-serif" font-size="11" fill="#6b7280">2026-08-09</text>
<line id="forecast-start-line" x1="867.9" y1="72" x2="867.9" y2="505" stroke="#111827" stroke-width="1.3" stroke-dasharray="5 6" opacity="0.42"/>
<text x="875.9" y="87" font-family="Arial, sans-serif" font-size="11" fill="#374151">forecast start</text>
<path id="probability-corridor" d="M 867.9 239.5 L 870.0 239.3 L 872.2 237.4 L 874.4 233.3 L 876.5 231.1 L 878.7 228.1 L 880.8 226.1 L 883.0 223.2 L 885.2 222.1 L 887.3 220.1 L 889.5 218.7 L 891.6 218.2 L 893.8 217.4 L 895.9 217.2 L 898.1 213.6 L 900.3 214.8 L 902.4 206.2 L 904.6 207.6 L 906.7 209.2 L 908.9 206.3 L 911.1 207.1 L 913.2 204.6 L 915.4 204.7 L 917.5 203.8 L 919.7 203.5 L 921.9 200.9 L 924.0 198.4 L 926.2 196.6 L 928.3 196.0 L 930.5 198.0 L 932.6 199.0 L 934.8 197.3 L 937.0 197.7 L 939.1 198.2 L 941.3 201.7 L 943.4 199.7 L 945.6 199.7 L 947.8 196.7 L 949.9 197.0 L 952.1 196.4 L 954.2 196.5 L 956.4 193.4 L 958.5 190.1 L 960.7 188.2 L 962.9 187.3 L 965.0 189.9 L 967.2 190.5 L 969.3 188.5 L 971.5 190.2 L 973.7 191.0 L 975.8 194.0 L 978.0 190.9 L 980.1 191.9 L 982.3 189.3 L 984.4 189.3 L 986.6 188.6 L 988.8 187.9 L 990.9 185.1 L 993.1 181.8 L 995.2 179.0 L 997.4 178.8 L 999.6 180.7 L 1001.7 182.6 L 1003.9 177.8 L 1006.0 155.8 L 1008.2 153.8 L 1010.4 156.0 L 1012.5 154.9 L 1014.7 153.2 L 1016.8 151.7 L 1019.0 151.6 L 1021.1 153.0 L 1023.3 149.8 L 1025.5 146.4 L 1027.6 142.7 L 1029.8 140.3 L 1031.9 137.2 L 1034.1 140.3 L 1036.3 143.0 L 1038.4 137.7 L 1040.6 150.2 L 1042.7 148.5 L 1044.9 152.0 L 1047.0 151.4 L 1049.2 148.5 L 1051.4 146.9 L 1053.5 146.5 L 1055.7 149.4 L 1057.8 145.5 L 1060.0 141.6 L 1060.0 501.1 L 1057.8 502.3 L 1055.7 505.0 L 1053.5 503.2 L 1051.4 500.7 L 1049.2 500.6 L 1047.0 501.3 L 1044.9 502.3 L 1042.7 500.6 L 1040.6 496.3 L 1038.4 470.9 L 1036.3 468.3 L 1034.1 463.2 L 1031.9 465.7 L 1029.8 467.2 L 1027.6 466.0 L 1025.5 457.9 L 1023.3 461.8 L 1021.1 463.1 L 1019.0 460.2 L 1016.8 454.1 L 1014.7 457.0 L 1012.5 453.2 L 1010.4 451.9 L 1008.2 451.0 L 1006.0 450.9 L 1003.9 456.9 L 1001.7 454.4 L 999.6 448.6 L 997.4 451.0 L 995.2 450.9 L 993.1 447.9 L 990.9 442.2 L 988.8 446.1 L 986.6 447.4 L 984.4 444.0 L 982.3 439.9 L 980.1 441.2 L 978.0 438.1 L 975.8 437.7 L 973.7 436.8 L 971.5 436.0 L 969.3 446.6 L 967.2 444.7 L 965.0 440.1 L 962.9 445.0 L 960.7 442.1 L 958.5 436.8 L 956.4 431.5 L 954.2 432.5 L 952.1 432.9 L 949.9 429.7 L 947.8 425.2 L 945.6 425.5 L 943.4 422.4 L 941.3 422.7 L 939.1 419.5 L 937.0 418.1 L 934.8 423.1 L 932.6 420.1 L 930.5 415.6 L 928.3 421.6 L 926.2 415.6 L 924.0 408.2 L 921.9 401.9 L 919.7 403.0 L 917.5 402.4 L 915.4 398.1 L 913.2 393.7 L 911.1 393.7 L 908.9 389.5 L 906.7 389.0 L 904.6 385.5 L 902.4 383.2 L 900.3 401.2 L 898.1 392.5 L 895.9 381.8 L 893.8 370.1 L 891.6 348.5 L 889.5 328.0 L 887.3 310.5 L 885.2 302.3 L 883.0 293.7 L 880.8 284.9 L 878.7 284.7 L 876.5 279.2 L 874.4 274.5 L 872.2 272.3 L 870.0 269.0 L 867.9 263.4 Z" fill="#dc2626" fill-opacity="0.13" stroke="none"/>
<path d="M 80.0 155.1 L 82.2 149.6 L 84.3 152.1 L 86.5 151.0 L 88.6 152.3 L 90.8 153.7 L 93.0 140.0 L 95.1 143.6 L 97.3 138.4 L 99.4 127.3 L 101.6 119.3 L 103.7 136.5 L 105.9 134.7 L 108.1 129.8 L 110.2 128.1 L 112.4 130.1 L 114.5 134.7 L 116.7 143.5 L 118.9 150.1 L 121.0 147.6 L 123.2 143.3 L 125.3 142.4 L 127.5 144.4 L 129.6 147.2 L 131.8 160.5 L 134.0 148.9 L 136.1 143.7 L 138.3 142.9 L 140.4 124.9 L 142.6 124.8 L 144.8 131.2 L 146.9 143.2 L 149.1 141.6 L 151.2 144.2 L 153.4 143.5 L 155.6 138.6 L 157.7 147.8 L 159.9 146.4 L 162.0 147.3 L 164.2 153.0 L 166.3 157.9 L 168.5 162.8 L 170.7 144.6 L 172.8 141.5 L 175.0 136.4 L 177.1 138.0 L 179.3 137.6 L 181.5 136.6 L 183.6 132.4 L 185.8 137.2 L 187.9 143.1 L 190.1 130.4 L 192.2 127.5 L 194.4 133.9 L 196.6 133.0 L 198.7 129.0 L 200.9 132.7 L 203.0 130.1 L 205.2 121.1 L 207.4 103.0 L 209.5 97.4 L 211.7 97.8 L 213.8 91.7 L 216.0 89.0 L 218.1 96.5 L 220.3 93.4 L 222.5 91.4 L 224.6 95.9 L 226.8 96.2 L 228.9 98.3 L 231.1 97.9 L 233.3 88.6 L 235.4 92.9 L 237.6 94.4 L 239.7 97.1 L 241.9 95.9 L 244.1 90.5 L 246.2 95.4 L 248.4 95.8 L 250.5 96.2 L 252.7 103.9 L 254.8 113.2 L 257.0 116.0 L 259.2 109.7 L 261.3 106.5 L 263.5 110.0 L 265.6 106.8 L 267.8 97.6 L 270.0 100.5 L 272.1 101.3 L 274.3 90.9 L 276.4 93.1 L 278.6 87.9 L 280.7 76.7 L 282.9 94.6 L 285.1 98.1 L 287.2 97.9 L 289.4 97.8 L 291.5 102.2 L 293.7 114.8 L 295.9 109.5 L 298.0 116.2 L 300.2 99.5 L 302.3 105.1 L 304.5 112.4 L 306.7 125.4 L 308.8 119.0 L 311.0 121.0 L 313.1 115.9 L 315.3 132.3 L 317.4 130.5 L 319.6 132.8 L 321.8 128.9 L 323.9 121.1 L 326.1 119.3 L 328.2 123.0 L 330.4 123.3 L 332.6 125.2 L 334.7 121.5 L 336.9 117.9 L 339.0 119.9 L 341.2 110.7 L 343.3 104.9 L 345.5 102.9 L 347.7 103.3 L 349.8 105.7 L 352.0 105.4 L 354.1 100.1 L 356.3 101.3 L 358.5 99.0 L 360.6 104.4 L 362.8 104.2 L 364.9 105.9 L 367.1 115.6 L 369.3 118.1 L 371.4 113.1 L 373.6 129.8 L 375.7 127.3 L 377.9 127.3 L 380.0 117.5 L 382.2 109.3 L 384.4 110.3 L 386.5 93.5 L 388.7 86.5 L 390.8 80.5 L 393.0 79.9 L 395.2 76.1 L 397.3 72.0 L 399.5 83.6 L 401.6 76.7 L 403.8 82.5 L 405.9 115.2 L 408.1 123.4 L 410.3 106.9 L 412.4 106.1 L 414.6 114.2 L 416.7 122.9 L 418.9 133.0 L 421.1 140.1 L 423.2 137.1 L 425.4 131.2 L 427.5 123.8 L 429.7 132.6 L 431.9 135.5 L 434.0 125.6 L 436.2 122.0 L 438.3 119.5 L 440.5 108.4 L 442.6 110.1 L 444.8 114.7 L 447.0 125.8 L 449.1 132.5 L 451.3 127.4 L 453.4 125.5 L 455.6 123.8 L 457.8 139.5 L 459.9 160.5 L 462.1 150.5 L 464.2 161.2 L 466.4 152.8 L 468.5 157.1 L 470.7 147.1 L 472.9 141.8 L 475.0 154.0 L 477.2 159.9 L 479.3 168.3 L 481.5 190.9 L 483.7 186.3 L 485.8 192.4 L 488.0 201.9 L 490.1 198.4 L 492.3 204.9 L 494.4 228.7 L 496.6 236.3 L 498.8 238.3 L 500.9 227.8 L 503.1 220.5 L 505.2 225.1 L 507.4 210.0 L 509.6 206.0 L 511.7 208.1 L 513.9 208.5 L 516.0 210.6 L 518.2 230.5 L 520.4 206.3 L 522.5 196.2 L 524.7 202.5 L 526.8 215.5 L 529.0 216.0 L 531.1 210.4 L 533.3 209.3 L 535.5 199.7 L 537.6 202.8 L 539.8 200.5 L 541.9 211.0 L 544.1 211.2 L 546.3 221.2 L 548.4 229.7 L 550.6 222.7 L 552.7 230.7 L 554.9 234.3 L 557.0 221.3 L 559.2 220.2 L 561.4 218.8 L 563.5 219.0 L 565.7 224.5 L 567.8 223.6 L 570.0 225.8 L 572.2 225.1 L 574.3 222.6 L 576.5 222.2 L 578.6 225.8 L 580.8 219.6 L 583.0 223.7 L 585.1 217.9 L 587.3 212.3 L 589.4 209.3 L 591.6 205.1 L 593.7 194.2 L 595.9 194.7 L 598.1 205.8 L 600.2 207.1 L 602.4 209.3 L 604.5 209.9 L 606.7 207.5 L 608.9 206.2 L 611.0 187.2 L 613.2 180.3 L 615.3 186.3 L 617.5 186.5 L 619.6 188.4 L 621.8 195.1 L 624.0 199.9 L 626.1 219.9 L 628.3 214.9 L 630.4 214.4 L 632.6 214.2 L 634.8 216.0 L 636.9 228.6 L 639.1 220.3 L 641.2 215.9 L 643.4 215.7 L 645.6 238.7 L 647.7 240.7 L 649.9 269.9 L 652.0 279.7 L 654.2 269.9 L 656.3 286.5 L 658.5 301.5 L 660.7 366.6 L 662.8 317.0 L 665.0 325.0 L 667.1 318.5 L 669.3 319.7 L 671.5 327.8 L 673.6 338.9 L 675.8 344.1 L 677.9 327.7 L 680.1 321.7 L 682.2 327.8 L 684.4 327.4 L 686.6 336.2 L 688.7 342.9 L 690.9 339.4 L 693.0 332.9 L 695.2 333.2 L 697.4 335.3 L 699.5 354.8 L 701.7 358.8 L 703.8 333.1 L 706.0 336.3 L 708.1 346.8 L 710.3 339.6 L 712.5 347.4 L 714.6 327.8 L 716.8 330.9 L 718.9 304.5 L 721.1 315.1 L 723.3 332.3 L 725.4 337.8 L 727.6 346.1 L 729.7 330.3 L 731.9 320.9 L 734.1 319.4 L 736.2 317.3 L 738.4 314.9 L 740.5 313.2 L 742.7 303.6 L 744.8 291.5 L 747.0 297.2 L 749.2 313.0 L 751.3 321.0 L 753.5 317.4 L 755.6 327.3 L 757.8 334.0 L 760.0 315.0 L 762.1 317.2 L 764.3 312.4 L 766.4 327.9 L 768.6 343.3 L 770.7 343.5 L 772.9 345.9 L 775.1 340.7 L 777.2 331.3 L 779.4 332.3 L 781.5 340.1 L 783.7 339.7 L 785.9 337.5 L 788.0 326.6 L 790.2 327.7 L 792.3 308.9 L 794.5 314.0 L 796.7 309.7 L 798.8 302.7 L 801.0 302.2 L 803.1 316.0 L 805.3 294.2 L 807.4 295.9 L 809.6 292.0 L 811.8 290.0 L 813.9 279.1 L 816.1 286.9 L 818.2 297.8 L 820.4 286.1 L 822.6 283.3 L 824.7 273.0 L 826.9 272.5 L 829.0 277.1 L 831.2 276.0 L 833.3 270.3 L 835.5 277.4 L 837.7 283.2 L 839.8 286.4 L 842.0 283.2 L 844.1 272.7 L 846.3 270.2 L 848.5 270.8 L 850.6 263.8 L 852.8 258.2 L 854.9 255.3 L 857.1 263.0 L 859.3 262.0 L 861.4 259.4 L 863.6 251.3 L 865.7 253.8" fill="none" stroke="#2563eb" stroke-width="2.2"/>
<path d="M 867.9 252.0 L 870.0 252.3 L 872.2 253.0 L 874.4 254.5 L 876.5 254.4 L 878.7 254.7 L 880.8 254.9 L 883.0 255.5 L 885.2 256.0 L 887.3 259.3 L 889.5 262.1 L 891.6 268.7 L 893.8 274.8 L 895.9 275.5 L 898.1 278.1 L 900.3 282.1 L 902.4 283.7 L 904.6 283.8 L 906.7 284.4 L 908.9 286.1 L 911.1 285.5 L 913.2 286.6 L 915.4 286.6 L 917.5 287.4 L 919.7 286.7 L 921.9 286.2 L 924.0 286.8 L 926.2 287.4 L 928.3 289.2 L 930.5 289.9 L 932.6 290.1 L 934.8 289.3 L 937.0 294.8 L 939.1 294.2 L 941.3 295.4 L 943.4 297.5 L 945.6 297.3 L 947.8 297.3 L 949.9 298.7 L 952.1 298.7 L 954.2 298.5 L 956.4 297.8 L 958.5 298.2 L 960.7 298.4 L 962.9 299.4 L 965.0 300.2 L 967.2 299.8 L 969.3 298.0 L 971.5 304.3 L 973.7 303.8 L 975.8 304.0 L 978.0 306.6 L 980.1 307.4 L 982.3 307.1 L 984.4 308.4 L 986.6 308.1 L 988.8 307.7 L 990.9 306.8 L 993.1 307.3 L 995.2 307.1 L 997.4 307.7 L 999.6 309.6 L 1001.7 309.0 L 1003.9 306.3 L 1006.0 312.3 L 1008.2 312.3 L 1010.4 313.4 L 1012.5 316.7 L 1014.7 317.2 L 1016.8 317.6 L 1019.0 319.6 L 1021.1 318.4 L 1023.3 316.9 L 1025.5 316.8 L 1027.6 317.5 L 1029.8 318.0 L 1031.9 318.2 L 1034.1 319.6 L 1036.3 320.5 L 1038.4 318.0 L 1040.6 325.7 L 1042.7 327.1 L 1044.9 329.9 L 1047.0 332.6 L 1049.2 331.8 L 1051.4 333.7 L 1053.5 334.5 L 1055.7 334.0 L 1057.8 331.5 L 1060.0 331.3" fill="none" stroke="#dc2626" stroke-width="2.4" stroke-dasharray="8 5"/>
<circle cx="88" cy="586" r="5" fill="#2563eb"/><text x="100" y="590" font-family="Arial, sans-serif" font-size="13" fill="#374151">history</text>
<circle cx="178" cy="586" r="5" fill="#dc2626"/><text x="190" y="590" font-family="Arial, sans-serif" font-size="13" fill="#374151">forecast</text>
<rect x="265" y="581" width="22" height="10" rx="2" fill="#dc2626" fill-opacity="0.18"/><text x="296" y="590" font-family="Arial, sans-serif" font-size="13" fill="#374151">10-90% probability corridor</text>
</svg>
