<svg xmlns="http://www.w3.org/2000/svg" data-y-scale="linear" width="1100" height="620" viewBox="0 0 1100 620">
<rect width="100%" height="100%" fill="#ffffff"/>
<text x="80" y="26" font-family="Arial, sans-serif" font-size="20" font-weight="700" fill="#111827">BTCUSDT Chronos-2 Forecast</text>
<text x="80" y="50" font-family="Arial, sans-serif" font-size="13" fill="#4b5563">Last history close: 81,745.65 | Last forecast: 72,853.20</text>
<line x1="80" y1="505.0" x2="1060" y2="505.0" stroke="#e5e7eb" stroke-width="1"/>
<text x="70" y="509.0" text-anchor="end" font-family="Arial, sans-serif" font-size="12" fill="#6b7280">44,026</text>
<line x1="80" y1="396.8" x2="1060" y2="396.8" stroke="#e5e7eb" stroke-width="1"/>
<text x="70" y="400.8" text-anchor="end" font-family="Arial, sans-serif" font-size="12" fill="#6b7280">66,236</text>
<line x1="80" y1="288.5" x2="1060" y2="288.5" stroke="#e5e7eb" stroke-width="1"/>
<text x="70" y="292.5" text-anchor="end" font-family="Arial, sans-serif" font-size="12" fill="#6b7280">88,445</text>
<line x1="80" y1="180.2" x2="1060" y2="180.2" stroke="#e5e7eb" stroke-width="1"/>
<text x="70" y="184.2" text-anchor="end" font-family="Arial, sans-serif" font-size="12" fill="#6b7280">110,655</text>
<line x1="80" y1="72.0" x2="1060" y2="72.0" stroke="#e5e7eb" stroke-width="1"/>
<text x="70" y="76.0" text-anchor="end" font-family="Arial, sans-serif" font-size="12" fill="#6b7280">132,865</text>
<line class="x-axis-grid" x1="80.0" y1="72" x2="80.0" y2="505" stroke="#f1f5f9" stroke-width="1"/>
<line class="x-axis-grid" x1="276.0" y1="72" x2="276.0" y2="505" stroke="#f1f5f9" stroke-width="1"/>
<line class="x-axis-grid" x1="472.0" y1="72" x2="472.0" y2="505" stroke="#f1f5f9" stroke-width="1"/>
<line class="x-axis-grid" x1="668.0" y1="72" x2="668.0" y2="505" stroke="#f1f5f9" stroke-width="1"/>
<line class="x-axis-grid" x1="864.0" y1="72" x2="864.0" y2="505" stroke="#f1f5f9" stroke-width="1"/>
<line class="x-axis-grid" x1="1060.0" y1="72" x2="1060.0" y2="505" stroke="#f1f5f9" stroke-width="1"/>
<line x1="80" y1="72" x2="80" y2="505" stroke="#9ca3af" stroke-width="1"/>
<line x1="80" y1="505" x2="1060" y2="505" stroke="#9ca3af" stroke-width="1"/>
<text class="x-axis-label" x="80.0" y="530" text-anchor="middle" font-family="Arial, sans-serif" font-size="11" fill="#6b7280">2025-05-12</text>
<text class="x-axis-label" x="276.0" y="530" text-anchor="middle" font-family="Arial, sans-serif" font-size="11" fill="#6b7280">2025-08-10</text>
<text class="x-axis-label" x="472.0" y="530" text-anchor="middle" font-family="Arial, sans-serif" font-size="11" fill="#6b7280">2025-11-09</text>
<text class="x-axis-label" x="668.0" y="530" text-anchor="middle" font-family="Arial, sans-serif" font-size="11" fill="#6b7280">2026-02-08</text>
<text class="x-axis-label" x="864.0" y="530" text-anchor="middle" font-family="Arial, sans-serif" font-size="11" fill="#6b7280">2026-05-10</text>
<text class="x-axis-label" x="1060.0" y="530" text-anchor="middle" font-family="Arial, sans-serif" font-size="11" fill="#6b7280">2026-08-09</text>
<line id="forecast-start-line" x1="867.9" y1="72" x2="867.9" y2="505" stroke="#111827" stroke-width="1.3" stroke-dasharray="5 6" opacity="0.42"/>
<text x="875.9" y="87" font-family="Arial, sans-serif" font-size="11" fill="#374151">forecast start</text>
<path id="probability-corridor" d="M 867.9 302.8 L 870.0 303.0 L 872.2 301.2 L 874.4 297.6 L 876.5 295.4 L 878.7 292.4 L 880.8 289.8 L 883.0 286.4 L 885.2 285.2 L 887.3 284.2 L 889.5 284.0 L 891.6 286.8 L 893.8 284.8 L 895.9 285.2 L 898.1 279.3 L 900.3 277.9 L 902.4 266.2 L 904.6 269.2 L 906.7 270.6 L 908.9 268.4 L 911.1 268.3 L 913.2 265.1 L 915.4 264.0 L 917.5 263.0 L 919.7 263.3 L 921.9 258.9 L 924.0 254.9 L 926.2 252.3 L 928.3 251.2 L 930.5 253.7 L 932.6 255.3 L 934.8 252.5 L 937.0 246.2 L 939.1 249.0 L 941.3 250.4 L 943.4 248.7 L 945.6 248.7 L 947.8 243.9 L 949.9 241.5 L 952.1 240.7 L 954.2 238.6 L 956.4 233.5 L 958.5 228.4 L 960.7 226.6 L 962.9 223.8 L 965.0 225.8 L 967.2 224.1 L 969.3 217.3 L 971.5 221.6 L 973.7 223.2 L 975.8 224.5 L 978.0 221.2 L 980.1 220.3 L 982.3 216.1 L 984.4 214.4 L 986.6 214.5 L 988.8 208.7 L 990.9 205.1 L 993.1 199.0 L 995.2 196.8 L 997.4 192.4 L 999.6 195.0 L 1001.7 191.2 L 1003.9 183.3 L 1006.0 138.3 L 1008.2 135.2 L 1010.4 136.6 L 1012.5 133.6 L 1014.7 127.8 L 1016.8 125.0 L 1019.0 125.1 L 1021.1 125.4 L 1023.3 118.3 L 1025.5 113.0 L 1027.6 108.8 L 1029.8 110.7 L 1031.9 106.9 L 1034.1 113.2 L 1036.3 104.3 L 1038.4 97.9 L 1040.6 99.4 L 1042.7 96.7 L 1044.9 100.4 L 1047.0 99.5 L 1049.2 90.1 L 1051.4 84.5 L 1053.5 83.5 L 1055.7 86.0 L 1057.8 78.3 L 1060.0 72.0 L 1060.0 504.5 L 1057.8 503.6 L 1055.7 505.0 L 1053.5 503.0 L 1051.4 502.5 L 1049.2 505.0 L 1047.0 504.6 L 1044.9 504.9 L 1042.7 504.0 L 1040.6 502.3 L 1038.4 482.2 L 1036.3 479.1 L 1034.1 477.0 L 1031.9 479.4 L 1029.8 481.8 L 1027.6 482.5 L 1025.5 478.0 L 1023.3 478.5 L 1021.1 478.9 L 1019.0 478.0 L 1016.8 476.6 L 1014.7 477.0 L 1012.5 476.2 L 1010.4 476.3 L 1008.2 475.5 L 1006.0 476.5 L 1003.9 472.1 L 1001.7 469.8 L 999.6 467.7 L 997.4 469.4 L 995.2 471.1 L 993.1 470.4 L 990.9 466.9 L 988.8 468.4 L 986.6 468.8 L 984.4 468.0 L 982.3 466.3 L 980.1 467.2 L 978.0 466.0 L 975.8 466.9 L 973.7 466.0 L 971.5 467.6 L 969.3 473.3 L 967.2 471.5 L 965.0 469.4 L 962.9 472.6 L 960.7 473.2 L 958.5 471.2 L 956.4 468.7 L 954.2 468.0 L 952.1 468.7 L 949.9 467.4 L 947.8 466.1 L 945.6 464.6 L 943.4 464.1 L 941.3 464.8 L 939.1 463.2 L 937.0 466.4 L 934.8 468.6 L 932.6 467.0 L 930.5 464.3 L 928.3 467.4 L 926.2 464.7 L 924.0 461.7 L 921.9 459.9 L 919.7 460.1 L 917.5 460.4 L 915.4 459.7 L 913.2 459.2 L 911.1 457.1 L 908.9 456.1 L 906.7 457.3 L 904.6 456.2 L 902.4 459.3 L 900.3 472.9 L 898.1 462.5 L 895.9 448.0 L 893.8 440.8 L 891.6 424.0 L 889.5 396.1 L 887.3 375.8 L 885.2 365.2 L 883.0 354.1 L 880.8 346.3 L 878.7 345.3 L 876.5 341.4 L 874.4 338.0 L 872.2 335.2 L 870.0 334.4 L 867.9 329.6 Z" fill="#dc2626" fill-opacity="0.13" stroke="none"/>
<path d="M 80.0 218.6 L 82.2 212.2 L 84.3 215.1 L 86.5 213.8 L 88.6 215.3 L 90.8 216.9 L 93.0 200.7 L 95.1 205.0 L 97.3 198.8 L 99.4 185.2 L 101.6 175.2 L 103.7 196.5 L 105.9 194.4 L 108.1 188.3 L 110.2 186.2 L 112.4 188.6 L 114.5 194.3 L 116.7 204.9 L 118.9 212.8 L 121.0 209.8 L 123.2 204.7 L 125.3 203.6 L 127.5 206.0 L 129.6 209.3 L 131.8 224.8 L 134.0 211.3 L 136.1 205.1 L 138.3 204.2 L 140.4 182.2 L 142.6 182.1 L 144.8 190.0 L 146.9 204.5 L 149.1 202.6 L 151.2 205.8 L 153.4 204.9 L 155.6 199.1 L 157.7 210.0 L 159.9 208.4 L 162.0 209.5 L 164.2 216.1 L 166.3 221.8 L 168.5 227.5 L 170.7 206.2 L 172.8 202.5 L 175.0 196.4 L 177.1 198.3 L 179.3 197.8 L 181.5 196.6 L 183.6 191.5 L 185.8 197.4 L 187.9 204.5 L 190.1 189.0 L 192.2 185.5 L 194.4 193.3 L 196.6 192.2 L 198.7 187.3 L 200.9 191.9 L 203.0 188.7 L 205.2 177.4 L 207.4 154.1 L 209.5 146.8 L 211.7 147.3 L 213.8 139.2 L 216.0 135.5 L 218.1 145.6 L 220.3 141.4 L 222.5 138.7 L 224.6 144.8 L 226.8 145.2 L 228.9 148.0 L 231.1 147.5 L 233.3 134.9 L 235.4 140.8 L 237.6 142.8 L 239.7 146.3 L 241.9 144.8 L 244.1 137.6 L 246.2 144.1 L 248.4 144.7 L 250.5 145.2 L 252.7 155.3 L 254.8 167.4 L 257.0 171.0 L 259.2 162.9 L 261.3 158.8 L 263.5 163.3 L 265.6 159.1 L 267.8 147.0 L 270.0 150.9 L 272.1 151.9 L 274.3 138.1 L 276.4 141.1 L 278.6 134.0 L 280.7 118.6 L 282.9 143.0 L 285.1 147.7 L 287.2 147.5 L 289.4 147.4 L 291.5 153.1 L 293.7 169.4 L 295.9 162.6 L 298.0 171.3 L 300.2 149.6 L 302.3 156.9 L 304.5 166.4 L 306.7 182.9 L 308.8 174.8 L 311.0 177.3 L 313.1 170.9 L 315.3 191.4 L 317.4 189.2 L 319.6 192.0 L 321.8 187.2 L 323.9 177.4 L 326.1 175.1 L 328.2 179.9 L 330.4 180.2 L 332.6 182.5 L 334.7 177.9 L 336.9 173.4 L 339.0 175.9 L 341.2 164.1 L 343.3 156.7 L 345.5 154.1 L 347.7 154.6 L 349.8 157.8 L 352.0 157.4 L 354.1 150.4 L 356.3 152.0 L 358.5 149.0 L 360.6 156.0 L 362.8 155.7 L 364.9 157.9 L 367.1 170.5 L 369.3 173.7 L 371.4 167.3 L 373.6 188.3 L 375.7 185.2 L 377.9 185.2 L 380.0 172.9 L 382.2 162.4 L 384.4 163.7 L 386.5 141.6 L 388.7 132.1 L 390.8 123.8 L 393.0 123.0 L 395.2 117.7 L 397.3 112.0 L 399.5 128.2 L 401.6 118.6 L 403.8 126.6 L 405.9 169.9 L 408.1 180.3 L 410.3 159.3 L 412.4 158.3 L 414.6 168.7 L 416.7 179.7 L 418.9 192.2 L 421.1 200.8 L 423.2 197.2 L 425.4 190.1 L 427.5 180.8 L 429.7 191.7 L 431.9 195.3 L 434.0 183.1 L 436.2 178.5 L 438.3 175.4 L 440.5 161.2 L 442.6 163.4 L 444.8 169.3 L 447.0 183.3 L 449.1 191.6 L 451.3 185.4 L 453.4 183.0 L 455.6 180.8 L 457.8 200.1 L 459.9 224.9 L 462.1 213.2 L 464.2 225.6 L 466.4 215.9 L 468.5 220.9 L 470.7 209.2 L 472.9 202.9 L 475.0 217.3 L 477.2 224.1 L 479.3 233.7 L 481.5 258.5 L 483.7 253.6 L 485.8 260.2 L 488.0 270.1 L 490.1 266.5 L 492.3 273.3 L 494.4 297.3 L 496.6 304.7 L 498.8 306.6 L 500.9 296.4 L 503.1 289.2 L 505.2 293.7 L 507.4 278.6 L 509.6 274.4 L 511.7 276.6 L 513.9 277.0 L 516.0 279.2 L 518.2 299.0 L 520.4 274.7 L 522.5 264.2 L 524.7 270.8 L 526.8 284.2 L 529.0 284.6 L 531.1 279.0 L 533.3 277.8 L 535.5 267.9 L 537.6 271.1 L 539.8 268.7 L 541.9 279.6 L 544.1 279.8 L 546.3 289.8 L 548.4 298.3 L 550.6 291.3 L 552.7 299.2 L 554.9 302.8 L 557.0 290.0 L 559.2 288.9 L 561.4 287.5 L 563.5 287.6 L 565.7 293.2 L 567.8 292.3 L 570.0 294.4 L 572.2 293.7 L 574.3 291.3 L 576.5 290.9 L 578.6 294.4 L 580.8 288.3 L 583.0 292.4 L 585.1 286.6 L 587.3 280.9 L 589.4 277.9 L 591.6 273.5 L 593.7 262.1 L 595.9 262.7 L 598.1 274.3 L 600.2 275.6 L 602.4 277.8 L 604.5 278.5 L 606.7 276.0 L 608.9 274.6 L 611.0 254.5 L 613.2 247.0 L 615.3 253.6 L 617.5 253.9 L 619.6 255.8 L 621.8 263.0 L 624.0 268.1 L 626.1 288.6 L 628.3 283.6 L 630.4 283.1 L 632.6 282.9 L 634.8 284.7 L 636.9 297.2 L 639.1 289.0 L 641.2 284.6 L 643.4 284.3 L 645.6 307.0 L 647.7 308.9 L 649.9 335.8 L 652.0 344.4 L 654.2 335.8 L 656.3 350.3 L 658.5 363.0 L 660.7 413.0 L 662.8 375.6 L 665.0 381.9 L 667.1 376.8 L 669.3 377.7 L 671.5 384.1 L 673.6 392.6 L 675.8 396.6 L 677.9 384.0 L 680.1 379.3 L 682.2 384.1 L 684.4 383.8 L 686.6 390.6 L 688.7 395.7 L 690.9 393.0 L 693.0 388.1 L 695.2 388.3 L 697.4 389.9 L 699.5 404.4 L 701.7 407.4 L 703.8 388.2 L 706.0 390.7 L 708.1 398.5 L 710.3 393.2 L 712.5 399.0 L 714.6 384.1 L 716.8 386.5 L 718.9 365.4 L 721.1 374.1 L 723.3 387.6 L 725.4 391.7 L 727.6 398.0 L 729.7 386.0 L 731.9 378.7 L 734.1 377.5 L 736.2 375.8 L 738.4 373.9 L 740.5 372.5 L 742.7 364.7 L 744.8 354.6 L 747.0 359.3 L 749.2 372.3 L 751.3 378.7 L 753.5 375.9 L 755.6 383.7 L 757.8 388.8 L 760.0 374.0 L 762.1 375.7 L 764.3 371.9 L 766.4 384.2 L 768.6 395.9 L 770.7 396.1 L 772.9 397.8 L 775.1 394.0 L 777.2 386.8 L 779.4 387.6 L 781.5 393.5 L 783.7 393.2 L 785.9 391.6 L 788.0 383.1 L 790.2 384.0 L 792.3 369.0 L 794.5 373.2 L 796.7 369.7 L 798.8 364.0 L 801.0 363.6 L 803.1 374.8 L 805.3 356.9 L 807.4 358.3 L 809.6 355.0 L 811.8 353.3 L 813.9 343.9 L 816.1 350.7 L 818.2 359.9 L 820.4 349.9 L 822.6 347.5 L 824.7 338.5 L 826.9 338.2 L 829.0 342.2 L 831.2 341.2 L 833.3 336.2 L 835.5 342.5 L 837.7 347.5 L 839.8 350.2 L 842.0 347.5 L 844.1 338.3 L 846.3 336.1 L 848.5 336.6 L 850.6 330.3 L 852.8 325.2 L 854.9 322.6 L 857.1 329.6 L 859.3 328.7 L 861.4 326.4 L 863.6 318.9 L 865.7 321.2" fill="none" stroke="#2563eb" stroke-width="2.2"/>
<path d="M 867.9 317.8 L 870.0 317.6 L 872.2 317.5 L 874.4 319.3 L 876.5 318.9 L 878.7 318.7 L 880.8 318.9 L 883.0 317.8 L 885.2 320.3 L 887.3 326.5 L 889.5 333.4 L 891.6 349.0 L 893.8 356.8 L 895.9 357.2 L 898.1 364.8 L 900.3 370.1 L 902.4 366.5 L 904.6 364.7 L 906.7 364.3 L 908.9 365.7 L 911.1 364.7 L 913.2 365.4 L 915.4 365.3 L 917.5 364.0 L 919.7 363.8 L 921.9 362.6 L 924.0 362.8 L 926.2 362.3 L 928.3 363.9 L 930.5 364.0 L 932.6 363.3 L 934.8 363.1 L 937.0 369.3 L 939.1 367.7 L 941.3 368.3 L 943.4 370.3 L 945.6 369.6 L 947.8 370.2 L 949.9 370.8 L 952.1 369.1 L 954.2 368.7 L 956.4 367.6 L 958.5 367.5 L 960.7 366.5 L 962.9 366.0 L 965.0 365.9 L 967.2 364.4 L 969.3 363.3 L 971.5 368.8 L 973.7 367.7 L 975.8 368.8 L 978.0 370.4 L 980.1 370.7 L 982.3 370.9 L 984.4 371.8 L 986.6 369.8 L 988.8 369.2 L 990.9 368.3 L 993.1 368.1 L 995.2 367.6 L 997.4 367.2 L 999.6 367.7 L 1001.7 367.2 L 1003.9 365.2 L 1006.0 364.4 L 1008.2 361.7 L 1010.4 364.1 L 1012.5 365.3 L 1014.7 364.7 L 1016.8 365.8 L 1019.0 366.8 L 1021.1 364.2 L 1023.3 362.5 L 1025.5 361.8 L 1027.6 362.1 L 1029.8 362.1 L 1031.9 361.9 L 1034.1 362.7 L 1036.3 362.3 L 1038.4 361.2 L 1040.6 366.3 L 1042.7 365.3 L 1044.9 368.2 L 1047.0 369.2 L 1049.2 368.3 L 1051.4 369.4 L 1053.5 369.5 L 1055.7 368.3 L 1057.8 365.3 L 1060.0 364.5" fill="none" stroke="#dc2626" stroke-width="2.4" stroke-dasharray="8 5"/>
<circle cx="88" cy="586" r="5" fill="#2563eb"/><text x="100" y="590" font-family="Arial, sans-serif" font-size="13" fill="#374151">history</text>
<circle cx="178" cy="586" r="5" fill="#dc2626"/><text x="190" y="590" font-family="Arial, sans-serif" font-size="13" fill="#374151">forecast</text>
<rect x="265" y="581" width="22" height="10" rx="2" fill="#dc2626" fill-opacity="0.18"/><text x="296" y="590" font-family="Arial, sans-serif" font-size="13" fill="#374151">10-90% probability corridor</text>
</svg>
