<svg xmlns="http://www.w3.org/2000/svg" data-y-scale="log" width="1100" height="620" viewBox="0 0 1100 620">
<rect width="100%" height="100%" fill="#ffffff"/>
<text x="80" y="26" font-family="Arial, sans-serif" font-size="20" font-weight="700" fill="#111827">BTCUSDT Chronos-2 Forecast</text>
<text x="80" y="50" font-family="Arial, sans-serif" font-size="13" fill="#4b5563">Last history close: 81,745.65 | Last forecast: 72,853.20 | Y scale: log scale</text>
<line x1="80" y1="505.0" x2="1060" y2="505.0" stroke="#e5e7eb" stroke-width="1"/>
<text x="70" y="509.0" text-anchor="end" font-family="Arial, sans-serif" font-size="12" fill="#6b7280">44,026</text>
<line x1="80" y1="396.8" x2="1060" y2="396.8" stroke="#e5e7eb" stroke-width="1"/>
<text x="70" y="400.8" text-anchor="end" font-family="Arial, sans-serif" font-size="12" fill="#6b7280">58,028</text>
<line x1="80" y1="288.5" x2="1060" y2="288.5" stroke="#e5e7eb" stroke-width="1"/>
<text x="70" y="292.5" text-anchor="end" font-family="Arial, sans-serif" font-size="12" fill="#6b7280">76,482</text>
<line x1="80" y1="180.2" x2="1060" y2="180.2" stroke="#e5e7eb" stroke-width="1"/>
<text x="70" y="184.2" text-anchor="end" font-family="Arial, sans-serif" font-size="12" fill="#6b7280">100,806</text>
<line x1="80" y1="72.0" x2="1060" y2="72.0" stroke="#e5e7eb" stroke-width="1"/>
<text x="70" y="76.0" text-anchor="end" font-family="Arial, sans-serif" font-size="12" fill="#6b7280">132,865</text>
<line class="x-axis-grid" x1="80.0" y1="72" x2="80.0" y2="505" stroke="#f1f5f9" stroke-width="1"/>
<line class="x-axis-grid" x1="276.0" y1="72" x2="276.0" y2="505" stroke="#f1f5f9" stroke-width="1"/>
<line class="x-axis-grid" x1="472.0" y1="72" x2="472.0" y2="505" stroke="#f1f5f9" stroke-width="1"/>
<line class="x-axis-grid" x1="668.0" y1="72" x2="668.0" y2="505" stroke="#f1f5f9" stroke-width="1"/>
<line class="x-axis-grid" x1="864.0" y1="72" x2="864.0" y2="505" stroke="#f1f5f9" stroke-width="1"/>
<line class="x-axis-grid" x1="1060.0" y1="72" x2="1060.0" y2="505" stroke="#f1f5f9" stroke-width="1"/>
<line x1="80" y1="72" x2="80" y2="505" stroke="#9ca3af" stroke-width="1"/>
<line x1="80" y1="505" x2="1060" y2="505" stroke="#9ca3af" stroke-width="1"/>
<text class="x-axis-label" x="80.0" y="530" text-anchor="middle" font-family="Arial, sans-serif" font-size="11" fill="#6b7280">2025-05-12</text>
<text class="x-axis-label" x="276.0" y="530" text-anchor="middle" font-family="Arial, sans-serif" font-size="11" fill="#6b7280">2025-08-10</text>
<text class="x-axis-label" x="472.0" y="530" text-anchor="middle" font-family="Arial, sans-serif" font-size="11" fill="#6b7280">2025-11-09</text>
<text class="x-axis-label" x="668.0" y="530" text-anchor="middle" font-family="Arial, sans-serif" font-size="11" fill="#6b7280">2026-02-08</text>
<text class="x-axis-label" x="864.0" y="530" text-anchor="middle" font-family="Arial, sans-serif" font-size="11" fill="#6b7280">2026-05-10</text>
<text class="x-axis-label" x="1060.0" y="530" text-anchor="middle" font-family="Arial, sans-serif" font-size="11" fill="#6b7280">2026-08-09</text>
<line id="forecast-start-line" x1="867.9" y1="72" x2="867.9" y2="505" stroke="#111827" stroke-width="1.3" stroke-dasharray="5 6" opacity="0.42"/>
<text x="875.9" y="87" font-family="Arial, sans-serif" font-size="11" fill="#374151">forecast start</text>
<path id="probability-corridor" d="M 867.9 244.7 L 870.0 244.9 L 872.2 243.2 L 874.4 239.9 L 876.5 237.9 L 878.7 235.1 L 880.8 232.7 L 883.0 229.6 L 885.2 228.6 L 887.3 227.7 L 889.5 227.4 L 891.6 230.0 L 893.8 228.2 L 895.9 228.5 L 898.1 223.3 L 900.3 222.0 L 902.4 211.8 L 904.6 214.3 L 906.7 215.5 L 908.9 213.7 L 911.1 213.6 L 913.2 210.8 L 915.4 209.9 L 917.5 209.0 L 919.7 209.3 L 921.9 205.5 L 924.0 202.1 L 926.2 200.0 L 928.3 199.0 L 930.5 201.1 L 932.6 202.4 L 934.8 200.1 L 937.0 194.9 L 939.1 197.1 L 941.3 198.4 L 943.4 196.9 L 945.6 196.9 L 947.8 193.0 L 949.9 191.0 L 952.1 190.3 L 954.2 188.6 L 956.4 184.5 L 958.5 180.3 L 960.7 179.0 L 962.9 176.7 L 965.0 178.3 L 967.2 177.0 L 969.3 171.6 L 971.5 175.0 L 973.7 176.3 L 975.8 177.3 L 978.0 174.6 L 980.1 173.9 L 982.3 170.7 L 984.4 169.4 L 986.6 169.4 L 988.8 165.0 L 990.9 162.2 L 993.1 157.6 L 995.2 155.9 L 997.4 152.6 L 999.6 154.5 L 1001.7 151.8 L 1003.9 146.0 L 1006.0 114.4 L 1008.2 112.3 L 1010.4 113.2 L 1012.5 111.2 L 1014.7 107.3 L 1016.8 105.5 L 1019.0 105.5 L 1021.1 105.7 L 1023.3 101.1 L 1025.5 97.6 L 1027.6 95.0 L 1029.8 96.2 L 1031.9 93.7 L 1034.1 97.8 L 1036.3 92.0 L 1038.4 88.0 L 1040.6 89.0 L 1042.7 87.2 L 1044.9 89.6 L 1047.0 89.0 L 1049.2 83.1 L 1051.4 79.6 L 1053.5 79.0 L 1055.7 80.5 L 1057.8 75.8 L 1060.0 72.0 L 1060.0 504.0 L 1057.8 502.4 L 1055.7 505.0 L 1053.5 501.3 L 1051.4 500.5 L 1049.2 505.0 L 1047.0 504.2 L 1044.9 504.7 L 1042.7 503.1 L 1040.6 500.1 L 1038.4 465.4 L 1036.3 460.4 L 1034.1 456.9 L 1031.9 460.8 L 1029.8 464.8 L 1027.6 466.0 L 1025.5 458.6 L 1023.3 459.4 L 1021.1 459.9 L 1019.0 458.5 L 1016.8 456.3 L 1014.7 456.9 L 1012.5 455.7 L 1010.4 455.8 L 1008.2 454.4 L 1006.0 456.0 L 1003.9 449.1 L 1001.7 445.4 L 999.6 442.2 L 997.4 444.9 L 995.2 447.5 L 993.1 446.4 L 990.9 440.9 L 988.8 443.2 L 986.6 443.8 L 984.4 442.7 L 982.3 439.9 L 980.1 441.3 L 978.0 439.5 L 975.8 440.9 L 973.7 439.5 L 971.5 442.0 L 969.3 451.0 L 967.2 448.1 L 965.0 444.8 L 962.9 449.9 L 960.7 450.8 L 958.5 447.7 L 956.4 443.7 L 954.2 442.7 L 952.1 443.7 L 949.9 441.7 L 947.8 439.7 L 945.6 437.4 L 943.4 436.6 L 941.3 437.7 L 939.1 435.2 L 937.0 440.2 L 934.8 443.6 L 932.6 441.1 L 930.5 437.0 L 928.3 441.7 L 926.2 437.5 L 924.0 433.0 L 921.9 430.2 L 919.7 430.5 L 917.5 431.0 L 915.4 429.9 L 913.2 429.1 L 911.1 426.1 L 908.9 424.6 L 906.7 426.3 L 904.6 424.7 L 902.4 429.3 L 900.3 450.3 L 898.1 434.2 L 895.9 412.7 L 893.8 402.4 L 891.6 379.4 L 889.5 344.1 L 887.3 320.2 L 885.2 308.3 L 883.0 296.3 L 880.8 288.0 L 878.7 286.9 L 876.5 282.9 L 874.4 279.3 L 872.2 276.5 L 870.0 275.7 L 867.9 270.8 Z" fill="#dc2626" fill-opacity="0.13" stroke="none"/>
<path d="M 80.0 172.6 L 82.2 167.6 L 84.3 169.9 L 86.5 168.9 L 88.6 170.0 L 90.8 171.3 L 93.0 158.9 L 95.1 162.1 L 97.3 157.4 L 99.4 147.3 L 101.6 140.0 L 103.7 155.7 L 105.9 154.1 L 108.1 149.6 L 110.2 148.1 L 112.4 149.8 L 114.5 154.0 L 116.7 162.1 L 118.9 168.1 L 121.0 165.8 L 123.2 161.9 L 125.3 161.1 L 127.5 162.9 L 129.6 165.4 L 131.8 177.5 L 134.0 166.9 L 136.1 162.2 L 138.3 161.5 L 140.4 145.1 L 142.6 145.1 L 144.8 150.9 L 146.9 161.8 L 149.1 160.3 L 151.2 162.7 L 153.4 162.1 L 155.6 157.6 L 157.7 165.9 L 159.9 164.7 L 162.0 165.5 L 164.2 170.7 L 166.3 175.2 L 168.5 179.6 L 170.7 163.0 L 172.8 160.2 L 175.0 155.6 L 177.1 157.1 L 179.3 156.7 L 181.5 155.8 L 183.6 151.9 L 185.8 156.3 L 187.9 161.7 L 190.1 150.2 L 192.2 147.5 L 194.4 153.3 L 196.6 152.5 L 198.7 148.9 L 200.9 152.3 L 203.0 149.9 L 205.2 141.7 L 207.4 125.2 L 209.5 120.1 L 211.7 120.4 L 213.8 114.9 L 216.0 112.4 L 218.1 119.3 L 220.3 116.4 L 222.5 114.6 L 224.6 118.8 L 226.8 119.0 L 228.9 121.0 L 231.1 120.6 L 233.3 112.1 L 235.4 116.0 L 237.6 117.4 L 239.7 119.8 L 241.9 118.8 L 244.1 113.8 L 246.2 118.3 L 248.4 118.7 L 250.5 119.0 L 252.7 126.0 L 254.8 134.5 L 257.0 137.1 L 259.2 131.3 L 261.3 128.4 L 263.5 131.6 L 265.6 128.6 L 267.8 120.3 L 270.0 122.9 L 272.1 123.7 L 274.3 114.2 L 276.4 116.2 L 278.6 111.5 L 280.7 101.3 L 282.9 117.5 L 285.1 120.7 L 287.2 120.6 L 289.4 120.5 L 291.5 124.4 L 293.7 135.9 L 295.9 131.1 L 298.0 137.2 L 300.2 122.1 L 302.3 127.1 L 304.5 133.8 L 306.7 145.6 L 308.8 139.8 L 311.0 141.6 L 313.1 137.0 L 315.3 151.9 L 317.4 150.3 L 319.6 152.3 L 321.8 148.8 L 323.9 141.6 L 326.1 140.0 L 328.2 143.4 L 330.4 143.7 L 332.6 145.4 L 334.7 142.0 L 336.9 138.7 L 339.0 140.6 L 341.2 132.2 L 343.3 127.0 L 345.5 125.1 L 347.7 125.5 L 349.8 127.7 L 352.0 127.4 L 354.1 122.6 L 356.3 123.7 L 358.5 121.6 L 360.6 126.5 L 362.8 126.3 L 364.9 127.8 L 367.1 136.7 L 369.3 139.0 L 371.4 134.4 L 373.6 149.6 L 375.7 147.3 L 377.9 147.3 L 380.0 138.4 L 382.2 131.0 L 384.4 131.9 L 386.5 116.5 L 388.7 110.2 L 390.8 104.7 L 393.0 104.2 L 395.2 100.7 L 397.3 97.0 L 399.5 107.6 L 401.6 101.3 L 403.8 106.5 L 405.9 136.3 L 408.1 143.7 L 410.3 128.7 L 412.4 128.0 L 414.6 135.4 L 416.7 143.3 L 418.9 152.5 L 421.1 159.0 L 423.2 156.2 L 425.4 150.9 L 427.5 144.1 L 429.7 152.1 L 431.9 154.8 L 434.0 145.8 L 436.2 142.5 L 438.3 140.2 L 440.5 130.1 L 442.6 131.7 L 444.8 135.8 L 447.0 146.0 L 449.1 152.1 L 451.3 147.4 L 453.4 145.7 L 455.6 144.1 L 457.8 158.4 L 459.9 177.6 L 462.1 168.5 L 464.2 178.2 L 466.4 170.5 L 468.5 174.4 L 470.7 165.3 L 472.9 160.5 L 475.0 171.6 L 477.2 177.0 L 479.3 184.6 L 481.5 205.2 L 483.7 201.1 L 485.8 206.6 L 488.0 215.2 L 490.1 212.0 L 492.3 218.0 L 494.4 239.6 L 496.6 246.5 L 498.8 248.3 L 500.9 238.8 L 503.1 232.2 L 505.2 236.3 L 507.4 222.6 L 509.6 218.9 L 511.7 220.8 L 513.9 221.2 L 516.0 223.1 L 518.2 241.2 L 520.4 219.2 L 522.5 210.0 L 524.7 215.7 L 526.8 227.6 L 529.0 228.0 L 531.1 223.0 L 533.3 221.9 L 535.5 213.2 L 537.6 216.0 L 539.8 213.9 L 541.9 223.5 L 544.1 223.7 L 546.3 232.7 L 548.4 240.6 L 550.6 234.1 L 552.7 241.4 L 554.9 244.7 L 557.0 232.9 L 559.2 231.9 L 561.4 230.6 L 563.5 230.8 L 565.7 235.8 L 567.8 235.0 L 570.0 237.0 L 572.2 236.3 L 574.3 234.1 L 576.5 233.7 L 578.6 236.9 L 580.8 231.4 L 583.0 235.1 L 585.1 229.8 L 587.3 224.7 L 589.4 222.0 L 591.6 218.1 L 593.7 208.2 L 595.9 208.7 L 598.1 218.8 L 600.2 219.9 L 602.4 221.9 L 604.5 222.5 L 606.7 220.3 L 608.9 219.1 L 611.0 201.8 L 613.2 195.5 L 615.3 201.0 L 617.5 201.2 L 619.6 202.9 L 621.8 209.0 L 624.0 213.4 L 626.1 231.6 L 628.3 227.1 L 630.4 226.6 L 632.6 226.4 L 634.8 228.1 L 636.9 239.5 L 639.1 232.0 L 641.2 228.0 L 643.4 227.8 L 645.6 248.7 L 647.7 250.5 L 649.9 277.1 L 652.0 286.0 L 654.2 277.1 L 656.3 292.2 L 658.5 305.9 L 660.7 365.1 L 662.8 320.0 L 665.0 327.2 L 667.1 321.4 L 669.3 322.4 L 671.5 329.8 L 673.6 339.9 L 675.8 344.7 L 677.9 329.7 L 680.1 324.2 L 682.2 329.8 L 684.4 329.5 L 686.6 337.5 L 688.7 343.6 L 690.9 340.4 L 693.0 334.5 L 695.2 334.7 L 697.4 336.6 L 699.5 354.3 L 701.7 358.0 L 703.8 334.6 L 706.0 337.6 L 708.1 347.0 L 710.3 340.5 L 712.5 347.6 L 714.6 329.8 L 716.8 332.6 L 718.9 308.6 L 721.1 318.3 L 723.3 333.9 L 725.4 338.9 L 727.6 346.5 L 729.7 332.1 L 731.9 323.5 L 734.1 322.1 L 736.2 320.2 L 738.4 318.0 L 740.5 316.5 L 742.7 307.8 L 744.8 296.8 L 747.0 301.9 L 749.2 316.3 L 751.3 323.6 L 753.5 320.4 L 755.6 329.3 L 757.8 335.4 L 760.0 318.2 L 762.1 320.1 L 764.3 315.8 L 766.4 329.9 L 768.6 343.9 L 770.7 344.1 L 772.9 346.2 L 775.1 341.6 L 777.2 332.9 L 779.4 333.9 L 781.5 341.0 L 783.7 340.6 L 785.9 338.6 L 788.0 328.7 L 790.2 329.7 L 792.3 312.6 L 794.5 317.3 L 796.7 313.3 L 798.8 307.0 L 801.0 306.5 L 803.1 319.1 L 805.3 299.2 L 807.4 300.7 L 809.6 297.2 L 811.8 295.4 L 813.9 285.5 L 816.1 292.6 L 818.2 302.5 L 820.4 291.8 L 822.6 289.2 L 824.7 279.9 L 826.9 279.5 L 829.0 283.6 L 831.2 282.7 L 833.3 277.5 L 835.5 284.0 L 837.7 289.2 L 839.8 292.1 L 842.0 289.2 L 844.1 279.6 L 846.3 277.4 L 848.5 277.9 L 850.6 271.6 L 852.8 266.5 L 854.9 263.8 L 857.1 270.8 L 859.3 269.9 L 861.4 267.6 L 863.6 260.2 L 865.7 262.4" fill="none" stroke="#2563eb" stroke-width="2.2"/>
<path d="M 867.9 259.1 L 870.0 259.0 L 872.2 258.8 L 874.4 260.6 L 876.5 260.2 L 878.7 260.0 L 880.8 260.2 L 883.0 259.1 L 885.2 261.6 L 887.3 267.7 L 889.5 274.6 L 891.6 290.8 L 893.8 299.1 L 895.9 299.5 L 898.1 307.9 L 900.3 313.8 L 902.4 309.7 L 904.6 307.8 L 906.7 307.3 L 908.9 308.9 L 911.1 307.8 L 913.2 308.5 L 915.4 308.4 L 917.5 307.0 L 919.7 306.8 L 921.9 305.5 L 924.0 305.7 L 926.2 305.1 L 928.3 306.9 L 930.5 307.0 L 932.6 306.2 L 934.8 306.0 L 937.0 312.9 L 939.1 311.1 L 941.3 311.8 L 943.4 314.0 L 945.6 313.3 L 947.8 313.9 L 949.9 314.6 L 952.1 312.7 L 954.2 312.2 L 956.4 310.9 L 958.5 310.9 L 960.7 309.8 L 962.9 309.2 L 965.0 309.1 L 967.2 307.4 L 969.3 306.2 L 971.5 312.3 L 973.7 311.1 L 975.8 312.4 L 978.0 314.1 L 980.1 314.5 L 982.3 314.6 L 984.4 315.7 L 986.6 313.4 L 988.8 312.8 L 990.9 311.8 L 993.1 311.5 L 995.2 310.9 L 997.4 310.5 L 999.6 311.1 L 1001.7 310.6 L 1003.9 308.3 L 1006.0 307.5 L 1008.2 304.5 L 1010.4 307.1 L 1012.5 308.4 L 1014.7 307.8 L 1016.8 309.0 L 1019.0 310.2 L 1021.1 307.2 L 1023.3 305.4 L 1025.5 304.6 L 1027.6 304.9 L 1029.8 304.9 L 1031.9 304.7 L 1034.1 305.6 L 1036.3 305.2 L 1038.4 303.9 L 1040.6 309.5 L 1042.7 308.4 L 1044.9 311.7 L 1047.0 312.8 L 1049.2 311.8 L 1051.4 313.0 L 1053.5 313.1 L 1055.7 311.8 L 1057.8 308.4 L 1060.0 307.6" fill="none" stroke="#dc2626" stroke-width="2.4" stroke-dasharray="8 5"/>
<circle cx="88" cy="586" r="5" fill="#2563eb"/><text x="100" y="590" font-family="Arial, sans-serif" font-size="13" fill="#374151">history</text>
<circle cx="178" cy="586" r="5" fill="#dc2626"/><text x="190" y="590" font-family="Arial, sans-serif" font-size="13" fill="#374151">forecast</text>
<rect x="265" y="581" width="22" height="10" rx="2" fill="#dc2626" fill-opacity="0.18"/><text x="296" y="590" font-family="Arial, sans-serif" font-size="13" fill="#374151">10-90% probability corridor</text>
</svg>
