<svg xmlns="http://www.w3.org/2000/svg" data-y-scale="log" width="1100" height="620" viewBox="0 0 1100 620">
<rect width="100%" height="100%" fill="#ffffff"/>
<text x="80" y="26" font-family="Arial, sans-serif" font-size="20" font-weight="700" fill="#111827">BTCUSDT Chronos-2 Forecast</text>
<text x="80" y="50" font-family="Arial, sans-serif" font-size="13" fill="#4b5563">Last history close: 81,745.65 | Last forecast: 101,824.50 | Y scale: log scale</text>
<line x1="80" y1="505.0" x2="1060" y2="505.0" stroke="#e5e7eb" stroke-width="1"/>
<text x="70" y="509.0" text-anchor="end" font-family="Arial, sans-serif" font-size="12" fill="#6b7280">54,149</text>
<line x1="80" y1="396.8" x2="1060" y2="396.8" stroke="#e5e7eb" stroke-width="1"/>
<text x="70" y="400.8" text-anchor="end" font-family="Arial, sans-serif" font-size="12" fill="#6b7280">71,905</text>
<line x1="80" y1="288.5" x2="1060" y2="288.5" stroke="#e5e7eb" stroke-width="1"/>
<text x="70" y="292.5" text-anchor="end" font-family="Arial, sans-serif" font-size="12" fill="#6b7280">95,484</text>
<line x1="80" y1="180.2" x2="1060" y2="180.2" stroke="#e5e7eb" stroke-width="1"/>
<text x="70" y="184.2" text-anchor="end" font-family="Arial, sans-serif" font-size="12" fill="#6b7280">126,795</text>
<line x1="80" y1="72.0" x2="1060" y2="72.0" stroke="#e5e7eb" stroke-width="1"/>
<text x="70" y="76.0" text-anchor="end" font-family="Arial, sans-serif" font-size="12" fill="#6b7280">168,373</text>
<line class="x-axis-grid" x1="80.0" y1="72" x2="80.0" y2="505" stroke="#f1f5f9" stroke-width="1"/>
<line class="x-axis-grid" x1="276.0" y1="72" x2="276.0" y2="505" stroke="#f1f5f9" stroke-width="1"/>
<line class="x-axis-grid" x1="472.0" y1="72" x2="472.0" y2="505" stroke="#f1f5f9" stroke-width="1"/>
<line class="x-axis-grid" x1="668.0" y1="72" x2="668.0" y2="505" stroke="#f1f5f9" stroke-width="1"/>
<line class="x-axis-grid" x1="864.0" y1="72" x2="864.0" y2="505" stroke="#f1f5f9" stroke-width="1"/>
<line class="x-axis-grid" x1="1060.0" y1="72" x2="1060.0" y2="505" stroke="#f1f5f9" stroke-width="1"/>
<line x1="80" y1="72" x2="80" y2="505" stroke="#9ca3af" stroke-width="1"/>
<line x1="80" y1="505" x2="1060" y2="505" stroke="#9ca3af" stroke-width="1"/>
<text class="x-axis-label" x="80.0" y="530" text-anchor="middle" font-family="Arial, sans-serif" font-size="11" fill="#6b7280">2025-05-12</text>
<text class="x-axis-label" x="276.0" y="530" text-anchor="middle" font-family="Arial, sans-serif" font-size="11" fill="#6b7280">2025-08-10</text>
<text class="x-axis-label" x="472.0" y="530" text-anchor="middle" font-family="Arial, sans-serif" font-size="11" fill="#6b7280">2025-11-09</text>
<text class="x-axis-label" x="668.0" y="530" text-anchor="middle" font-family="Arial, sans-serif" font-size="11" fill="#6b7280">2026-02-08</text>
<text class="x-axis-label" x="864.0" y="530" text-anchor="middle" font-family="Arial, sans-serif" font-size="11" fill="#6b7280">2026-05-10</text>
<text class="x-axis-label" x="1060.0" y="530" text-anchor="middle" font-family="Arial, sans-serif" font-size="11" fill="#6b7280">2026-08-09</text>
<line id="forecast-start-line" x1="867.9" y1="72" x2="867.9" y2="505" stroke="#111827" stroke-width="1.3" stroke-dasharray="5 6" opacity="0.42"/>
<text x="875.9" y="87" font-family="Arial, sans-serif" font-size="11" fill="#374151">forecast start</text>
<path id="probability-corridor" d="M 867.9 335.1 L 870.0 334.7 L 872.2 333.2 L 874.4 329.3 L 876.5 326.6 L 878.7 323.9 L 880.8 321.7 L 883.0 318.3 L 885.2 317.3 L 887.3 314.9 L 889.5 314.5 L 891.6 315.1 L 893.8 314.4 L 895.9 313.0 L 898.1 309.5 L 900.3 306.6 L 902.4 295.4 L 904.6 297.0 L 906.7 297.7 L 908.9 294.7 L 911.1 294.8 L 913.2 293.5 L 915.4 292.4 L 917.5 290.8 L 919.7 290.2 L 921.9 287.4 L 924.0 285.2 L 926.2 283.9 L 928.3 282.0 L 930.5 283.9 L 932.6 282.5 L 934.8 282.6 L 937.0 260.4 L 939.1 260.6 L 941.3 262.2 L 943.4 258.9 L 945.6 258.8 L 947.8 254.9 L 949.9 252.4 L 952.1 249.7 L 954.2 247.2 L 956.4 243.3 L 958.5 239.3 L 960.7 235.6 L 962.9 231.4 L 965.0 232.0 L 967.2 226.5 L 969.3 222.4 L 971.5 221.6 L 973.7 220.6 L 975.8 221.9 L 978.0 217.9 L 980.1 217.7 L 982.3 214.2 L 984.4 210.0 L 986.6 208.6 L 988.8 204.4 L 990.9 200.9 L 993.1 196.5 L 995.2 194.5 L 997.4 189.1 L 999.6 191.1 L 1001.7 185.3 L 1003.9 180.4 L 1006.0 132.5 L 1008.2 128.3 L 1010.4 130.7 L 1012.5 128.3 L 1014.7 127.4 L 1016.8 124.4 L 1019.0 121.0 L 1021.1 119.3 L 1023.3 120.8 L 1025.5 115.9 L 1027.6 114.2 L 1029.8 114.1 L 1031.9 111.2 L 1034.1 113.8 L 1036.3 110.3 L 1038.4 106.1 L 1040.6 88.7 L 1042.7 84.9 L 1044.9 88.3 L 1047.0 87.0 L 1049.2 83.7 L 1051.4 79.6 L 1053.5 76.6 L 1055.7 74.9 L 1057.8 77.3 L 1060.0 72.0 L 1060.0 494.4 L 1057.8 493.9 L 1055.7 497.7 L 1053.5 500.8 L 1051.4 501.8 L 1049.2 500.9 L 1047.0 501.2 L 1044.9 503.9 L 1042.7 505.0 L 1040.6 500.0 L 1038.4 483.6 L 1036.3 480.9 L 1034.1 475.9 L 1031.9 480.0 L 1029.8 481.8 L 1027.6 478.0 L 1025.5 477.2 L 1023.3 478.8 L 1021.1 481.6 L 1019.0 482.6 L 1016.8 481.4 L 1014.7 481.4 L 1012.5 481.0 L 1010.4 482.3 L 1008.2 484.1 L 1006.0 481.2 L 1003.9 485.2 L 1001.7 483.1 L 999.6 477.3 L 997.4 482.4 L 995.2 482.4 L 993.1 482.1 L 990.9 479.4 L 988.8 482.3 L 986.6 482.8 L 984.4 483.3 L 982.3 481.1 L 980.1 481.3 L 978.0 477.8 L 975.8 478.9 L 973.7 479.0 L 971.5 479.1 L 969.3 484.3 L 967.2 482.1 L 965.0 477.6 L 962.9 484.6 L 960.7 483.2 L 958.5 481.7 L 956.4 480.2 L 954.2 481.6 L 952.1 482.4 L 949.9 481.3 L 947.8 479.4 L 945.6 477.6 L 943.4 475.1 L 941.3 475.1 L 939.1 473.7 L 937.0 474.6 L 934.8 496.0 L 932.6 491.6 L 930.5 488.3 L 928.3 493.4 L 926.2 488.4 L 924.0 481.4 L 921.9 481.5 L 919.7 481.8 L 917.5 483.0 L 915.4 480.0 L 913.2 478.2 L 911.1 475.0 L 908.9 473.0 L 906.7 472.6 L 904.6 468.8 L 902.4 469.2 L 900.3 491.6 L 898.1 474.5 L 895.9 459.8 L 893.8 446.5 L 891.6 422.9 L 889.5 403.8 L 887.3 387.4 L 885.2 380.1 L 883.0 371.1 L 880.8 364.6 L 878.7 365.7 L 876.5 362.0 L 874.4 359.2 L 872.2 357.5 L 870.0 356.3 L 867.9 352.0 Z" fill="#dc2626" fill-opacity="0.13" stroke="none"/>
<path d="M 80.0 260.4 L 82.2 255.5 L 84.3 257.7 L 86.5 256.8 L 88.6 257.9 L 90.8 259.1 L 93.0 247.0 L 95.1 250.2 L 97.3 245.6 L 99.4 235.7 L 101.6 228.6 L 103.7 243.9 L 105.9 242.3 L 108.1 238.0 L 110.2 236.4 L 112.4 238.2 L 114.5 242.3 L 116.7 250.1 L 118.9 255.9 L 121.0 253.7 L 123.2 249.9 L 125.3 249.1 L 127.5 250.9 L 129.6 253.3 L 131.8 265.1 L 134.0 254.8 L 136.1 250.2 L 138.3 249.6 L 140.4 233.6 L 142.6 233.5 L 144.8 239.2 L 146.9 249.8 L 149.1 248.4 L 151.2 250.7 L 153.4 250.1 L 155.6 245.8 L 157.7 253.9 L 159.9 252.7 L 162.0 253.5 L 164.2 258.5 L 166.3 262.9 L 168.5 267.2 L 170.7 251.0 L 172.8 248.3 L 175.0 243.8 L 177.1 245.2 L 179.3 244.9 L 181.5 244.0 L 183.6 240.2 L 185.8 244.5 L 187.9 249.8 L 190.1 238.5 L 192.2 235.9 L 194.4 241.5 L 196.6 240.8 L 198.7 237.3 L 200.9 240.6 L 203.0 238.2 L 205.2 230.2 L 207.4 214.2 L 209.5 209.2 L 211.7 209.6 L 213.8 204.2 L 216.0 201.8 L 218.1 208.5 L 220.3 205.7 L 222.5 203.9 L 224.6 207.9 L 226.8 208.2 L 228.9 210.1 L 231.1 209.7 L 233.3 201.4 L 235.4 205.2 L 237.6 206.6 L 239.7 208.9 L 241.9 207.9 L 244.1 203.1 L 246.2 207.5 L 248.4 207.8 L 250.5 208.2 L 252.7 215.0 L 254.8 223.2 L 257.0 225.7 L 259.2 220.2 L 261.3 217.3 L 263.5 220.4 L 265.6 217.5 L 267.8 209.4 L 270.0 212.0 L 272.1 212.7 L 274.3 203.5 L 276.4 205.5 L 278.6 200.8 L 280.7 190.9 L 282.9 206.7 L 285.1 209.8 L 287.2 209.7 L 289.4 209.6 L 291.5 213.5 L 293.7 224.6 L 295.9 219.9 L 298.0 225.9 L 300.2 211.1 L 302.3 216.1 L 304.5 222.5 L 306.7 234.1 L 308.8 228.4 L 311.0 230.1 L 313.1 225.7 L 315.3 240.2 L 317.4 238.6 L 319.6 240.6 L 321.8 237.1 L 323.9 230.2 L 326.1 228.6 L 328.2 232.0 L 330.4 232.2 L 332.6 233.8 L 334.7 230.6 L 336.9 227.4 L 339.0 229.2 L 341.2 221.0 L 343.3 215.9 L 345.5 214.1 L 347.7 214.5 L 349.8 216.6 L 352.0 216.4 L 354.1 211.6 L 356.3 212.7 L 358.5 210.7 L 360.6 215.4 L 362.8 215.2 L 364.9 216.7 L 367.1 225.4 L 369.3 227.6 L 371.4 223.2 L 373.6 238.0 L 375.7 235.7 L 377.9 235.7 L 380.0 227.0 L 382.2 219.8 L 384.4 220.7 L 386.5 205.8 L 388.7 199.6 L 390.8 194.2 L 393.0 193.7 L 395.2 190.4 L 397.3 186.7 L 399.5 197.1 L 401.6 190.9 L 403.8 196.0 L 405.9 225.0 L 408.1 232.3 L 410.3 217.7 L 412.4 217.0 L 414.6 224.1 L 416.7 231.8 L 418.9 240.8 L 421.1 247.1 L 423.2 244.4 L 425.4 239.2 L 427.5 232.6 L 429.7 240.4 L 431.9 243.0 L 434.0 234.2 L 436.2 231.0 L 438.3 228.8 L 440.5 219.0 L 442.6 220.5 L 444.8 224.6 L 447.0 234.4 L 449.1 240.3 L 451.3 235.8 L 453.4 234.1 L 455.6 232.6 L 457.8 246.5 L 459.9 265.2 L 462.1 256.3 L 464.2 265.8 L 466.4 258.3 L 468.5 262.1 L 470.7 253.2 L 472.9 248.6 L 475.0 259.4 L 477.2 264.6 L 479.3 272.0 L 481.5 292.1 L 483.7 288.1 L 485.8 293.4 L 488.0 301.8 L 490.1 298.7 L 492.3 304.5 L 494.4 325.6 L 496.6 332.3 L 498.8 334.1 L 500.9 324.8 L 503.1 318.4 L 505.2 322.4 L 507.4 309.0 L 509.6 305.5 L 511.7 307.3 L 513.9 307.7 L 516.0 309.6 L 518.2 327.2 L 520.4 305.7 L 522.5 296.8 L 524.7 302.4 L 526.8 313.9 L 529.0 314.3 L 531.1 309.4 L 533.3 308.4 L 535.5 299.9 L 537.6 302.6 L 539.8 300.6 L 541.9 309.9 L 544.1 310.1 L 546.3 318.9 L 548.4 326.5 L 550.6 320.2 L 552.7 327.4 L 554.9 330.6 L 557.0 319.1 L 559.2 318.1 L 561.4 316.8 L 563.5 317.0 L 565.7 321.9 L 567.8 321.1 L 570.0 323.0 L 572.2 322.4 L 574.3 320.2 L 576.5 319.9 L 578.6 323.0 L 580.8 317.6 L 583.0 321.2 L 585.1 316.0 L 587.3 311.1 L 589.4 308.4 L 591.6 304.6 L 593.7 295.0 L 595.9 295.5 L 598.1 305.3 L 600.2 306.4 L 602.4 308.4 L 604.5 308.9 L 606.7 306.8 L 608.9 305.6 L 611.0 288.8 L 613.2 282.7 L 615.3 288.0 L 617.5 288.2 L 619.6 289.8 L 621.8 295.8 L 624.0 300.1 L 626.1 317.8 L 628.3 313.4 L 630.4 312.9 L 632.6 312.8 L 634.8 314.4 L 636.9 325.5 L 639.1 318.2 L 641.2 314.3 L 643.4 314.1 L 645.6 334.5 L 647.7 336.2 L 649.9 362.1 L 652.0 370.8 L 654.2 362.1 L 656.3 376.8 L 658.5 390.1 L 660.7 447.8 L 662.8 403.8 L 665.0 410.9 L 667.1 405.2 L 669.3 406.2 L 671.5 413.4 L 673.6 423.2 L 675.8 427.9 L 677.9 413.3 L 680.1 408.0 L 682.2 413.4 L 684.4 413.1 L 686.6 420.9 L 688.7 426.8 L 690.9 423.7 L 693.0 418.0 L 695.2 418.2 L 697.4 420.1 L 699.5 437.3 L 701.7 440.9 L 703.8 418.1 L 706.0 421.0 L 708.1 430.2 L 710.3 423.9 L 712.5 430.8 L 714.6 413.4 L 716.8 416.2 L 718.9 392.7 L 721.1 402.2 L 723.3 417.4 L 725.4 422.2 L 727.6 429.6 L 729.7 415.6 L 731.9 407.3 L 734.1 406.0 L 736.2 404.1 L 738.4 402.0 L 740.5 400.4 L 742.7 391.9 L 744.8 381.3 L 747.0 386.3 L 749.2 400.3 L 751.3 407.4 L 753.5 404.2 L 755.6 412.9 L 757.8 418.9 L 760.0 402.1 L 762.1 404.0 L 764.3 399.8 L 766.4 413.5 L 768.6 427.1 L 770.7 427.3 L 772.9 429.4 L 775.1 424.9 L 777.2 416.5 L 779.4 417.4 L 781.5 424.3 L 783.7 423.9 L 785.9 422.0 L 788.0 412.3 L 790.2 413.3 L 792.3 396.6 L 794.5 401.2 L 796.7 397.4 L 798.8 391.2 L 801.0 390.8 L 803.1 403.0 L 805.3 383.6 L 807.4 385.1 L 809.6 381.6 L 811.8 379.9 L 813.9 370.3 L 816.1 377.2 L 818.2 386.8 L 820.4 376.4 L 822.6 373.9 L 824.7 364.8 L 826.9 364.4 L 829.0 368.5 L 831.2 367.5 L 833.3 362.5 L 835.5 368.8 L 837.7 373.9 L 839.8 376.7 L 842.0 373.9 L 844.1 364.6 L 846.3 362.3 L 848.5 362.9 L 850.6 356.7 L 852.8 351.7 L 854.9 349.2 L 857.1 356.0 L 859.3 355.1 L 861.4 352.8 L 863.6 345.6 L 865.7 347.8" fill="none" stroke="#2563eb" stroke-width="2.2"/>
<path d="M 867.9 343.9 L 870.0 344.4 L 872.2 344.5 L 874.4 345.0 L 876.5 343.7 L 878.7 343.8 L 880.8 342.7 L 883.0 342.1 L 885.2 343.0 L 887.3 345.7 L 889.5 349.1 L 891.6 355.3 L 893.8 361.6 L 895.9 362.0 L 898.1 365.9 L 900.3 371.0 L 902.4 361.5 L 904.6 360.2 L 906.7 361.0 L 908.9 362.3 L 911.1 361.7 L 913.2 362.6 L 915.4 361.6 L 917.5 361.1 L 919.7 359.7 L 921.9 357.7 L 924.0 357.8 L 926.2 357.7 L 928.3 358.7 L 930.5 356.9 L 932.6 356.6 L 934.8 358.3 L 937.0 355.0 L 939.1 352.2 L 941.3 353.2 L 943.4 354.5 L 945.6 354.3 L 947.8 353.5 L 949.9 353.7 L 952.1 351.1 L 954.2 349.9 L 956.4 347.6 L 958.5 346.7 L 960.7 345.0 L 962.9 343.9 L 965.0 340.1 L 967.2 337.8 L 969.3 336.7 L 971.5 344.6 L 973.7 341.0 L 975.8 341.4 L 978.0 342.5 L 980.1 343.6 L 982.3 342.4 L 984.4 342.8 L 986.6 339.5 L 988.8 338.1 L 990.9 336.2 L 993.1 335.4 L 995.2 334.6 L 997.4 334.0 L 999.6 331.9 L 1001.7 329.4 L 1003.9 327.7 L 1006.0 302.0 L 1008.2 296.3 L 1010.4 296.3 L 1012.5 296.3 L 1014.7 297.3 L 1016.8 296.3 L 1019.0 297.2 L 1021.1 294.0 L 1023.3 292.0 L 1025.5 290.9 L 1027.6 290.9 L 1029.8 293.1 L 1031.9 294.3 L 1034.1 293.1 L 1036.3 289.9 L 1038.4 289.7 L 1040.6 276.9 L 1042.7 272.0 L 1044.9 272.3 L 1047.0 271.1 L 1049.2 272.6 L 1051.4 271.3 L 1053.5 271.5 L 1055.7 267.8 L 1057.8 264.4 L 1060.0 264.0" fill="none" stroke="#dc2626" stroke-width="2.4" stroke-dasharray="8 5"/>
<circle cx="88" cy="586" r="5" fill="#2563eb"/><text x="100" y="590" font-family="Arial, sans-serif" font-size="13" fill="#374151">history</text>
<circle cx="178" cy="586" r="5" fill="#dc2626"/><text x="190" y="590" font-family="Arial, sans-serif" font-size="13" fill="#374151">forecast</text>
<rect x="265" y="581" width="22" height="10" rx="2" fill="#dc2626" fill-opacity="0.18"/><text x="296" y="590" font-family="Arial, sans-serif" font-size="13" fill="#374151">10-90% probability corridor</text>
</svg>
