<svg xmlns="http://www.w3.org/2000/svg" data-y-scale="linear" width="1100" height="620" viewBox="0 0 1100 620">
<rect width="100%" height="100%" fill="#ffffff"/>
<text x="80" y="26" font-family="Arial, sans-serif" font-size="20" font-weight="700" fill="#111827">BTCUSDT Chronos-2 Forecast</text>
<text x="80" y="50" font-family="Arial, sans-serif" font-size="13" fill="#4b5563">Last history close: 81,745.65 | Last forecast: 101,824.50</text>
<line x1="80" y1="505.0" x2="1060" y2="505.0" stroke="#e5e7eb" stroke-width="1"/>
<text x="70" y="509.0" text-anchor="end" font-family="Arial, sans-serif" font-size="12" fill="#6b7280">54,149</text>
<line x1="80" y1="396.8" x2="1060" y2="396.8" stroke="#e5e7eb" stroke-width="1"/>
<text x="70" y="400.8" text-anchor="end" font-family="Arial, sans-serif" font-size="12" fill="#6b7280">82,705</text>
<line x1="80" y1="288.5" x2="1060" y2="288.5" stroke="#e5e7eb" stroke-width="1"/>
<text x="70" y="292.5" text-anchor="end" font-family="Arial, sans-serif" font-size="12" fill="#6b7280">111,261</text>
<line x1="80" y1="180.2" x2="1060" y2="180.2" stroke="#e5e7eb" stroke-width="1"/>
<text x="70" y="184.2" text-anchor="end" font-family="Arial, sans-serif" font-size="12" fill="#6b7280">139,817</text>
<line x1="80" y1="72.0" x2="1060" y2="72.0" stroke="#e5e7eb" stroke-width="1"/>
<text x="70" y="76.0" text-anchor="end" font-family="Arial, sans-serif" font-size="12" fill="#6b7280">168,373</text>
<line class="x-axis-grid" x1="80.0" y1="72" x2="80.0" y2="505" stroke="#f1f5f9" stroke-width="1"/>
<line class="x-axis-grid" x1="276.0" y1="72" x2="276.0" y2="505" stroke="#f1f5f9" stroke-width="1"/>
<line class="x-axis-grid" x1="472.0" y1="72" x2="472.0" y2="505" stroke="#f1f5f9" stroke-width="1"/>
<line class="x-axis-grid" x1="668.0" y1="72" x2="668.0" y2="505" stroke="#f1f5f9" stroke-width="1"/>
<line class="x-axis-grid" x1="864.0" y1="72" x2="864.0" y2="505" stroke="#f1f5f9" stroke-width="1"/>
<line class="x-axis-grid" x1="1060.0" y1="72" x2="1060.0" y2="505" stroke="#f1f5f9" stroke-width="1"/>
<line x1="80" y1="72" x2="80" y2="505" stroke="#9ca3af" stroke-width="1"/>
<line x1="80" y1="505" x2="1060" y2="505" stroke="#9ca3af" stroke-width="1"/>
<text class="x-axis-label" x="80.0" y="530" text-anchor="middle" font-family="Arial, sans-serif" font-size="11" fill="#6b7280">2025-05-12</text>
<text class="x-axis-label" x="276.0" y="530" text-anchor="middle" font-family="Arial, sans-serif" font-size="11" fill="#6b7280">2025-08-10</text>
<text class="x-axis-label" x="472.0" y="530" text-anchor="middle" font-family="Arial, sans-serif" font-size="11" fill="#6b7280">2025-11-09</text>
<text class="x-axis-label" x="668.0" y="530" text-anchor="middle" font-family="Arial, sans-serif" font-size="11" fill="#6b7280">2026-02-08</text>
<text class="x-axis-label" x="864.0" y="530" text-anchor="middle" font-family="Arial, sans-serif" font-size="11" fill="#6b7280">2026-05-10</text>
<text class="x-axis-label" x="1060.0" y="530" text-anchor="middle" font-family="Arial, sans-serif" font-size="11" fill="#6b7280">2026-08-09</text>
<line id="forecast-start-line" x1="867.9" y1="72" x2="867.9" y2="505" stroke="#111827" stroke-width="1.3" stroke-dasharray="5 6" opacity="0.42"/>
<text x="875.9" y="87" font-family="Arial, sans-serif" font-size="11" fill="#374151">forecast start</text>
<path id="probability-corridor" d="M 867.9 389.9 L 870.0 389.6 L 872.2 388.3 L 874.4 385.0 L 876.5 382.7 L 878.7 380.4 L 880.8 378.5 L 883.0 375.5 L 885.2 374.6 L 887.3 372.5 L 889.5 372.2 L 891.6 372.7 L 893.8 372.1 L 895.9 370.8 L 898.1 367.6 L 900.3 365.1 L 902.4 354.8 L 904.6 356.3 L 906.7 356.9 L 908.9 354.1 L 911.1 354.3 L 913.2 353.1 L 915.4 352.0 L 917.5 350.5 L 919.7 349.9 L 921.9 347.2 L 924.0 345.1 L 926.2 343.9 L 928.3 342.1 L 930.5 343.9 L 932.6 342.6 L 934.8 342.6 L 937.0 320.6 L 939.1 320.8 L 941.3 322.5 L 943.4 319.1 L 945.6 319.0 L 947.8 315.0 L 949.9 312.4 L 952.1 309.5 L 954.2 306.9 L 956.4 302.8 L 958.5 298.6 L 960.7 294.5 L 962.9 289.8 L 965.0 290.6 L 967.2 284.5 L 969.3 279.8 L 971.5 278.9 L 973.7 277.9 L 975.8 279.3 L 978.0 274.7 L 980.1 274.5 L 982.3 270.5 L 984.4 265.7 L 986.6 264.0 L 988.8 259.1 L 990.9 254.9 L 993.1 249.6 L 995.2 247.2 L 997.4 240.6 L 999.6 243.1 L 1001.7 235.9 L 1003.9 229.8 L 1006.0 165.6 L 1008.2 159.5 L 1010.4 163.0 L 1012.5 159.6 L 1014.7 158.2 L 1016.8 153.9 L 1019.0 148.9 L 1021.1 146.3 L 1023.3 148.6 L 1025.5 141.3 L 1027.6 138.8 L 1029.8 138.6 L 1031.9 134.4 L 1034.1 138.2 L 1036.3 133.0 L 1038.4 126.5 L 1040.6 99.4 L 1042.7 93.2 L 1044.9 98.7 L 1047.0 96.6 L 1049.2 91.3 L 1051.4 84.6 L 1053.5 79.7 L 1055.7 76.8 L 1057.8 80.8 L 1060.0 72.0 L 1060.0 499.2 L 1057.8 498.9 L 1055.7 501.0 L 1053.5 502.7 L 1051.4 503.3 L 1049.2 502.8 L 1047.0 503.0 L 1044.9 504.4 L 1042.7 505.0 L 1040.6 502.3 L 1038.4 493.2 L 1036.3 491.6 L 1034.1 488.7 L 1031.9 491.1 L 1029.8 492.1 L 1027.6 490.0 L 1025.5 489.5 L 1023.3 490.4 L 1021.1 492.0 L 1019.0 492.6 L 1016.8 491.9 L 1014.7 491.9 L 1012.5 491.7 L 1010.4 492.4 L 1008.2 493.4 L 1006.0 491.8 L 1003.9 494.0 L 1001.7 492.9 L 999.6 489.5 L 997.4 492.5 L 995.2 492.5 L 993.1 492.3 L 990.9 490.8 L 988.8 492.4 L 986.6 492.7 L 984.4 493.0 L 982.3 491.7 L 980.1 491.9 L 978.0 489.8 L 975.8 490.5 L 973.7 490.5 L 971.5 490.6 L 969.3 493.6 L 967.2 492.3 L 965.0 489.7 L 962.9 493.7 L 960.7 492.9 L 958.5 492.1 L 956.4 491.2 L 954.2 492.0 L 952.1 492.5 L 949.9 491.9 L 947.8 490.8 L 945.6 489.7 L 943.4 488.3 L 941.3 488.3 L 939.1 487.5 L 937.0 488.0 L 934.8 500.1 L 932.6 497.7 L 930.5 495.8 L 928.3 498.7 L 926.2 495.9 L 924.0 491.9 L 921.9 492.0 L 919.7 492.2 L 917.5 492.8 L 915.4 491.1 L 913.2 490.0 L 911.1 488.2 L 908.9 487.1 L 906.7 486.8 L 904.6 484.5 L 902.4 484.8 L 900.3 497.6 L 898.1 487.9 L 895.9 479.2 L 893.8 471.0 L 891.6 455.7 L 889.5 442.7 L 887.3 430.9 L 885.2 425.6 L 883.0 418.8 L 880.8 413.7 L 878.7 414.6 L 876.5 411.7 L 874.4 409.5 L 872.2 408.2 L 870.0 407.3 L 867.9 403.8 Z" fill="#dc2626" fill-opacity="0.13" stroke="none"/>
<path d="M 80.0 320.6 L 82.2 315.6 L 84.3 317.9 L 86.5 316.9 L 88.6 318.1 L 90.8 319.3 L 93.0 306.7 L 95.1 310.1 L 97.3 305.2 L 99.4 294.6 L 101.6 286.8 L 103.7 303.4 L 105.9 301.8 L 108.1 297.1 L 110.2 295.4 L 112.4 297.3 L 114.5 301.7 L 116.7 310.0 L 118.9 316.1 L 121.0 313.8 L 123.2 309.8 L 125.3 309.0 L 127.5 310.8 L 129.6 313.4 L 131.8 325.5 L 134.0 314.9 L 136.1 310.1 L 138.3 309.5 L 140.4 292.3 L 142.6 292.2 L 144.8 298.4 L 146.9 309.7 L 149.1 308.2 L 151.2 310.7 L 153.4 310.0 L 155.6 305.4 L 157.7 313.9 L 159.9 312.7 L 162.0 313.5 L 164.2 318.7 L 166.3 323.2 L 168.5 327.5 L 170.7 311.0 L 172.8 308.1 L 175.0 303.4 L 177.1 304.9 L 179.3 304.5 L 181.5 303.5 L 183.6 299.5 L 185.8 304.1 L 187.9 309.7 L 190.1 297.6 L 192.2 294.9 L 194.4 300.9 L 196.6 300.1 L 198.7 296.3 L 200.9 299.9 L 203.0 297.4 L 205.2 288.6 L 207.4 270.5 L 209.5 264.7 L 211.7 265.2 L 213.8 258.8 L 216.0 256.0 L 218.1 263.9 L 220.3 260.6 L 222.5 258.5 L 224.6 263.2 L 226.8 263.6 L 228.9 265.7 L 231.1 265.3 L 233.3 255.5 L 235.4 260.1 L 237.6 261.7 L 239.7 264.4 L 241.9 263.3 L 244.1 257.6 L 246.2 262.7 L 248.4 263.1 L 250.5 263.6 L 252.7 271.4 L 254.8 280.8 L 257.0 283.6 L 259.2 277.3 L 261.3 274.1 L 263.5 277.6 L 265.6 274.4 L 267.8 265.0 L 270.0 268.0 L 272.1 268.8 L 274.3 258.0 L 276.4 260.4 L 278.6 254.9 L 280.7 242.8 L 282.9 261.8 L 285.1 265.4 L 287.2 265.3 L 289.4 265.2 L 291.5 269.7 L 293.7 282.4 L 295.9 277.1 L 298.0 283.8 L 300.2 267.0 L 302.3 272.7 L 304.5 280.0 L 306.7 292.9 L 308.8 286.6 L 311.0 288.5 L 313.1 283.5 L 315.3 299.4 L 317.4 297.8 L 319.6 299.9 L 321.8 296.2 L 323.9 288.6 L 326.1 286.8 L 328.2 290.5 L 330.4 290.8 L 332.6 292.6 L 334.7 289.0 L 336.9 285.5 L 339.0 287.4 L 341.2 278.3 L 343.3 272.5 L 345.5 270.4 L 347.7 270.8 L 349.8 273.3 L 352.0 273.0 L 354.1 267.5 L 356.3 268.8 L 358.5 266.5 L 360.6 271.9 L 362.8 271.7 L 364.9 273.4 L 367.1 283.2 L 369.3 285.7 L 371.4 280.7 L 373.6 297.1 L 375.7 294.6 L 377.9 294.7 L 380.0 285.1 L 382.2 276.9 L 384.4 277.9 L 386.5 260.7 L 388.7 253.4 L 390.8 246.9 L 393.0 246.3 L 395.2 242.2 L 397.3 237.7 L 399.5 250.3 L 401.6 242.8 L 403.8 249.1 L 405.9 282.8 L 408.1 290.8 L 410.3 274.5 L 412.4 273.7 L 414.6 281.8 L 416.7 290.4 L 418.9 300.1 L 421.1 306.8 L 423.2 304.0 L 425.4 298.4 L 427.5 291.3 L 429.7 299.7 L 431.9 302.5 L 434.0 293.0 L 436.2 289.5 L 438.3 287.0 L 440.5 276.0 L 442.6 277.7 L 444.8 282.3 L 447.0 293.2 L 449.1 299.6 L 451.3 294.8 L 453.4 292.9 L 455.6 291.2 L 457.8 306.2 L 459.9 325.5 L 462.1 316.5 L 464.2 326.1 L 466.4 318.5 L 468.5 322.4 L 470.7 313.3 L 472.9 308.4 L 475.0 319.6 L 477.2 324.9 L 479.3 332.4 L 481.5 351.7 L 483.7 347.9 L 485.8 352.9 L 488.0 360.7 L 490.1 357.9 L 492.3 363.2 L 494.4 381.8 L 496.6 387.6 L 498.8 389.0 L 500.9 381.1 L 503.1 375.5 L 505.2 379.1 L 507.4 367.3 L 509.6 364.0 L 511.7 365.7 L 513.9 366.1 L 516.0 367.7 L 518.2 383.2 L 520.4 364.3 L 522.5 356.1 L 524.7 361.2 L 526.8 371.6 L 529.0 372.0 L 531.1 367.6 L 533.3 366.7 L 535.5 358.9 L 537.6 361.5 L 539.8 359.6 L 541.9 368.1 L 544.1 368.2 L 546.3 376.0 L 548.4 382.6 L 550.6 377.2 L 552.7 383.3 L 554.9 386.1 L 557.0 376.2 L 559.2 375.3 L 561.4 374.2 L 563.5 374.3 L 565.7 378.6 L 567.8 377.9 L 570.0 379.6 L 572.2 379.1 L 574.3 377.1 L 576.5 376.9 L 578.6 379.6 L 580.8 374.8 L 583.0 378.0 L 585.1 373.5 L 587.3 369.1 L 589.4 366.7 L 591.6 363.3 L 593.7 354.5 L 595.9 354.9 L 598.1 363.9 L 600.2 364.9 L 602.4 366.7 L 604.5 367.2 L 606.7 365.3 L 608.9 364.2 L 611.0 348.6 L 613.2 342.7 L 615.3 347.8 L 617.5 348.1 L 619.6 349.6 L 621.8 355.2 L 624.0 359.1 L 626.1 375.1 L 628.3 371.2 L 630.4 370.8 L 632.6 370.6 L 634.8 372.0 L 636.9 381.7 L 639.1 375.4 L 641.2 371.9 L 643.4 371.7 L 645.6 389.4 L 647.7 390.9 L 649.9 411.8 L 652.0 418.5 L 654.2 411.8 L 656.3 423.0 L 658.5 432.9 L 660.7 471.8 L 662.8 442.7 L 665.0 447.6 L 667.1 443.7 L 669.3 444.4 L 671.5 449.3 L 673.6 456.0 L 675.8 459.0 L 677.9 449.3 L 680.1 445.6 L 682.2 449.3 L 684.4 449.1 L 686.6 454.4 L 688.7 458.3 L 690.9 456.3 L 693.0 452.4 L 695.2 452.6 L 697.4 453.8 L 699.5 465.2 L 701.7 467.4 L 703.8 452.5 L 706.0 454.4 L 708.1 460.6 L 710.3 456.4 L 712.5 460.9 L 714.6 449.3 L 716.8 451.2 L 718.9 434.8 L 721.1 441.5 L 723.3 452.1 L 725.4 455.3 L 727.6 460.2 L 729.7 450.9 L 731.9 445.1 L 734.1 444.2 L 736.2 442.9 L 738.4 441.4 L 740.5 440.3 L 742.7 434.2 L 744.8 426.4 L 747.0 430.1 L 749.2 440.2 L 751.3 445.2 L 753.5 443.0 L 755.6 449.0 L 757.8 453.0 L 760.0 441.5 L 762.1 442.8 L 764.3 439.8 L 766.4 449.4 L 768.6 458.5 L 770.7 458.6 L 772.9 460.0 L 775.1 457.1 L 777.2 451.4 L 779.4 452.1 L 781.5 456.7 L 783.7 456.4 L 785.9 455.1 L 788.0 448.6 L 790.2 449.3 L 792.3 437.6 L 794.5 440.9 L 796.7 438.1 L 798.8 433.7 L 801.0 433.4 L 803.1 442.1 L 805.3 428.2 L 807.4 429.2 L 809.6 426.7 L 811.8 425.4 L 813.9 418.1 L 816.1 423.3 L 818.2 430.5 L 820.4 422.8 L 822.6 420.9 L 824.7 413.9 L 826.9 413.6 L 829.0 416.7 L 831.2 416.0 L 833.3 412.1 L 835.5 417.0 L 837.7 420.9 L 839.8 423.0 L 842.0 420.9 L 844.1 413.7 L 846.3 412.0 L 848.5 412.4 L 850.6 407.5 L 852.8 403.6 L 854.9 401.5 L 857.1 407.0 L 859.3 406.3 L 861.4 404.4 L 863.6 398.6 L 865.7 400.4" fill="none" stroke="#2563eb" stroke-width="2.2"/>
<path d="M 867.9 397.2 L 870.0 397.6 L 872.2 397.7 L 874.4 398.1 L 876.5 397.0 L 878.7 397.1 L 880.8 396.3 L 883.0 395.7 L 885.2 396.5 L 887.3 398.7 L 889.5 401.5 L 891.6 406.4 L 893.8 411.4 L 895.9 411.7 L 898.1 414.7 L 900.3 418.7 L 902.4 411.3 L 904.6 410.3 L 906.7 410.9 L 908.9 411.9 L 911.1 411.4 L 913.2 412.2 L 915.4 411.4 L 917.5 411.0 L 919.7 409.9 L 921.9 408.3 L 924.0 408.4 L 926.2 408.3 L 928.3 409.1 L 930.5 407.7 L 932.6 407.5 L 934.8 408.8 L 937.0 406.2 L 939.1 403.9 L 941.3 404.7 L 943.4 405.8 L 945.6 405.6 L 947.8 405.0 L 949.9 405.2 L 952.1 403.1 L 954.2 402.1 L 956.4 400.3 L 958.5 399.5 L 960.7 398.1 L 962.9 397.2 L 965.0 394.1 L 967.2 392.1 L 969.3 391.2 L 971.5 397.8 L 973.7 394.8 L 975.8 395.2 L 978.0 396.1 L 980.1 397.0 L 982.3 396.0 L 984.4 396.3 L 986.6 393.6 L 988.8 392.4 L 990.9 390.8 L 993.1 390.1 L 995.2 389.5 L 997.4 389.0 L 999.6 387.2 L 1001.7 385.1 L 1003.9 383.6 L 1006.0 360.9 L 1008.2 355.6 L 1010.4 355.6 L 1012.5 355.6 L 1014.7 356.5 L 1016.8 355.7 L 1019.0 356.4 L 1021.1 353.5 L 1023.3 351.6 L 1025.5 350.6 L 1027.6 350.6 L 1029.8 352.6 L 1031.9 353.7 L 1034.1 352.6 L 1036.3 349.6 L 1038.4 349.5 L 1040.6 337.1 L 1042.7 332.4 L 1044.9 332.6 L 1047.0 331.4 L 1049.2 332.9 L 1051.4 331.7 L 1053.5 331.8 L 1055.7 328.2 L 1057.8 324.7 L 1060.0 324.3" fill="none" stroke="#dc2626" stroke-width="2.4" stroke-dasharray="8 5"/>
<circle cx="88" cy="586" r="5" fill="#2563eb"/><text x="100" y="590" font-family="Arial, sans-serif" font-size="13" fill="#374151">history</text>
<circle cx="178" cy="586" r="5" fill="#dc2626"/><text x="190" y="590" font-family="Arial, sans-serif" font-size="13" fill="#374151">forecast</text>
<rect x="265" y="581" width="22" height="10" rx="2" fill="#dc2626" fill-opacity="0.18"/><text x="296" y="590" font-family="Arial, sans-serif" font-size="13" fill="#374151">10-90% probability corridor</text>
</svg>
