<svg xmlns="http://www.w3.org/2000/svg" data-y-scale="log" width="1100" height="620" viewBox="0 0 1100 620">
<rect width="100%" height="100%" fill="#ffffff"/>
<text x="80" y="26" font-family="Arial, sans-serif" font-size="20" font-weight="700" fill="#111827">BTCUSDT Chronos-2 Forecast</text>
<text x="80" y="50" font-family="Arial, sans-serif" font-size="13" fill="#4b5563">Last history close: 81,745.65 | Last forecast: 73,075.59 | Y scale: log scale</text>
<line x1="80" y1="505.0" x2="1060" y2="505.0" stroke="#e5e7eb" stroke-width="1"/>
<text x="70" y="509.0" text-anchor="end" font-family="Arial, sans-serif" font-size="12" fill="#6b7280">53,308</text>
<line x1="80" y1="396.7" x2="1060" y2="396.7" stroke="#e5e7eb" stroke-width="1"/>
<text x="70" y="400.7" text-anchor="end" font-family="Arial, sans-serif" font-size="12" fill="#6b7280">65,921</text>
<line x1="80" y1="288.5" x2="1060" y2="288.5" stroke="#e5e7eb" stroke-width="1"/>
<text x="70" y="292.5" text-anchor="end" font-family="Arial, sans-serif" font-size="12" fill="#6b7280">81,518</text>
<line x1="80" y1="180.3" x2="1060" y2="180.3" stroke="#e5e7eb" stroke-width="1"/>
<text x="70" y="184.3" text-anchor="end" font-family="Arial, sans-serif" font-size="12" fill="#6b7280">100,807</text>
<line x1="80" y1="72.0" x2="1060" y2="72.0" stroke="#e5e7eb" stroke-width="1"/>
<text x="70" y="76.0" text-anchor="end" font-family="Arial, sans-serif" font-size="12" fill="#6b7280">124,659</text>
<line class="x-axis-grid" x1="80.0" y1="72" x2="80.0" y2="505" stroke="#f1f5f9" stroke-width="1"/>
<line class="x-axis-grid" x1="276.0" y1="72" x2="276.0" y2="505" stroke="#f1f5f9" stroke-width="1"/>
<line class="x-axis-grid" x1="472.0" y1="72" x2="472.0" y2="505" stroke="#f1f5f9" stroke-width="1"/>
<line class="x-axis-grid" x1="668.0" y1="72" x2="668.0" y2="505" stroke="#f1f5f9" stroke-width="1"/>
<line class="x-axis-grid" x1="864.0" y1="72" x2="864.0" y2="505" stroke="#f1f5f9" stroke-width="1"/>
<line class="x-axis-grid" x1="1060.0" y1="72" x2="1060.0" y2="505" stroke="#f1f5f9" stroke-width="1"/>
<line x1="80" y1="72" x2="80" y2="505" stroke="#9ca3af" stroke-width="1"/>
<line x1="80" y1="505" x2="1060" y2="505" stroke="#9ca3af" stroke-width="1"/>
<text class="x-axis-label" x="80.0" y="530" text-anchor="middle" font-family="Arial, sans-serif" font-size="11" fill="#6b7280">2025-05-12</text>
<text class="x-axis-label" x="276.0" y="530" text-anchor="middle" font-family="Arial, sans-serif" font-size="11" fill="#6b7280">2025-08-10</text>
<text class="x-axis-label" x="472.0" y="530" text-anchor="middle" font-family="Arial, sans-serif" font-size="11" fill="#6b7280">2025-11-09</text>
<text class="x-axis-label" x="668.0" y="530" text-anchor="middle" font-family="Arial, sans-serif" font-size="11" fill="#6b7280">2026-02-08</text>
<text class="x-axis-label" x="864.0" y="530" text-anchor="middle" font-family="Arial, sans-serif" font-size="11" fill="#6b7280">2026-05-10</text>
<text class="x-axis-label" x="1060.0" y="530" text-anchor="middle" font-family="Arial, sans-serif" font-size="11" fill="#6b7280">2026-08-09</text>
<line id="forecast-start-line" x1="867.9" y1="72" x2="867.9" y2="505" stroke="#111827" stroke-width="1.3" stroke-dasharray="5 6" opacity="0.42"/>
<text x="875.9" y="87" font-family="Arial, sans-serif" font-size="11" fill="#374151">forecast start</text>
<path id="probability-corridor" d="M 867.9 274.4 L 870.0 273.4 L 872.2 272.0 L 874.4 269.6 L 876.5 267.2 L 878.7 265.0 L 880.8 263.3 L 883.0 260.7 L 885.2 258.3 L 887.3 257.3 L 889.5 255.1 L 891.6 254.3 L 893.8 252.2 L 895.9 251.5 L 898.1 250.1 L 900.3 247.8 L 902.4 252.1 L 904.6 252.0 L 906.7 250.6 L 908.9 247.5 L 911.1 247.5 L 913.2 246.3 L 915.4 245.1 L 917.5 243.8 L 919.7 241.0 L 921.9 241.1 L 924.0 238.4 L 926.2 237.6 L 928.3 236.1 L 930.5 236.3 L 932.6 236.2 L 934.8 234.0 L 937.0 238.5 L 939.1 239.0 L 941.3 238.2 L 943.4 235.8 L 945.6 236.9 L 947.8 233.9 L 949.9 233.6 L 952.1 232.9 L 954.2 231.1 L 956.4 230.9 L 958.5 227.8 L 960.7 226.1 L 962.9 224.9 L 965.0 225.6 L 967.2 226.5 L 969.3 224.8 L 971.5 224.6 L 973.7 225.4 L 975.8 225.5 L 978.0 222.1 L 980.1 224.1 L 982.3 221.2 L 984.4 221.9 L 986.6 220.1 L 988.8 218.9 L 990.9 218.0 L 993.1 214.5 L 995.2 211.8 L 997.4 211.2 L 999.6 212.0 L 1001.7 212.5 L 1003.9 208.5 L 1006.0 198.9 L 1008.2 199.7 L 1010.4 201.7 L 1012.5 199.1 L 1014.7 199.7 L 1016.8 196.1 L 1019.0 196.0 L 1021.1 196.8 L 1023.3 196.3 L 1025.5 193.9 L 1027.6 191.9 L 1029.8 189.7 L 1031.9 189.5 L 1034.1 192.1 L 1036.3 195.2 L 1038.4 190.4 L 1040.6 189.7 L 1042.7 189.7 L 1044.9 193.0 L 1047.0 191.6 L 1049.2 191.6 L 1051.4 187.1 L 1053.5 186.0 L 1055.7 188.3 L 1057.8 188.1 L 1060.0 184.6 L 1060.0 505.0 L 1057.8 504.3 L 1055.7 501.9 L 1053.5 502.0 L 1051.4 497.4 L 1049.2 497.5 L 1047.0 493.8 L 1044.9 493.5 L 1042.7 490.5 L 1040.6 487.8 L 1038.4 482.1 L 1036.3 479.9 L 1034.1 470.8 L 1031.9 475.0 L 1029.8 472.0 L 1027.6 471.6 L 1025.5 464.6 L 1023.3 465.8 L 1021.1 462.9 L 1019.0 460.3 L 1016.8 453.8 L 1014.7 456.9 L 1012.5 450.1 L 1010.4 448.8 L 1008.2 445.7 L 1006.0 442.3 L 1003.9 449.9 L 1001.7 448.5 L 999.6 441.8 L 997.4 445.0 L 995.2 441.5 L 993.1 439.6 L 990.9 431.9 L 988.8 433.5 L 986.6 429.9 L 984.4 426.4 L 982.3 423.0 L 980.1 425.3 L 978.0 419.3 L 975.8 419.1 L 973.7 415.5 L 971.5 413.6 L 969.3 419.2 L 967.2 417.2 L 965.0 415.4 L 962.9 414.7 L 960.7 410.2 L 958.5 408.5 L 956.4 399.7 L 954.2 400.9 L 952.1 396.9 L 949.9 394.2 L 947.8 391.3 L 945.6 391.4 L 943.4 385.4 L 941.3 382.8 L 939.1 382.1 L 937.0 379.2 L 934.8 383.7 L 932.6 378.4 L 930.5 380.2 L 928.3 371.2 L 926.2 368.2 L 924.0 371.3 L 921.9 365.0 L 919.7 363.3 L 917.5 358.7 L 915.4 355.4 L 913.2 353.7 L 911.1 349.7 L 908.9 348.3 L 906.7 346.7 L 904.6 342.0 L 902.4 336.9 L 900.3 339.3 L 898.1 336.1 L 895.9 336.5 L 893.8 333.1 L 891.6 330.1 L 889.5 329.2 L 887.3 325.2 L 885.2 322.3 L 883.0 320.7 L 880.8 317.3 L 878.7 315.2 L 876.5 312.7 L 874.4 308.9 L 872.2 306.9 L 870.0 300.5 L 867.9 298.5 Z" fill="#dc2626" fill-opacity="0.13" stroke="none"/>
<path d="M 80.0 170.3 L 82.2 163.8 L 84.3 166.8 L 86.5 165.5 L 88.6 167.0 L 90.8 168.7 L 93.0 152.5 L 95.1 156.7 L 97.3 150.6 L 99.4 137.4 L 101.6 128.0 L 103.7 148.3 L 105.9 146.2 L 108.1 140.4 L 110.2 138.4 L 112.4 140.7 L 114.5 146.1 L 116.7 156.6 L 118.9 164.4 L 121.0 161.5 L 123.2 156.4 L 125.3 155.3 L 127.5 157.6 L 129.6 160.9 L 131.8 176.7 L 134.0 162.9 L 136.1 156.8 L 138.3 155.9 L 140.4 134.5 L 142.6 134.5 L 144.8 142.1 L 146.9 156.2 L 149.1 154.3 L 151.2 157.5 L 153.4 156.6 L 155.6 150.8 L 157.7 161.7 L 159.9 160.0 L 162.0 161.1 L 164.2 167.8 L 166.3 173.7 L 168.5 179.5 L 170.7 157.9 L 172.8 154.2 L 175.0 148.2 L 177.1 150.1 L 179.3 149.6 L 181.5 148.4 L 183.6 143.4 L 185.8 149.2 L 187.9 156.2 L 190.1 141.1 L 192.2 137.7 L 194.4 145.2 L 196.6 144.2 L 198.7 139.5 L 200.9 143.9 L 203.0 140.8 L 205.2 130.1 L 207.4 108.6 L 209.5 102.0 L 211.7 102.5 L 213.8 95.3 L 216.0 92.1 L 218.1 101.0 L 220.3 97.3 L 222.5 94.9 L 224.6 100.3 L 226.8 100.7 L 228.9 103.2 L 231.1 102.7 L 233.3 91.6 L 235.4 96.7 L 237.6 98.5 L 239.7 101.6 L 241.9 100.3 L 244.1 93.9 L 246.2 99.7 L 248.4 100.2 L 250.5 100.7 L 252.7 109.7 L 254.8 120.7 L 257.0 124.1 L 259.2 116.6 L 261.3 112.9 L 263.5 117.0 L 265.6 113.1 L 267.8 102.3 L 270.0 105.7 L 272.1 106.7 L 274.3 94.4 L 276.4 97.0 L 278.6 90.8 L 280.7 77.6 L 282.9 98.7 L 285.1 102.8 L 287.2 102.7 L 289.4 102.6 L 291.5 107.7 L 293.7 122.6 L 295.9 116.3 L 298.0 124.3 L 300.2 104.6 L 302.3 111.2 L 304.5 119.8 L 306.7 135.2 L 308.8 127.7 L 311.0 129.9 L 313.1 124.0 L 315.3 143.3 L 317.4 141.3 L 319.6 144.0 L 321.8 139.3 L 323.9 130.1 L 326.1 127.9 L 328.2 132.4 L 330.4 132.7 L 332.6 134.9 L 334.7 130.5 L 336.9 126.3 L 339.0 128.6 L 341.2 117.7 L 343.3 111.0 L 345.5 108.6 L 347.7 109.1 L 349.8 111.9 L 352.0 111.6 L 354.1 105.2 L 356.3 106.7 L 358.5 104.0 L 360.6 110.3 L 362.8 110.1 L 364.9 112.1 L 367.1 123.6 L 369.3 126.6 L 371.4 120.7 L 373.6 140.4 L 375.7 137.4 L 377.9 137.5 L 380.0 125.8 L 382.2 116.2 L 384.4 117.3 L 386.5 97.4 L 388.7 89.2 L 390.8 82.0 L 393.0 81.4 L 395.2 76.8 L 397.3 72.0 L 399.5 85.8 L 401.6 77.6 L 403.8 84.4 L 405.9 123.1 L 408.1 132.8 L 410.3 113.3 L 412.4 112.4 L 414.6 121.9 L 416.7 132.2 L 418.9 144.2 L 421.1 152.6 L 423.2 149.0 L 425.4 142.1 L 427.5 133.3 L 429.7 143.7 L 431.9 147.2 L 434.0 135.4 L 436.2 131.1 L 438.3 128.2 L 440.5 115.1 L 442.6 117.1 L 444.8 122.5 L 447.0 135.7 L 449.1 143.6 L 451.3 137.6 L 453.4 135.3 L 455.6 133.3 L 457.8 151.8 L 459.9 176.8 L 462.1 164.9 L 464.2 177.5 L 466.4 167.6 L 468.5 172.7 L 470.7 160.8 L 472.9 154.6 L 475.0 169.0 L 477.2 176.0 L 479.3 185.9 L 481.5 212.7 L 483.7 207.3 L 485.8 214.5 L 488.0 225.7 L 490.1 221.5 L 492.3 229.3 L 494.4 257.5 L 496.6 266.4 L 498.8 268.7 L 500.9 256.3 L 503.1 247.8 L 505.2 253.2 L 507.4 235.3 L 509.6 230.5 L 511.7 233.0 L 513.9 233.5 L 516.0 236.0 L 518.2 259.5 L 520.4 230.9 L 522.5 219.0 L 524.7 226.4 L 526.8 241.9 L 529.0 242.4 L 531.1 235.8 L 533.3 234.5 L 535.5 223.1 L 537.6 226.8 L 539.8 224.0 L 541.9 236.5 L 544.1 236.7 L 546.3 248.5 L 548.4 258.7 L 550.6 250.3 L 552.7 259.8 L 554.9 264.1 L 557.0 248.7 L 559.2 247.4 L 561.4 245.7 L 563.5 245.9 L 565.7 252.5 L 567.8 251.4 L 570.0 254.0 L 572.2 253.2 L 574.3 250.2 L 576.5 249.8 L 578.6 253.9 L 580.8 246.7 L 583.0 251.5 L 585.1 244.7 L 587.3 238.1 L 589.4 234.5 L 591.6 229.5 L 593.7 216.6 L 595.9 217.3 L 598.1 230.4 L 600.2 231.9 L 602.4 234.4 L 604.5 235.2 L 606.7 232.3 L 608.9 230.8 L 611.0 208.3 L 613.2 200.1 L 615.3 207.3 L 617.5 207.5 L 619.6 209.7 L 621.8 217.7 L 624.0 223.4 L 626.1 247.0 L 628.3 241.1 L 630.4 240.5 L 632.6 240.3 L 634.8 242.5 L 636.9 257.3 L 639.1 247.5 L 641.2 242.3 L 643.4 242.0 L 645.6 269.3 L 647.7 271.6 L 649.9 306.2 L 652.0 317.8 L 654.2 306.2 L 656.3 325.8 L 658.5 343.6 L 660.7 420.6 L 662.8 361.9 L 665.0 371.3 L 667.1 363.7 L 669.3 365.1 L 671.5 374.7 L 673.6 387.8 L 675.8 394.0 L 677.9 374.6 L 680.1 367.4 L 682.2 374.7 L 684.4 374.3 L 686.6 384.7 L 688.7 392.6 L 690.9 388.4 L 693.0 380.8 L 695.2 381.1 L 697.4 383.6 L 699.5 406.6 L 701.7 411.4 L 703.8 381.0 L 706.0 384.8 L 708.1 397.1 L 710.3 388.7 L 712.5 397.9 L 714.6 374.7 L 716.8 378.4 L 718.9 347.1 L 721.1 359.7 L 723.3 380.1 L 725.4 386.5 L 727.6 396.4 L 729.7 377.7 L 731.9 366.5 L 734.1 364.8 L 736.2 362.2 L 738.4 359.4 L 740.5 357.4 L 742.7 346.0 L 744.8 331.8 L 747.0 338.4 L 749.2 357.1 L 751.3 366.7 L 753.5 362.4 L 755.6 374.1 L 757.8 382.0 L 760.0 359.6 L 762.1 362.1 L 764.3 356.5 L 766.4 374.8 L 768.6 393.0 L 770.7 393.2 L 772.9 396.1 L 775.1 390.0 L 777.2 378.8 L 779.4 380.1 L 781.5 389.2 L 783.7 388.7 L 785.9 386.2 L 788.0 373.2 L 790.2 374.6 L 792.3 352.3 L 794.5 358.4 L 796.7 353.3 L 798.8 345.0 L 801.0 344.5 L 803.1 360.8 L 805.3 335.0 L 807.4 336.9 L 809.6 332.3 L 811.8 329.9 L 813.9 317.1 L 816.1 326.3 L 818.2 339.2 L 820.4 325.3 L 822.6 322.0 L 824.7 309.8 L 826.9 309.3 L 829.0 314.7 L 831.2 313.4 L 833.3 306.7 L 835.5 315.1 L 837.7 321.9 L 839.8 325.7 L 842.0 321.9 L 844.1 309.5 L 846.3 306.5 L 848.5 307.3 L 850.6 299.0 L 852.8 292.3 L 854.9 288.9 L 857.1 298.0 L 859.3 296.9 L 861.4 293.8 L 863.6 284.2 L 865.7 287.1" fill="none" stroke="#2563eb" stroke-width="2.2"/>
<path d="M 867.9 285.4 L 870.0 286.5 L 872.2 288.1 L 874.4 289.5 L 876.5 289.7 L 878.7 289.6 L 880.8 289.7 L 883.0 290.0 L 885.2 289.2 L 887.3 290.0 L 889.5 290.8 L 891.6 290.7 L 893.8 292.4 L 895.9 291.4 L 898.1 290.9 L 900.3 293.0 L 902.4 294.0 L 904.6 296.3 L 906.7 297.3 L 908.9 297.9 L 911.1 297.8 L 913.2 299.5 L 915.4 299.4 L 917.5 300.0 L 919.7 299.3 L 921.9 299.9 L 924.0 300.3 L 926.2 300.5 L 928.3 302.4 L 930.5 302.0 L 932.6 302.2 L 934.8 304.5 L 937.0 303.9 L 939.1 306.2 L 941.3 306.9 L 943.4 307.6 L 945.6 306.9 L 947.8 308.7 L 949.9 308.6 L 952.1 309.8 L 954.2 309.2 L 956.4 309.7 L 958.5 310.3 L 960.7 311.5 L 962.9 313.3 L 965.0 313.4 L 967.2 313.7 L 969.3 313.8 L 971.5 315.1 L 973.7 316.3 L 975.8 316.8 L 978.0 317.6 L 980.1 318.7 L 982.3 318.9 L 984.4 319.4 L 986.6 319.9 L 988.8 320.0 L 990.9 320.0 L 993.1 320.8 L 995.2 321.0 L 997.4 322.5 L 999.6 324.3 L 1001.7 323.1 L 1003.9 320.1 L 1006.0 323.3 L 1008.2 324.0 L 1010.4 325.1 L 1012.5 327.4 L 1014.7 329.0 L 1016.8 329.0 L 1019.0 331.2 L 1021.1 330.7 L 1023.3 331.0 L 1025.5 331.3 L 1027.6 332.2 L 1029.8 333.0 L 1031.9 336.0 L 1034.1 337.8 L 1036.3 337.8 L 1038.4 335.2 L 1040.6 336.6 L 1042.7 337.6 L 1044.9 337.9 L 1047.0 341.9 L 1049.2 342.5 L 1051.4 343.1 L 1053.5 344.5 L 1055.7 343.1 L 1057.8 343.7 L 1060.0 344.2" fill="none" stroke="#dc2626" stroke-width="2.4" stroke-dasharray="8 5"/>
<circle cx="88" cy="586" r="5" fill="#2563eb"/><text x="100" y="590" font-family="Arial, sans-serif" font-size="13" fill="#374151">history</text>
<circle cx="178" cy="586" r="5" fill="#dc2626"/><text x="190" y="590" font-family="Arial, sans-serif" font-size="13" fill="#374151">forecast</text>
<rect x="265" y="581" width="22" height="10" rx="2" fill="#dc2626" fill-opacity="0.18"/><text x="296" y="590" font-family="Arial, sans-serif" font-size="13" fill="#374151">10-90% probability corridor</text>
</svg>
