<svg xmlns="http://www.w3.org/2000/svg" data-y-scale="linear" width="1100" height="620" viewBox="0 0 1100 620">
<rect width="100%" height="100%" fill="#ffffff"/>
<text x="80" y="26" font-family="Arial, sans-serif" font-size="20" font-weight="700" fill="#111827">BTCUSDT Chronos-2 Forecast</text>
<text x="80" y="50" font-family="Arial, sans-serif" font-size="13" fill="#4b5563">Last history close: 81,745.65 | Last forecast: 73,075.59</text>
<line x1="80" y1="505.0" x2="1060" y2="505.0" stroke="#e5e7eb" stroke-width="1"/>
<text x="70" y="509.0" text-anchor="end" font-family="Arial, sans-serif" font-size="12" fill="#6b7280">53,308</text>
<line x1="80" y1="396.8" x2="1060" y2="396.8" stroke="#e5e7eb" stroke-width="1"/>
<text x="70" y="400.8" text-anchor="end" font-family="Arial, sans-serif" font-size="12" fill="#6b7280">71,145</text>
<line x1="80" y1="288.5" x2="1060" y2="288.5" stroke="#e5e7eb" stroke-width="1"/>
<text x="70" y="292.5" text-anchor="end" font-family="Arial, sans-serif" font-size="12" fill="#6b7280">88,983</text>
<line x1="80" y1="180.2" x2="1060" y2="180.2" stroke="#e5e7eb" stroke-width="1"/>
<text x="70" y="184.2" text-anchor="end" font-family="Arial, sans-serif" font-size="12" fill="#6b7280">106,821</text>
<line x1="80" y1="72.0" x2="1060" y2="72.0" stroke="#e5e7eb" stroke-width="1"/>
<text x="70" y="76.0" text-anchor="end" font-family="Arial, sans-serif" font-size="12" fill="#6b7280">124,659</text>
<line class="x-axis-grid" x1="80.0" y1="72" x2="80.0" y2="505" stroke="#f1f5f9" stroke-width="1"/>
<line class="x-axis-grid" x1="276.0" y1="72" x2="276.0" y2="505" stroke="#f1f5f9" stroke-width="1"/>
<line class="x-axis-grid" x1="472.0" y1="72" x2="472.0" y2="505" stroke="#f1f5f9" stroke-width="1"/>
<line class="x-axis-grid" x1="668.0" y1="72" x2="668.0" y2="505" stroke="#f1f5f9" stroke-width="1"/>
<line class="x-axis-grid" x1="864.0" y1="72" x2="864.0" y2="505" stroke="#f1f5f9" stroke-width="1"/>
<line class="x-axis-grid" x1="1060.0" y1="72" x2="1060.0" y2="505" stroke="#f1f5f9" stroke-width="1"/>
<line x1="80" y1="72" x2="80" y2="505" stroke="#9ca3af" stroke-width="1"/>
<line x1="80" y1="505" x2="1060" y2="505" stroke="#9ca3af" stroke-width="1"/>
<text class="x-axis-label" x="80.0" y="530" text-anchor="middle" font-family="Arial, sans-serif" font-size="11" fill="#6b7280">2025-05-12</text>
<text class="x-axis-label" x="276.0" y="530" text-anchor="middle" font-family="Arial, sans-serif" font-size="11" fill="#6b7280">2025-08-10</text>
<text class="x-axis-label" x="472.0" y="530" text-anchor="middle" font-family="Arial, sans-serif" font-size="11" fill="#6b7280">2025-11-09</text>
<text class="x-axis-label" x="668.0" y="530" text-anchor="middle" font-family="Arial, sans-serif" font-size="11" fill="#6b7280">2026-02-08</text>
<text class="x-axis-label" x="864.0" y="530" text-anchor="middle" font-family="Arial, sans-serif" font-size="11" fill="#6b7280">2026-05-10</text>
<text class="x-axis-label" x="1060.0" y="530" text-anchor="middle" font-family="Arial, sans-serif" font-size="11" fill="#6b7280">2026-08-09</text>
<line id="forecast-start-line" x1="867.9" y1="72" x2="867.9" y2="505" stroke="#111827" stroke-width="1.3" stroke-dasharray="5 6" opacity="0.42"/>
<text x="875.9" y="87" font-family="Arial, sans-serif" font-size="11" fill="#374151">forecast start</text>
<path id="probability-corridor" d="M 867.9 319.9 L 870.0 318.9 L 872.2 317.5 L 874.4 315.1 L 876.5 312.7 L 878.7 310.4 L 880.8 308.7 L 883.0 306.1 L 885.2 303.6 L 887.3 302.6 L 889.5 300.3 L 891.6 299.4 L 893.8 297.3 L 895.9 296.6 L 898.1 295.1 L 900.3 292.7 L 902.4 297.2 L 904.6 297.0 L 906.7 295.6 L 908.9 292.3 L 911.1 292.4 L 913.2 291.0 L 915.4 289.9 L 917.5 288.5 L 919.7 285.5 L 921.9 285.6 L 924.0 282.7 L 926.2 281.9 L 928.3 280.2 L 930.5 280.4 L 932.6 280.4 L 934.8 278.0 L 937.0 282.8 L 939.1 283.3 L 941.3 282.5 L 943.4 279.9 L 945.6 281.1 L 947.8 277.9 L 949.9 277.5 L 952.1 276.8 L 954.2 274.8 L 956.4 274.6 L 958.5 271.3 L 960.7 269.4 L 962.9 268.1 L 965.0 268.9 L 967.2 269.8 L 969.3 268.0 L 971.5 267.7 L 973.7 268.6 L 975.8 268.8 L 978.0 265.0 L 980.1 267.2 L 982.3 264.0 L 984.4 264.8 L 986.6 262.7 L 988.8 261.4 L 990.9 260.5 L 993.1 256.5 L 995.2 253.5 L 997.4 252.7 L 999.6 253.7 L 1001.7 254.3 L 1003.9 249.7 L 1006.0 238.7 L 1008.2 239.6 L 1010.4 242.0 L 1012.5 239.0 L 1014.7 239.7 L 1016.8 235.5 L 1019.0 235.3 L 1021.1 236.3 L 1023.3 235.8 L 1025.5 232.9 L 1027.6 230.6 L 1029.8 227.9 L 1031.9 227.7 L 1034.1 230.8 L 1036.3 234.5 L 1038.4 228.8 L 1040.6 227.9 L 1042.7 228.0 L 1044.9 231.8 L 1047.0 230.3 L 1049.2 230.2 L 1051.4 225.0 L 1053.5 223.6 L 1055.7 226.4 L 1057.8 226.1 L 1060.0 222.0 L 1060.0 505.0 L 1057.8 504.6 L 1055.7 503.0 L 1053.5 503.1 L 1051.4 500.1 L 1049.2 500.2 L 1047.0 497.8 L 1044.9 497.6 L 1042.7 495.7 L 1040.6 493.9 L 1038.4 490.2 L 1036.3 488.7 L 1034.1 482.6 L 1031.9 485.4 L 1029.8 483.4 L 1027.6 483.1 L 1025.5 478.3 L 1023.3 479.1 L 1021.1 477.1 L 1019.0 475.3 L 1016.8 470.8 L 1014.7 473.0 L 1012.5 468.2 L 1010.4 467.3 L 1008.2 465.1 L 1006.0 462.7 L 1003.9 468.0 L 1001.7 467.1 L 999.6 462.3 L 997.4 464.6 L 995.2 462.1 L 993.1 460.7 L 990.9 455.1 L 988.8 456.3 L 986.6 453.6 L 984.4 451.0 L 982.3 448.5 L 980.1 450.2 L 978.0 445.8 L 975.8 445.6 L 973.7 442.9 L 971.5 441.5 L 969.3 445.7 L 967.2 444.2 L 965.0 442.8 L 962.9 442.3 L 960.7 438.9 L 958.5 437.6 L 956.4 430.7 L 954.2 431.7 L 952.1 428.6 L 949.9 426.4 L 947.8 424.2 L 945.6 424.3 L 943.4 419.5 L 941.3 417.4 L 939.1 416.8 L 937.0 414.4 L 934.8 418.1 L 932.6 413.8 L 930.5 415.3 L 928.3 407.9 L 926.2 405.4 L 924.0 408.0 L 921.9 402.8 L 919.7 401.3 L 917.5 397.4 L 915.4 394.7 L 913.2 393.2 L 911.1 389.7 L 908.9 388.6 L 906.7 387.2 L 904.6 383.1 L 902.4 378.6 L 900.3 380.8 L 898.1 377.9 L 895.9 378.3 L 893.8 375.2 L 891.6 372.6 L 889.5 371.8 L 887.3 368.1 L 885.2 365.5 L 883.0 364.1 L 880.8 361.0 L 878.7 359.0 L 876.5 356.7 L 874.4 353.2 L 872.2 351.4 L 870.0 345.3 L 867.9 343.4 Z" fill="#dc2626" fill-opacity="0.13" stroke="none"/>
<path d="M 80.0 204.7 L 82.2 196.7 L 84.3 200.4 L 86.5 198.8 L 88.6 200.6 L 90.8 202.7 L 93.0 182.5 L 95.1 187.8 L 97.3 180.1 L 99.4 163.1 L 101.6 150.7 L 103.7 177.2 L 105.9 174.5 L 108.1 167.0 L 110.2 164.4 L 112.4 167.4 L 114.5 174.4 L 116.7 187.7 L 118.9 197.5 L 121.0 193.8 L 123.2 187.4 L 125.3 186.1 L 127.5 189.0 L 129.6 193.1 L 131.8 212.5 L 134.0 195.6 L 136.1 187.9 L 138.3 186.8 L 140.4 159.4 L 142.6 159.3 L 144.8 169.2 L 146.9 187.2 L 149.1 184.8 L 151.2 188.8 L 153.4 187.7 L 155.6 180.4 L 157.7 194.0 L 159.9 192.0 L 162.0 193.4 L 164.2 201.6 L 166.3 208.8 L 168.5 215.8 L 170.7 189.3 L 172.8 184.7 L 175.0 177.1 L 177.1 179.5 L 179.3 178.9 L 181.5 177.4 L 183.6 170.9 L 185.8 178.3 L 187.9 187.2 L 190.1 167.9 L 192.2 163.5 L 194.4 173.2 L 196.6 171.9 L 198.7 165.8 L 200.9 171.5 L 203.0 167.5 L 205.2 153.5 L 207.4 124.5 L 209.5 115.3 L 211.7 115.9 L 213.8 105.8 L 216.0 101.2 L 218.1 113.9 L 220.3 108.6 L 222.5 105.3 L 224.6 112.9 L 226.8 113.4 L 228.9 116.9 L 231.1 116.2 L 233.3 100.5 L 235.4 107.8 L 237.6 110.3 L 239.7 114.7 L 241.9 112.9 L 244.1 103.8 L 246.2 112.0 L 248.4 112.7 L 250.5 113.4 L 252.7 126.0 L 254.8 140.9 L 257.0 145.5 L 259.2 135.4 L 261.3 130.3 L 263.5 135.9 L 265.6 130.7 L 267.8 115.6 L 270.0 120.5 L 272.1 121.7 L 274.3 104.6 L 276.4 108.2 L 278.6 99.5 L 280.7 80.2 L 282.9 110.6 L 285.1 116.4 L 287.2 116.2 L 289.4 116.0 L 291.5 123.2 L 293.7 143.5 L 295.9 135.0 L 298.0 145.8 L 300.2 118.9 L 302.3 128.0 L 304.5 139.8 L 306.7 160.3 L 308.8 150.3 L 311.0 153.3 L 313.1 145.4 L 315.3 170.8 L 317.4 168.1 L 319.6 171.6 L 321.8 165.6 L 323.9 153.4 L 326.1 150.6 L 328.2 156.5 L 330.4 157.0 L 332.6 159.8 L 334.7 154.1 L 336.9 148.4 L 339.0 151.6 L 341.2 136.9 L 343.3 127.7 L 345.5 124.4 L 347.7 125.0 L 349.8 129.0 L 352.0 128.5 L 354.1 119.8 L 356.3 121.8 L 358.5 118.0 L 360.6 126.8 L 362.8 126.5 L 364.9 129.2 L 367.1 144.9 L 369.3 148.8 L 371.4 140.9 L 373.6 167.1 L 375.7 163.1 L 377.9 163.2 L 380.0 147.8 L 382.2 134.8 L 384.4 136.4 L 386.5 108.8 L 388.7 97.1 L 390.8 86.7 L 393.0 85.8 L 395.2 79.1 L 397.3 72.0 L 399.5 92.2 L 401.6 80.2 L 403.8 90.2 L 405.9 144.1 L 408.1 157.0 L 410.3 130.9 L 412.4 129.6 L 414.6 142.6 L 416.7 156.3 L 418.9 171.9 L 421.1 182.6 L 423.2 178.0 L 425.4 169.2 L 427.5 157.7 L 429.7 171.3 L 431.9 175.7 L 434.0 160.5 L 436.2 154.9 L 438.3 151.0 L 440.5 133.3 L 442.6 136.0 L 444.8 143.4 L 447.0 160.8 L 449.1 171.1 L 451.3 163.3 L 453.4 160.4 L 455.6 157.7 L 457.8 181.7 L 459.9 212.6 L 462.1 198.1 L 464.2 213.5 L 466.4 201.4 L 468.5 207.6 L 470.7 193.0 L 472.9 185.2 L 475.0 203.1 L 477.2 211.6 L 479.3 223.5 L 481.5 254.4 L 483.7 248.4 L 485.8 256.5 L 488.0 268.9 L 490.1 264.4 L 492.3 272.9 L 494.4 302.7 L 496.6 311.9 L 498.8 314.3 L 500.9 301.6 L 503.1 292.6 L 505.2 298.3 L 507.4 279.4 L 509.6 274.2 L 511.7 276.9 L 513.9 277.5 L 516.0 280.1 L 518.2 304.9 L 520.4 274.6 L 522.5 261.5 L 524.7 269.7 L 526.8 286.4 L 529.0 287.0 L 531.1 279.9 L 533.3 278.5 L 535.5 266.1 L 537.6 270.1 L 539.8 267.1 L 541.9 280.7 L 544.1 280.9 L 546.3 293.4 L 548.4 304.0 L 550.6 295.3 L 552.7 305.1 L 554.9 309.5 L 557.0 293.6 L 559.2 292.3 L 561.4 290.5 L 563.5 290.7 L 565.7 297.6 L 567.8 296.5 L 570.0 299.2 L 572.2 298.3 L 574.3 295.2 L 576.5 294.8 L 578.6 299.1 L 580.8 291.5 L 583.0 296.6 L 585.1 289.4 L 587.3 282.4 L 589.4 278.5 L 591.6 273.0 L 593.7 258.9 L 595.9 259.6 L 598.1 274.1 L 600.2 275.7 L 602.4 278.4 L 604.5 279.3 L 606.7 276.2 L 608.9 274.5 L 611.0 249.5 L 613.2 240.1 L 615.3 248.3 L 617.5 248.6 L 619.6 251.1 L 621.8 260.0 L 624.0 266.4 L 626.1 291.9 L 628.3 285.6 L 630.4 285.0 L 632.6 284.8 L 634.8 287.0 L 636.9 302.5 L 639.1 292.4 L 641.2 286.9 L 643.4 286.6 L 645.6 314.8 L 647.7 317.2 L 649.9 350.7 L 652.0 361.4 L 654.2 350.7 L 656.3 368.7 L 658.5 384.5 L 660.7 446.7 L 662.8 400.2 L 665.0 408.0 L 667.1 401.7 L 669.3 402.9 L 671.5 410.7 L 673.6 421.4 L 675.8 426.3 L 677.9 410.7 L 680.1 404.8 L 682.2 410.8 L 684.4 410.4 L 686.6 418.9 L 688.7 425.2 L 690.9 421.9 L 693.0 415.7 L 695.2 416.0 L 697.4 418.0 L 699.5 436.1 L 701.7 439.8 L 703.8 415.9 L 706.0 419.0 L 708.1 428.8 L 710.3 422.1 L 712.5 429.3 L 714.6 410.8 L 716.8 413.8 L 718.9 387.5 L 721.1 398.3 L 723.3 415.1 L 725.4 420.3 L 727.6 428.2 L 729.7 413.2 L 731.9 404.0 L 734.1 402.5 L 736.2 400.4 L 738.4 398.1 L 740.5 396.3 L 742.7 386.6 L 744.8 374.1 L 747.0 380.0 L 749.2 396.1 L 751.3 404.1 L 753.5 400.6 L 755.6 410.3 L 757.8 416.7 L 760.0 398.2 L 762.1 400.3 L 764.3 395.6 L 766.4 410.9 L 768.6 425.5 L 770.7 425.7 L 772.9 427.9 L 775.1 423.1 L 777.2 414.1 L 779.4 415.1 L 781.5 422.5 L 783.7 422.1 L 785.9 420.1 L 788.0 409.6 L 790.2 410.7 L 792.3 392.0 L 794.5 397.2 L 796.7 392.9 L 798.8 385.7 L 801.0 385.2 L 803.1 399.2 L 805.3 376.9 L 807.4 378.6 L 809.6 374.5 L 811.8 372.4 L 813.9 360.8 L 816.1 369.2 L 818.2 380.6 L 820.4 368.3 L 822.6 365.2 L 824.7 354.1 L 826.9 353.6 L 829.0 358.6 L 831.2 357.4 L 833.3 351.2 L 835.5 359.0 L 837.7 365.2 L 839.8 368.6 L 842.0 365.2 L 844.1 353.7 L 846.3 351.0 L 848.5 351.7 L 850.6 343.9 L 852.8 337.5 L 854.9 334.2 L 857.1 343.0 L 859.3 341.8 L 861.4 338.9 L 863.6 329.6 L 865.7 332.4" fill="none" stroke="#2563eb" stroke-width="2.2"/>
<path d="M 867.9 330.8 L 870.0 331.9 L 872.2 333.4 L 874.4 334.8 L 876.5 334.9 L 878.7 334.8 L 880.8 335.0 L 883.0 335.2 L 885.2 334.5 L 887.3 335.2 L 889.5 336.0 L 891.6 336.0 L 893.8 337.6 L 895.9 336.6 L 898.1 336.1 L 900.3 338.2 L 902.4 339.1 L 904.6 341.3 L 906.7 342.3 L 908.9 342.8 L 911.1 342.7 L 913.2 344.4 L 915.4 344.3 L 917.5 344.8 L 919.7 344.2 L 921.9 344.8 L 924.0 345.1 L 926.2 345.3 L 928.3 347.1 L 930.5 346.7 L 932.6 346.9 L 934.8 349.1 L 937.0 348.5 L 939.1 350.7 L 941.3 351.4 L 943.4 352.0 L 945.6 351.4 L 947.8 353.1 L 949.9 352.9 L 952.1 354.0 L 954.2 353.5 L 956.4 353.9 L 958.5 354.6 L 960.7 355.7 L 962.9 357.3 L 965.0 357.4 L 967.2 357.7 L 969.3 357.7 L 971.5 358.9 L 973.7 360.1 L 975.8 360.5 L 978.0 361.3 L 980.1 362.2 L 982.3 362.4 L 984.4 362.9 L 986.6 363.3 L 988.8 363.5 L 990.9 363.5 L 993.1 364.2 L 995.2 364.4 L 997.4 365.7 L 999.6 367.3 L 1001.7 366.3 L 1003.9 363.5 L 1006.0 366.5 L 1008.2 367.1 L 1010.4 368.1 L 1012.5 370.1 L 1014.7 371.6 L 1016.8 371.5 L 1019.0 373.5 L 1021.1 373.1 L 1023.3 373.4 L 1025.5 373.7 L 1027.6 374.4 L 1029.8 375.2 L 1031.9 377.8 L 1034.1 379.4 L 1036.3 379.4 L 1038.4 377.1 L 1040.6 378.3 L 1042.7 379.3 L 1044.9 379.5 L 1047.0 383.0 L 1049.2 383.5 L 1051.4 384.0 L 1053.5 385.3 L 1055.7 384.0 L 1057.8 384.6 L 1060.0 385.0" fill="none" stroke="#dc2626" stroke-width="2.4" stroke-dasharray="8 5"/>
<circle cx="88" cy="586" r="5" fill="#2563eb"/><text x="100" y="590" font-family="Arial, sans-serif" font-size="13" fill="#374151">history</text>
<circle cx="178" cy="586" r="5" fill="#dc2626"/><text x="190" y="590" font-family="Arial, sans-serif" font-size="13" fill="#374151">forecast</text>
<rect x="265" y="581" width="22" height="10" rx="2" fill="#dc2626" fill-opacity="0.18"/><text x="296" y="590" font-family="Arial, sans-serif" font-size="13" fill="#374151">10-90% probability corridor</text>
</svg>
