<svg xmlns="http://www.w3.org/2000/svg" data-y-scale="log" width="1100" height="620" viewBox="0 0 1100 620">
<rect width="100%" height="100%" fill="#ffffff"/>
<text x="80" y="26" font-family="Arial, sans-serif" font-size="20" font-weight="700" fill="#111827">BTCUSDT Chronos-2 Forecast</text>
<text x="80" y="50" font-family="Arial, sans-serif" font-size="13" fill="#4b5563">Last history close: 81,745.65 | Last forecast: 84,159.58 | Y scale: log scale</text>
<line x1="80" y1="505.0" x2="1060" y2="505.0" stroke="#e5e7eb" stroke-width="1"/>
<text x="70" y="509.0" text-anchor="end" font-family="Arial, sans-serif" font-size="12" fill="#6b7280">52,009</text>
<line x1="80" y1="396.8" x2="1060" y2="396.8" stroke="#e5e7eb" stroke-width="1"/>
<text x="70" y="400.8" text-anchor="end" font-family="Arial, sans-serif" font-size="12" fill="#6b7280">66,161</text>
<line x1="80" y1="288.5" x2="1060" y2="288.5" stroke="#e5e7eb" stroke-width="1"/>
<text x="70" y="292.5" text-anchor="end" font-family="Arial, sans-serif" font-size="12" fill="#6b7280">84,165</text>
<line x1="80" y1="180.2" x2="1060" y2="180.2" stroke="#e5e7eb" stroke-width="1"/>
<text x="70" y="184.2" text-anchor="end" font-family="Arial, sans-serif" font-size="12" fill="#6b7280">107,067</text>
<line x1="80" y1="72.0" x2="1060" y2="72.0" stroke="#e5e7eb" stroke-width="1"/>
<text x="70" y="76.0" text-anchor="end" font-family="Arial, sans-serif" font-size="12" fill="#6b7280">136,202</text>
<line class="x-axis-grid" x1="80.0" y1="72" x2="80.0" y2="505" stroke="#f1f5f9" stroke-width="1"/>
<line class="x-axis-grid" x1="276.0" y1="72" x2="276.0" y2="505" stroke="#f1f5f9" stroke-width="1"/>
<line class="x-axis-grid" x1="472.0" y1="72" x2="472.0" y2="505" stroke="#f1f5f9" stroke-width="1"/>
<line class="x-axis-grid" x1="668.0" y1="72" x2="668.0" y2="505" stroke="#f1f5f9" stroke-width="1"/>
<line class="x-axis-grid" x1="864.0" y1="72" x2="864.0" y2="505" stroke="#f1f5f9" stroke-width="1"/>
<line class="x-axis-grid" x1="1060.0" y1="72" x2="1060.0" y2="505" stroke="#f1f5f9" stroke-width="1"/>
<line x1="80" y1="72" x2="80" y2="505" stroke="#9ca3af" stroke-width="1"/>
<line x1="80" y1="505" x2="1060" y2="505" stroke="#9ca3af" stroke-width="1"/>
<text class="x-axis-label" x="80.0" y="530" text-anchor="middle" font-family="Arial, sans-serif" font-size="11" fill="#6b7280">2025-05-12</text>
<text class="x-axis-label" x="276.0" y="530" text-anchor="middle" font-family="Arial, sans-serif" font-size="11" fill="#6b7280">2025-08-10</text>
<text class="x-axis-label" x="472.0" y="530" text-anchor="middle" font-family="Arial, sans-serif" font-size="11" fill="#6b7280">2025-11-09</text>
<text class="x-axis-label" x="668.0" y="530" text-anchor="middle" font-family="Arial, sans-serif" font-size="11" fill="#6b7280">2026-02-08</text>
<text class="x-axis-label" x="864.0" y="530" text-anchor="middle" font-family="Arial, sans-serif" font-size="11" fill="#6b7280">2026-05-10</text>
<text class="x-axis-label" x="1060.0" y="530" text-anchor="middle" font-family="Arial, sans-serif" font-size="11" fill="#6b7280">2026-08-09</text>
<line id="forecast-start-line" x1="867.9" y1="72" x2="867.9" y2="505" stroke="#111827" stroke-width="1.3" stroke-dasharray="5 6" opacity="0.42"/>
<text x="875.9" y="87" font-family="Arial, sans-serif" font-size="11" fill="#374151">forecast start</text>
<path id="probability-corridor" d="M 867.9 288.2 L 870.0 286.3 L 872.2 284.1 L 874.4 281.1 L 876.5 277.5 L 878.7 274.1 L 880.8 272.3 L 883.0 269.3 L 885.2 265.4 L 887.3 263.8 L 889.5 261.7 L 891.6 261.0 L 893.8 257.1 L 895.9 255.1 L 898.1 252.6 L 900.3 251.4 L 902.4 240.7 L 904.6 239.5 L 906.7 237.1 L 908.9 233.5 L 911.1 233.3 L 913.2 231.2 L 915.4 230.3 L 917.5 228.8 L 919.7 226.0 L 921.9 223.5 L 924.0 220.7 L 926.2 218.7 L 928.3 216.3 L 930.5 217.7 L 932.6 218.7 L 934.8 216.0 L 937.0 210.4 L 939.1 211.3 L 941.3 212.5 L 943.4 208.7 L 945.6 210.2 L 947.8 206.5 L 949.9 206.1 L 952.1 204.0 L 954.2 202.1 L 956.4 198.3 L 958.5 195.8 L 960.7 192.5 L 962.9 188.8 L 965.0 190.5 L 967.2 190.0 L 969.3 185.3 L 971.5 181.1 L 973.7 181.9 L 975.8 184.3 L 978.0 179.7 L 980.1 181.4 L 982.3 176.7 L 984.4 175.0 L 986.6 173.9 L 988.8 170.0 L 990.9 166.9 L 993.1 163.7 L 995.2 160.2 L 997.4 155.5 L 999.6 158.2 L 1001.7 156.9 L 1003.9 150.7 L 1006.0 114.8 L 1008.2 113.7 L 1010.4 116.7 L 1012.5 111.4 L 1014.7 109.1 L 1016.8 107.4 L 1019.0 105.3 L 1021.1 105.3 L 1023.3 103.2 L 1025.5 100.0 L 1027.6 96.1 L 1029.8 97.3 L 1031.9 91.9 L 1034.1 98.2 L 1036.3 97.2 L 1038.4 89.1 L 1040.6 81.8 L 1042.7 80.3 L 1044.9 87.2 L 1047.0 84.4 L 1049.2 80.4 L 1051.4 77.2 L 1053.5 75.4 L 1055.7 77.1 L 1057.8 76.5 L 1060.0 72.0 L 1060.0 497.7 L 1057.8 502.0 L 1055.7 503.1 L 1053.5 504.1 L 1051.4 502.6 L 1049.2 505.0 L 1047.0 503.7 L 1044.9 502.6 L 1042.7 503.2 L 1040.6 501.2 L 1038.4 478.9 L 1036.3 475.0 L 1034.1 465.5 L 1031.9 472.2 L 1029.8 471.7 L 1027.6 469.5 L 1025.5 460.7 L 1023.3 467.2 L 1021.1 467.9 L 1019.0 465.3 L 1016.8 461.6 L 1014.7 464.4 L 1012.5 459.6 L 1010.4 458.1 L 1008.2 457.5 L 1006.0 458.1 L 1003.9 450.7 L 1001.7 447.6 L 999.6 441.5 L 997.4 445.1 L 995.2 442.8 L 993.1 442.2 L 990.9 433.4 L 988.8 440.9 L 986.6 440.5 L 984.4 437.0 L 982.3 433.0 L 980.1 436.5 L 978.0 431.1 L 975.8 433.2 L 973.7 432.5 L 971.5 432.6 L 969.3 439.6 L 967.2 437.2 L 965.0 433.8 L 962.9 436.9 L 960.7 432.3 L 958.5 429.6 L 956.4 421.6 L 954.2 426.7 L 952.1 426.0 L 949.9 421.8 L 947.8 419.4 L 945.6 421.2 L 943.4 415.0 L 941.3 417.0 L 939.1 414.7 L 937.0 413.2 L 934.8 422.9 L 932.6 419.7 L 930.5 418.3 L 928.3 418.1 L 926.2 411.1 L 924.0 407.3 L 921.9 396.0 L 919.7 399.0 L 917.5 396.0 L 915.4 392.6 L 913.2 389.0 L 911.1 389.6 L 908.9 384.0 L 906.7 380.9 L 904.6 381.2 L 902.4 378.3 L 900.3 400.6 L 898.1 393.3 L 895.9 383.7 L 893.8 371.6 L 891.6 357.2 L 889.5 352.4 L 887.3 343.1 L 885.2 338.9 L 883.0 334.3 L 880.8 329.8 L 878.7 325.8 L 876.5 323.0 L 874.4 318.5 L 872.2 317.4 L 870.0 312.7 L 867.9 309.8 Z" fill="#dc2626" fill-opacity="0.13" stroke="none"/>
<path d="M 80.0 198.6 L 82.2 192.9 L 84.3 195.5 L 86.5 194.3 L 88.6 195.6 L 90.8 197.1 L 93.0 182.8 L 95.1 186.6 L 97.3 181.2 L 99.4 169.6 L 101.6 161.2 L 103.7 179.2 L 105.9 177.3 L 108.1 172.2 L 110.2 170.4 L 112.4 172.5 L 114.5 177.3 L 116.7 186.5 L 118.9 193.4 L 121.0 190.8 L 123.2 186.3 L 125.3 185.4 L 127.5 187.4 L 129.6 190.3 L 131.8 204.2 L 134.0 192.1 L 136.1 186.7 L 138.3 185.9 L 140.4 167.0 L 142.6 167.0 L 144.8 173.7 L 146.9 186.2 L 149.1 184.5 L 151.2 187.2 L 153.4 186.5 L 155.6 181.4 L 157.7 190.9 L 159.9 189.5 L 162.0 190.5 L 164.2 196.4 L 166.3 201.5 L 168.5 206.6 L 170.7 187.6 L 172.8 184.4 L 175.0 179.1 L 177.1 180.8 L 179.3 180.3 L 181.5 179.3 L 183.6 174.9 L 185.8 179.9 L 187.9 186.1 L 190.1 172.8 L 192.2 169.8 L 194.4 176.4 L 196.6 175.5 L 198.7 171.4 L 200.9 175.3 L 203.0 172.5 L 205.2 163.1 L 207.4 144.2 L 209.5 138.3 L 211.7 138.7 L 213.8 132.4 L 216.0 129.6 L 218.1 137.4 L 220.3 134.1 L 222.5 132.1 L 224.6 136.8 L 226.8 137.1 L 228.9 139.3 L 231.1 138.9 L 233.3 129.1 L 235.4 133.6 L 237.6 135.2 L 239.7 138.0 L 241.9 136.8 L 244.1 131.2 L 246.2 136.3 L 248.4 136.7 L 250.5 137.1 L 252.7 145.1 L 254.8 154.8 L 257.0 157.8 L 259.2 151.2 L 261.3 147.9 L 263.5 151.5 L 265.6 148.1 L 267.8 138.5 L 270.0 141.6 L 272.1 142.4 L 274.3 131.6 L 276.4 133.9 L 278.6 128.5 L 280.7 116.7 L 282.9 135.4 L 285.1 139.0 L 287.2 138.9 L 289.4 138.8 L 291.5 143.3 L 293.7 156.5 L 295.9 151.0 L 298.0 158.0 L 300.2 140.6 L 302.3 146.4 L 304.5 154.0 L 306.7 167.6 L 308.8 160.9 L 311.0 163.0 L 313.1 157.7 L 315.3 174.8 L 317.4 173.0 L 319.6 175.3 L 321.8 171.2 L 323.9 163.1 L 326.1 161.2 L 328.2 165.1 L 330.4 165.4 L 332.6 167.3 L 334.7 163.5 L 336.9 159.7 L 339.0 161.8 L 341.2 152.2 L 343.3 146.2 L 345.5 144.1 L 347.7 144.5 L 349.8 147.1 L 352.0 146.7 L 354.1 141.2 L 356.3 142.5 L 358.5 140.1 L 360.6 145.6 L 362.8 145.4 L 364.9 147.2 L 367.1 157.4 L 369.3 160.0 L 371.4 154.8 L 373.6 172.2 L 375.7 169.6 L 377.9 169.6 L 380.0 159.3 L 382.2 150.8 L 384.4 151.8 L 386.5 134.3 L 388.7 127.0 L 390.8 120.7 L 393.0 120.1 L 395.2 116.1 L 397.3 111.8 L 399.5 124.0 L 401.6 116.7 L 403.8 122.8 L 405.9 156.9 L 408.1 165.5 L 410.3 148.3 L 412.4 147.5 L 414.6 155.9 L 416.7 165.0 L 418.9 175.5 L 421.1 182.9 L 423.2 179.8 L 425.4 173.7 L 427.5 165.9 L 429.7 175.1 L 431.9 178.2 L 434.0 167.8 L 436.2 164.0 L 438.3 161.4 L 440.5 149.8 L 442.6 151.6 L 444.8 156.4 L 447.0 168.0 L 449.1 175.0 L 451.3 169.7 L 453.4 167.7 L 455.6 165.9 L 457.8 182.3 L 459.9 204.3 L 462.1 193.8 L 464.2 205.0 L 466.4 196.2 L 468.5 200.7 L 470.7 190.2 L 472.9 184.7 L 475.0 197.4 L 477.2 203.6 L 479.3 212.4 L 481.5 236.0 L 483.7 231.2 L 485.8 237.5 L 488.0 247.4 L 490.1 243.8 L 492.3 250.6 L 494.4 275.5 L 496.6 283.4 L 498.8 285.4 L 500.9 274.5 L 503.1 266.9 L 505.2 271.7 L 507.4 255.9 L 509.6 251.7 L 511.7 253.9 L 513.9 254.4 L 516.0 256.6 L 518.2 277.3 L 520.4 252.0 L 522.5 241.5 L 524.7 248.1 L 526.8 261.7 L 529.0 262.2 L 531.1 256.4 L 533.3 255.2 L 535.5 245.2 L 537.6 248.4 L 539.8 246.0 L 541.9 257.0 L 544.1 257.2 L 546.3 267.6 L 548.4 276.5 L 550.6 269.2 L 552.7 277.5 L 554.9 281.3 L 557.0 267.8 L 559.2 266.6 L 561.4 265.1 L 563.5 265.3 L 565.7 271.1 L 567.8 270.2 L 570.0 272.4 L 572.2 271.7 L 574.3 269.1 L 576.5 268.7 L 578.6 272.4 L 580.8 266.0 L 583.0 270.3 L 585.1 264.2 L 587.3 258.4 L 589.4 255.2 L 591.6 250.8 L 593.7 239.5 L 595.9 240.0 L 598.1 251.6 L 600.2 252.9 L 602.4 255.2 L 604.5 255.8 L 606.7 253.3 L 608.9 251.9 L 611.0 232.1 L 613.2 224.9 L 615.3 231.2 L 617.5 231.4 L 619.6 233.3 L 621.8 240.4 L 624.0 245.4 L 626.1 266.3 L 628.3 261.1 L 630.4 260.6 L 632.6 260.4 L 634.8 262.2 L 636.9 275.3 L 639.1 266.7 L 641.2 262.1 L 643.4 261.9 L 645.6 285.9 L 647.7 288.0 L 649.9 318.5 L 652.0 328.7 L 654.2 318.5 L 656.3 335.8 L 658.5 351.5 L 660.7 419.4 L 662.8 367.7 L 665.0 376.0 L 667.1 369.3 L 669.3 370.5 L 671.5 378.9 L 673.6 390.5 L 675.8 396.0 L 677.9 378.8 L 680.1 372.5 L 682.2 378.9 L 684.4 378.6 L 686.6 387.7 L 688.7 394.7 L 690.9 391.1 L 693.0 384.3 L 695.2 384.6 L 697.4 386.8 L 699.5 407.1 L 701.7 411.3 L 703.8 384.5 L 706.0 387.8 L 708.1 398.7 L 710.3 391.3 L 712.5 399.4 L 714.6 379.0 L 716.8 382.2 L 718.9 354.6 L 721.1 365.7 L 723.3 383.7 L 725.4 389.3 L 727.6 398.0 L 729.7 381.6 L 731.9 371.7 L 734.1 370.2 L 736.2 367.9 L 738.4 365.4 L 740.5 363.7 L 742.7 353.6 L 744.8 341.0 L 747.0 346.9 L 749.2 363.4 L 751.3 371.8 L 753.5 368.1 L 755.6 378.4 L 757.8 385.4 L 760.0 365.6 L 762.1 367.8 L 764.3 362.9 L 766.4 379.0 L 768.6 395.1 L 770.7 395.3 L 772.9 397.8 L 775.1 392.4 L 777.2 382.5 L 779.4 383.7 L 781.5 391.7 L 783.7 391.3 L 785.9 389.1 L 788.0 377.6 L 790.2 378.8 L 792.3 359.2 L 794.5 364.6 L 796.7 360.0 L 798.8 352.7 L 801.0 352.2 L 803.1 366.6 L 805.3 343.9 L 807.4 345.6 L 809.6 341.5 L 811.8 339.4 L 813.9 328.1 L 816.1 336.2 L 818.2 347.6 L 820.4 335.3 L 822.6 332.4 L 824.7 321.7 L 826.9 321.2 L 829.0 326.0 L 831.2 324.9 L 833.3 318.9 L 835.5 326.4 L 837.7 332.4 L 839.8 335.7 L 842.0 332.3 L 844.1 321.4 L 846.3 318.8 L 848.5 319.4 L 850.6 312.1 L 852.8 306.3 L 854.9 303.3 L 857.1 311.3 L 859.3 310.2 L 861.4 307.5 L 863.6 299.1 L 865.7 301.6" fill="none" stroke="#2563eb" stroke-width="2.2"/>
<path d="M 867.9 297.9 L 870.0 298.1 L 872.2 299.1 L 874.4 299.7 L 876.5 299.0 L 878.7 298.8 L 880.8 299.0 L 883.0 299.1 L 885.2 298.4 L 887.3 299.6 L 889.5 301.2 L 891.6 302.7 L 893.8 305.9 L 895.9 304.2 L 898.1 305.6 L 900.3 308.4 L 902.4 303.3 L 904.6 304.3 L 906.7 304.8 L 908.9 305.0 L 911.1 304.4 L 913.2 306.3 L 915.4 306.0 L 917.5 306.2 L 919.7 304.6 L 921.9 304.8 L 924.0 304.6 L 926.2 305.0 L 928.3 306.6 L 930.5 306.4 L 932.6 306.2 L 934.8 308.1 L 937.0 306.7 L 939.1 306.4 L 941.3 307.4 L 943.4 308.0 L 945.6 308.4 L 947.8 308.6 L 949.9 308.9 L 952.1 308.8 L 954.2 307.5 L 956.4 306.5 L 958.5 306.2 L 960.7 306.6 L 962.9 306.4 L 965.0 305.4 L 967.2 304.5 L 969.3 303.7 L 971.5 309.4 L 973.7 307.7 L 975.8 309.0 L 978.0 310.1 L 980.1 311.7 L 982.3 310.5 L 984.4 311.9 L 986.6 310.9 L 988.8 309.2 L 990.9 308.0 L 993.1 307.6 L 995.2 307.5 L 997.4 307.3 L 999.6 307.2 L 1001.7 305.7 L 1003.9 302.6 L 1006.0 296.1 L 1008.2 292.0 L 1010.4 292.9 L 1012.5 295.3 L 1014.7 296.7 L 1016.8 297.2 L 1019.0 299.0 L 1021.1 295.9 L 1023.3 294.0 L 1025.5 293.0 L 1027.6 293.2 L 1029.8 295.3 L 1031.9 297.0 L 1034.1 299.0 L 1036.3 296.9 L 1038.4 293.8 L 1040.6 291.8 L 1042.7 288.0 L 1044.9 289.6 L 1047.0 292.2 L 1049.2 292.8 L 1051.4 293.0 L 1053.5 294.4 L 1055.7 291.1 L 1057.8 289.6 L 1060.0 288.5" fill="none" stroke="#dc2626" stroke-width="2.4" stroke-dasharray="8 5"/>
<circle cx="88" cy="586" r="5" fill="#2563eb"/><text x="100" y="590" font-family="Arial, sans-serif" font-size="13" fill="#374151">history</text>
<circle cx="178" cy="586" r="5" fill="#dc2626"/><text x="190" y="590" font-family="Arial, sans-serif" font-size="13" fill="#374151">forecast</text>
<rect x="265" y="581" width="22" height="10" rx="2" fill="#dc2626" fill-opacity="0.18"/><text x="296" y="590" font-family="Arial, sans-serif" font-size="13" fill="#374151">10-90% probability corridor</text>
</svg>
