<svg xmlns="http://www.w3.org/2000/svg" data-y-scale="linear" width="1100" height="620" viewBox="0 0 1100 620">
<rect width="100%" height="100%" fill="#ffffff"/>
<text x="80" y="26" font-family="Arial, sans-serif" font-size="20" font-weight="700" fill="#111827">BTCUSDT Chronos-2 Forecast</text>
<text x="80" y="50" font-family="Arial, sans-serif" font-size="13" fill="#4b5563">Last history close: 81,745.65 | Last forecast: 84,159.58</text>
<line x1="80" y1="505.0" x2="1060" y2="505.0" stroke="#e5e7eb" stroke-width="1"/>
<text x="70" y="509.0" text-anchor="end" font-family="Arial, sans-serif" font-size="12" fill="#6b7280">52,009</text>
<line x1="80" y1="396.8" x2="1060" y2="396.8" stroke="#e5e7eb" stroke-width="1"/>
<text x="70" y="400.8" text-anchor="end" font-family="Arial, sans-serif" font-size="12" fill="#6b7280">73,057</text>
<line x1="80" y1="288.5" x2="1060" y2="288.5" stroke="#e5e7eb" stroke-width="1"/>
<text x="70" y="292.5" text-anchor="end" font-family="Arial, sans-serif" font-size="12" fill="#6b7280">94,106</text>
<line x1="80" y1="180.3" x2="1060" y2="180.3" stroke="#e5e7eb" stroke-width="1"/>
<text x="70" y="184.3" text-anchor="end" font-family="Arial, sans-serif" font-size="12" fill="#6b7280">115,154</text>
<line x1="80" y1="72.0" x2="1060" y2="72.0" stroke="#e5e7eb" stroke-width="1"/>
<text x="70" y="76.0" text-anchor="end" font-family="Arial, sans-serif" font-size="12" fill="#6b7280">136,202</text>
<line class="x-axis-grid" x1="80.0" y1="72" x2="80.0" y2="505" stroke="#f1f5f9" stroke-width="1"/>
<line class="x-axis-grid" x1="276.0" y1="72" x2="276.0" y2="505" stroke="#f1f5f9" stroke-width="1"/>
<line class="x-axis-grid" x1="472.0" y1="72" x2="472.0" y2="505" stroke="#f1f5f9" stroke-width="1"/>
<line class="x-axis-grid" x1="668.0" y1="72" x2="668.0" y2="505" stroke="#f1f5f9" stroke-width="1"/>
<line class="x-axis-grid" x1="864.0" y1="72" x2="864.0" y2="505" stroke="#f1f5f9" stroke-width="1"/>
<line class="x-axis-grid" x1="1060.0" y1="72" x2="1060.0" y2="505" stroke="#f1f5f9" stroke-width="1"/>
<line x1="80" y1="72" x2="80" y2="505" stroke="#9ca3af" stroke-width="1"/>
<line x1="80" y1="505" x2="1060" y2="505" stroke="#9ca3af" stroke-width="1"/>
<text class="x-axis-label" x="80.0" y="530" text-anchor="middle" font-family="Arial, sans-serif" font-size="11" fill="#6b7280">2025-05-12</text>
<text class="x-axis-label" x="276.0" y="530" text-anchor="middle" font-family="Arial, sans-serif" font-size="11" fill="#6b7280">2025-08-10</text>
<text class="x-axis-label" x="472.0" y="530" text-anchor="middle" font-family="Arial, sans-serif" font-size="11" fill="#6b7280">2025-11-09</text>
<text class="x-axis-label" x="668.0" y="530" text-anchor="middle" font-family="Arial, sans-serif" font-size="11" fill="#6b7280">2026-02-08</text>
<text class="x-axis-label" x="864.0" y="530" text-anchor="middle" font-family="Arial, sans-serif" font-size="11" fill="#6b7280">2026-05-10</text>
<text class="x-axis-label" x="1060.0" y="530" text-anchor="middle" font-family="Arial, sans-serif" font-size="11" fill="#6b7280">2026-08-09</text>
<line id="forecast-start-line" x1="867.9" y1="72" x2="867.9" y2="505" stroke="#111827" stroke-width="1.3" stroke-dasharray="5 6" opacity="0.42"/>
<text x="875.9" y="87" font-family="Arial, sans-serif" font-size="11" fill="#374151">forecast start</text>
<path id="probability-corridor" d="M 867.9 339.4 L 870.0 337.5 L 872.2 335.3 L 874.4 332.4 L 876.5 328.9 L 878.7 325.5 L 880.8 323.7 L 883.0 320.7 L 885.2 316.8 L 887.3 315.2 L 889.5 313.1 L 891.6 312.3 L 893.8 308.3 L 895.9 306.2 L 898.1 303.6 L 900.3 302.4 L 902.4 291.1 L 904.6 289.8 L 906.7 287.2 L 908.9 283.3 L 911.1 283.1 L 913.2 280.8 L 915.4 279.8 L 917.5 278.2 L 919.7 275.1 L 921.9 272.3 L 924.0 269.2 L 926.2 267.0 L 928.3 264.3 L 930.5 265.9 L 932.6 266.9 L 934.8 263.9 L 937.0 257.5 L 939.1 258.6 L 941.3 259.9 L 943.4 255.6 L 945.6 257.3 L 947.8 253.1 L 949.9 252.6 L 952.1 250.2 L 954.2 248.0 L 956.4 243.5 L 958.5 240.6 L 960.7 236.6 L 962.9 232.3 L 965.0 234.2 L 967.2 233.6 L 969.3 228.0 L 971.5 222.8 L 973.7 223.8 L 975.8 226.7 L 978.0 221.2 L 980.1 223.2 L 982.3 217.5 L 984.4 215.4 L 986.6 214.0 L 988.8 209.1 L 990.9 205.3 L 993.1 201.2 L 995.2 196.7 L 997.4 190.7 L 999.6 194.2 L 1001.7 192.5 L 1003.9 184.5 L 1006.0 135.5 L 1008.2 134.0 L 1010.4 138.3 L 1012.5 130.7 L 1014.7 127.5 L 1016.8 125.0 L 1019.0 121.9 L 1021.1 122.0 L 1023.3 118.9 L 1025.5 114.3 L 1027.6 108.5 L 1029.8 110.3 L 1031.9 102.4 L 1034.1 111.6 L 1036.3 110.1 L 1038.4 98.1 L 1040.6 87.2 L 1042.7 84.8 L 1044.9 95.2 L 1047.0 91.1 L 1049.2 84.9 L 1051.4 80.1 L 1053.5 77.3 L 1055.7 79.9 L 1057.8 78.9 L 1060.0 72.0 L 1060.0 500.6 L 1057.8 503.2 L 1055.7 503.9 L 1053.5 504.5 L 1051.4 503.6 L 1049.2 505.0 L 1047.0 504.2 L 1044.9 503.5 L 1042.7 503.9 L 1040.6 502.7 L 1038.4 489.0 L 1036.3 486.5 L 1034.1 480.5 L 1031.9 484.7 L 1029.8 484.4 L 1027.6 483.1 L 1025.5 477.3 L 1023.3 481.5 L 1021.1 482.0 L 1019.0 480.3 L 1016.8 477.9 L 1014.7 479.8 L 1012.5 476.6 L 1010.4 475.6 L 1008.2 475.2 L 1006.0 475.6 L 1003.9 470.7 L 1001.7 468.6 L 999.6 464.4 L 997.4 466.9 L 995.2 465.4 L 993.1 464.9 L 990.9 458.9 L 988.8 464.0 L 986.6 463.8 L 984.4 461.3 L 982.3 458.6 L 980.1 461.0 L 978.0 457.2 L 975.8 458.7 L 973.7 458.2 L 971.5 458.3 L 969.3 463.2 L 967.2 461.4 L 965.0 459.1 L 962.9 461.2 L 960.7 458.1 L 958.5 456.2 L 956.4 450.5 L 954.2 454.1 L 952.1 453.6 L 949.9 450.6 L 947.8 448.9 L 945.6 450.3 L 943.4 445.8 L 941.3 447.2 L 939.1 445.6 L 937.0 444.5 L 934.8 451.5 L 932.6 449.1 L 930.5 448.1 L 928.3 448.0 L 926.2 442.9 L 924.0 440.1 L 921.9 431.7 L 919.7 433.9 L 917.5 431.6 L 915.4 429.1 L 913.2 426.3 L 911.1 426.8 L 908.9 422.5 L 906.7 420.0 L 904.6 420.3 L 902.4 417.9 L 900.3 435.2 L 898.1 429.6 L 895.9 422.2 L 893.8 412.7 L 891.6 401.0 L 889.5 397.0 L 887.3 389.1 L 885.2 385.5 L 883.0 381.6 L 880.8 377.6 L 878.7 374.1 L 876.5 371.6 L 874.4 367.5 L 872.2 366.6 L 870.0 362.3 L 867.9 359.7 Z" fill="#dc2626" fill-opacity="0.13" stroke="none"/>
<path d="M 80.0 243.8 L 82.2 237.1 L 84.3 240.1 L 86.5 238.8 L 88.6 240.4 L 90.8 242.1 L 93.0 225.0 L 95.1 229.5 L 97.3 223.0 L 99.4 208.6 L 101.6 198.0 L 103.7 220.5 L 105.9 218.3 L 108.1 211.9 L 110.2 209.7 L 112.4 212.2 L 114.5 218.2 L 116.7 229.4 L 118.9 237.7 L 121.0 234.6 L 123.2 229.2 L 125.3 228.1 L 127.5 230.5 L 129.6 234.0 L 131.8 250.4 L 134.0 236.1 L 136.1 229.6 L 138.3 228.7 L 140.4 205.4 L 142.6 205.3 L 144.8 213.7 L 146.9 229.0 L 149.1 227.0 L 151.2 230.3 L 153.4 229.4 L 155.6 223.2 L 157.7 234.8 L 159.9 233.1 L 162.0 234.2 L 164.2 241.2 L 166.3 247.3 L 168.5 253.2 L 170.7 230.8 L 172.8 226.9 L 175.0 220.4 L 177.1 222.5 L 179.3 221.9 L 181.5 220.7 L 183.6 215.2 L 185.8 221.4 L 187.9 229.0 L 190.1 212.7 L 192.2 208.9 L 194.4 217.1 L 196.6 216.0 L 198.7 210.9 L 200.9 215.7 L 203.0 212.3 L 205.2 200.4 L 207.4 175.8 L 209.5 168.0 L 211.7 168.6 L 213.8 160.0 L 216.0 156.1 L 218.1 166.9 L 220.3 162.4 L 222.5 159.6 L 224.6 166.0 L 226.8 166.4 L 228.9 169.4 L 231.1 168.8 L 233.3 155.6 L 235.4 161.7 L 237.6 163.9 L 239.7 167.6 L 241.9 166.0 L 244.1 158.3 L 246.2 165.3 L 248.4 165.9 L 250.5 166.4 L 252.7 177.1 L 254.8 189.8 L 257.0 193.7 L 259.2 185.1 L 261.3 180.8 L 263.5 185.5 L 265.6 181.1 L 267.8 168.3 L 270.0 172.4 L 272.1 173.5 L 274.3 159.0 L 276.4 162.1 L 278.6 154.6 L 280.7 138.3 L 282.9 164.1 L 285.1 169.0 L 287.2 168.8 L 289.4 168.7 L 291.5 174.7 L 293.7 192.0 L 295.9 184.8 L 298.0 193.9 L 300.2 171.1 L 302.3 178.8 L 304.5 188.8 L 306.7 206.2 L 308.8 197.7 L 311.0 200.3 L 313.1 193.6 L 315.3 215.1 L 317.4 212.8 L 319.6 215.8 L 321.8 210.7 L 323.9 200.4 L 326.1 198.0 L 328.2 203.0 L 330.4 203.4 L 332.6 205.8 L 334.7 200.9 L 336.9 196.1 L 339.0 198.8 L 341.2 186.4 L 343.3 178.6 L 345.5 175.7 L 347.7 176.3 L 349.8 179.7 L 352.0 179.2 L 354.1 171.8 L 356.3 173.6 L 358.5 170.4 L 360.6 177.8 L 362.8 177.5 L 364.9 179.8 L 367.1 193.1 L 369.3 196.5 L 371.4 189.7 L 373.6 211.9 L 375.7 208.6 L 377.9 208.6 L 380.0 195.6 L 382.2 184.6 L 384.4 185.9 L 386.5 162.6 L 388.7 152.6 L 390.8 143.8 L 393.0 143.0 L 395.2 137.4 L 397.3 131.4 L 399.5 148.5 L 401.6 138.3 L 403.8 146.8 L 405.9 192.5 L 408.1 203.4 L 410.3 181.3 L 412.4 180.2 L 414.6 191.2 L 416.7 202.8 L 418.9 216.0 L 421.1 225.1 L 423.2 221.2 L 425.4 213.7 L 427.5 204.0 L 429.7 215.5 L 431.9 219.3 L 434.0 206.4 L 436.2 201.6 L 438.3 198.3 L 440.5 183.3 L 442.6 185.6 L 444.8 191.8 L 447.0 206.6 L 449.1 215.4 L 451.3 208.8 L 453.4 206.3 L 455.6 204.0 L 457.8 224.3 L 459.9 250.5 L 462.1 238.2 L 464.2 251.3 L 466.4 241.0 L 468.5 246.3 L 470.7 233.9 L 472.9 227.3 L 475.0 242.5 L 477.2 249.7 L 479.3 259.8 L 481.5 286.0 L 483.7 280.8 L 485.8 287.7 L 488.0 298.2 L 490.1 294.4 L 492.3 301.6 L 494.4 326.9 L 496.6 334.7 L 498.8 336.7 L 500.9 325.9 L 503.1 318.4 L 505.2 323.1 L 507.4 307.1 L 509.6 302.8 L 511.7 305.0 L 513.9 305.5 L 516.0 307.8 L 518.2 328.7 L 520.4 303.0 L 522.5 292.0 L 524.7 298.9 L 526.8 313.1 L 529.0 313.5 L 531.1 307.6 L 533.3 306.4 L 535.5 295.8 L 537.6 299.2 L 539.8 296.7 L 541.9 308.2 L 544.1 308.4 L 546.3 319.0 L 548.4 328.0 L 550.6 320.6 L 552.7 328.9 L 554.9 332.7 L 557.0 319.2 L 559.2 318.0 L 561.4 316.5 L 563.5 316.7 L 565.7 322.5 L 567.8 321.6 L 570.0 323.9 L 572.2 323.1 L 574.3 320.5 L 576.5 320.1 L 578.6 323.8 L 580.8 317.4 L 583.0 321.7 L 585.1 315.6 L 587.3 309.6 L 589.4 306.4 L 591.6 301.7 L 593.7 289.8 L 595.9 290.3 L 598.1 302.6 L 600.2 304.0 L 602.4 306.3 L 604.5 307.0 L 606.7 304.4 L 608.9 302.9 L 611.0 281.8 L 613.2 273.9 L 615.3 280.8 L 617.5 281.1 L 619.6 283.1 L 621.8 290.7 L 624.0 296.1 L 626.1 317.7 L 628.3 312.4 L 630.4 311.9 L 632.6 311.7 L 634.8 313.6 L 636.9 326.7 L 639.1 318.1 L 641.2 313.5 L 643.4 313.2 L 645.6 337.1 L 647.7 339.1 L 649.9 367.5 L 652.0 376.6 L 654.2 367.5 L 656.3 382.8 L 658.5 396.2 L 660.7 448.9 L 662.8 409.5 L 665.0 416.1 L 667.1 410.8 L 669.3 411.8 L 671.5 418.4 L 673.6 427.5 L 675.8 431.6 L 677.9 418.4 L 680.1 413.4 L 682.2 418.5 L 684.4 418.2 L 686.6 425.3 L 688.7 430.7 L 690.9 427.9 L 693.0 422.7 L 695.2 422.9 L 697.4 424.6 L 699.5 440.0 L 701.7 443.0 L 703.8 422.8 L 706.0 425.4 L 708.1 433.7 L 710.3 428.0 L 712.5 434.2 L 714.6 418.5 L 716.8 421.0 L 718.9 398.8 L 721.1 407.9 L 723.3 422.2 L 725.4 426.5 L 727.6 433.2 L 729.7 420.5 L 731.9 412.7 L 734.1 411.5 L 736.2 409.7 L 738.4 407.7 L 740.5 406.2 L 742.7 398.0 L 744.8 387.4 L 747.0 392.4 L 749.2 406.1 L 751.3 412.8 L 753.5 409.8 L 755.6 418.0 L 757.8 423.5 L 760.0 407.8 L 762.1 409.6 L 764.3 405.6 L 766.4 418.5 L 768.6 431.0 L 770.7 431.1 L 772.9 433.0 L 775.1 428.9 L 777.2 421.3 L 779.4 422.2 L 781.5 428.4 L 783.7 428.1 L 785.9 426.4 L 788.0 417.4 L 790.2 418.4 L 792.3 402.6 L 794.5 407.0 L 796.7 403.3 L 798.8 397.2 L 801.0 396.8 L 803.1 408.7 L 805.3 389.8 L 807.4 391.2 L 809.6 387.7 L 811.8 386.0 L 813.9 376.1 L 816.1 383.2 L 818.2 392.9 L 820.4 382.4 L 822.6 379.9 L 824.7 370.4 L 826.9 370.0 L 829.0 374.2 L 831.2 373.3 L 833.3 367.9 L 835.5 374.6 L 837.7 379.9 L 839.8 382.7 L 842.0 379.8 L 844.1 370.1 L 846.3 367.8 L 848.5 368.4 L 850.6 361.8 L 852.8 356.4 L 854.9 353.6 L 857.1 361.0 L 859.3 360.1 L 861.4 357.6 L 863.6 349.7 L 865.7 352.1" fill="none" stroke="#2563eb" stroke-width="2.2"/>
<path d="M 867.9 348.6 L 870.0 348.8 L 872.2 349.7 L 874.4 350.3 L 876.5 349.6 L 878.7 349.4 L 880.8 349.6 L 883.0 349.7 L 885.2 349.0 L 887.3 350.2 L 889.5 351.7 L 891.6 353.1 L 893.8 356.1 L 895.9 354.5 L 898.1 355.8 L 900.3 358.4 L 902.4 353.6 L 904.6 354.6 L 906.7 355.0 L 908.9 355.2 L 911.1 354.7 L 913.2 356.4 L 915.4 356.1 L 917.5 356.3 L 919.7 354.8 L 921.9 355.0 L 924.0 354.8 L 926.2 355.2 L 928.3 356.7 L 930.5 356.5 L 932.6 356.3 L 934.8 358.1 L 937.0 356.8 L 939.1 356.5 L 941.3 357.4 L 943.4 358.0 L 945.6 358.4 L 947.8 358.6 L 949.9 358.8 L 952.1 358.7 L 954.2 357.5 L 956.4 356.6 L 958.5 356.3 L 960.7 356.7 L 962.9 356.5 L 965.0 355.6 L 967.2 354.7 L 969.3 354.1 L 971.5 359.3 L 973.7 357.7 L 975.8 358.9 L 978.0 359.9 L 980.1 361.3 L 982.3 360.3 L 984.4 361.5 L 986.6 360.6 L 988.8 359.1 L 990.9 358.0 L 993.1 357.6 L 995.2 357.5 L 997.4 357.3 L 999.6 357.2 L 1001.7 355.9 L 1003.9 353.0 L 1006.0 346.9 L 1008.2 343.0 L 1010.4 343.9 L 1012.5 346.1 L 1014.7 347.4 L 1016.8 347.9 L 1019.0 349.6 L 1021.1 346.7 L 1023.3 344.9 L 1025.5 343.9 L 1027.6 344.1 L 1029.8 346.1 L 1031.9 347.7 L 1034.1 349.6 L 1036.3 347.6 L 1038.4 344.7 L 1040.6 342.7 L 1042.7 339.2 L 1044.9 340.7 L 1047.0 343.2 L 1049.2 343.8 L 1051.4 343.9 L 1053.5 345.3 L 1055.7 342.1 L 1057.8 340.6 L 1060.0 339.7" fill="none" stroke="#dc2626" stroke-width="2.4" stroke-dasharray="8 5"/>
<circle cx="88" cy="586" r="5" fill="#2563eb"/><text x="100" y="590" font-family="Arial, sans-serif" font-size="13" fill="#374151">history</text>
<circle cx="178" cy="586" r="5" fill="#dc2626"/><text x="190" y="590" font-family="Arial, sans-serif" font-size="13" fill="#374151">forecast</text>
<rect x="265" y="581" width="22" height="10" rx="2" fill="#dc2626" fill-opacity="0.18"/><text x="296" y="590" font-family="Arial, sans-serif" font-size="13" fill="#374151">10-90% probability corridor</text>
</svg>
